<svg width="24" height="24" viewBox="0 0 24 24" fill="none" xmlns="http://www.w3.org/2000/svg">
<mask id="path-1-inside-1" fill="white">
<path fill-rule="evenodd" clip-rule="evenodd" d="M22.6667 12C22.6667 17.891 17.891 22.6667 12 22.6667C6.10896 22.6667 1.33333 17.891 1.33333 12C1.33333 6.10896 6.10896 1.33333 12 1.33333C17.891 1.33333 22.6667 6.10896 22.6667 12ZM24 12C24 18.6274 18.6274 24 12 24C5.37258 24 0 18.6274 0 12C0 5.37258 5.37258 0 12 0C18.6274 0 24 5.37258 24 12ZM18.6667 12C18.6667 15.6819 15.6819 18.6667 12 18.6667C8.3181 18.6667 5.33333 15.6819 5.33333 12C5.33333 8.3181 8.3181 5.33333 12 5.33333C15.6819 5.33333 18.6667 8.3181 18.6667 12ZM12 13.3333C12.7364 13.3333 13.3333 12.7364 13.3333 12C13.3333 11.2636 12.7364 10.6667 12 10.6667C11.2636 10.6667 10.6667 11.2636 10.6667 12C10.6667 12.7364 11.2636 13.3333 12 13.3333ZM12 14.6667C13.4728 14.6667 14.6667 13.4728 14.6667 12C14.6667 10.5272 13.4728 9.33333 12 9.33333C10.5272 9.33333 9.33333 10.5272 9.33333 12C9.33333 13.4728 10.5272 14.6667 12 14.6667Z"/>
</mask>
<path fill-rule="evenodd" clip-rule="evenodd" d="M22.6667 12C22.6667 17.891 17.891 22.6667 12 22.6667C6.10896 22.6667 1.33333 17.891 1.33333 12C1.33333 6.10896 6.10896 1.33333 12 1.33333C17.891 1.33333 22.6667 6.10896 22.6667 12ZM24 12C24 18.6274 18.6274 24 12 24C5.37258 24 0 18.6274 0 12C0 5.37258 5.37258 0 12 0C18.6274 0 24 5.37258 24 12ZM18.6667 12C18.6667 15.6819 15.6819 18.6667 12 18.6667C8.3181 18.6667 5.33333 15.6819 5.33333 12C5.33333 8.3181 8.3181 5.33333 12 5.33333C15.6819 5.33333 18.6667 8.3181 18.6667 12ZM12 13.3333C12.7364 13.3333 13.3333 12.7364 13.3333 12C13.3333 11.2636 12.7364 10.6667 12 10.6667C11.2636 10.6667 10.6667 11.2636 10.6667 12C10.6667 12.7364 11.2636 13.3333 12 13.3333ZM12 14.6667C13.4728 14.6667 14.6667 13.4728 14.6667 12C14.6667 10.5272 13.4728 9.33333 12 9.33333C10.5272 9.33333 9.33333 10.5272 9.33333 12C9.33333 13.4728 10.5272 14.6667 12 14.6667Z" fill="#757B75"/>
<path d="M12 23.6667C18.4433 23.6667 23.6667 18.4433 23.6667 12H21.6667C21.6667 17.3388 17.3388 21.6667 12 21.6667V23.6667ZM0.333333 12C0.333333 18.4433 5.55668 23.6667 12 23.6667V21.6667C6.66125 21.6667 2.33333 17.3388 2.33333 12H0.333333ZM12 0.333333C5.55668 0.333333 0.333333 5.55668 0.333333 12H2.33333C2.33333 6.66125 6.66125 2.33333 12 2.33333V0.333333ZM23.6667 12C23.6667 5.55668 18.4433 0.333333 12 0.333333V2.33333C17.3388 2.33333 21.6667 6.66125 21.6667 12H23.6667ZM12 25C19.1797 25 25 19.1797 25 12H23C23 18.0751 18.0751 23 12 23V25ZM-1 12C-1 19.1797 4.8203 25 12 25V23C5.92487 23 1 18.0751 1 12H-1ZM12 -1C4.8203 -1 -1 4.8203 -1 12H1C1 5.92487 5.92487 1 12 1V-1ZM25 12C25 4.8203 19.1797 -1 12 -1V1C18.0751 1 23 5.92487 23 12H25ZM12 19.6667C16.2342 19.6667 19.6667 16.2342 19.6667 12H17.6667C17.6667 15.1296 15.1296 17.6667 12 17.6667V19.6667ZM4.33333 12C4.33333 16.2342 7.76582 19.6667 12 19.6667V17.6667C8.87039 17.6667 6.33333 15.1296 6.33333 12H4.33333ZM12 4.33333C7.76582 4.33333 4.33333 7.76582 4.33333 12H6.33333C6.33333 8.87039 8.87039 6.33333 12 6.33333V4.33333ZM19.6667 12C19.6667 7.76582 16.2342 4.33333 12 4.33333V6.33333C15.1296 6.33333 17.6667 8.87039 17.6667 12H19.6667ZM12.3333 12C12.3333 12.1841 12.1841 12.3333 12 12.3333V14.3333C13.2887 14.3333 14.3333 13.2887 14.3333 12H12.3333ZM12 11.6667C12.1841 11.6667 12.3333 11.8159 12.3333 12H14.3333C14.3333 10.7113 13.2887 9.66667 12 9.66667V11.6667ZM11.6667 12C11.6667 11.8159 11.8159 11.6667 12 11.6667V9.66667C10.7113 9.66667 9.66667 10.7113 9.66667 12H11.6667ZM12 12.3333C11.8159 12.3333 11.6667 12.1841 11.6667 12H9.66667C9.66667 13.2887 10.7113 14.3333 12 14.3333V12.3333ZM13.6667 12C13.6667 12.9205 12.9205 13.6667 12 13.6667V15.6667C14.025 15.6667 15.6667 14.025 15.6667 12H13.6667ZM12 10.3333C12.9205 10.3333 13.6667 11.0795 13.6667 12H15.6667C15.6667 9.97496 14.025 8.33333 12 8.33333V10.3333ZM10.3333 12C10.3333 11.0795 11.0795 10.3333 12 10.3333V8.33333C9.97496 8.33333 8.33333 9.97496 8.33333 12H10.3333ZM12 13.6667C11.0795 13.6667 10.3333 12.9205 10.3333 12H8.33333C8.33333 14.025 9.97496 15.6667 12 15.6667V13.6667Z" fill="#757B75" mask="url(#path-1-inside-1)"/>
</svg>
