<svg width="105" height="66" viewBox="0 0 105 66" fill="none" xmlns="http://www.w3.org/2000/svg">
<circle cx="49" cy="38" r="28" fill="#9DD1B2"/>
<g clip-path="url(#clip0)">
<path d="M104.762 49.7524C104.779 49.7182 104.779 49.667 104.796 49.6329L50.5051 31.9959C50.5051 31.9617 50.522 31.9446 50.522 31.9105L65.733 35.8033C65.6991 35.4106 65.6312 35.1203 65.6312 34.8471C65.6312 34.1813 65.3086 33.874 64.6975 33.6691C63.3903 33.2252 62.1 32.713 60.8098 32.2178C59.4857 31.7227 58.1615 31.2105 56.8373 30.7153C56.8543 30.6812 56.8543 30.647 56.8713 30.6129L88.0232 39.4912C88.0402 39.457 88.0402 39.4229 88.0572 39.3887L64.7144 30.2544C65.0879 29.8617 65.3765 29.5202 65.6991 29.2129C67.5665 27.386 69.2472 25.4055 70.7411 23.2713C72.0313 21.4273 73.1518 19.498 73.712 17.2955C74.425 14.5808 74.9173 11.8149 74.9513 8.99777C74.9683 7.61481 75.4097 6.28307 76.2245 5.17329C76.8697 4.25132 77.5827 3.38057 78.2278 2.45859C78.8899 1.51955 78.6013 0.717091 77.4808 0.37562C76.4792 0.0341483 75.3757 0.18781 74.4929 0.802459C73.0669 1.8098 71.8616 3.09032 71.5899 4.88304C71.3523 6.55625 71.1995 8.24653 71.1655 9.93682C71.0467 13.1979 70.5883 16.3565 68.9586 19.2248C67.3628 21.9908 65.4274 24.5518 63.2375 26.8567C61.9133 28.2568 60.4194 28.8372 58.6029 28.5811C56.5996 28.308 54.5964 27.9494 52.6101 27.5567C47.1946 26.5323 41.7791 25.4738 36.3806 24.4152C35.9901 24.3298 35.6336 24.1249 35.345 23.8347C34.9036 23.3225 34.3094 22.9639 33.6643 22.8103C33.2059 22.7078 32.7646 22.5371 32.3062 22.3834C30.999 21.9566 29.6918 21.5298 28.3676 21.1029C28.3676 21.0859 28.3846 21.0688 28.3846 21.0517L45.4121 25.0298C45.4291 24.9786 45.446 24.9103 45.463 24.8591L28.5883 19.4297C28.6053 19.3956 28.6053 19.3443 28.6223 19.3102L32.1025 19.8395C31.3895 19.2248 30.6085 18.7809 29.8785 18.2687C29.1485 17.7565 28.3506 17.4833 27.5018 17.5858C26.0588 17.7736 24.6158 18.0809 23.1728 18.3029C22.8842 18.3541 22.4937 18.3541 22.29 18.1833C20.7112 16.9199 18.9287 16.4589 16.9424 16.7662C15.8389 16.937 14.7694 16.8687 13.7848 16.1687C13.4113 15.9296 13.0208 15.776 12.5964 15.6735C11.5778 15.4004 10.9836 15.6735 10.3725 16.5272C10.2197 16.715 9.99899 16.8345 9.76132 16.8687C7.94483 17.0394 6.39996 17.7907 5.04183 18.9858C4.65137 19.3443 4.43068 19.7541 4.60044 20.3175C4.73626 20.7615 4.58347 21.1371 4.20998 21.4615C3.78557 21.8712 3.39511 22.2981 3.02162 22.742C2.68209 23.1347 2.71605 23.4762 3.02162 23.903C3.6158 24.7396 4.17603 25.5933 4.73626 26.447C5.05881 26.9421 5.48323 27.0787 6.02648 26.8738C6.21322 26.8226 6.38298 26.7201 6.53577 26.6006C7.31669 25.8494 8.08064 25.8835 8.94644 26.4811C9.79527 27.0616 10.6441 26.925 11.459 26.2933C12.3927 25.5933 13.9885 26.0884 14.4468 27.164C15.1599 28.8373 15.9068 30.4934 16.6368 32.1666C16.6538 32.1837 16.6029 32.2349 16.6198 32.2178C15.6352 32.1837 14.6506 32.2007 13.6829 32.1324C12.6643 32.0642 11.6627 31.8763 10.6441 31.8763C9.47272 31.8763 8.40319 32.3032 7.80901 33.3959C7.50344 33.9764 7.28274 34.591 7.14693 35.2228C6.68856 37.0326 7.07902 38.6716 8.2504 40.1058C8.84458 40.8229 10.1688 40.7546 10.3555 39.9521C10.5762 39.0302 11.1025 38.0741 10.2367 37.1009C9.54062 36.3155 10.0499 35.2228 11.0855 35.0179C11.5099 34.9154 11.9513 34.9325 12.3587 35.035C14.2771 35.6155 16.1785 36.2813 18.1138 36.8448C20.1 37.4082 22.1372 37.8692 24.1405 38.3814C24.6667 38.518 24.9553 38.3984 24.9893 37.7838C25.0572 36.6057 25.193 35.4447 25.2779 34.2837C25.3118 33.7374 25.3118 33.191 25.3288 32.6617C25.7532 34.1642 26.1946 35.6667 25.8721 37.2204C25.7872 37.6472 25.9909 37.835 26.3304 37.9375C28.1809 38.4667 29.9974 39.1497 31.8818 39.4741C38.1461 40.5326 44.4274 41.4717 50.7088 42.4449C51.4727 42.5644 52.2367 42.6668 53.0006 42.7864C53.0006 42.7522 53.0176 42.701 53.0176 42.6668C46.94 41.1131 40.8624 39.5595 34.7848 38.0058C36.5333 38.1423 38.265 38.3643 39.9966 38.6033C41.5924 38.8253 43.1712 39.0131 44.8179 38.7058C46.1421 38.4838 47.4832 38.4155 48.8244 38.518C52.1009 38.6887 54.7662 40.0717 56.6675 42.8205C57.3636 43.8278 58.0426 44.8181 58.6538 45.8767C59.4177 47.1743 60.5212 48.0279 61.8793 48.5743C62.4735 48.8304 63.0847 49.0353 63.7128 49.1889C65.9028 49.667 68.1097 50.1109 70.3167 50.5207C71.2674 50.6914 72.1671 51.1012 72.9141 51.7329C74.8664 53.3549 76.3943 55.3525 77.9052 57.3672C78.771 58.5282 79.6878 59.655 80.6384 60.7477C81.1138 61.3112 81.9966 61.1917 82.2852 60.5941C82.5398 60.0648 82.5908 59.5184 82.2682 58.9721C82.1663 58.8014 82.0135 58.6135 82.0305 58.4599C82.1154 57.8282 81.7759 57.4525 81.3515 57.0599C80.8931 56.633 80.4687 56.155 79.9933 55.7452C78.092 54.0549 76.598 51.9549 75.6304 49.5816C75.4945 49.3255 75.2569 49.1377 74.9853 49.0353C71.3183 47.5328 67.6514 46.0645 63.9844 44.5791C63.7468 44.4766 63.5261 44.3913 63.2884 44.2888C63.3054 44.2547 63.3224 44.2035 63.3224 44.1693L94.2197 51.9549C94.0839 51.8012 93.9141 51.6988 93.7104 51.6475C85.1542 48.8645 76.615 46.0816 68.0418 43.3498C67.0063 43.0254 66.4291 42.5644 66.446 41.4717C66.446 41.0107 66.1744 40.857 65.8009 40.7375C63.6279 40.0034 61.4719 39.2521 59.2989 38.5009L53.476 36.5033C53.476 36.4691 53.4929 36.4521 53.5099 36.4179L104.762 49.7524ZM5.66997 21.8542C5.75485 21.4785 5.7209 21.0859 5.85671 21.0176C6.26415 20.8127 6.73949 20.5566 7.26576 21.0005L5.66997 21.8542ZM13.1736 20.9834C13.1057 20.2322 13.1227 19.4126 12.919 18.6614C12.5624 17.2955 12.1041 17.1077 10.8139 17.637C10.6781 17.6882 10.5422 17.7394 10.3725 17.8077C10.746 17.1931 11.6118 16.6126 12.2399 16.5955C12.4436 16.6126 12.6473 16.6809 12.8001 16.8345C13.8017 17.7053 13.9715 19.9419 13.1736 20.9834Z" fill="#2BA55D"/>
<path d="M0.661998 37.1179C0.373396 37.5106 0.203631 38.0058 0.169678 38.5009C0.186654 38.8765 0.35642 39.2351 0.645021 39.457C0.882693 39.6107 1.30711 39.4741 1.64664 39.457C1.78245 39.44 1.91826 39.3375 2.0371 39.3717C2.97081 39.5253 3.32732 39.4399 3.73475 38.6204C4.2101 37.6814 4.95707 37.2716 5.92473 37.1009C6.0945 37.0667 6.23031 36.9472 6.31519 36.7936C6.50193 35.8033 6.65472 34.7959 6.85844 33.5667C5.3645 34.1472 3.9215 34.5911 2.59732 35.274C1.85036 35.6667 1.2392 36.435 0.661998 37.1179Z" fill="#2BA55D"/>
<path d="M60.1987 50.3499C57.4485 49.6841 54.7322 48.8645 51.9481 48.3694C47.7548 47.6182 43.5277 47.0889 39.3175 46.4742C38.1461 46.3035 36.9747 46.1328 35.8034 45.962C35.8034 45.9962 35.7864 46.0303 35.7864 46.0645L70.5544 53.0134C70.3506 52.8768 70.1299 52.7744 69.8923 52.7232C66.6497 51.9548 63.4242 51.1524 60.1987 50.3499Z" fill="#2BA55D"/>
<path d="M43.5618 45.262L43.5788 45.1596L24.8367 41.2498L24.8027 41.3863C26.3816 41.8815 27.9604 42.3937 29.5562 42.8547C31.0671 43.2986 32.578 43.7766 34.1059 44.0669C36.0412 44.4254 37.9935 44.5791 39.9458 44.8181C41.1681 44.9547 42.3565 45.1084 43.5618 45.262Z" fill="#2BA55D"/>
<path d="M11.3233 35.7521C10.9838 35.8033 10.6103 35.9569 10.7461 36.3496C10.848 36.6399 11.1706 36.9984 11.4422 37.0496C13.038 37.2887 14.6338 37.4253 16.2296 37.6472C17.2482 37.7838 18.2498 38.0058 19.2514 38.1765L19.3193 37.9204C16.8747 37.2033 14.43 36.4691 11.9685 35.7521C11.7647 35.7179 11.544 35.7179 11.3233 35.7521Z" fill="#2BA55D"/>
<path d="M13.1737 20.9663C13.1058 20.215 13.1228 19.3955 12.919 18.6443C12.5625 17.2784 12.1042 17.0906 10.8139 17.6199C10.6781 17.6711 10.5423 17.7223 10.3726 17.7906C10.746 17.1759 11.6118 16.5954 12.24 16.5784C12.4437 16.5954 12.6474 16.6808 12.8002 16.8174C13.8018 17.7052 13.9716 19.9419 13.1737 20.9663Z" fill="#237745"/>
<path d="M22.0356 22.3663C21.8319 22.4176 21.6452 22.4858 21.4584 22.5712C21.3736 22.6224 21.3396 22.7078 21.3396 22.8102C21.4075 23.0322 21.5094 23.2371 21.6112 23.442C21.6622 23.4932 21.7301 23.5103 21.798 23.4761C22.0526 23.3395 22.2563 23.1005 22.3582 22.8273C22.4261 22.5883 22.3073 22.4176 22.0356 22.3663Z" fill="#131413"/>
<path d="M19.9814 20.7785C20.1682 20.7443 20.3549 20.7102 20.5416 20.6419C20.6265 20.6248 20.6944 20.5565 20.7284 20.4882C20.8133 20.3346 20.7454 20.1468 20.5926 20.0614C20.4568 19.976 20.304 19.8907 20.1342 19.8395C20.1342 19.8395 20.1172 19.8224 20.1003 19.8224C19.9814 19.7712 19.8456 19.8395 19.7947 19.959C19.7268 20.0785 19.6758 20.198 19.6419 20.3346C19.557 20.6931 19.591 20.7443 19.9814 20.7785Z" fill="#131413"/>
<path d="M19.2345 23.5103C19.1156 23.4249 18.9798 23.3566 18.844 23.3054C18.827 23.3054 18.827 23.2883 18.8101 23.2883C18.7082 23.2542 18.5894 23.3054 18.5554 23.4078C18.4875 23.5615 18.4366 23.7322 18.4026 23.903C18.3857 24.0054 18.4366 24.0737 18.5384 24.0737C18.5894 24.0737 18.6573 24.0908 18.7082 24.0908V24.1078C18.861 24.0908 19.0308 24.0566 19.1836 24.0054C19.2515 23.9883 19.3194 23.9371 19.3533 23.8688C19.4212 23.7493 19.3703 23.5786 19.2345 23.5103Z" fill="#131413"/>
<path d="M18.0631 21.2395C17.9103 21.3078 17.7745 21.3932 17.6556 21.5127C17.6047 21.581 17.5877 21.6664 17.6217 21.7517C17.7235 21.9054 17.8424 22.042 17.9782 22.1615C18.0291 22.1786 18.097 22.1786 18.1479 22.1444C18.2668 21.9566 18.3686 21.7517 18.4365 21.6493C18.4705 21.2907 18.3007 21.1371 18.0631 21.2395Z" fill="#131413"/>
<path d="M17.1632 18.9517C17.2142 19.02 17.2821 19.0712 17.367 19.0883C17.5367 19.1224 17.7065 19.0029 17.7404 18.8322C17.7914 18.6614 17.8253 18.5078 17.8423 18.337C17.8423 18.32 17.8423 18.32 17.8423 18.3029C17.8593 18.1663 17.7574 18.0639 17.6386 18.0468C17.5028 18.0126 17.367 18.0126 17.2311 18.0126C16.8407 18.0126 16.8237 18.0639 16.8916 18.4395C16.9765 18.6273 17.0614 18.798 17.1632 18.9517Z" fill="#131413"/>
<path d="M15.4826 21.3078C15.8222 21.2395 15.924 21.0176 15.7712 20.8298C15.6694 20.7103 15.5505 20.5907 15.3977 20.5054C15.3129 20.4712 15.228 20.4883 15.1601 20.5395C15.0412 20.6761 14.9394 20.8468 14.8545 21.0005C14.8545 21.0688 14.8715 21.12 14.9224 21.1542C15.1431 21.2225 15.3638 21.2737 15.4826 21.3078Z" fill="#131413"/>
<path d="M15.9918 23.1859C15.873 23.1518 15.7541 23.1006 15.6353 23.0835C15.5844 23.1347 15.4655 23.1689 15.4486 23.2372C15.4146 23.3737 15.3976 23.5274 15.4146 23.664C15.4146 23.6981 15.4995 23.7835 15.5335 23.7835C15.7202 23.7494 15.89 23.6811 16.0597 23.5957C16.1107 23.5616 16.1446 23.5103 16.1616 23.4591C16.1786 23.3225 16.0937 23.203 15.9918 23.1859Z" fill="#131413"/>
<path d="M15.5507 25.6274C15.4318 25.5933 15.313 25.542 15.1942 25.525C15.1432 25.5762 15.0244 25.6103 15.0074 25.6786C14.9735 25.8152 14.9565 25.9689 14.9735 26.1055C14.9735 26.1396 15.0583 26.225 15.0923 26.225C15.279 26.1908 15.4488 26.1225 15.6186 26.0372C15.6695 26.003 15.7035 25.9518 15.7204 25.9006C15.7374 25.7811 15.6695 25.6616 15.5507 25.6274Z" fill="#131413"/>
<path d="M43.7146 36.5374C43.5109 36.5886 43.3241 36.6569 43.1374 36.7423C43.0525 36.7935 43.0186 36.8789 43.0186 36.9813C43.0865 37.2033 43.1883 37.4082 43.2902 37.6131C43.3411 37.6643 43.409 37.6813 43.4769 37.6472C43.7316 37.5106 43.9353 37.2716 44.0371 36.9984C44.105 36.7423 43.9692 36.5716 43.7146 36.5374Z" fill="#131413"/>
<path d="M42.781 26.8397C42.6452 26.7543 42.4924 26.6689 42.3226 26.6006C42.3226 26.6006 42.3056 26.5836 42.2887 26.5836C42.1698 26.5323 42.034 26.6006 41.9831 26.7201C41.9152 26.8397 41.8642 26.9592 41.8303 27.0958C41.7284 27.4714 41.7624 27.5055 42.1528 27.5567C42.3396 27.5226 42.5263 27.4884 42.7131 27.4202C42.7979 27.4031 42.8658 27.3348 42.8998 27.2665C42.9847 27.1128 42.9337 26.9079 42.781 26.8397Z" fill="#131413"/>
<path d="M49.5716 37.7667C49.4358 37.6814 49.283 37.596 49.1133 37.5277L49.0963 37.5106C48.9774 37.4594 48.8416 37.5277 48.7907 37.6472C48.7228 37.7667 48.6719 37.8862 48.6379 38.0228C48.5361 38.3984 48.57 38.4326 48.9605 38.4838C49.1472 38.4497 49.334 38.4155 49.5207 38.3472C49.6056 38.3302 49.6735 38.2619 49.7074 38.1936C49.7923 38.0399 49.7414 37.8521 49.5716 37.7667Z" fill="#131413"/>
<path d="M37.1278 36.7252C37.009 36.6399 36.8731 36.5716 36.7373 36.5203C36.7204 36.5203 36.7204 36.5033 36.7034 36.5033C36.6015 36.4691 36.4827 36.5203 36.4487 36.6228C36.3808 36.7764 36.3299 36.9472 36.2959 37.1179C36.279 37.2204 36.3299 37.2887 36.4318 37.2887C36.4827 37.2887 36.5506 37.3057 36.6015 37.3057V37.3228C36.7543 37.3057 36.9241 37.2716 37.0769 37.2204C37.1448 37.2033 37.2127 37.1521 37.2466 37.0838C37.3145 36.9643 37.2636 36.7935 37.1278 36.7252Z" fill="#131413"/>
<path d="M39.7252 29.6397C39.5724 29.708 39.4366 29.7933 39.3177 29.9128C39.2668 29.9811 39.2498 30.0665 39.2838 30.1519C39.3856 30.3055 39.5045 30.4421 39.6403 30.5616C39.6912 30.5787 39.7591 30.5787 39.8101 30.5446C39.9289 30.3568 40.0307 30.1519 40.0987 30.0494C40.1326 29.6909 39.9628 29.5372 39.7252 29.6397Z" fill="#131413"/>
<path d="M50.013 28.8714C49.8602 28.9397 49.7244 29.0251 49.6056 29.1446C49.5546 29.2129 49.5377 29.2983 49.5716 29.3836C49.6735 29.5373 49.7923 29.6739 49.9281 29.7934C49.9791 29.8105 50.047 29.8105 50.0979 29.7763C50.2167 29.5885 50.3186 29.3836 50.3865 29.2812C50.4204 28.9226 50.2337 28.7861 50.013 28.8714Z" fill="#131413"/>
<path d="M56.3282 28.1031C56.1754 28.1714 56.0396 28.2567 55.9208 28.3762C55.8698 28.4445 55.8529 28.5299 55.8868 28.6153C55.9887 28.7689 56.1075 28.9055 56.2433 29.025C56.2942 29.0421 56.3621 29.0421 56.4131 29.008C56.5319 28.8201 56.6338 28.6153 56.7017 28.5128C56.7356 28.1543 56.5659 28.0177 56.3282 28.1031Z" fill="#131413"/>
<path d="M37.3144 26.8226C37.1785 26.7885 37.0427 26.7885 36.9069 26.7885C36.5165 26.7885 36.4995 26.8397 36.5674 27.2153C36.6523 27.386 36.7372 27.5568 36.839 27.7104C36.8899 27.7787 36.9578 27.8299 37.0427 27.847C37.2125 27.8812 37.3823 27.7616 37.4162 27.5909C37.4671 27.4202 37.5011 27.2665 37.5181 27.0958C37.5181 27.0787 37.5181 27.0787 37.5181 27.0616C37.5351 26.9592 37.4502 26.8397 37.3144 26.8226Z" fill="#131413"/>
<path d="M35.1584 30.0666C35.4979 29.9983 35.5998 29.7763 35.447 29.5885C35.3451 29.469 35.2263 29.3495 35.0735 29.2641C34.9886 29.23 34.9038 29.247 34.8358 29.2983C34.717 29.4348 34.6152 29.6056 34.5303 29.7592C34.5303 29.8275 34.5473 29.8787 34.5982 29.9129C34.8189 29.9983 35.0396 30.0324 35.1584 30.0666Z" fill="#131413"/>
<path d="M69.6379 19.6346C69.5021 19.5493 69.3493 19.4639 69.1796 19.3956C69.1796 19.3956 69.1626 19.3785 69.1456 19.3785C69.0268 19.3273 68.891 19.3956 68.84 19.5151C68.7721 19.6346 68.7212 19.7542 68.6872 19.8907C68.5854 20.2664 68.6193 20.3005 69.0098 20.3517C69.1965 20.3176 69.3833 20.2834 69.57 20.2151C69.6549 20.1981 69.7228 20.1298 69.7568 20.0615C69.8586 19.8907 69.7907 19.7029 69.6379 19.6346Z" fill="#131413"/>
<path d="M71.1828 22.1273C71.2677 21.9737 71.1998 21.7859 71.047 21.7005C70.9111 21.6151 70.7584 21.5298 70.5886 21.4615L70.5716 21.4444C70.4528 21.3932 70.317 21.4615 70.266 21.581C70.1981 21.7005 70.1472 21.82 70.1133 21.9566C70.0114 22.3322 70.0453 22.3664 70.4358 22.4176C70.6225 22.3834 70.8093 22.3493 70.996 22.281C71.0809 22.2639 71.1488 22.1956 71.1828 22.1273Z" fill="#131413"/>
<path d="M67.7026 26.4982C67.5668 26.4128 67.414 26.3274 67.2442 26.2591C67.2442 26.2591 67.2273 26.2421 67.2103 26.2421C67.0915 26.1908 66.9556 26.2591 66.9047 26.3786C66.8368 26.4982 66.7859 26.6177 66.7519 26.7543C66.6501 27.1299 66.684 27.164 67.0745 27.2153C67.2612 27.1811 67.448 27.147 67.6347 27.0787C67.7196 27.0616 67.7875 26.9933 67.8214 26.925C67.9233 26.7713 67.8554 26.5835 67.7026 26.4982Z" fill="#131413"/>
<path d="M62.0153 28.4616C61.8795 28.3762 61.7267 28.2909 61.557 28.2226C61.557 28.2226 61.54 28.2055 61.523 28.2055C61.4042 28.1543 61.2684 28.2226 61.2175 28.3421C61.1496 28.4616 61.0986 28.5811 61.0647 28.7177C60.9628 29.0933 60.9968 29.1275 61.3872 29.1787C61.574 29.1446 61.7607 29.1104 61.9474 29.0421C62.0323 29.025 62.1002 28.9567 62.1342 28.8884C62.236 28.7348 62.1681 28.547 62.0153 28.4616Z" fill="#131413"/>
<path d="M66.9724 32.5764C66.8366 32.491 66.6838 32.4056 66.514 32.3373C66.514 32.3373 66.497 32.3202 66.4801 32.3202C66.3612 32.269 66.2254 32.3373 66.1745 32.4568C66.1066 32.5764 66.0557 32.6959 66.0217 32.8325C65.9198 33.2081 65.9538 33.2422 66.3443 33.2934C66.531 33.2593 66.7177 33.2252 66.9045 33.1569C66.9894 33.1398 67.0573 33.0715 67.0912 33.0032C67.1931 32.8495 67.1421 32.6617 66.9724 32.5764Z" fill="#131413"/>
<path d="M75.4609 1.62197C75.5798 1.43416 75.6816 1.22928 75.7495 1.12683C75.7665 0.76829 75.5967 0.631701 75.376 0.717069C75.2233 0.785363 75.0874 0.870731 74.9686 0.990246C74.9177 1.05854 74.9007 1.14391 74.9347 1.22928C75.0365 1.38294 75.1553 1.51953 75.2912 1.63904C75.3421 1.65612 75.41 1.65612 75.4609 1.62197Z" fill="#131413"/>
<path d="M70.9959 12.8735C71.0808 13.0442 71.1657 13.215 71.2675 13.3686C71.3185 13.4369 71.3864 13.4881 71.4713 13.5052C71.641 13.5393 71.8108 13.4198 71.8447 13.2491C71.8957 13.0784 71.9296 12.9247 71.9466 12.754C71.9466 12.7369 71.9466 12.7369 71.9466 12.7198C71.9636 12.5832 71.8617 12.4808 71.7429 12.4637C71.6071 12.4296 71.4713 12.4296 71.3354 12.4296C70.962 12.4466 70.928 12.4808 70.9959 12.8735Z" fill="#131413"/>
<path d="M74.2216 10.91C74.0857 10.8759 73.9499 10.8759 73.8141 10.8759C73.4237 10.8759 73.4067 10.9271 73.4746 11.3027C73.5595 11.4734 73.6444 11.6442 73.7462 11.7978C73.7972 11.8661 73.8651 11.9173 73.9499 11.9344C74.1197 11.9686 74.2895 11.8491 74.3234 11.6783C74.3743 11.5076 74.4083 11.3539 74.4253 11.1832C74.4253 11.1661 74.4253 11.1661 74.4253 11.149C74.4422 11.0295 74.3404 10.91 74.2216 10.91Z" fill="#131413"/>
<path d="M73.1011 6.55623C73.2709 6.59037 73.4406 6.47086 73.4746 6.30012C73.5255 6.12939 73.5595 5.97572 73.5764 5.80499C73.5764 5.78792 73.5764 5.78791 73.5764 5.77084C73.5934 5.63425 73.4915 5.53181 73.3727 5.51474C73.2369 5.48059 73.1011 5.48059 72.9653 5.48059C72.5748 5.48059 72.5578 5.53181 72.6257 5.90743C72.7106 6.07817 72.7955 6.2489 72.8974 6.40256C72.9483 6.48793 73.0162 6.53915 73.1011 6.55623Z" fill="#131413"/>
<path d="M76.1399 4.76352C76.1569 4.62693 76.055 4.52449 75.9362 4.50741C75.8004 4.47327 75.6646 4.47327 75.5288 4.47327C75.1383 4.47327 75.1213 4.52449 75.1892 4.90011C75.2741 5.07084 75.359 5.24158 75.4608 5.39524C75.5118 5.46353 75.5797 5.51475 75.6646 5.53183C75.8343 5.56597 76.0041 5.44646 76.0381 5.27572C76.089 5.10499 76.1229 4.95133 76.1399 4.78059C76.1399 4.78059 76.1399 4.78059 76.1399 4.76352Z" fill="#131413"/>
<path d="M73.3387 16.4247C73.2538 16.3906 73.1689 16.4077 73.101 16.4589C72.9822 16.5955 72.8803 16.7662 72.7954 16.9199C72.7954 16.9882 72.8124 17.0394 72.8633 17.0735C73.067 17.1418 73.2877 17.176 73.4235 17.2101C73.7631 17.1418 73.8649 16.9199 73.7121 16.7321C73.6103 16.6126 73.4745 16.5101 73.3387 16.4247Z" fill="#131413"/>
<path d="M31.899 31.9105C31.8141 31.8763 31.7292 31.8934 31.6613 31.9446C31.5425 32.0812 31.4406 32.2519 31.3557 32.4056C31.3557 32.4739 31.3727 32.5251 31.4236 32.5593C31.6273 32.6276 31.848 32.6617 31.9838 32.6959C32.3234 32.6276 32.4252 32.4056 32.2724 32.2178C32.1536 32.0983 32.0348 31.9958 31.899 31.9105Z" fill="#131413"/>
<path d="M35.1924 33.1569C35.1075 33.1227 35.0227 33.1398 34.9547 33.191C34.8359 33.3276 34.7341 33.4983 34.6492 33.652C34.6492 33.7203 34.6661 33.7715 34.7171 33.8057C34.9208 33.8739 35.1415 33.9081 35.2773 33.9422C35.6168 33.8739 35.7187 33.652 35.5659 33.4642C35.464 33.3617 35.3452 33.2422 35.1924 33.1569Z" fill="#131413"/>
<path d="M39.3856 33.3618C39.2668 33.3276 39.1479 33.2764 39.0291 33.2593C38.9782 33.3106 38.8593 33.3447 38.8424 33.413C38.8084 33.5496 38.7914 33.7032 38.8084 33.8398C38.8084 33.874 38.8933 33.9594 38.9273 33.9594C39.114 33.9252 39.2838 33.8569 39.4535 33.7715C39.5045 33.7374 39.5384 33.6862 39.5554 33.635C39.5724 33.4984 39.5045 33.3789 39.3856 33.3618Z" fill="#131413"/>
<path d="M45.3783 32.1496C45.2595 32.1154 45.1406 32.0642 45.0218 32.0471C44.9709 32.0983 44.852 32.1325 44.835 32.2008C44.8011 32.3374 44.7841 32.491 44.8011 32.6276C44.8011 32.6618 44.886 32.7471 44.9199 32.7471C45.1067 32.713 45.2764 32.6447 45.4462 32.5593C45.4971 32.5252 45.5311 32.474 45.5481 32.4227C45.565 32.3032 45.4971 32.1837 45.3783 32.1496Z" fill="#131413"/>
<path d="M52.0331 34.8983C51.9142 34.8642 51.7954 34.813 51.6766 34.7959C51.6256 34.8471 51.5068 34.8813 51.4898 34.9496C51.4559 35.0861 51.4389 35.2398 51.4559 35.3764C51.4559 35.4105 51.5408 35.4959 51.5747 35.4959C51.7615 35.4618 51.9312 35.3935 52.101 35.3081C52.1519 35.2739 52.1859 35.2227 52.2028 35.1715C52.2198 35.052 52.1519 34.9325 52.0331 34.8983Z" fill="#131413"/>
<path d="M47.11 26.4469C46.9912 26.4128 46.8723 26.3616 46.7535 26.3445C46.7025 26.3957 46.5837 26.4298 46.5667 26.4981C46.5328 26.6347 46.5158 26.7884 46.5328 26.925C46.5328 26.9591 46.6177 27.0445 46.6516 27.0445C46.8384 27.0103 47.0081 26.9421 47.1779 26.8567C47.2288 26.8225 47.2628 26.7713 47.2798 26.7201C47.2967 26.6006 47.2288 26.4811 47.11 26.4469Z" fill="#131413"/>
<path d="M31.4237 37.6472C31.3049 37.613 31.186 37.5618 31.0672 37.5447C31.0163 37.596 30.8974 37.6301 30.8805 37.6984C30.8465 37.835 30.8295 37.9887 30.8465 38.1252C30.8465 38.1594 30.9314 38.2448 30.9653 38.2448C31.1521 38.2106 31.3218 38.1423 31.4916 38.0569C31.5425 38.0228 31.5765 37.9716 31.5935 37.9204C31.6105 37.7838 31.5256 37.6643 31.4237 37.6472Z" fill="#131413"/>
<path d="M30.8973 28.3763C31.152 28.2397 31.3557 28.0006 31.4576 27.7275C31.5255 27.4884 31.4066 27.3177 31.135 27.2665C30.9313 27.3177 30.7445 27.386 30.5578 27.4714C30.4729 27.5226 30.439 27.608 30.439 27.7104C30.5069 27.9324 30.6087 28.1372 30.7106 28.3421C30.7615 28.3933 30.8294 28.3933 30.8973 28.3763Z" fill="#131413"/>
<path d="M30.7446 24.125C30.8294 23.9713 30.7615 23.7835 30.6087 23.6981C30.4729 23.6127 30.3201 23.5274 30.1504 23.4591L30.1334 23.442C30.0146 23.3908 29.8787 23.4591 29.8278 23.5786C29.7599 23.6981 29.709 23.8176 29.675 23.9542C29.5732 24.3298 29.6071 24.364 29.9976 24.4152C30.1843 24.3811 30.3711 24.3469 30.5578 24.2786C30.6257 24.2615 30.6936 24.1933 30.7446 24.125Z" fill="#131413"/>
<path d="M57.5845 40.8058C57.4487 40.7205 57.2959 40.6351 57.1262 40.5668L57.1092 40.5497C56.9904 40.4985 56.8546 40.5668 56.8036 40.6863C56.7357 40.8058 56.6848 40.9253 56.6509 41.0619C56.549 41.4375 56.5829 41.4717 56.9734 41.5229C57.1601 41.4888 57.3469 41.4546 57.5336 41.3863C57.6185 41.3693 57.6864 41.301 57.7203 41.2327C57.8052 41.079 57.7543 40.8912 57.5845 40.8058Z" fill="#131413"/>
<path d="M61.4041 47.1401C61.2683 47.0548 61.1155 46.9694 60.9458 46.9011L60.9288 46.884C60.81 46.8328 60.6741 46.9011 60.6232 47.0206C60.5553 47.1401 60.5044 47.2767 60.4704 47.3962C60.3686 47.7718 60.4025 47.806 60.793 47.8572C60.9797 47.8231 61.1665 47.7889 61.3532 47.7206C61.4381 47.7035 61.506 47.6352 61.5399 47.567C61.6248 47.4133 61.5739 47.2255 61.4041 47.1401Z" fill="#131413"/>
<path d="M66.0388 47.0035C65.903 46.9182 65.7502 46.8328 65.5804 46.7645C65.5804 46.7645 65.5634 46.7474 65.5465 46.7474C65.4276 46.6962 65.2918 46.7645 65.2409 46.884C65.173 47.0035 65.1221 47.1231 65.0881 47.2596C64.9863 47.6353 65.0202 47.6694 65.4107 47.7206C65.5974 47.6865 65.7841 47.6523 65.9709 47.584C66.0558 47.567 66.1237 47.4987 66.1576 47.4304C66.2595 47.2767 66.1916 47.0889 66.0388 47.0035Z" fill="#131413"/>
<path d="M71.9975 49.9744C71.8617 49.889 71.7089 49.8036 71.5392 49.7353C71.5392 49.7353 71.5222 49.7183 71.5052 49.7183C71.3864 49.667 71.2506 49.7353 71.1996 49.8548C71.1317 49.9744 71.0808 50.0939 71.0468 50.2305C70.945 50.6061 70.9789 50.6402 71.3694 50.6915C71.5561 50.6573 71.7429 50.6232 71.9296 50.5549C72.0145 50.5378 72.0824 50.4695 72.1164 50.4012C72.2182 50.2475 72.1503 50.0427 71.9975 49.9744Z" fill="#131413"/>
<path d="M77.0736 52.467C76.9378 52.3817 76.785 52.2963 76.6152 52.228L76.5982 52.2109C76.4794 52.1597 76.3436 52.228 76.2927 52.3475C76.2247 52.467 76.1738 52.5865 76.1399 52.7231C76.038 53.0987 76.072 53.1329 76.4624 53.1841C76.6492 53.15 76.8359 53.1158 77.0227 53.0475C77.1075 53.0304 77.1754 52.9622 77.2094 52.8939C77.2943 52.7402 77.2264 52.5524 77.0736 52.467Z" fill="#131413"/>
<path d="M78.5335 56.3769C78.3977 56.2916 78.2449 56.2062 78.0752 56.1379L78.0582 56.1208C77.9394 56.0696 77.8035 56.1379 77.7526 56.2574C77.6847 56.3769 77.6338 56.4965 77.5998 56.633C77.498 57.0087 77.5319 57.0428 77.9224 57.094C78.1091 57.0599 78.2959 57.0257 78.4826 56.9574C78.5675 56.9404 78.6354 56.8721 78.6693 56.8038C78.7542 56.6501 78.6863 56.4623 78.5335 56.3769Z" fill="#131413"/>
<path d="M81.4705 58.6818C81.3347 58.5965 81.1819 58.5111 81.0121 58.4428C81.0121 58.4428 80.9951 58.4257 80.9781 58.4257C80.8593 58.3745 80.7235 58.4428 80.6725 58.5623C80.6046 58.6818 80.5537 58.8013 80.5198 58.9379C80.4179 59.3136 80.4518 59.3477 80.8423 59.3989C81.0291 59.3648 81.2158 59.3306 81.4026 59.2623C81.4874 59.2453 81.5554 59.177 81.5893 59.1087C81.6742 58.955 81.6233 58.7672 81.4705 58.6818Z" fill="#131413"/>
<path d="M64.7996 41.762C64.6637 41.6766 64.5109 41.5912 64.3412 41.5229C64.3412 41.5229 64.3242 41.5059 64.3072 41.5059C64.1884 41.4546 64.0526 41.5229 64.0016 41.6424C63.9337 41.762 63.8828 41.8815 63.8489 42.0181C63.747 42.3937 63.7809 42.4278 64.1714 42.479C64.3582 42.4449 64.5449 42.4108 64.7316 42.3425C64.8165 42.3254 64.8844 42.2571 64.9184 42.1888C65.0203 42.0351 64.9523 41.8473 64.7996 41.762Z" fill="#131413"/>
<path d="M34.1568 24.5859C34.021 24.5006 33.8682 24.4152 33.6985 24.3469L33.6815 24.3298C33.5626 24.2786 33.4268 24.3469 33.3759 24.4664C33.308 24.5859 33.2571 24.7054 33.2231 24.842C33.1213 25.2176 33.1552 25.2518 33.5457 25.303C33.7324 25.2689 33.9192 25.2347 34.1059 25.1664C34.1908 25.1494 34.2587 25.0811 34.2926 25.0128C34.3775 24.8591 34.3096 24.6713 34.1568 24.5859Z" fill="#131413"/>
<path d="M28.5715 30.3909C28.6394 30.2544 28.5884 30.0836 28.4696 30.0153C28.3508 29.93 28.2149 29.8617 28.0791 29.8104C28.0622 29.8104 28.0622 29.7934 28.0452 29.7934C27.9433 29.7592 27.8245 29.8104 27.7905 29.9129C27.7226 30.0665 27.6717 30.2373 27.6377 30.408C27.6208 30.5105 27.6717 30.5788 27.7736 30.5788C27.8245 30.5788 27.8924 30.5958 27.9433 30.5958V30.6129C28.0961 30.5958 28.2659 30.5617 28.4187 30.5105C28.4696 30.5105 28.5375 30.4592 28.5715 30.3909Z" fill="#131413"/>
<path d="M29.3185 34.9838C29.1996 34.8984 29.0638 34.8301 28.928 34.7789C28.911 34.7789 28.911 34.7618 28.8941 34.7618C28.7922 34.7277 28.6734 34.7789 28.6394 34.8813C28.5715 35.035 28.5206 35.2057 28.4866 35.3765C28.4696 35.4789 28.5206 35.5472 28.6224 35.5472C28.6734 35.5472 28.7413 35.5643 28.7922 35.5643V35.5813C28.945 35.5643 29.1147 35.5301 29.2675 35.4789C29.3354 35.4618 29.4033 35.4106 29.4373 35.3423C29.5052 35.2399 29.4543 35.0691 29.3185 34.9838Z" fill="#131413"/>
<path d="M27.8586 26.6519C27.9775 26.4641 28.0793 26.2592 28.1472 26.1567C28.1642 25.7982 27.9944 25.6616 27.7738 25.747C27.621 25.8153 27.4852 25.9006 27.3663 26.0202C27.3154 26.0884 27.2984 26.1738 27.3324 26.2592C27.4342 26.4128 27.5531 26.5494 27.6889 26.669C27.7568 26.7031 27.8077 26.686 27.8586 26.6519Z" fill="#131413"/>
<path d="M26.4494 22.4688C26.3135 22.4347 26.1777 22.4347 26.0419 22.4347C25.6515 22.4347 25.6345 22.4859 25.7024 22.8615C25.7873 23.0323 25.8722 23.203 25.974 23.3567C26.0249 23.425 26.0929 23.4762 26.1777 23.4933C26.3475 23.5274 26.5173 23.4079 26.5512 23.2372C26.6021 23.0664 26.6361 22.9128 26.6531 22.742C26.6531 22.7249 26.6531 22.7249 26.6531 22.7079C26.67 22.6054 26.5682 22.4859 26.4494 22.4688Z" fill="#131413"/>
<path d="M23.9539 25.9006C23.9539 25.9689 23.9708 26.0201 24.0218 26.0542C24.2255 26.1225 24.4462 26.1567 24.582 26.1908C24.9215 26.1225 25.0234 25.9006 24.8706 25.7128C24.7687 25.5933 24.6499 25.4737 24.4971 25.3884C24.4122 25.3542 24.3273 25.3713 24.2594 25.4225C24.1406 25.5933 24.0387 25.7469 23.9539 25.9006Z" fill="#131413"/>
<path d="M25.0743 28.086C24.9555 28.0519 24.8367 28.0007 24.7178 27.9836C24.6669 28.0348 24.5481 28.069 24.5311 28.1372C24.4971 28.2738 24.4802 28.4275 24.4971 28.5641C24.4971 28.5982 24.582 28.6836 24.616 28.6836C24.8027 28.6495 24.9725 28.5812 25.1422 28.4958C25.1932 28.4616 25.2271 28.4104 25.2441 28.3592C25.2611 28.2226 25.1932 28.1031 25.0743 28.086Z" fill="#131413"/>
<path d="M24.65 30.5446C24.5312 30.5105 24.4124 30.4593 24.2935 30.4422C24.2426 30.4934 24.1238 30.5276 24.1068 30.5959C24.0728 30.7324 24.0558 30.8861 24.0728 31.0227C24.0728 31.0568 24.1577 31.1422 24.1917 31.1422C24.3784 31.1081 24.5482 31.0398 24.7179 30.9544C24.7689 30.9203 24.8028 30.869 24.8198 30.8178C24.8368 30.6812 24.7519 30.5617 24.65 30.5446Z" fill="#131413"/>
<path d="M20.6773 34.2837C20.5076 34.1642 20.3378 34.0447 20.168 33.9422C20.0832 33.9081 19.9813 33.9252 19.8964 33.9935C19.7606 34.1813 19.6587 34.3862 19.5569 34.591C19.5569 34.6593 19.5908 34.7276 19.6418 34.7618C19.9134 34.8813 20.219 34.8984 20.4906 34.813C20.7452 34.7276 20.7962 34.5227 20.6773 34.2837Z" fill="#131413"/>
<path d="M11.7477 33.0885C11.5779 32.969 11.4081 32.8495 11.2384 32.7471C11.1535 32.7129 11.0516 32.73 10.9667 32.7983C10.8309 32.9861 10.7291 33.191 10.6272 33.3958C10.6272 33.4641 10.6612 33.5324 10.7121 33.5666C10.9837 33.6861 11.2893 33.7032 11.5609 33.6178C11.8156 33.5324 11.8665 33.3276 11.7477 33.0885Z" fill="#131413"/>
<path d="M8.06372 35.052C8.3014 34.9666 8.35233 34.7618 8.23349 34.5227C8.06372 34.4032 7.89396 34.2837 7.72419 34.1813C7.63931 34.1471 7.53745 34.1642 7.45257 34.2325C7.31676 34.4203 7.2149 34.6252 7.11304 34.8301C7.11304 34.8984 7.14699 34.9666 7.19792 35.0008C7.48652 35.1203 7.7921 35.1374 8.06372 35.052Z" fill="#131413"/>
<path d="M8.62411 38.757C8.45435 38.6375 8.28458 38.518 8.11482 38.4155C8.02993 38.3814 7.92807 38.3984 7.84319 38.4667C7.70738 38.6545 7.60552 38.8594 7.50366 39.0643C7.50366 39.1326 7.53762 39.2009 7.58854 39.235C7.86017 39.3546 8.16575 39.3716 8.43737 39.2863C8.67504 39.2009 8.74295 38.996 8.62411 38.757Z" fill="#131413"/>
<path d="M10.4237 39.2351C10.2539 39.1156 10.0841 38.996 9.91438 38.8936C9.8295 38.8595 9.72764 38.8765 9.64275 38.9448C9.50694 39.1326 9.40508 39.3375 9.30322 39.5424C9.30322 39.6107 9.33718 39.679 9.38811 39.7131C9.65973 39.8326 9.96531 39.8497 10.2369 39.7643C10.4746 39.679 10.5425 39.4741 10.4237 39.2351Z" fill="#131413"/>
<path d="M21.5263 31.2275C21.5263 31.2105 21.5263 31.2105 21.5263 31.1934C21.4924 31.0739 21.3735 30.9885 21.2377 31.0227C21.1019 31.0397 20.9831 31.091 20.8473 31.1422C20.4908 31.2788 20.4738 31.33 20.6775 31.6715C20.8133 31.808 20.9661 31.9276 21.1189 32.03C21.1868 32.0812 21.2717 32.0983 21.3566 32.0812C21.5263 32.0471 21.6452 31.8763 21.6112 31.7056C21.6112 31.5519 21.5773 31.3812 21.5263 31.2275Z" fill="#131413"/>
<path d="M17.9953 32.2861C17.9953 32.2691 17.9953 32.252 17.9783 32.252C17.9444 32.1495 17.8255 32.0812 17.7237 32.1154C17.5539 32.1666 17.3841 32.2178 17.2313 32.2861C17.2144 32.2861 17.1974 32.3032 17.1974 32.3032C17.1465 32.3544 17.1295 32.4398 17.1804 32.491C17.2144 32.5422 17.2483 32.5934 17.2653 32.6276L17.2483 32.6447C17.3672 32.7642 17.486 32.8666 17.6218 32.952C17.6727 33.0032 17.7576 33.0203 17.8255 33.0032C17.9783 32.9861 18.0802 32.8496 18.0632 32.6959C18.0632 32.5764 18.0462 32.4227 17.9953 32.2861Z" fill="#131413"/>
<path d="M19.1665 30.408C19.0307 30.3226 18.8779 30.2714 18.7082 30.2543C18.6233 30.2543 18.5384 30.3056 18.5044 30.3739C18.4535 30.5446 18.4026 30.7324 18.4026 30.9202C18.4026 30.9544 18.4875 31.0568 18.5214 31.0397C18.7421 31.0227 18.9628 30.9885 19.0817 30.9714C19.3703 30.7665 19.3703 30.5275 19.1665 30.408Z" fill="#131413"/>
<path d="M20.6605 27.7958C20.5756 27.9665 20.4907 28.1372 20.4228 28.325C20.3889 28.4104 20.3889 28.4958 20.4398 28.5811C20.5247 28.7348 20.7114 28.8031 20.8642 28.7348C21.017 28.6665 21.1698 28.5982 21.3226 28.5128C21.3226 28.5128 21.3396 28.5128 21.3396 28.4958C21.4584 28.4275 21.4924 28.2909 21.4245 28.1714C21.3735 28.0519 21.2886 27.9323 21.2038 27.8299C20.9831 27.5055 20.9321 27.5055 20.6605 27.7958Z" fill="#131413"/>
<path d="M17.9611 27.6591C17.7744 27.6591 17.5877 27.6591 17.4179 27.6933C17.367 27.7274 17.333 27.7786 17.333 27.8469C17.4179 28.0518 17.5028 28.2567 17.5537 28.3762C17.8253 28.5982 18.046 28.5469 18.097 28.3079C18.1309 28.1543 18.1479 27.9835 18.1309 27.8299C18.1139 27.7445 18.046 27.6762 17.9611 27.6591Z" fill="#131413"/>
<path d="M20.6096 25.2689C20.4228 25.2689 20.2361 25.2689 20.0663 25.303C20.0154 25.3372 19.9814 25.3884 19.9814 25.4567C20.0663 25.6615 20.1512 25.8664 20.2021 25.9859C20.4738 26.2079 20.6945 26.1567 20.7454 25.9176C20.7793 25.764 20.7963 25.5933 20.7793 25.4396C20.7624 25.3542 20.6945 25.2859 20.6096 25.2689Z" fill="#131413"/>
<path d="M12.9021 21.6493C12.6984 21.7005 12.5116 21.7688 12.3249 21.8542C12.24 21.9054 12.2061 21.9908 12.2061 22.0932C12.274 22.3152 12.3758 22.52 12.4777 22.7249C12.5286 22.7762 12.5965 22.7932 12.6644 22.7591C12.9191 22.6225 13.1228 22.3835 13.2247 22.1103C13.2926 21.8542 13.1737 21.6834 12.9021 21.6493Z" fill="#131413"/>
<path d="M9.3881 23.3566C9.43903 23.3566 9.50694 23.3737 9.55787 23.3737V23.3908C9.71065 23.3737 9.88042 23.3396 10.0332 23.2883C10.1011 23.2713 10.169 23.22 10.203 23.1517C10.2709 23.0152 10.22 22.8444 10.1011 22.7761C9.98228 22.6908 9.84647 22.6225 9.71066 22.5712C9.69368 22.5712 9.69368 22.5542 9.6767 22.5542C9.57484 22.52 9.45601 22.5712 9.42205 22.6737C9.35415 22.8274 9.30322 22.9981 9.26926 23.1688C9.23531 23.2713 9.28624 23.3396 9.3881 23.3566Z" fill="#131413"/>
<path d="M5.92491 25.3543C5.80608 25.2689 5.67026 25.2006 5.53445 25.1494C5.51747 25.1494 5.51748 25.1323 5.5005 25.1323C5.39864 25.0982 5.2798 25.1494 5.24585 25.2518C5.17794 25.4055 5.12701 25.5762 5.09306 25.7469C5.07608 25.8494 5.12701 25.9177 5.22887 25.9177C5.2798 25.9177 5.34771 25.9348 5.39864 25.9348V25.9518C5.55143 25.9348 5.72119 25.9006 5.87398 25.8494C5.94189 25.8323 6.0098 25.7811 6.04375 25.7128C6.11165 25.5933 6.06073 25.4226 5.92491 25.3543Z" fill="#131413"/>
<path d="M9.33707 18.6443C9.40498 18.5077 9.35405 18.337 9.23521 18.2687C9.11638 18.1833 8.98057 18.115 8.84475 18.0638C8.82778 18.0638 8.82778 18.0467 8.8108 18.0467C8.70894 18.0126 8.59011 18.0638 8.55615 18.1662C8.48825 18.3199 8.43732 18.4906 8.40336 18.6614C8.38639 18.7638 8.43732 18.8321 8.53918 18.8321C8.59011 18.8321 8.65801 18.8492 8.70894 18.8492V18.8663C8.86173 18.8492 9.0315 18.815 9.18428 18.7638C9.23521 18.7467 9.30312 18.6955 9.33707 18.6443Z" fill="#131413"/>
<path d="M11.7137 19.7712C11.5949 19.6858 11.4591 19.6175 11.3233 19.5663C11.3063 19.5663 11.3063 19.5492 11.2893 19.5492C11.1875 19.5151 11.0686 19.5663 11.0347 19.6687C10.9668 19.8224 10.9158 19.9931 10.8819 20.1639C10.8649 20.2663 10.9158 20.3346 11.0177 20.3346C11.0686 20.3346 11.1365 20.3517 11.1875 20.3517V20.3688C11.3402 20.3517 11.51 20.3175 11.6628 20.2663C11.7307 20.2493 11.7986 20.198 11.8326 20.1297C11.9005 20.0102 11.8495 19.8395 11.7137 19.7712Z" fill="#131413"/>
<path d="M26.6022 18.9346C26.4833 18.8492 26.3475 18.7809 26.2117 18.7297C26.1947 18.7297 26.1947 18.7126 26.1777 18.7126C26.0759 18.6785 25.957 18.7297 25.9231 18.8321C25.8552 18.9858 25.8043 19.1565 25.7703 19.3273C25.7533 19.4297 25.8043 19.498 25.9061 19.498C25.957 19.498 26.025 19.5151 26.0759 19.5151V19.5322C26.2287 19.5151 26.3984 19.4809 26.5512 19.4297C26.6191 19.4127 26.687 19.3614 26.721 19.2931C26.7719 19.1736 26.721 19.02 26.6022 18.9346Z" fill="#131413"/>
<path d="M23.6143 21.12V21.1371C23.7671 21.12 23.9369 21.0858 24.0897 21.0346C24.1576 21.0175 24.2255 20.9663 24.2594 20.898C24.3273 20.7614 24.2764 20.5907 24.1576 20.5224C24.0387 20.437 23.9029 20.3687 23.7671 20.3175C23.7501 20.3175 23.7501 20.3005 23.7332 20.3005C23.6313 20.2663 23.5125 20.3175 23.4785 20.42C23.4106 20.5736 23.3597 20.7444 23.3257 20.9151C23.3088 21.0175 23.3597 21.0858 23.4615 21.0858C23.4955 21.1029 23.5634 21.1029 23.6143 21.12Z" fill="#131413"/>
<path d="M5.12678 23.203C5.17771 23.0835 5.12678 22.9469 5.00794 22.8957C4.90609 22.8615 4.80423 22.8274 4.70237 22.7932C4.65144 22.8444 4.56655 22.8786 4.54958 22.9469C4.51562 23.0835 4.51562 23.2371 4.51562 23.3737C4.51562 23.4079 4.58353 23.4932 4.60051 23.4932C4.7533 23.4591 4.90609 23.3908 5.0419 23.3054C5.09283 23.2713 5.1098 23.2371 5.12678 23.203Z" fill="#131413"/>
<path d="M11.0686 25.2517C11.3402 25.4737 11.5609 25.4225 11.6118 25.1835C11.6458 25.0298 11.6628 24.8591 11.6458 24.7054C11.6288 24.62 11.5609 24.5517 11.476 24.5347C11.2893 24.5347 11.1025 24.5347 10.9328 24.5688C10.8819 24.603 10.8479 24.6542 10.8479 24.7225C10.9158 24.9444 11.0177 25.1493 11.0686 25.2517Z" fill="#131413"/>
<path d="M15.126 33.8227C15.0581 33.8056 14.9562 33.7373 14.8883 33.7715C14.7525 33.8227 14.6337 33.908 14.5318 34.0105C14.4979 34.0276 14.4809 34.1471 14.5148 34.1641C14.6507 34.2837 14.8204 34.3861 14.9902 34.4715C15.1769 34.5398 15.3127 34.3861 15.2618 34.1812C15.2279 34.0617 15.1769 33.9422 15.126 33.8227Z" fill="#131413"/>
<path d="M10.0331 35.735C9.9991 35.6155 9.94817 35.496 9.89724 35.3764C9.82934 35.3594 9.72748 35.2911 9.65957 35.3252C9.52376 35.3764 9.40492 35.4618 9.30306 35.5643C9.26911 35.5813 9.25213 35.7008 9.28609 35.7179C9.4219 35.8374 9.59166 35.9399 9.76143 36.0252C9.93119 36.0935 10.084 35.9228 10.0331 35.735Z" fill="#131413"/>
<path d="M24.0559 35.1203C23.988 35.1033 23.8862 35.035 23.8183 35.0691C23.6825 35.1203 23.5636 35.2057 23.4618 35.3082C23.4278 35.3252 23.4108 35.4447 23.4448 35.4618C23.5806 35.5813 23.7504 35.6838 23.9201 35.7691C24.1069 35.8374 24.2427 35.6838 24.1917 35.4789C24.1408 35.3423 24.1069 35.2228 24.0559 35.1203Z" fill="#131413"/>
<path d="M0.662172 37.2033C0.543336 37.374 0.4245 37.5447 0.322641 37.7155C0.288688 37.8008 0.305664 37.9033 0.37357 37.9886C0.560312 38.1252 0.764031 38.2277 0.96775 38.3301C1.03566 38.3301 1.10356 38.296 1.13752 38.2447C1.25635 37.9716 1.27333 37.6642 1.18845 37.3911C1.10356 37.135 0.899844 37.0837 0.662172 37.2033Z" fill="#131413"/>
<path d="M3.85358 36.6911C3.73474 36.8618 3.61591 37.0326 3.51405 37.2033C3.48009 37.2887 3.49707 37.3911 3.56498 37.4765C3.75172 37.6131 3.95544 37.7155 4.15916 37.818C4.22706 37.818 4.29497 37.7838 4.32892 37.7326C4.44776 37.4594 4.46473 37.1521 4.37985 36.8789C4.29497 36.6228 4.09125 36.5716 3.85358 36.6911Z" fill="#131413"/>
<path d="M5.36456 34.4203C5.24573 34.5911 5.12689 34.7618 5.02503 34.9325C4.99108 35.0179 5.00806 35.1203 5.07596 35.2057C5.2627 35.3423 5.46642 35.4447 5.67014 35.5472C5.73805 35.5472 5.80595 35.513 5.83991 35.4618C5.95874 35.1886 5.97572 34.8813 5.89084 34.6081C5.80595 34.352 5.60224 34.2837 5.36456 34.4203Z" fill="#131413"/>
<path d="M54.4777 33.1056L65.9369 36.0423L65.903 35.7862C65.886 35.6496 65.869 35.5301 65.852 35.4106C65.8181 35.1886 65.8011 35.0179 65.8011 34.8471C65.8011 34.1642 65.4786 33.7374 64.7486 33.4983C63.8149 33.191 62.8642 32.8154 61.9474 32.4739C61.5909 32.3373 61.2174 32.2007 60.8609 32.0642L59.4519 31.5349L87.9555 39.6619L88.1083 39.7131L88.2611 39.3033L65.0032 30.2031C65.0541 30.1348 65.122 30.0836 65.173 30.0153C65.3937 29.7763 65.5974 29.5543 65.8011 29.3495C67.6685 27.5226 69.3662 25.525 70.8771 23.3908C72.4559 21.1542 73.3896 19.2931 73.882 17.3638C74.6968 14.2223 75.0873 11.5588 75.1212 9.01485C75.1382 7.66604 75.5626 6.38552 76.3605 5.29281C76.6831 4.8489 77.0226 4.38791 77.3452 3.96108C77.6847 3.51716 78.0412 3.0391 78.3638 2.57812C78.7203 2.08298 78.8221 1.58785 78.6863 1.17808C78.5335 0.751246 78.1431 0.426848 77.5489 0.239039C76.5133 -0.170727 75.3419 8.90903e-06 74.4252 0.631731C72.6766 1.8781 71.709 3.24399 71.4543 4.83183C71.2166 6.50504 71.0638 8.21239 71.0299 9.90267C70.945 12.5491 70.6055 15.9979 68.8399 19.1053C67.2441 21.8542 65.3258 24.4152 63.1358 26.7031C61.8625 28.0689 60.3856 28.6153 58.654 28.3763C56.5659 28.086 54.4778 27.7104 52.6613 27.3519C47.2797 26.3274 41.8132 25.2689 36.4317 24.2103C36.0752 24.125 35.7356 23.9542 35.498 23.6981C35.0226 23.1688 34.4115 22.7932 33.7324 22.6225C33.4098 22.5542 33.0873 22.4347 32.7817 22.3322C32.6459 22.281 32.5101 22.2469 32.3912 22.1956L31.865 22.0249L45.582 25.2177L45.7178 24.7225L29.9636 19.6517L32.7308 20.0785L32.2724 19.6858C31.7801 19.259 31.2538 18.9175 30.7445 18.576C30.5068 18.4224 30.2692 18.2516 30.0315 18.098C29.2166 17.5175 28.3678 17.2785 27.536 17.398C26.6871 17.5175 25.8213 17.6711 24.9895 17.8077C24.3953 17.9102 23.8011 18.0297 23.2069 18.1151C22.8844 18.1663 22.5788 18.1321 22.46 18.0297C20.8472 16.7492 19.0646 16.2711 16.9765 16.5614C15.6863 16.7492 14.7526 16.5784 13.9377 15.9809C13.5473 15.7418 13.1398 15.554 12.6984 15.4687C11.6289 15.1955 10.9668 15.4516 10.2878 16.3906C10.1689 16.5443 9.98219 16.6467 9.79545 16.6638C8.01291 16.8345 6.43409 17.5346 4.99109 18.8151C4.48179 19.259 4.329 19.7541 4.49877 20.3175C4.60062 20.6932 4.49877 20.9834 4.15923 21.2907C3.73482 21.7005 3.32738 22.1444 2.97088 22.5883C2.59739 23.0152 2.58041 23.4591 2.9539 23.9713C3.48017 24.7055 3.98947 25.4738 4.46481 26.2079L4.66853 26.5152C5.02504 27.0787 5.55131 27.2494 6.14549 27.0104C6.34921 26.9421 6.55293 26.8396 6.72269 26.7031C7.40176 26.0543 8.08082 26.0201 8.92965 26.6006C9.79545 27.1982 10.7122 27.1299 11.6459 26.4128C12.0194 26.1226 12.5457 26.0372 13.0889 26.1908C13.6661 26.3445 14.1584 26.7372 14.3621 27.2153C14.8375 28.325 15.3298 29.4348 15.8052 30.5275C16.0258 31.0227 16.2465 31.5349 16.4672 32.03C16.2465 32.03 16.0089 32.0129 15.7882 32.0129C15.0921 31.9959 14.447 31.9959 13.768 31.9446C13.3605 31.9276 12.9531 31.8763 12.5457 31.8251C11.9515 31.7568 11.3403 31.6885 10.7292 31.6885C9.35406 31.6885 8.31849 32.2349 7.74129 33.2935C7.43571 33.891 7.19804 34.5057 7.06222 35.1545C6.58688 37.0155 6.97734 38.7058 8.19965 40.1912C8.55616 40.6351 9.21825 40.84 9.79545 40.7034C10.2199 40.6009 10.5254 40.3278 10.6103 39.9521C10.6443 39.7985 10.6952 39.6448 10.7461 39.4741C10.9668 38.7058 11.2385 37.8179 10.4575 36.9472C10.2029 36.6569 10.118 36.2984 10.2368 35.9569C10.3727 35.5642 10.7461 35.2569 11.2045 35.1545C11.595 35.0691 12.0194 35.0691 12.3929 35.1715C13.2587 35.4276 14.1245 35.7179 14.9563 35.9911C15.9919 36.3325 17.0784 36.674 18.1479 36.9813C19.4891 37.357 20.8642 37.6984 22.1883 38.0228C22.8504 38.1765 23.5125 38.3472 24.1746 38.518C24.3953 38.5692 24.7178 38.6204 24.9385 38.4497C25.1083 38.3131 25.2102 38.0911 25.2271 37.7667C25.2611 37.1009 25.329 36.435 25.3969 35.7862C25.4478 35.2911 25.4818 34.7789 25.5327 34.2666C25.5497 34.113 25.5497 33.9764 25.5497 33.8227C25.8383 34.9325 26.0081 36.0252 25.7704 37.1521C25.6685 37.6301 25.8722 37.9375 26.3476 38.0741C26.8908 38.2277 27.4511 38.4155 27.9943 38.5692C29.2676 38.9619 30.5748 39.3887 31.9159 39.6107C36.4996 40.3961 41.1851 41.1131 45.7009 41.8132C47.3815 42.0693 49.0622 42.3254 50.7429 42.5985C51.2692 42.6839 51.7785 42.7522 52.3048 42.8376C52.5424 42.8717 52.7971 42.9059 53.0347 42.94L53.2045 42.9571L53.2724 42.5132L37.0598 38.4155C38.0784 38.535 39.08 38.6716 39.9798 38.7911C41.4567 38.996 43.1374 39.218 44.852 38.8936C46.1592 38.6716 47.5004 38.6204 48.8246 38.7058C52.135 38.8936 54.7154 40.3107 56.5319 42.94C57.211 43.9303 57.907 44.9376 58.5182 45.9791C59.2651 47.2596 60.3516 48.1645 61.8286 48.745C62.4228 49.0011 63.0509 49.2231 63.696 49.3767C65.4955 49.7694 67.8892 50.2646 70.3169 50.7085C71.2336 50.8621 72.1164 51.2719 72.8294 51.8866C74.7647 53.4915 76.2757 55.4549 77.7866 57.4867C78.5675 58.5282 79.4333 59.6209 80.5368 60.8843C80.7744 61.1575 81.114 61.3112 81.4535 61.3112C81.5044 61.3112 81.5554 61.3112 81.6063 61.2941C81.9798 61.2429 82.3023 61.0209 82.4721 60.6965C82.7946 60.0648 82.7777 59.4501 82.4551 58.9038C82.4381 58.8696 82.4042 58.8355 82.3872 58.7843C82.3363 58.6989 82.2344 58.5623 82.2514 58.494C82.3533 57.7769 81.9458 57.333 81.5214 56.9574C81.3177 56.7696 81.097 56.5476 80.9102 56.3598C80.6726 56.1208 80.4349 55.8818 80.1803 55.6427C78.2959 53.9866 76.8019 51.8695 75.8682 49.5475L75.8512 49.5304C75.6815 49.2402 75.4268 49.0182 75.1212 48.8987C72.2352 47.7206 69.2813 46.5255 66.4292 45.3815L64.7825 44.7157L94.7461 52.2451L94.3727 51.8183C94.2199 51.6305 93.9992 51.5109 93.7785 51.4597C91.8092 50.828 89.8569 50.1792 87.8876 49.5475C81.4026 47.4474 74.7138 45.262 68.1099 43.162C67.0064 42.8205 66.616 42.3595 66.633 41.4546C66.633 40.857 66.2425 40.6692 65.869 40.5497C64.2393 40.0034 62.5925 39.4399 60.9967 38.8765L56.7526 37.4082L104.745 49.8719L104.915 49.906L104.966 49.7353C104.983 49.7011 104.983 49.6499 105 49.6158L105.051 49.4621L54.4777 33.1056ZM53.3913 36.213L53.2724 36.6228L60.8609 39.2351C62.4567 39.7814 64.1035 40.3619 65.7332 40.9083C66.1067 41.0278 66.2765 41.1473 66.2595 41.4888C66.2425 42.8034 67.0744 43.2473 67.9741 43.5205C74.578 45.6206 81.2837 47.7889 87.7518 49.906C88.9062 50.2816 90.0436 50.6573 91.198 51.0329L63.3904 44.0498L63.2377 44.0156L63.0849 44.4425L63.4583 44.5962C63.6111 44.6644 63.7809 44.7327 63.9337 44.801L66.2595 45.7401C69.1115 46.884 72.0485 48.0792 74.9515 49.2572C75.1891 49.3426 75.3759 49.5133 75.4947 49.7182C76.4624 52.0914 77.9903 54.2427 79.9086 55.933C80.1633 56.155 80.4009 56.394 80.6216 56.633C80.8254 56.8379 81.0291 57.0428 81.2498 57.2477C81.6402 57.6062 81.9458 57.9306 81.8609 58.494C81.827 58.6818 81.9458 58.8696 82.0477 59.0233C82.0647 59.0575 82.0986 59.0916 82.1156 59.1257C82.3872 59.5697 82.3872 60.0477 82.1156 60.577C81.9967 60.799 81.7761 60.9526 81.5214 60.9868C81.2328 61.0209 80.9442 60.9185 80.7575 60.6794C79.671 59.416 78.8052 58.3404 78.0242 57.2989C76.4963 55.2501 74.9854 53.2695 73.0162 51.6305C72.2522 50.9817 71.3355 50.5548 70.3508 50.3841C67.9402 49.9402 65.5465 49.445 63.7469 49.0523C63.1358 48.8987 62.5246 48.6938 61.9305 48.4377C60.5214 47.8913 59.4858 47.0206 58.7898 45.8254C58.1786 44.7669 57.4656 43.7425 56.7866 42.7693C54.9022 40.0546 52.2199 38.5692 48.8246 38.3814C48.4001 38.3472 47.9927 38.3302 47.5683 38.3302C46.6346 38.3302 45.7009 38.4155 44.7672 38.5692C43.1035 38.8936 41.4567 38.6716 39.9967 38.4667C38.4179 38.2448 36.5845 38.0058 34.768 37.8692L34.717 38.2106L50.8617 42.3424C50.8108 42.3424 50.7599 42.3254 50.709 42.3254C49.0283 42.0693 47.3476 41.7961 45.6669 41.54C41.1511 40.84 36.4656 40.1229 31.882 39.3375C30.5748 39.1155 29.2676 38.7058 28.0113 38.3131C27.468 38.1423 26.9078 37.9716 26.3476 37.8009C26.042 37.7155 25.9571 37.5789 26.0081 37.2887C26.3306 35.7008 25.8892 34.1471 25.4648 32.6617L25.1423 31.552L25.1083 32.6788C25.1083 32.8495 25.1083 33.0203 25.0913 33.191C25.0913 33.5496 25.0744 33.9252 25.0574 34.3008C25.0234 34.813 24.9725 35.3252 24.9216 35.8203C24.8537 36.4691 24.8027 37.1521 24.7518 37.8009C24.7348 38.0228 24.6839 38.1765 24.599 38.2277C24.5141 38.296 24.3444 38.296 24.1237 38.2277C23.4616 38.057 22.7995 37.9033 22.1374 37.7326C20.8132 37.4082 19.4381 37.0667 18.097 36.6911C17.0275 36.3838 15.9579 36.0423 14.9224 35.7008C14.0735 35.4276 13.2077 35.1374 12.3419 34.8813C11.9005 34.7618 11.4252 34.7618 10.9838 34.8642C10.3896 34.9837 9.93126 35.3764 9.74452 35.8886C9.59173 36.3496 9.69359 36.8448 10.0331 37.2374C10.6782 37.9716 10.4745 38.6887 10.2538 39.4399C10.2029 39.6107 10.152 39.7643 10.118 39.9351C10.0331 40.2595 9.74452 40.379 9.55778 40.4302C9.09941 40.5326 8.59012 40.379 8.31849 40.0375C7.16408 38.6375 6.80758 37.0496 7.24897 35.3081C7.38478 34.6935 7.60547 34.0788 7.89408 33.5325C8.53919 32.3544 9.71057 32.1154 10.5764 32.1154C11.1706 32.1154 11.7647 32.1837 12.3589 32.252C12.7663 32.3032 13.1908 32.3544 13.5982 32.3715C14.2773 32.4056 14.9563 32.4227 15.6354 32.4398C15.924 32.4398 16.1956 32.4568 16.4842 32.4568L16.5521 32.5081L16.654 32.4227C16.6879 32.4056 16.7219 32.3373 16.7389 32.269L16.8068 32.1154H16.7049C16.4672 31.569 16.2126 31.0056 15.9749 30.4592C15.4996 29.3836 15.0073 28.2568 14.5319 27.164C14.2773 26.5835 13.717 26.1226 13.021 25.9347C12.3759 25.764 11.7478 25.8665 11.2894 26.225C10.4745 26.8567 9.71057 26.9079 8.98058 26.4128C7.99594 25.7469 7.14711 25.7811 6.34921 26.5323C6.2134 26.6348 6.06061 26.7201 5.87387 26.7714C5.4155 26.9421 5.07597 26.8396 4.80434 26.4128L4.60062 26.1055C4.1083 25.3542 3.61598 24.5859 3.07273 23.8518C2.80111 23.4762 2.80111 23.203 3.07273 22.8957C3.42924 22.4517 3.83668 22.0249 4.24412 21.6322C4.68551 21.2395 4.8383 20.7956 4.68551 20.3005C4.54969 19.8566 4.68551 19.498 5.07597 19.1565C6.46805 17.9272 7.97896 17.2443 9.69359 17.0906C9.98219 17.0565 10.2368 16.9199 10.4236 16.6809C11.0178 15.8443 11.544 15.6394 12.4777 15.8955C12.8852 15.9809 13.2587 16.1345 13.5982 16.3565C14.481 17.0053 15.4826 17.1931 16.8747 16.9882C18.8609 16.698 20.5586 17.1589 22.0865 18.3712C22.3751 18.6102 22.9014 18.559 23.1051 18.5248C23.6993 18.4395 24.3104 18.3199 24.9046 18.2175C25.7364 18.0638 26.5853 17.9102 27.4341 17.8077C28.1811 17.7053 28.945 17.9272 29.692 18.4565C29.9296 18.6273 30.1843 18.7809 30.422 18.9517C30.7445 19.1736 31.0841 19.3956 31.4066 19.6346L28.4018 19.1736L28.2829 19.6175L43.409 24.4835L28.3338 20.9663L28.1811 20.9322L28.0622 21.2907L32.2554 22.5371C32.3912 22.5713 32.5101 22.6225 32.6459 22.6737C32.9685 22.7761 33.291 22.8957 33.6305 22.9639C34.2587 23.1176 34.8019 23.4591 35.2263 23.9371C35.5319 24.2445 35.9224 24.4664 36.3468 24.5518C41.7284 25.6103 47.1948 26.6689 52.5764 27.6933C54.3929 28.0348 56.498 28.4275 58.5861 28.7177C60.4365 28.9738 61.9984 28.3933 63.3735 26.925C65.5804 24.603 67.5157 22.0249 69.1285 19.259C70.945 16.0833 71.2676 12.5832 71.3694 9.8856C71.4034 8.21239 71.5392 6.52211 71.7938 4.8489C72.0315 3.34643 72.9313 2.08298 74.6289 0.887834C75.4438 0.307333 76.5133 0.153671 77.464 0.495142C77.9563 0.648804 78.2789 0.904908 78.3807 1.21223C78.4826 1.51956 78.3977 1.89517 78.1091 2.30494C77.7866 2.76593 77.4301 3.22691 77.0905 3.6879C76.768 4.13181 76.4115 4.57572 76.1059 5.03671C75.274 6.18064 74.8157 7.52945 74.7987 8.94656C74.7647 11.4564 74.3743 14.0857 73.5594 17.2102C73.0671 19.0883 72.1673 20.9151 70.6055 23.1176C69.1115 25.2347 67.4309 27.2323 65.5804 29.0251C65.3597 29.247 65.156 29.469 64.9353 29.708C64.8334 29.8275 64.7146 29.947 64.5958 30.0836L64.426 30.2714L85.6807 38.5863L56.7696 30.3909L56.6338 30.8178L60.7591 32.3886C61.1156 32.5251 61.4891 32.6617 61.8456 32.7983C62.7623 33.1569 63.713 33.5154 64.6467 33.8398C65.2409 34.0447 65.4786 34.3179 65.4616 34.8642C65.4616 35.052 65.4786 35.2569 65.5125 35.4789C65.5125 35.513 65.5295 35.5472 65.5295 35.5984L50.4034 31.7227L50.2845 32.1325L101.18 48.6597L53.3913 36.213Z" fill="#131413"/>
<path d="M7.04527 33.5837L7.0962 33.2764L6.8076 33.3788C6.36621 33.5495 5.92482 33.7203 5.48343 33.8739C4.44786 34.2496 3.46322 34.6081 2.52951 35.1032C1.76556 35.4959 1.13743 36.2472 0.594179 36.913L0.526273 36.9984C0.203719 37.4252 0.0339531 37.9375 0 38.4838C0.0169766 38.9106 0.203719 39.3204 0.560226 39.5765C0.679062 39.6619 0.814875 39.679 0.967664 39.679C1.10348 39.679 1.25627 39.6619 1.40905 39.6277C1.51091 39.6107 1.61277 39.5936 1.69766 39.5936C1.78254 39.5936 1.85044 39.5594 1.91835 39.5424C1.96928 39.5253 2.02021 39.5082 2.05416 39.5082C3.0388 39.679 3.48019 39.5765 3.93856 38.6716C4.346 37.8521 4.99111 37.4252 6.0097 37.2545C6.2304 37.2033 6.41714 37.0496 6.519 36.8447L6.53597 36.8106C6.67179 36.0594 6.79062 35.3081 6.92643 34.4374C6.96039 34.1813 6.99434 33.891 7.04527 33.5837ZM6.56993 34.4032C6.43411 35.2569 6.31528 35.9911 6.17947 36.7423C6.12854 36.8447 6.04365 36.913 5.94179 36.9472C4.82134 37.135 4.09135 37.6301 3.61601 38.5521C3.24252 39.2863 2.9709 39.3546 2.10509 39.2009C1.98626 39.1838 1.8844 39.218 1.79952 39.2521C1.74859 39.2692 1.69766 39.2863 1.6637 39.2863C1.56184 39.2863 1.45998 39.3033 1.35812 39.3204C1.13743 39.3546 0.882781 39.3887 0.780922 39.3204C0.526273 39.1155 0.373484 38.8082 0.356508 38.5009C0.373484 38.0399 0.526273 37.596 0.797898 37.2204L0.865804 37.135C1.42603 36.4691 1.98626 35.7862 2.69927 35.4106C3.61601 34.9325 4.58367 34.574 5.61924 34.1983C5.95877 34.0788 6.31528 33.9422 6.67179 33.8056C6.62086 34.0276 6.60388 34.2154 6.56993 34.4032Z" fill="#131413"/>
<path d="M69.9265 52.5866C66.7009 51.7841 63.4414 50.9817 60.2328 50.1963C59.418 49.9914 58.5691 49.7695 57.7712 49.5646C55.8869 49.0694 53.9176 48.5572 51.9653 48.2158C49.0113 47.6865 45.9725 47.2596 43.0526 46.8499C41.8303 46.6791 40.574 46.5084 39.3347 46.3206C38.5368 46.2011 37.7389 46.0986 36.941 45.9791L35.6338 45.7913L35.6168 45.9621C35.6168 45.9962 35.5999 46.0303 35.5999 46.0645L35.5659 46.2352L71.3016 53.3549L70.6565 52.8768C70.4358 52.7403 70.1811 52.6207 69.9265 52.5866ZM40.1666 46.7816C41.1173 46.9182 42.0679 47.0548 43.0016 47.1913C45.9216 47.6011 48.9434 48.028 51.9143 48.5572C53.8497 48.8987 55.802 49.4109 57.6864 49.906C58.5012 50.1109 59.3331 50.3329 60.1649 50.5378C61.9645 50.9817 63.7979 51.4256 65.6144 51.8866L40.1666 46.7816Z" fill="#131413"/>
<path d="M39.9458 44.9888C40.8625 45.1084 41.7962 45.2279 42.713 45.3474L43.7146 45.4669L43.7825 45.023L24.8876 41.079L24.7178 41.0449L24.616 41.5058L24.7688 41.5571C25.2441 41.7107 25.7194 41.8473 26.1948 42.001C27.2813 42.3425 28.4017 42.701 29.5222 43.0254C29.8108 43.1108 30.0994 43.1961 30.388 43.2815C31.5933 43.64 32.8496 44.0157 34.1059 44.2376C35.447 44.4766 36.8221 44.6303 38.1633 44.784C38.7405 44.8352 39.3516 44.9035 39.9458 44.9888ZM30.4729 42.94C30.1843 42.8547 29.8957 42.7693 29.6071 42.6839C28.7073 42.4278 27.7906 42.1376 26.9078 41.8644L40.557 44.7157C40.3702 44.6986 40.1835 44.6644 39.9967 44.6474C39.4026 44.5791 38.7914 44.5108 38.1972 44.4425C36.873 44.2888 35.4979 44.1352 34.1738 43.8961C32.9175 43.6571 31.6782 43.2986 30.4729 42.94Z" fill="#131413"/>
<path d="M12.0025 35.5984C11.7649 35.5471 11.5272 35.5471 11.3065 35.5813C11.1198 35.5984 10.7802 35.6837 10.6274 35.9228C10.5765 36.0252 10.5086 36.1789 10.5935 36.4179C10.7123 36.7594 11.0858 37.1691 11.4253 37.2203C12.3251 37.3569 13.2588 37.4594 14.1586 37.5618C14.8376 37.6472 15.5337 37.7155 16.2297 37.8179C16.9257 37.9204 17.6218 38.0399 18.3008 38.1765C18.6064 38.2447 18.929 38.296 19.2346 38.3472L19.3873 38.3813L19.5232 37.8179L17.7746 37.3057C15.8902 36.7423 13.9379 36.1618 12.0025 35.5984ZM18.3518 37.835C17.6727 37.6984 16.9597 37.5618 16.2637 37.4764C15.5676 37.3911 14.8716 37.3057 14.1925 37.2203C13.2928 37.1179 12.376 37.0155 11.4763 36.8789C11.3065 36.8447 11.0179 36.5545 10.916 36.2984C10.8821 36.1789 10.8991 36.1276 10.916 36.1106C10.967 36.0252 11.1367 35.9569 11.3574 35.9228C11.4423 35.9057 11.5272 35.9057 11.6121 35.9057C11.7139 35.9057 11.8158 35.9228 11.9177 35.9398C13.836 36.5033 15.7883 37.0838 17.6897 37.6301L18.4367 37.8521C18.4027 37.835 18.3857 37.835 18.3518 37.835Z" fill="#131413"/>
<path d="M5.83994 20.8468L5.78901 20.8639C5.61925 20.9493 5.58529 21.1712 5.55134 21.4444C5.53436 21.5639 5.51739 21.6834 5.50041 21.8029L5.41553 22.1615L7.57155 21.0176L7.36783 20.8468C6.79063 20.3688 6.24738 20.6419 5.83994 20.8468Z" fill="#131413"/>
<path d="M12.2402 16.4248C11.5611 16.4419 10.6444 17.0224 10.237 17.7224L9.96533 18.1663L10.8821 17.7907C11.5272 17.5346 11.9176 17.4663 12.1553 17.6029C12.393 17.7224 12.5797 18.0639 12.7495 18.6956C12.8853 19.2078 12.9193 19.7542 12.9362 20.2664C12.9532 20.5054 12.9702 20.7444 12.9872 20.9834L13.0381 21.4103L13.3097 21.0688C14.1755 19.942 13.9718 17.62 12.9193 16.6809C12.7325 16.5272 12.4948 16.4419 12.2402 16.4248ZM13.3097 20.3688C13.3097 20.3347 13.3097 20.2834 13.3097 20.2493C13.2758 19.7029 13.2418 19.1395 13.106 18.6102C12.9023 17.859 12.6816 17.4663 12.3251 17.2956C12.1893 17.2273 12.0365 17.1931 11.8667 17.1931C11.629 17.1931 11.3404 17.2614 10.9669 17.398C11.3574 17.0565 11.8667 16.8004 12.2402 16.7834C12.41 16.8004 12.5797 16.8516 12.6986 16.9712C13.4625 17.637 13.7171 19.3102 13.3097 20.3688Z" fill="#131413"/>
</g>
<defs>
<clipPath id="clip0">
<rect width="105" height="61.3112" fill="white"/>
</clipPath>
</defs>
</svg>
