<svg width="24" height="24" viewBox="0 0 24 24" fill="none" xmlns="http://www.w3.org/2000/svg">
<path fill-rule="evenodd" clip-rule="evenodd" d="M8.53684 6.89213C8.77617 5.82524 9.0861 4.86867 9.44718 4.05624C9.88449 3.07229 10.3707 2.35857 10.8432 1.90888C11.307 1.46746 11.6944 1.33437 11.9965 1.33334C11.9976 1.33334 11.9988 1.33333 12 1.33333C12.3025 1.33333 12.6911 1.46573 13.1568 1.90888C13.6293 2.35857 14.1155 3.07229 14.5528 4.05624C14.9139 4.86867 15.2238 5.82525 15.4632 6.89214C14.3667 6.74549 13.204 6.66667 12 6.66667C10.796 6.66667 9.63335 6.74549 8.53684 6.89213ZM7.12512 7.12513C4.85108 7.575 2.95001 8.32995 1.6851 9.27301C2.66055 5.5735 5.57349 2.66055 9.27301 1.6851C8.32994 2.95002 7.57499 4.85109 7.12512 7.12513ZM11.9957 3.8147e-06C5.37025 0.00233865 0 5.37403 0 12V12.0012C0.000647783 18.6281 5.37298 24 12 24C18.6274 24 24 18.6274 24 12C24 5.37259 18.6274 4.52995e-06 12 0C11.9986 0 11.9971 1.2517e-06 11.9957 3.8147e-06ZM14.727 1.6851C15.6701 2.95002 16.425 4.85109 16.8749 7.12513C19.1489 7.575 21.05 8.32995 22.3149 9.27302C21.3395 5.5735 18.4265 2.66056 14.727 1.6851ZM15.7235 8.2765C14.5677 8.09871 13.3152 8 12 8C10.6848 8 9.43227 8.09871 8.2765 8.2765C8.0987 9.43227 8 10.6848 8 12C8 13.3152 8.0987 14.5677 8.2765 15.7235C9.43227 15.9013 10.6848 16 12 16C13.3152 16 14.5677 15.9013 15.7235 15.7235C15.9013 14.5677 16 13.3152 16 12C16 10.6848 15.9013 9.43228 15.7235 8.2765ZM17.1079 15.4632C17.2545 14.3667 17.3333 13.204 17.3333 12C17.3333 10.796 17.2545 9.63335 17.1079 8.53684C18.1748 8.77618 19.1313 9.08611 19.9438 9.44718C20.9277 9.88449 21.6414 10.3707 22.0911 10.8432C22.5343 11.3089 22.6667 11.6975 22.6667 12C22.6667 12.3025 22.5343 12.6911 22.0911 13.1568C21.6414 13.6293 20.9277 14.1155 19.9438 14.5528C19.1313 14.9139 18.1748 15.2238 17.1079 15.4632ZM15.4632 17.1079C14.3667 17.2545 13.204 17.3333 12 17.3333C10.796 17.3333 9.63335 17.2545 8.53684 17.1079C8.77617 18.1748 9.0861 19.1313 9.44718 19.9438C9.88449 20.9277 10.3707 21.6414 10.8432 22.0911C11.3089 22.5343 11.6975 22.6667 12 22.6667C12.3025 22.6667 12.6911 22.5343 13.1568 22.0911C13.6293 21.6414 14.1155 20.9277 14.5528 19.9438C14.9139 19.1313 15.2238 18.1748 15.4632 17.1079ZM14.727 22.3149C15.6701 21.05 16.425 19.1489 16.8749 16.8749C19.1489 16.425 21.05 15.6701 22.3149 14.727C21.3395 18.4265 18.4265 21.3395 14.727 22.3149ZM9.27301 22.3149C8.32994 21.05 7.57499 19.1489 7.12512 16.8749C4.85108 16.425 2.95001 15.6701 1.6851 14.727C2.66055 18.4265 5.57349 21.3395 9.27301 22.3149ZM6.89213 15.4632C5.82524 15.2238 4.86866 14.9139 4.05624 14.5528C3.07229 14.1155 2.35857 13.6293 1.90888 13.1568C1.46668 12.6921 1.3339 12.3042 1.33333 12.002L1.33333 12C1.33333 11.6975 1.46573 11.3089 1.90888 10.8432C2.35857 10.3707 3.07229 9.88449 4.05624 9.44718C4.86866 9.08611 5.82524 8.77617 6.89213 8.53684C6.74548 9.63335 6.66667 10.796 6.66667 12C6.66667 13.204 6.74548 14.3667 6.89213 15.4632Z" fill="#757B75"/>
</svg>
