<svg width="65" height="40" viewBox="0 0 65 40" fill="none" xmlns="http://www.w3.org/2000/svg">
<g clip-path="url(#clip0)">
<path d="M64.0268 30.1528C64.0371 30.1321 64.0371 30.1011 64.0475 30.0804L30.8666 19.3913C30.8666 19.3706 30.8769 19.3603 30.8769 19.3396L40.1734 21.6988C40.1527 21.4608 40.1112 21.2849 40.1112 21.1194C40.1112 20.7158 39.914 20.5296 39.5405 20.4054C38.7416 20.1363 37.953 19.8259 37.1645 19.5258C36.3552 19.2258 35.5459 18.9153 34.7366 18.6152C34.747 18.5946 34.747 18.5739 34.7574 18.5532L53.7965 23.9339C53.8069 23.9132 53.8069 23.8925 53.8172 23.8718L39.5509 18.3359C39.7791 18.0979 39.9555 17.8909 40.1527 17.7047C41.294 16.5975 42.3211 15.3971 43.2342 14.1037C44.0227 12.9861 44.7075 11.8169 45.0499 10.482C45.4857 8.83675 45.7866 7.16044 45.8073 5.45308C45.8177 4.61493 46.0875 3.80781 46.5855 3.13522C46.9798 2.57645 47.4155 2.04872 47.8098 1.48995C48.2144 0.920827 48.0381 0.43449 47.3533 0.227537C46.7411 0.020585 46.0667 0.113713 45.5272 0.486228C44.6556 1.09674 43.919 1.87281 43.753 2.95931C43.6077 3.97337 43.5143 4.99779 43.4936 6.0222C43.421 7.9986 43.1408 9.9129 42.1448 11.6513C41.1695 13.3276 39.9867 14.8798 38.6482 16.2767C37.8389 17.1252 36.9259 17.477 35.8157 17.3218C34.5914 17.1562 33.3671 16.9389 32.1531 16.7009C28.8433 16.0801 25.5335 15.4385 22.2341 14.797C21.9955 14.7452 21.7776 14.6211 21.6012 14.4452C21.3314 14.1347 20.9683 13.9174 20.574 13.8243C20.2939 13.7622 20.0241 13.6587 19.744 13.5656C18.9451 13.3069 18.1462 13.0482 17.3369 12.7895C17.3369 12.7792 17.3472 12.7688 17.3472 12.7585L27.7539 15.1695C27.7643 15.1385 27.7747 15.0971 27.785 15.066L17.4717 11.7755C17.4821 11.7548 17.4821 11.7237 17.4925 11.703L19.6195 12.0238C19.1837 11.6513 18.7064 11.3823 18.2603 11.0718C17.8141 10.7614 17.3265 10.5958 16.8077 10.6579C15.9258 10.7718 15.0439 10.958 14.162 11.0925C13.9856 11.1236 13.7469 11.1236 13.6224 11.0201C12.6575 10.2544 11.5681 9.97499 10.3541 10.1612C9.67972 10.2647 9.02606 10.2233 8.42428 9.79908C8.19602 9.65421 7.95738 9.56109 7.698 9.499C7.07546 9.33344 6.71232 9.499 6.3388 10.0164C6.24542 10.1302 6.11054 10.2026 5.96528 10.2233C4.8551 10.3268 3.91093 10.7821 3.08088 11.5064C2.84225 11.7237 2.70737 11.9721 2.81112 12.3136C2.89412 12.5826 2.80074 12.8102 2.57248 13.0068C2.31309 13.2552 2.07446 13.5139 1.8462 13.7829C1.63869 14.0209 1.65944 14.2279 1.8462 14.4866C2.20934 14.9936 2.55173 15.511 2.89412 16.0283C3.09126 16.3284 3.35065 16.4112 3.68267 16.287C3.7968 16.256 3.90055 16.1939 3.99393 16.1215C4.47121 15.6662 4.9381 15.6869 5.46726 16.049C5.98603 16.4009 6.50481 16.3181 7.00284 15.9352C7.57349 15.511 8.54879 15.811 8.82893 16.4629C9.2647 17.477 9.72122 18.4807 10.1674 19.4948C10.1777 19.5051 10.1466 19.5362 10.157 19.5258C9.55522 19.5051 8.95344 19.5155 8.36203 19.4741C7.7395 19.4327 7.12734 19.3189 6.50481 19.3189C5.7889 19.3189 5.13524 19.5776 4.7721 20.2398C4.58534 20.5916 4.45045 20.9642 4.36745 21.347C4.08731 22.4439 4.32595 23.4372 5.04186 24.3064C5.405 24.741 6.2143 24.6996 6.32843 24.2133C6.46331 23.6545 6.78495 23.0751 6.2558 22.4853C5.8304 22.0093 6.14167 21.347 6.77457 21.2228C7.03396 21.1608 7.30373 21.1711 7.55274 21.2332C8.72517 21.585 9.88723 21.9886 11.07 22.33C12.284 22.6715 13.529 22.9509 14.7534 23.2613C15.075 23.3441 15.2514 23.2717 15.2721 22.8992C15.3136 22.1852 15.3966 21.4815 15.4485 20.7779C15.4693 20.4468 15.4693 20.1157 15.4796 19.7949C15.739 20.7055 16.0088 21.6161 15.8117 22.5577C15.7598 22.8164 15.8843 22.9302 16.0918 22.9923C17.2227 23.3131 18.3329 23.727 19.4846 23.9236C23.3132 24.5651 27.1521 25.1342 30.9911 25.7241C31.458 25.7965 31.9249 25.8586 32.3918 25.931C32.3918 25.9103 32.4021 25.8793 32.4021 25.8586C28.6877 24.9169 24.9733 23.9753 21.2588 23.0337C22.3275 23.1165 23.3858 23.251 24.4441 23.3958C25.4194 23.5304 26.3843 23.6442 27.3908 23.4579C28.2 23.3234 29.0197 23.282 29.8394 23.3441C31.8419 23.4476 33.4708 24.2857 34.6329 25.9517C35.0583 26.5622 35.4733 27.1624 35.8468 27.8039C36.3137 28.5904 36.9881 29.1077 37.8182 29.4389C38.1813 29.5941 38.5548 29.7182 38.9387 29.8114C40.2772 30.1011 41.626 30.3701 42.9748 30.6185C43.5558 30.722 44.1057 30.9703 44.5623 31.3532C45.7554 32.3362 46.6892 33.5469 47.6127 34.7679C48.1418 35.4715 48.7021 36.1545 49.2831 36.8167C49.5736 37.1582 50.1132 37.0857 50.2896 36.7236C50.4452 36.4028 50.4763 36.0717 50.2792 35.7406C50.2169 35.6371 50.1236 35.5233 50.1339 35.4301C50.1858 35.0473 49.9783 34.8196 49.7189 34.5816C49.4388 34.3229 49.1794 34.0332 48.8889 33.7849C47.7268 32.7604 46.8138 31.4877 46.2223 30.0494C46.1393 29.8941 45.9941 29.7803 45.8281 29.7182C43.587 28.8077 41.3458 27.9178 39.1047 27.0175C38.9595 26.9554 38.8246 26.9037 38.6793 26.8416C38.6897 26.8209 38.7001 26.7899 38.7001 26.7692L57.5836 31.4877C57.5005 31.3946 57.3968 31.3325 57.2723 31.3014C52.043 29.6148 46.8241 27.9281 41.5845 26.2725C40.9516 26.0759 40.5988 25.7965 40.6092 25.1342C40.6092 24.8549 40.4432 24.7617 40.2149 24.6893C38.8868 24.2444 37.5692 23.7891 36.2411 23.3338L32.6823 22.1231C32.6823 22.1024 32.6927 22.092 32.703 22.0714L64.0268 30.1528ZM3.46478 13.2448C3.51666 13.0172 3.49591 12.7792 3.57891 12.7378C3.82792 12.6136 4.11844 12.4584 4.44008 12.7275L3.46478 13.2448ZM8.05076 12.7171C8.00926 12.2618 8.01964 11.7651 7.89513 11.3098C7.67725 10.482 7.39711 10.3682 6.60857 10.689C6.52556 10.72 6.44256 10.7511 6.3388 10.7925C6.56706 10.4199 7.09622 10.0681 7.48011 10.0578C7.60462 10.0681 7.72912 10.1095 7.8225 10.2026C8.43466 10.7304 8.53841 12.0859 8.05076 12.7171Z" fill="#2BA55D"/>
<path d="M0.404406 22.4956C0.228022 22.7336 0.124267 23.0336 0.103516 23.3337C0.113891 23.5614 0.217646 23.7787 0.39403 23.9132C0.539288 24.0063 0.798676 23.9235 1.00619 23.9132C1.08919 23.9028 1.17219 23.8408 1.24482 23.8614C1.81548 23.9546 2.03336 23.9028 2.28238 23.4062C2.57289 22.837 3.02941 22.5887 3.62082 22.4852C3.72458 22.4645 3.80758 22.3921 3.85946 22.299C3.97359 21.6988 4.06697 21.0883 4.19147 20.3433C3.27843 20.6951 2.39651 20.9641 1.58722 21.378C1.13069 21.616 0.757174 22.0817 0.404406 22.4956Z" fill="#2BA55D"/>
<path d="M36.7911 30.5148C35.1103 30.1112 33.4502 29.6146 31.7486 29.3145C29.1858 28.8592 26.6023 28.5384 24.0292 28.1659C23.3133 28.0624 22.5974 27.9589 21.8815 27.8555C21.8815 27.8762 21.8711 27.8969 21.8711 27.9176L43.1202 32.129C42.9957 32.0462 42.8608 31.9842 42.7155 31.9531C40.7338 31.4875 38.7624 31.0011 36.7911 30.5148Z" fill="#2BA55D"/>
<path d="M26.6232 27.4312L26.6335 27.3691L15.179 24.9995L15.1582 25.0823C16.1231 25.3824 17.0881 25.6928 18.0634 25.9722C18.9868 26.2412 19.9102 26.531 20.844 26.7069C22.0268 26.9242 23.22 27.0173 24.4132 27.1622C25.1602 27.2449 25.8865 27.3381 26.6232 27.4312Z" fill="#2BA55D"/>
<path d="M6.92006 21.6679C6.71255 21.6989 6.48429 21.792 6.56729 22.03C6.62954 22.2059 6.82668 22.4232 6.99269 22.4543C7.96799 22.5992 8.94329 22.6819 9.91858 22.8165C10.5411 22.8992 11.1533 23.0338 11.7654 23.1372L11.8069 22.982C10.3129 22.5474 8.81878 22.1025 7.31433 21.6679C7.18982 21.6472 7.05494 21.6472 6.92006 21.6679Z" fill="#2BA55D"/>
<path d="M8.05181 12.7067C8.0103 12.2514 8.02068 11.7547 7.89617 11.2994C7.67829 10.4716 7.39815 10.3578 6.60961 10.6786C6.5266 10.7096 6.4436 10.7407 6.33984 10.782C6.56811 10.4095 7.09726 10.0577 7.48115 10.0474C7.60566 10.0577 7.73017 10.1094 7.82354 10.1922C8.4357 10.7303 8.53946 12.0858 8.05181 12.7067Z" fill="#237745"/>
<path d="M13.4674 13.5552C13.3429 13.5862 13.2288 13.6276 13.1146 13.6793C13.0627 13.7104 13.042 13.7621 13.042 13.8242C13.0835 13.9587 13.1457 14.0829 13.208 14.2071C13.2391 14.2381 13.2806 14.2485 13.3221 14.2278C13.4778 14.145 13.6023 14.0001 13.6645 13.8346C13.706 13.6897 13.6334 13.5862 13.4674 13.5552Z" fill="#131413"/>
<path d="M12.2123 12.5928C12.3264 12.5721 12.4405 12.5514 12.5547 12.51C12.6065 12.4997 12.648 12.4583 12.6688 12.4169C12.7207 12.3238 12.6792 12.21 12.5858 12.1582C12.5028 12.1065 12.4094 12.0547 12.3056 12.0237C12.3056 12.0237 12.2953 12.0134 12.2849 12.0134C12.2123 11.9823 12.1293 12.0237 12.0981 12.0961C12.0566 12.1686 12.0255 12.241 12.0048 12.3238C11.9529 12.5411 11.9736 12.5721 12.2123 12.5928Z" fill="#131413"/>
<path d="M11.7555 14.2488C11.6829 14.1971 11.5999 14.1557 11.5168 14.1246C11.5065 14.1246 11.5065 14.1143 11.4961 14.1143C11.4338 14.0936 11.3612 14.1246 11.3405 14.1867C11.299 14.2799 11.2678 14.3833 11.2471 14.4868C11.2367 14.5489 11.2678 14.5903 11.3301 14.5903C11.3612 14.5903 11.4027 14.6006 11.4338 14.6006V14.611C11.5272 14.6006 11.631 14.5799 11.7244 14.5489C11.7659 14.5385 11.8074 14.5075 11.8281 14.4661C11.8696 14.3937 11.8385 14.2902 11.7555 14.2488Z" fill="#131413"/>
<path d="M11.0393 12.8724C10.946 12.9138 10.863 12.9655 10.7903 13.038C10.7592 13.0793 10.7488 13.1311 10.7696 13.1828C10.8318 13.276 10.9045 13.3587 10.9875 13.4312C11.0186 13.4415 11.0601 13.4415 11.0912 13.4208C11.1639 13.307 11.2261 13.1828 11.2676 13.1207C11.2884 12.9034 11.1846 12.8103 11.0393 12.8724Z" fill="#131413"/>
<path d="M10.4895 11.4861C10.5206 11.5275 10.5621 11.5585 10.614 11.5689C10.7178 11.5896 10.8215 11.5172 10.8423 11.4137C10.8734 11.3102 10.8941 11.2171 10.9045 11.1136C10.9045 11.1032 10.9045 11.1032 10.9045 11.0929C10.9149 11.0101 10.8526 10.948 10.78 10.9377C10.697 10.917 10.614 10.917 10.531 10.917C10.2924 10.917 10.282 10.948 10.3235 11.1757C10.3754 11.2895 10.4272 11.393 10.4895 11.4861Z" fill="#131413"/>
<path d="M9.46202 12.9136C9.66953 12.8722 9.73178 12.7377 9.6384 12.6239C9.57615 12.5514 9.50352 12.479 9.41014 12.4273C9.35826 12.4066 9.30639 12.4169 9.26488 12.448C9.19226 12.5307 9.13 12.6342 9.07812 12.7274C9.07812 12.7687 9.0885 12.7998 9.11963 12.8205C9.25451 12.8619 9.38939 12.8929 9.46202 12.9136Z" fill="#131413"/>
<path d="M9.77383 14.0523C9.7012 14.0316 9.62857 14.0006 9.55594 13.9902C9.52482 14.0213 9.45219 14.042 9.44181 14.0834C9.42106 14.1661 9.41069 14.2593 9.42106 14.3421C9.42106 14.3627 9.47294 14.4145 9.49369 14.4145C9.60782 14.3938 9.71158 14.3524 9.81533 14.3007C9.84646 14.28 9.86721 14.2489 9.87758 14.2179C9.88796 14.1351 9.83608 14.0627 9.77383 14.0523Z" fill="#131413"/>
<path d="M9.5043 15.5318C9.43167 15.5111 9.35904 15.4801 9.28641 15.4697C9.25529 15.5008 9.18266 15.5215 9.17228 15.5629C9.15153 15.6456 9.14116 15.7388 9.15153 15.8215C9.15153 15.8422 9.20341 15.894 9.22416 15.894C9.33829 15.8733 9.44205 15.8319 9.5458 15.7802C9.57693 15.7595 9.59768 15.7284 9.60806 15.6974C9.61843 15.6249 9.57693 15.5525 9.5043 15.5318Z" fill="#131413"/>
<path d="M26.7174 22.144C26.5929 22.1751 26.4788 22.2165 26.3646 22.2682C26.3127 22.2993 26.292 22.351 26.292 22.4131C26.3335 22.5476 26.3957 22.6718 26.458 22.7959C26.4891 22.827 26.5306 22.8373 26.5721 22.8166C26.7278 22.7339 26.8523 22.589 26.9145 22.4234C26.956 22.2682 26.873 22.1647 26.7174 22.144Z" fill="#131413"/>
<path d="M26.1461 16.2662C26.0631 16.2145 25.9698 16.1628 25.866 16.1214C25.866 16.1214 25.8556 16.111 25.8453 16.111C25.7726 16.08 25.6896 16.1214 25.6585 16.1938C25.617 16.2662 25.5859 16.3387 25.5651 16.4214C25.5029 16.6491 25.5236 16.6698 25.7623 16.7008C25.8764 16.6801 25.9905 16.6594 26.1046 16.618C26.1565 16.6077 26.198 16.5663 26.2188 16.5249C26.2707 16.4318 26.2395 16.3076 26.1461 16.2662Z" fill="#131413"/>
<path d="M30.2969 22.8888C30.2139 22.837 30.1205 22.7853 30.0168 22.7439L30.0064 22.7336C29.9338 22.7025 29.8508 22.7439 29.8196 22.8164C29.7781 22.8888 29.747 22.9612 29.7263 23.044C29.664 23.2717 29.6848 23.2923 29.9234 23.3234C30.0375 23.3027 30.1517 23.282 30.2658 23.2406C30.3177 23.2303 30.3592 23.1889 30.3799 23.1475C30.4318 23.0544 30.4007 22.9405 30.2969 22.8888Z" fill="#131413"/>
<path d="M22.691 22.2576C22.6184 22.2059 22.5354 22.1645 22.4524 22.1334C22.442 22.1334 22.442 22.1231 22.4316 22.1231C22.3694 22.1024 22.2968 22.1334 22.276 22.1955C22.2345 22.2886 22.2034 22.3921 22.1826 22.4956C22.1723 22.5577 22.2034 22.5991 22.2656 22.5991C22.2968 22.5991 22.3383 22.6094 22.3694 22.6094V22.6198C22.4628 22.6094 22.5665 22.5887 22.6599 22.5577C22.7014 22.5473 22.7429 22.5163 22.7637 22.4749C22.8052 22.4025 22.774 22.299 22.691 22.2576Z" fill="#131413"/>
<path d="M24.2786 17.9632C24.1852 18.0046 24.1022 18.0563 24.0296 18.1288C23.9985 18.1702 23.9881 18.2219 24.0088 18.2736C24.0711 18.3668 24.1437 18.4496 24.2267 18.522C24.2579 18.5323 24.2994 18.5323 24.3305 18.5116C24.4031 18.3978 24.4654 18.2736 24.5069 18.2116C24.5276 17.9943 24.4239 17.9011 24.2786 17.9632Z" fill="#131413"/>
<path d="M30.5667 17.4978C30.4733 17.5392 30.3903 17.591 30.3177 17.6634C30.2866 17.7048 30.2762 17.7565 30.2969 17.8083C30.3592 17.9014 30.4318 17.9842 30.5148 18.0566C30.5459 18.067 30.5874 18.067 30.6186 18.0463C30.6912 17.9324 30.7535 17.8083 30.795 17.7462C30.8157 17.5289 30.7016 17.4461 30.5667 17.4978Z" fill="#131413"/>
<path d="M34.4261 17.032C34.3327 17.0734 34.2497 17.1251 34.1771 17.1976C34.1459 17.239 34.1356 17.2907 34.1563 17.3424C34.2186 17.4356 34.2912 17.5184 34.3742 17.5908C34.4053 17.6011 34.4468 17.6011 34.4779 17.5804C34.5506 17.4666 34.6128 17.3424 34.6543 17.2804C34.6751 17.0631 34.5713 16.9803 34.4261 17.032Z" fill="#131413"/>
<path d="M22.8054 16.256C22.7224 16.2354 22.6394 16.2354 22.5564 16.2354C22.3178 16.2354 22.3074 16.2664 22.3489 16.494C22.4008 16.5975 22.4526 16.701 22.5149 16.7941C22.546 16.8355 22.5875 16.8666 22.6394 16.8769C22.7432 16.8976 22.8469 16.8252 22.8677 16.7217C22.8988 16.6182 22.9195 16.5251 22.9299 16.4216C22.9299 16.4113 22.9299 16.4113 22.9299 16.4009C22.9403 16.3388 22.8884 16.2664 22.8054 16.256Z" fill="#131413"/>
<path d="M21.4874 18.2222C21.6949 18.1808 21.7572 18.0463 21.6638 17.9325C21.6015 17.86 21.5289 17.7876 21.4355 17.7359C21.3837 17.7152 21.3318 17.7255 21.2903 17.7566C21.2176 17.8393 21.1554 17.9428 21.1035 18.0359C21.1035 18.0773 21.1139 18.1084 21.145 18.1291C21.2799 18.1808 21.4148 18.2015 21.4874 18.2222Z" fill="#131413"/>
<path d="M42.5602 11.9C42.4772 11.8483 42.3838 11.7965 42.2801 11.7552C42.2801 11.7552 42.2697 11.7448 42.2593 11.7448C42.1867 11.7138 42.1037 11.7552 42.0726 11.8276C42.0311 11.9 41.9999 11.9724 41.9792 12.0552C41.9169 12.2829 41.9377 12.3036 42.1763 12.3346C42.2905 12.3139 42.4046 12.2932 42.5187 12.2518C42.5706 12.2415 42.6121 12.2001 42.6329 12.1587C42.6951 12.0552 42.6536 11.9414 42.5602 11.9Z" fill="#131413"/>
<path d="M43.5049 13.4107C43.5568 13.3175 43.5153 13.2037 43.4219 13.152C43.3389 13.1002 43.2455 13.0485 43.1418 13.0071L43.1314 12.9968C43.0588 12.9657 42.9758 13.0071 42.9446 13.0795C42.9031 13.152 42.872 13.2244 42.8513 13.3072C42.789 13.5348 42.8098 13.5555 43.0484 13.5866C43.1625 13.5659 43.2767 13.5452 43.3908 13.5038C43.4427 13.4934 43.4842 13.4521 43.5049 13.4107Z" fill="#131413"/>
<path d="M41.3776 16.0597C41.2946 16.0079 41.2012 15.9562 41.0975 15.9148C41.0975 15.9148 41.0871 15.9045 41.0767 15.9045C41.0041 15.8734 40.9211 15.9148 40.89 15.9873C40.8485 16.0597 40.8173 16.1321 40.7966 16.2149C40.7343 16.4426 40.7551 16.4632 40.9937 16.4943C41.1078 16.4736 41.222 16.4529 41.3361 16.4115C41.388 16.4012 41.4295 16.3598 41.4502 16.3184C41.5125 16.2252 41.471 16.1114 41.3776 16.0597Z" fill="#131413"/>
<path d="M37.902 17.2496C37.819 17.1979 37.7256 17.1462 37.6219 17.1048C37.6219 17.1048 37.6115 17.0944 37.6011 17.0944C37.5285 17.0634 37.4455 17.1048 37.4144 17.1772C37.3729 17.2496 37.3417 17.3221 37.321 17.4048C37.2587 17.6325 37.2795 17.6532 37.5181 17.6842C37.6323 17.6635 37.7464 17.6428 37.8605 17.6015C37.9124 17.5911 37.9539 17.5497 37.9746 17.5083C38.0369 17.4152 37.9954 17.3014 37.902 17.2496Z" fill="#131413"/>
<path d="M40.9313 19.7433C40.8483 19.6915 40.7549 19.6398 40.6512 19.5984C40.6512 19.5984 40.6408 19.5881 40.6304 19.5881C40.5578 19.557 40.4748 19.5984 40.4437 19.6708C40.4022 19.7433 40.371 19.8157 40.3503 19.8985C40.288 20.1261 40.3088 20.1468 40.5474 20.1779C40.6615 20.1572 40.7757 20.1365 40.8898 20.0951C40.9417 20.0848 40.9832 20.0434 41.0039 20.002C41.0662 19.9088 41.0351 19.795 40.9313 19.7433Z" fill="#131413"/>
<path d="M46.1195 0.98327C46.1922 0.869446 46.2544 0.745275 46.2959 0.683189C46.3063 0.465889 46.2025 0.383108 46.0677 0.434846C45.9743 0.476237 45.8913 0.527975 45.8187 0.600408C45.7875 0.641799 45.7772 0.693537 45.7979 0.745275C45.8602 0.838403 45.9328 0.921184 46.0158 0.993618C46.0469 1.00397 46.0884 1.00397 46.1195 0.98327Z" fill="#131413"/>
<path d="M43.3902 7.80224C43.4421 7.90572 43.494 8.00919 43.5562 8.10232C43.5874 8.14371 43.6289 8.17476 43.6808 8.1851C43.7845 8.2058 43.8883 8.13337 43.909 8.02989C43.9401 7.92641 43.9609 7.83328 43.9713 7.72981C43.9713 7.71946 43.9713 7.71946 43.9713 7.70911C43.9816 7.62633 43.9194 7.56425 43.8468 7.5539C43.7638 7.5332 43.6808 7.5332 43.5978 7.5332C43.3695 7.54355 43.3487 7.56425 43.3902 7.80224Z" fill="#131413"/>
<path d="M45.362 6.612C45.279 6.59131 45.196 6.59131 45.113 6.59131C44.8744 6.59131 44.864 6.62235 44.9055 6.85C44.9574 6.95348 45.0093 7.05695 45.0715 7.15008C45.1026 7.19147 45.1442 7.22252 45.196 7.23286C45.2998 7.25356 45.4035 7.18113 45.4243 7.07765C45.4554 6.97417 45.4762 6.88104 45.4865 6.77757C45.4865 6.76722 45.4865 6.76722 45.4865 6.75687C45.4969 6.68444 45.4347 6.612 45.362 6.612Z" fill="#131413"/>
<path d="M44.6775 3.97368C44.7812 3.99437 44.885 3.92194 44.9057 3.81846C44.9369 3.71499 44.9576 3.62186 44.968 3.51838C44.968 3.50803 44.968 3.50803 44.968 3.49769C44.9784 3.41491 44.9161 3.35282 44.8435 3.34247C44.7605 3.32178 44.6775 3.32178 44.5945 3.32178C44.3558 3.32178 44.3455 3.35282 44.387 3.58047C44.4388 3.68394 44.4907 3.78742 44.553 3.88055C44.5841 3.93229 44.6256 3.96333 44.6775 3.97368Z" fill="#131413"/>
<path d="M46.5344 2.88685C46.5448 2.80407 46.4825 2.74198 46.4099 2.73163C46.3269 2.71094 46.2439 2.71094 46.1609 2.71094C45.9222 2.71094 45.9119 2.74198 45.9534 2.96963C46.0053 3.0731 46.0571 3.17658 46.1194 3.26971C46.1505 3.3111 46.192 3.34214 46.2439 3.35249C46.3477 3.37318 46.4514 3.30075 46.4722 3.19728C46.5033 3.0938 46.524 3.00067 46.5344 2.89719C46.5344 2.89719 46.5344 2.89719 46.5344 2.88685Z" fill="#131413"/>
<path d="M44.8222 9.95461C44.7704 9.93392 44.7185 9.94427 44.677 9.97531C44.6044 10.0581 44.5421 10.1616 44.4902 10.2547C44.4902 10.2961 44.5006 10.3271 44.5317 10.3478C44.6562 10.3892 44.7911 10.4099 44.8741 10.4306C45.0816 10.3892 45.1439 10.2547 45.0505 10.1409C44.9883 10.0684 44.9053 10.0064 44.8222 9.95461Z" fill="#131413"/>
<path d="M19.4961 19.3399C19.4442 19.3192 19.3923 19.3295 19.3508 19.3606C19.2782 19.4433 19.2159 19.5468 19.1641 19.64C19.1641 19.6813 19.1744 19.7124 19.2056 19.7331C19.3301 19.7745 19.465 19.7952 19.548 19.8159C19.7555 19.7745 19.8177 19.64 19.7243 19.5261C19.6517 19.4537 19.5791 19.3916 19.4961 19.3399Z" fill="#131413"/>
<path d="M21.5088 20.0952C21.4569 20.0745 21.405 20.0849 21.3635 20.1159C21.2909 20.1987 21.2286 20.3022 21.1768 20.3953C21.1768 20.4367 21.1871 20.4677 21.2183 20.4884C21.3428 20.5298 21.4776 20.5505 21.5607 20.5712C21.7682 20.5298 21.8304 20.3953 21.737 20.2815C21.6748 20.2194 21.6022 20.147 21.5088 20.0952Z" fill="#131413"/>
<path d="M24.0717 20.2193C23.9991 20.1986 23.9264 20.1676 23.8538 20.1572C23.8227 20.1883 23.75 20.209 23.7397 20.2504C23.7189 20.3331 23.7085 20.4263 23.7189 20.509C23.7189 20.5297 23.7708 20.5815 23.7915 20.5815C23.9057 20.5608 24.0094 20.5194 24.1132 20.4677C24.1443 20.447 24.1651 20.4159 24.1754 20.3849C24.1858 20.3021 24.1443 20.2297 24.0717 20.2193Z" fill="#131413"/>
<path d="M27.7338 19.4844C27.6612 19.4638 27.5885 19.4327 27.5159 19.4224C27.4848 19.4534 27.4122 19.4741 27.4018 19.5155C27.381 19.5983 27.3706 19.6914 27.381 19.7742C27.381 19.7949 27.4329 19.8466 27.4537 19.8466C27.5678 19.8259 27.6715 19.7845 27.7753 19.7328C27.8064 19.7121 27.8272 19.6811 27.8375 19.65C27.8479 19.5776 27.8064 19.5051 27.7338 19.4844Z" fill="#131413"/>
<path d="M31.8012 21.1505C31.7285 21.1298 31.6559 21.0987 31.5833 21.0884C31.5522 21.1194 31.4795 21.1401 31.4692 21.1815C31.4484 21.2643 31.438 21.3574 31.4484 21.4402C31.4484 21.4609 31.5003 21.5126 31.521 21.5126C31.6352 21.4919 31.7389 21.4505 31.8427 21.3988C31.8738 21.3781 31.8946 21.3471 31.9049 21.316C31.9153 21.2436 31.8738 21.1712 31.8012 21.1505Z" fill="#131413"/>
<path d="M28.7924 16.0284C28.7198 16.0077 28.6471 15.9767 28.5745 15.9663C28.5434 15.9974 28.4707 16.018 28.4604 16.0594C28.4396 16.1422 28.4292 16.2353 28.4396 16.3181C28.4396 16.3388 28.4915 16.3906 28.5122 16.3906C28.6264 16.3699 28.7301 16.3285 28.8339 16.2767C28.865 16.256 28.8858 16.225 28.8961 16.194C28.9065 16.1215 28.865 16.0491 28.7924 16.0284Z" fill="#131413"/>
<path d="M19.2055 22.8165C19.1328 22.7958 19.0602 22.7647 18.9876 22.7544C18.9565 22.7854 18.8838 22.8061 18.8735 22.8475C18.8527 22.9303 18.8423 23.0234 18.8527 23.1062C18.8527 23.1269 18.9046 23.1786 18.9253 23.1786C19.0395 23.158 19.1432 23.1166 19.247 23.0648C19.2781 23.0441 19.2989 23.0131 19.3092 22.982C19.3196 22.8993 19.2677 22.8268 19.2055 22.8165Z" fill="#131413"/>
<path d="M18.8837 17.198C19.0393 17.1152 19.1638 16.9703 19.226 16.8048C19.2676 16.6599 19.1949 16.5564 19.0289 16.5254C18.9044 16.5564 18.7903 16.5978 18.6761 16.6496C18.6243 16.6806 18.6035 16.7323 18.6035 16.7944C18.645 16.929 18.7073 17.0531 18.7695 17.1773C18.8007 17.2083 18.8422 17.2083 18.8837 17.198Z" fill="#131413"/>
<path d="M18.7901 14.6211C18.842 14.528 18.8005 14.4142 18.7071 14.3624C18.6241 14.3107 18.5307 14.2589 18.4269 14.2176L18.4166 14.2072C18.3439 14.1762 18.2609 14.2176 18.2298 14.29C18.1883 14.3624 18.1572 14.4349 18.1364 14.5176C18.0742 14.7453 18.0949 14.766 18.3336 14.797C18.4477 14.7763 18.5618 14.7556 18.676 14.7142C18.7175 14.7039 18.759 14.6625 18.7901 14.6211Z" fill="#131413"/>
<path d="M35.1934 24.7306C35.1104 24.6788 35.017 24.6271 34.9132 24.5857L34.9029 24.5754C34.8302 24.5443 34.7472 24.5857 34.7161 24.6581C34.6746 24.7306 34.6435 24.803 34.6227 24.8858C34.5605 25.1134 34.5812 25.1341 34.8199 25.1652C34.934 25.1445 35.0481 25.1238 35.1623 25.0824C35.2141 25.072 35.2556 25.0307 35.2764 24.9893C35.3283 24.8961 35.2971 24.7823 35.1934 24.7306Z" fill="#131413"/>
<path d="M37.5284 28.5699C37.4454 28.5182 37.352 28.4665 37.2482 28.4251L37.2378 28.4147C37.1652 28.3837 37.0822 28.4251 37.0511 28.4975C37.0096 28.5699 36.9785 28.6527 36.9577 28.7251C36.8955 28.9528 36.9162 28.9735 37.1548 29.0045C37.269 28.9838 37.3831 28.9631 37.4972 28.9217C37.5491 28.9114 37.5906 28.87 37.6114 28.8286C37.6632 28.7355 37.6321 28.6217 37.5284 28.5699Z" fill="#131413"/>
<path d="M40.361 28.4869C40.278 28.4352 40.1846 28.3835 40.0809 28.3421C40.0809 28.3421 40.0705 28.3317 40.0601 28.3317C39.9875 28.3007 39.9045 28.3421 39.8734 28.4145C39.8319 28.4869 39.8007 28.5594 39.78 28.6421C39.7177 28.8698 39.7385 28.8905 39.9771 28.9215C40.0912 28.9008 40.2054 28.8801 40.3195 28.8388C40.3714 28.8284 40.4129 28.787 40.4336 28.7456C40.4959 28.6525 40.4544 28.5387 40.361 28.4869Z" fill="#131413"/>
<path d="M44.0026 30.2877C43.9196 30.236 43.8262 30.1842 43.7225 30.1428C43.7225 30.1428 43.7121 30.1325 43.7017 30.1325C43.6291 30.1015 43.5461 30.1428 43.515 30.2153C43.4735 30.2877 43.4423 30.3601 43.4216 30.4429C43.3593 30.6706 43.3801 30.6913 43.6187 30.7223C43.7328 30.7016 43.847 30.6809 43.9611 30.6395C44.013 30.6292 44.0545 30.5878 44.0752 30.5464C44.1375 30.4533 44.096 30.3291 44.0026 30.2877Z" fill="#131413"/>
<path d="M47.1045 31.798C47.0215 31.7462 46.9282 31.6945 46.8244 31.6531L46.814 31.6428C46.7414 31.6117 46.6584 31.6531 46.6273 31.7255C46.5858 31.798 46.5546 31.8704 46.5339 31.9532C46.4716 32.1808 46.4924 32.2015 46.731 32.2326C46.8451 32.2119 46.9593 32.1912 47.0734 32.1498C47.1253 32.1394 47.1668 32.098 47.1875 32.0566C47.2394 31.9635 47.1979 31.8497 47.1045 31.798Z" fill="#131413"/>
<path d="M47.9971 34.1681C47.9141 34.1163 47.8207 34.0646 47.717 34.0232L47.7066 34.0129C47.634 33.9818 47.551 34.0232 47.5198 34.0956C47.4783 34.1681 47.4472 34.2405 47.4265 34.3233C47.3642 34.5509 47.385 34.5716 47.6236 34.6027C47.7377 34.582 47.8519 34.5613 47.966 34.5199C48.0179 34.5095 48.0594 34.4682 48.0801 34.4268C48.132 34.3336 48.0905 34.2198 47.9971 34.1681Z" fill="#131413"/>
<path d="M49.7917 35.5646C49.7087 35.5128 49.6153 35.4611 49.5115 35.4197C49.5115 35.4197 49.5012 35.4094 49.4908 35.4094C49.4182 35.3783 49.3352 35.4197 49.304 35.4921C49.2625 35.5646 49.2314 35.637 49.2106 35.7198C49.1484 35.9474 49.1691 35.9681 49.4078 35.9992C49.5219 35.9785 49.6361 35.9578 49.7502 35.9164C49.8021 35.906 49.8436 35.8647 49.8643 35.8233C49.9162 35.7301 49.8851 35.6163 49.7917 35.5646Z" fill="#131413"/>
<path d="M39.6032 25.3102C39.5202 25.2584 39.4268 25.2067 39.3231 25.1653C39.3231 25.1653 39.3127 25.155 39.3023 25.155C39.2297 25.1239 39.1467 25.1653 39.1155 25.2377C39.074 25.3102 39.0429 25.3826 39.0222 25.4654C38.9599 25.693 38.9807 25.7137 39.2193 25.7448C39.3334 25.7241 39.4476 25.7034 39.5617 25.662C39.6136 25.6516 39.6551 25.6103 39.6758 25.5689C39.7381 25.4757 39.6966 25.3619 39.6032 25.3102Z" fill="#131413"/>
<path d="M20.876 14.9005C20.793 14.8488 20.6996 14.797 20.5959 14.7556L20.5855 14.7453C20.5129 14.7142 20.4299 14.7556 20.3987 14.8281C20.3572 14.9005 20.3261 14.9729 20.3054 15.0557C20.2431 15.2834 20.2639 15.3041 20.5025 15.3351C20.6166 15.3144 20.7308 15.2937 20.8449 15.2523C20.8968 15.242 20.9383 15.2006 20.959 15.1592C21.0109 15.0661 20.9694 14.9522 20.876 14.9005Z" fill="#131413"/>
<path d="M17.4623 18.4188C17.5038 18.3361 17.4726 18.2326 17.4 18.1912C17.3274 18.1395 17.2444 18.0981 17.1614 18.067C17.151 18.067 17.151 18.0567 17.1406 18.0567C17.0784 18.036 17.0057 18.067 16.985 18.1291C16.9435 18.2222 16.9124 18.3257 16.8916 18.4292C16.8812 18.4913 16.9124 18.5327 16.9746 18.5327C17.0057 18.5327 17.0472 18.543 17.0784 18.543V18.5534C17.1718 18.543 17.2755 18.5223 17.3689 18.4913C17.4 18.4913 17.4415 18.4602 17.4623 18.4188Z" fill="#131413"/>
<path d="M17.9186 21.2024C17.8459 21.1507 17.7629 21.1093 17.6799 21.0783C17.6696 21.0783 17.6696 21.0679 17.6592 21.0679C17.5969 21.0472 17.5243 21.0783 17.5035 21.1403C17.462 21.2335 17.4309 21.3369 17.4102 21.4404C17.3998 21.5025 17.4309 21.5439 17.4932 21.5439C17.5243 21.5439 17.5658 21.5542 17.5969 21.5542V21.5646C17.6903 21.5542 17.7941 21.5335 17.8874 21.5025C17.9289 21.4922 17.9704 21.4611 17.9912 21.4197C18.0327 21.3576 18.0016 21.2542 17.9186 21.2024Z" fill="#131413"/>
<path d="M17.0258 16.1527C17.0984 16.0389 17.1607 15.9147 17.2022 15.8526C17.2126 15.6353 17.1088 15.5525 16.9739 15.6043C16.8805 15.6457 16.7975 15.6974 16.7249 15.7698C16.6938 15.8112 16.6834 15.863 16.7042 15.9147C16.7664 16.0078 16.839 16.0906 16.922 16.1631C16.9635 16.1837 16.9947 16.1734 17.0258 16.1527Z" fill="#131413"/>
<path d="M16.1648 13.6174C16.0818 13.5967 15.9988 13.5967 15.9158 13.5967C15.6771 13.5967 15.6668 13.6277 15.7083 13.8554C15.7601 13.9588 15.812 14.0623 15.8743 14.1555C15.9054 14.1968 15.9469 14.2279 15.9988 14.2382C16.1025 14.2589 16.2063 14.1865 16.227 14.083C16.2582 13.9795 16.2789 13.8864 16.2893 13.7829C16.2893 13.7726 16.2893 13.7726 16.2893 13.7622C16.2997 13.7002 16.2374 13.6277 16.1648 13.6174Z" fill="#131413"/>
<path d="M14.6396 15.6972C14.6396 15.7386 14.65 15.7696 14.6811 15.7903C14.8057 15.8317 14.9405 15.8524 15.0235 15.8731C15.2311 15.8317 15.2933 15.6972 15.1999 15.5833C15.1377 15.5109 15.065 15.4385 14.9717 15.3867C14.9198 15.366 14.8679 15.3764 14.8264 15.4074C14.7538 15.5109 14.6915 15.604 14.6396 15.6972Z" fill="#131413"/>
<path d="M15.3246 17.022C15.252 17.0014 15.1794 16.9703 15.1067 16.96C15.0756 16.991 15.003 17.0117 14.9926 17.0531C14.9718 17.1359 14.9615 17.229 14.9718 17.3118C14.9718 17.3325 15.0237 17.3842 15.0445 17.3842C15.1586 17.3635 15.2624 17.3221 15.3661 17.2704C15.3972 17.2497 15.418 17.2187 15.4284 17.1876C15.4387 17.1048 15.3972 17.0324 15.3246 17.022Z" fill="#131413"/>
<path d="M15.0648 18.5118C14.9922 18.4911 14.9196 18.4601 14.847 18.4497C14.8158 18.4807 14.7432 18.5014 14.7328 18.5428C14.7121 18.6256 14.7017 18.7187 14.7121 18.8015C14.7121 18.8222 14.764 18.874 14.7847 18.874C14.8988 18.8533 15.0026 18.8119 15.1064 18.7601C15.1375 18.7394 15.1582 18.7084 15.1686 18.6774C15.179 18.5946 15.1271 18.5221 15.0648 18.5118Z" fill="#131413"/>
<path d="M12.6369 20.7778C12.5332 20.7054 12.4294 20.633 12.3257 20.5709C12.2738 20.5502 12.2115 20.5605 12.1597 20.6019C12.0767 20.7158 12.0144 20.8399 11.9521 20.9641C11.9521 21.0055 11.9729 21.0469 12.004 21.0676C12.17 21.14 12.3568 21.1504 12.5228 21.0986C12.6784 21.0469 12.7096 20.9227 12.6369 20.7778Z" fill="#131413"/>
<path d="M7.1799 20.0537C7.07615 19.9813 6.97239 19.9089 6.86864 19.8468C6.81676 19.8261 6.75451 19.8364 6.70263 19.8778C6.61962 19.9916 6.55737 20.1158 6.49512 20.24C6.49512 20.2814 6.51587 20.3228 6.54699 20.3435C6.713 20.4159 6.89976 20.4262 7.06577 20.3745C7.22141 20.3228 7.25253 20.1986 7.1799 20.0537Z" fill="#131413"/>
<path d="M4.92869 21.2436C5.07394 21.1919 5.10507 21.0677 5.03244 20.9229C4.92869 20.8504 4.82493 20.778 4.72118 20.7159C4.6693 20.6952 4.60704 20.7056 4.55517 20.747C4.47216 20.8608 4.40991 20.985 4.34766 21.1091C4.34766 21.1505 4.36841 21.1919 4.39953 21.2126C4.57592 21.285 4.76268 21.2954 4.92869 21.2436Z" fill="#131413"/>
<path d="M5.27072 23.4893C5.16696 23.4168 5.06321 23.3444 4.95946 23.2823C4.90758 23.2616 4.84532 23.272 4.79345 23.3134C4.71044 23.4272 4.64819 23.5514 4.58594 23.6755C4.58594 23.7169 4.60669 23.7583 4.63781 23.779C4.80382 23.8514 4.99058 23.8618 5.15659 23.8101C5.30185 23.7583 5.34335 23.6341 5.27072 23.4893Z" fill="#131413"/>
<path d="M6.37033 23.7788C6.26658 23.7064 6.16282 23.634 6.05907 23.5719C6.00719 23.5512 5.94494 23.5615 5.89306 23.6029C5.81005 23.7167 5.7478 23.8409 5.68555 23.9651C5.68555 24.0065 5.7063 24.0479 5.73742 24.0686C5.90343 24.141 6.09019 24.1513 6.2562 24.0996C6.40146 24.0479 6.44296 23.9237 6.37033 23.7788Z" fill="#131413"/>
<path d="M13.1565 18.9256C13.1565 18.9153 13.1565 18.9153 13.1565 18.9049C13.1358 18.8325 13.0631 18.7808 12.9801 18.8015C12.8971 18.8118 12.8245 18.8429 12.7415 18.8739C12.5236 18.9567 12.5132 18.9877 12.6377 19.1947C12.7208 19.2775 12.8141 19.3499 12.9075 19.412C12.949 19.443 13.0009 19.4534 13.0528 19.443C13.1565 19.4223 13.2292 19.3189 13.2084 19.2154C13.2084 19.1222 13.1877 19.0188 13.1565 18.9256Z" fill="#131413"/>
<path d="M10.9983 19.5674C10.9983 19.557 10.9983 19.5467 10.9879 19.5467C10.9671 19.4846 10.8945 19.4432 10.8323 19.4639C10.7285 19.4949 10.6247 19.526 10.5314 19.5674C10.521 19.5674 10.5106 19.5777 10.5106 19.5777C10.4795 19.6087 10.4691 19.6605 10.5002 19.6915C10.521 19.7226 10.5417 19.7536 10.5521 19.7743L10.5417 19.7847C10.6144 19.8571 10.687 19.9192 10.77 19.9709C10.8011 20.002 10.853 20.0123 10.8945 20.002C10.9879 19.9916 11.0501 19.9088 11.0398 19.8157C11.0398 19.7433 11.0294 19.6501 10.9983 19.5674Z" fill="#131413"/>
<path d="M11.714 18.4291C11.631 18.3773 11.5376 18.3463 11.4338 18.3359C11.382 18.3359 11.3301 18.367 11.3093 18.4084C11.2782 18.5118 11.2471 18.6257 11.2471 18.7395C11.2471 18.7602 11.2989 18.8223 11.3197 18.8119C11.4546 18.8016 11.5895 18.7809 11.6621 18.7705C11.8385 18.6464 11.8385 18.5015 11.714 18.4291Z" fill="#131413"/>
<path d="M12.6275 16.8458C12.5756 16.9492 12.5237 17.0527 12.4822 17.1665C12.4615 17.2183 12.4615 17.27 12.4926 17.3218C12.5445 17.4149 12.6586 17.4563 12.752 17.4149C12.8454 17.3735 12.9388 17.3321 13.0321 17.2804C13.0321 17.2804 13.0425 17.2804 13.0425 17.27C13.1151 17.2286 13.1359 17.1458 13.0944 17.0734C13.0633 17.001 13.0114 16.9285 12.9595 16.8665C12.8246 16.6699 12.7935 16.6699 12.6275 16.8458Z" fill="#131413"/>
<path d="M10.9776 16.7632C10.8635 16.7632 10.7494 16.7632 10.6456 16.7839C10.6145 16.8046 10.5938 16.8356 10.5938 16.877C10.6456 17.0012 10.6975 17.1254 10.7286 17.1978C10.8946 17.3323 11.0295 17.3013 11.0607 17.1564C11.0814 17.0633 11.0918 16.9598 11.0814 16.8667C11.071 16.8149 11.0295 16.7735 10.9776 16.7632Z" fill="#131413"/>
<path d="M12.5958 15.3145C12.4817 15.3145 12.3675 15.3145 12.2638 15.3351C12.2327 15.3558 12.2119 15.3869 12.2119 15.4283C12.2638 15.5524 12.3157 15.6766 12.3468 15.749C12.5128 15.8836 12.6477 15.8525 12.6788 15.7077C12.6996 15.6145 12.7099 15.5111 12.6996 15.4179C12.6892 15.3662 12.6477 15.3248 12.5958 15.3145Z" fill="#131413"/>
<path d="M7.88536 13.1206C7.76085 13.1516 7.64672 13.193 7.53259 13.2448C7.48071 13.2758 7.45996 13.3276 7.45996 13.3896C7.50146 13.5242 7.56372 13.6483 7.62597 13.7725C7.6571 13.8036 7.6986 13.8139 7.7401 13.7932C7.89573 13.7104 8.02024 13.5656 8.0825 13.4C8.124 13.2448 8.05137 13.1413 7.88536 13.1206Z" fill="#131413"/>
<path d="M5.73723 14.1553C5.76836 14.1553 5.80986 14.1657 5.84099 14.1657V14.176C5.93437 14.1657 6.03812 14.145 6.1315 14.1139C6.17301 14.1036 6.21451 14.0725 6.23526 14.0311C6.27676 13.9484 6.24564 13.8449 6.17301 13.8035C6.10038 13.7518 6.01737 13.7104 5.93437 13.6793C5.92399 13.6793 5.92399 13.669 5.91362 13.669C5.85137 13.6483 5.77874 13.6793 5.75799 13.7414C5.71648 13.8345 5.68536 13.938 5.66461 14.0415C5.64385 14.1036 5.67498 14.145 5.73723 14.1553Z" fill="#131413"/>
<path d="M3.62072 15.366C3.54809 15.3143 3.46509 15.2729 3.38208 15.2418C3.37171 15.2418 3.37171 15.2315 3.36133 15.2315C3.29908 15.2108 3.22645 15.2418 3.2057 15.3039C3.1642 15.397 3.13307 15.5005 3.11232 15.604C3.10194 15.6661 3.13307 15.7075 3.19532 15.7075C3.22645 15.7075 3.26795 15.7178 3.29908 15.7178V15.7282C3.39246 15.7178 3.49621 15.6971 3.58959 15.6661C3.63109 15.6557 3.6726 15.6247 3.69335 15.5833C3.73485 15.5109 3.70372 15.4074 3.62072 15.366Z" fill="#131413"/>
<path d="M5.70641 11.2997C5.74791 11.2169 5.71678 11.1134 5.64416 11.0721C5.57153 11.0203 5.48852 10.9789 5.40552 10.9479C5.39514 10.9479 5.39514 10.9375 5.38477 10.9375C5.32251 10.9168 5.24989 10.9479 5.22914 11.01C5.18763 11.1031 5.15651 11.2066 5.13576 11.3101C5.12538 11.3721 5.15651 11.4135 5.21876 11.4135C5.24989 11.4135 5.29139 11.4239 5.32251 11.4239V11.4342C5.41589 11.4239 5.51965 11.4032 5.61303 11.3721C5.64416 11.3618 5.68566 11.3307 5.70641 11.2997Z" fill="#131413"/>
<path d="M7.15881 11.9827C7.08618 11.931 7.00317 11.8896 6.92017 11.8585C6.90979 11.8585 6.90979 11.8482 6.89942 11.8482C6.83716 11.8275 6.76454 11.8585 6.74378 11.9206C6.70228 12.0137 6.67115 12.1172 6.6504 12.2207C6.64003 12.2828 6.67116 12.3242 6.73341 12.3242C6.76454 12.3242 6.80604 12.3345 6.83716 12.3345V12.3449C6.93054 12.3345 7.0343 12.3138 7.12768 12.2828C7.16918 12.2724 7.21068 12.2414 7.23144 12.2C7.27294 12.1276 7.24181 12.0241 7.15881 11.9827Z" fill="#131413"/>
<path d="M16.2584 11.4754C16.1858 11.4236 16.1028 11.3822 16.0198 11.3512C16.0094 11.3512 16.0094 11.3409 15.999 11.3409C15.9368 11.3202 15.8641 11.3512 15.8434 11.4133C15.8019 11.5064 15.7708 11.6099 15.75 11.7134C15.7396 11.7755 15.7708 11.8169 15.833 11.8169C15.8641 11.8169 15.9056 11.8272 15.9368 11.8272V11.8376C16.0302 11.8272 16.1339 11.8065 16.2273 11.7755C16.2688 11.7651 16.3103 11.7341 16.331 11.6927C16.3622 11.6202 16.331 11.5271 16.2584 11.4754Z" fill="#131413"/>
<path d="M14.4323 12.7999V12.8103C14.5256 12.7999 14.6294 12.7793 14.7228 12.7482C14.7643 12.7379 14.8058 12.7068 14.8265 12.6654C14.868 12.5826 14.8369 12.4792 14.7643 12.4378C14.6916 12.386 14.6086 12.3447 14.5256 12.3136C14.5153 12.3136 14.5153 12.3033 14.5049 12.3033C14.4426 12.2826 14.37 12.3136 14.3493 12.3757C14.3078 12.4688 14.2766 12.5723 14.2559 12.6758C14.2455 12.7379 14.2766 12.7793 14.3389 12.7793C14.3596 12.7896 14.4011 12.7896 14.4323 12.7999Z" fill="#131413"/>
<path d="M3.13328 14.0623C3.16441 13.9899 3.13328 13.9071 3.06066 13.8761C2.9984 13.8554 2.93615 13.8347 2.8739 13.814C2.84277 13.845 2.79089 13.8657 2.78052 13.9071C2.75977 13.9899 2.75977 14.083 2.75977 14.1658C2.75977 14.1865 2.80127 14.2382 2.81164 14.2382C2.90502 14.2175 2.9984 14.1761 3.08141 14.1244C3.11253 14.1037 3.12291 14.083 3.13328 14.0623Z" fill="#131413"/>
<path d="M6.76476 15.3042C6.93077 15.4387 7.06565 15.4077 7.09678 15.2628C7.11753 15.1697 7.12791 15.0662 7.11753 14.9731C7.10716 14.9214 7.06565 14.88 7.01378 14.8696C6.89965 14.8696 6.78552 14.8696 6.68176 14.8903C6.65063 14.911 6.62988 14.9421 6.62988 14.9835C6.67138 15.118 6.73364 15.2421 6.76476 15.3042Z" fill="#131413"/>
<path d="M9.24421 20.4987C9.2027 20.4883 9.14045 20.4469 9.09895 20.4676C9.01594 20.4987 8.94331 20.5504 8.88106 20.6125C8.86031 20.6228 8.84994 20.6953 8.87069 20.7056C8.95369 20.7781 9.05745 20.8401 9.1612 20.8919C9.27533 20.9333 9.35834 20.8401 9.32721 20.716C9.30646 20.6435 9.27533 20.5711 9.24421 20.4987Z" fill="#131413"/>
<path d="M6.1319 21.6574C6.11115 21.5849 6.08002 21.5125 6.04889 21.4401C6.00739 21.4297 5.94514 21.3883 5.90364 21.409C5.82063 21.4401 5.748 21.4918 5.68575 21.5539C5.665 21.5642 5.65462 21.6367 5.67537 21.647C5.75838 21.7195 5.86213 21.7815 5.96589 21.8333C6.06964 21.8747 6.16302 21.7712 6.1319 21.6574Z" fill="#131413"/>
<path d="M14.7022 21.2853C14.6607 21.2749 14.5985 21.2336 14.557 21.2543C14.474 21.2853 14.4013 21.337 14.3391 21.3991C14.3183 21.4095 14.3079 21.4819 14.3287 21.4922C14.4117 21.5647 14.5155 21.6268 14.6192 21.6785C14.7333 21.7199 14.8163 21.6268 14.7852 21.5026C14.7541 21.4198 14.7333 21.3474 14.7022 21.2853Z" fill="#131413"/>
<path d="M0.40441 22.5474C0.331781 22.6509 0.259152 22.7544 0.196899 22.8579C0.176148 22.9096 0.186523 22.9717 0.228026 23.0234C0.342156 23.1062 0.466663 23.1683 0.591169 23.2304C0.632671 23.2304 0.674173 23.2097 0.694924 23.1786C0.767553 23.0131 0.777929 22.8268 0.726051 22.6613C0.674173 22.506 0.549667 22.475 0.40441 22.5474Z" fill="#131413"/>
<path d="M2.35558 22.2369C2.28295 22.3404 2.21032 22.4438 2.14807 22.5473C2.12732 22.5991 2.1377 22.6611 2.1792 22.7129C2.29333 22.7957 2.41783 22.8577 2.54234 22.9198C2.58384 22.9198 2.62535 22.8991 2.6461 22.8681C2.71873 22.7025 2.7291 22.5163 2.67722 22.3507C2.62535 22.1955 2.50084 22.1645 2.35558 22.2369Z" fill="#131413"/>
<path d="M3.27843 20.8606C3.2058 20.9641 3.13318 21.0676 3.07092 21.1711C3.05017 21.2228 3.06055 21.2849 3.10205 21.3366C3.21618 21.4194 3.34069 21.4815 3.46519 21.5436C3.50669 21.5436 3.5482 21.5229 3.56895 21.4918C3.64158 21.3263 3.65195 21.14 3.60007 20.9745C3.5482 20.8192 3.42369 20.7778 3.27843 20.8606Z" fill="#131413"/>
<path d="M33.2955 20.0643L40.299 21.844L40.2782 21.6888C40.2678 21.6061 40.2575 21.5336 40.2471 21.4612C40.2263 21.3267 40.216 21.2232 40.216 21.1197C40.216 20.7058 40.0188 20.4471 39.5727 20.3023C39.002 20.116 38.421 19.8883 37.8607 19.6814C37.6428 19.5986 37.4146 19.5158 37.1967 19.4331L36.3355 19.1123L53.756 24.0377L53.8494 24.0688L53.9428 23.8204L39.7283 18.3052C39.7594 18.2638 39.8009 18.2327 39.8321 18.1913C39.967 18.0465 40.0915 17.912 40.216 17.7878C41.3573 16.6806 42.3948 15.4699 43.3183 14.1765C44.2832 12.8209 44.8538 11.693 45.1547 10.5238C45.6527 8.6198 45.8914 7.00557 45.9121 5.46377C45.9225 4.64631 46.1819 3.87024 46.6695 3.20799C46.8667 2.93896 47.0742 2.65957 47.2713 2.40088C47.4788 2.13184 47.6967 1.84211 47.8939 1.56272C48.1117 1.26264 48.174 0.962563 48.091 0.71422C47.9976 0.45553 47.759 0.258925 47.3958 0.145101C46.7629 -0.103241 46.047 0.000234743 45.4867 0.383096C44.4181 1.13847 43.8267 1.96628 43.671 2.92861C43.5258 3.94268 43.4324 4.97744 43.4116 6.00185C43.3598 7.60573 43.1522 9.69595 42.0732 11.5792C41.0979 13.2452 39.9255 14.7973 38.587 16.1839C37.8088 17.0117 36.9062 17.3428 35.8479 17.198C34.5717 17.0221 33.2955 16.7944 32.1853 16.5771C28.8963 15.9563 25.5553 15.3147 22.2663 14.6732C22.0484 14.6214 21.8409 14.5179 21.6956 14.3627C21.4051 14.0419 21.0316 13.8143 20.6166 13.7108C20.4195 13.6694 20.2223 13.597 20.0356 13.5349C19.9526 13.5039 19.8695 13.4832 19.7969 13.4521L19.4753 13.3487L27.8587 15.2837L27.9417 14.9836L18.3132 11.9103L20.0044 12.169L19.7243 11.931C19.4234 11.6723 19.1018 11.4654 18.7905 11.2584C18.6452 11.1653 18.5 11.0618 18.3547 10.9687C17.8567 10.6169 17.3379 10.472 16.8295 10.5445C16.3107 10.6169 15.7816 10.71 15.2732 10.7928C14.91 10.8549 14.5469 10.9273 14.1838 10.9791C13.9866 11.0101 13.7999 10.9894 13.7272 10.9273C12.7416 10.1512 11.6521 9.86151 10.3759 10.0374C9.58739 10.1512 9.01674 10.0478 8.51871 9.6856C8.28008 9.54073 8.03106 9.42691 7.7613 9.37517C7.10764 9.20961 6.703 9.36483 6.28798 9.93394C6.21535 10.0271 6.10122 10.0892 5.98708 10.0995C4.89765 10.203 3.93273 10.6272 3.05081 11.4033C2.73954 11.6723 2.64616 11.9724 2.74992 12.3139C2.81217 12.5415 2.74992 12.7175 2.54241 12.9037C2.28302 13.1521 2.03401 13.4211 1.81612 13.6901C1.58786 13.9488 1.57748 14.2179 1.80575 14.5283C2.12739 14.9732 2.43865 15.4389 2.72917 15.8838L2.85367 16.0701C3.07156 16.4116 3.3932 16.515 3.75635 16.3702C3.88085 16.3288 4.00536 16.2667 4.10911 16.1839C4.52413 15.7907 4.93916 15.77 5.45793 16.1218C5.98708 16.484 6.54736 16.4426 7.11802 16.008C7.34628 15.8321 7.66792 15.7803 7.99994 15.8735C8.35271 15.9666 8.6536 16.2046 8.7781 16.4943C9.06862 17.1669 9.36951 17.8395 9.66002 18.5018C9.7949 18.8018 9.92979 19.1123 10.0647 19.4124C9.92979 19.4124 9.78453 19.402 9.64965 19.402C9.22425 19.3917 8.82998 19.3917 8.41496 19.3606C8.16595 19.3503 7.91693 19.3192 7.66792 19.2882C7.30478 19.2468 6.93126 19.2054 6.55774 19.2054C5.71732 19.2054 5.08441 19.5365 4.73165 20.1781C4.54489 20.5402 4.39963 20.9128 4.31662 21.306C4.02611 22.4339 4.26475 23.4583 5.01178 24.3585C5.22967 24.6276 5.63432 24.7517 5.98708 24.6689C6.24647 24.6069 6.43323 24.4413 6.48511 24.2136C6.50586 24.1205 6.53699 24.0274 6.56811 23.9239C6.703 23.4583 6.86901 22.9202 6.39173 22.3925C6.2361 22.2166 6.18422 21.9993 6.25685 21.7923C6.33985 21.5543 6.56811 21.3681 6.84825 21.306C7.08689 21.2542 7.34628 21.2542 7.57454 21.3163C8.10369 21.4715 8.63285 21.6474 9.14125 21.813C9.77415 22.02 10.4382 22.2269 11.0918 22.4132C11.9115 22.6408 12.7519 22.8478 13.5612 23.0444C13.9659 23.1375 14.3705 23.241 14.7752 23.3445C14.91 23.3755 15.1072 23.4065 15.2421 23.3031C15.3458 23.2203 15.4081 23.0858 15.4184 22.8892C15.4392 22.4856 15.4807 22.082 15.5222 21.6888C15.5533 21.3888 15.5741 21.0783 15.6052 20.7679C15.6156 20.6748 15.6156 20.592 15.6156 20.4989C15.792 21.1715 15.8957 21.8337 15.7505 22.5166C15.6882 22.8064 15.8127 22.9926 16.1032 23.0754C16.4352 23.1685 16.7776 23.2824 17.1097 23.3755C17.8878 23.6135 18.6867 23.8722 19.5064 24.0067C22.3078 24.4827 25.1714 24.9173 27.9313 25.3415C28.9585 25.4968 29.9857 25.652 31.0129 25.8175C31.3345 25.8693 31.6458 25.9107 31.9674 25.9624C32.1127 25.9831 32.2683 26.0038 32.4136 26.0245L32.5173 26.0348L32.5588 25.7658L22.6502 23.2824C23.2727 23.3548 23.8849 23.4376 24.4348 23.51C25.3375 23.6342 26.3646 23.7687 27.4126 23.5721C28.2115 23.4376 29.0311 23.4065 29.8404 23.4583C31.8637 23.5721 33.4407 24.431 34.5509 26.0245C34.966 26.6246 35.3913 27.2352 35.7649 27.8664C36.2214 28.6424 36.8854 29.1909 37.7881 29.5427C38.1512 29.6979 38.5351 29.8324 38.9294 29.9255C40.0292 30.1635 41.4922 30.4636 42.9759 30.7326C43.5361 30.8258 44.0757 31.0741 44.5114 31.4466C45.6942 32.4193 46.6177 33.6093 47.5411 34.8407C48.0184 35.4719 48.5475 36.1341 49.2219 36.8998C49.3672 37.0654 49.5747 37.1585 49.7822 37.1585C49.8133 37.1585 49.8445 37.1585 49.8756 37.1482C50.1039 37.1171 50.301 36.9826 50.4047 36.786C50.6019 36.4031 50.5915 36.0306 50.3944 35.6995C50.384 35.6788 50.3632 35.6581 50.3529 35.6271C50.3217 35.5753 50.2595 35.4925 50.2699 35.4512C50.3321 35.0166 50.0831 34.7475 49.8237 34.5199C49.6992 34.4061 49.5643 34.2715 49.4502 34.1577C49.3049 34.0128 49.1597 33.868 49.004 33.7231C47.8524 32.7194 46.9393 31.4363 46.3687 30.029L46.3583 30.0187C46.2545 29.8428 46.0989 29.7082 45.9121 29.6358C44.1483 28.9218 42.343 28.1975 40.5999 27.5042L39.5934 27.1006L57.9062 31.6639L57.678 31.4052C57.5846 31.2914 57.4497 31.219 57.3148 31.1879C56.1113 30.8051 54.9181 30.4119 53.7145 30.029C49.7511 28.7563 45.6631 27.4318 41.627 26.159C40.9526 25.952 40.714 25.6727 40.7244 25.1242C40.7244 24.7621 40.4857 24.6483 40.2575 24.5758C39.2614 24.2447 38.255 23.9032 37.2797 23.5618L34.6858 22.6719L64.0174 30.2256L64.1212 30.2463L64.1523 30.1428C64.1627 30.1221 64.1627 30.0911 64.1731 30.0704L64.2042 29.9773L33.2955 20.0643ZM32.6315 21.9475L32.5588 22.1959L37.1967 23.7791C38.172 24.1102 39.1784 24.462 40.1745 24.7931C40.4027 24.8656 40.5065 24.938 40.4961 25.1449C40.4857 25.9417 40.9941 26.2107 41.544 26.3763C45.5801 27.6491 49.6785 28.9632 53.6315 30.2463C54.3371 30.474 55.0322 30.7016 55.7378 30.9293L38.7426 26.6971L38.6493 26.6764L38.5559 26.9351L38.7841 27.0282C38.8775 27.0696 38.9813 27.111 39.0747 27.1524L40.4961 27.7215C42.2392 28.4148 44.0342 29.1391 45.8084 29.8531C45.9536 29.9048 46.0678 30.0083 46.1404 30.1325C46.7318 31.5708 47.6656 32.8746 48.838 33.899C48.9937 34.0335 49.1389 34.1784 49.2738 34.3233C49.3983 34.4474 49.5228 34.5716 49.6577 34.6958C49.8963 34.9131 50.0831 35.1097 50.0312 35.4512C50.0105 35.565 50.0831 35.6788 50.1454 35.7719C50.1557 35.7926 50.1765 35.8133 50.1869 35.834C50.3529 36.1031 50.3529 36.3928 50.1869 36.7136C50.1142 36.8481 49.9793 36.9412 49.8237 36.9619C49.6473 36.9826 49.4709 36.9205 49.3568 36.7757C48.6928 36.0099 48.1636 35.358 47.6864 34.7268C46.7526 33.4851 45.8291 32.2848 44.6256 31.2914C44.1587 30.8982 43.5984 30.6395 42.9966 30.536C41.5233 30.267 40.0603 29.9669 38.9605 29.7289C38.587 29.6358 38.2135 29.5116 37.8503 29.3564C36.9892 29.0253 36.3563 28.4976 35.9309 27.7732C35.5574 27.1317 35.1216 26.5108 34.7066 25.921C33.5549 24.2757 31.9155 23.3755 29.8404 23.2617C29.581 23.241 29.332 23.2306 29.0726 23.2306C28.502 23.2306 27.9313 23.2824 27.3607 23.3755C26.3439 23.5721 25.3375 23.4376 24.4452 23.3134C23.4802 23.1789 22.3597 23.034 21.2495 22.9512L21.2184 23.1582L31.0855 25.6623C31.0544 25.6623 31.0232 25.652 30.9921 25.652C29.9649 25.4968 28.9378 25.3312 27.9106 25.176C25.1507 24.7517 22.287 24.3171 19.4857 23.8411C18.6867 23.7066 17.8878 23.4583 17.12 23.2203C16.788 23.1168 16.4456 23.0133 16.1032 22.9099C15.9165 22.8581 15.8646 22.7753 15.8957 22.5994C16.0929 21.6371 15.8231 20.6955 15.5637 19.7952L15.3666 19.1226L15.3458 19.8056C15.3458 19.909 15.3458 20.0125 15.3354 20.116C15.3354 20.3333 15.3251 20.5609 15.3147 20.7886C15.2939 21.099 15.2628 21.4094 15.2317 21.7095C15.1902 22.1027 15.1591 22.5166 15.1279 22.9099C15.1176 23.0444 15.0864 23.1375 15.0345 23.1685C14.9827 23.2099 14.8789 23.2099 14.744 23.1685C14.3394 23.0651 13.9347 22.9719 13.5301 22.8685C12.7208 22.6719 11.8804 22.4649 11.0607 22.2373C10.4071 22.051 9.7534 21.844 9.1205 21.6371C8.60172 21.4715 8.07257 21.2956 7.54341 21.1404C7.27365 21.068 6.98314 21.068 6.71337 21.1301C6.35023 21.2025 6.07009 21.4405 5.95596 21.7509C5.86258 22.0303 5.92483 22.3304 6.13234 22.5684C6.52661 23.0133 6.40211 23.4479 6.26722 23.9032C6.2361 24.0067 6.20497 24.0998 6.18422 24.2033C6.13234 24.3999 5.95596 24.4723 5.84183 24.5034C5.56169 24.5655 5.25042 24.4723 5.08441 24.2654C4.37888 23.4169 4.16099 22.4546 4.43076 21.3991C4.51376 21.0266 4.64864 20.6541 4.82503 20.3229C5.2193 19.609 5.93521 19.4641 6.46436 19.4641C6.8275 19.4641 7.19065 19.5055 7.55379 19.5469C7.8028 19.5779 8.06219 19.609 8.3112 19.6193C8.72623 19.64 9.14125 19.6504 9.55627 19.6607C9.73265 19.6607 9.89866 19.671 10.075 19.671L10.1165 19.7021L10.1788 19.6504C10.1996 19.64 10.2203 19.5986 10.2307 19.5572L10.2722 19.4641H10.2099C10.0647 19.133 9.90904 18.7915 9.76378 18.4604C9.47326 17.8085 9.17237 17.1255 8.88186 16.4633C8.72623 16.1115 8.38383 15.8321 7.95844 15.7183C7.56417 15.6148 7.18027 15.6769 6.90013 15.8942C6.40211 16.277 5.93521 16.3081 5.48906 16.008C4.88728 15.6044 4.3685 15.6251 3.88085 16.0804C3.79785 16.1425 3.70447 16.1943 3.59034 16.2253C3.3102 16.3288 3.10269 16.2667 2.93668 16.008L2.81217 15.8217C2.51128 15.3664 2.21039 14.9008 1.87837 14.4558C1.71237 14.2282 1.71237 14.0626 1.87837 13.8764C2.09626 13.6073 2.34527 13.3487 2.59429 13.1107C2.86405 12.8727 2.95743 12.6036 2.86405 12.3035C2.78105 12.0345 2.86405 11.8172 3.10269 11.6103C3.95348 10.8652 4.8769 10.4513 5.92483 10.3582C6.10122 10.3375 6.25685 10.2547 6.37098 10.1099C6.73412 9.60282 7.05576 9.47865 7.62642 9.63386C7.87543 9.6856 8.10369 9.77873 8.3112 9.91325C8.85073 10.3065 9.46289 10.4203 10.3137 10.2961C11.5276 10.1202 12.5652 10.3996 13.499 11.1343C13.6754 11.2791 13.997 11.2481 14.1215 11.2274C14.4846 11.1757 14.8582 11.1032 15.2213 11.0411C15.7297 10.948 16.2485 10.8549 16.7673 10.7928C17.2238 10.7307 17.6907 10.8652 18.1472 11.186C18.2925 11.2895 18.4481 11.3826 18.5934 11.4861C18.7905 11.6206 18.998 11.7551 19.1951 11.9L17.3587 11.6206L17.286 11.8896L26.5306 14.8387L17.3172 12.7071L17.2238 12.6864L17.1512 12.9037L19.7139 13.6591C19.7969 13.6798 19.8695 13.7108 19.9526 13.7419C20.1497 13.804 20.3468 13.8764 20.5543 13.9178C20.9382 14.0109 21.2702 14.2179 21.5296 14.5076C21.7164 14.6938 21.955 14.8284 22.2144 14.8801C25.5035 15.5217 28.8444 16.1632 32.1334 16.7841C33.2436 16.991 34.5302 17.229 35.8064 17.4049C36.9373 17.5601 37.8918 17.2083 38.7323 16.3184C40.0811 14.9111 41.2639 13.3487 42.2496 11.6723C43.3598 9.74769 43.5569 7.62643 43.6191 5.9915C43.6399 4.97744 43.7229 3.95302 43.8785 2.93896C44.0238 2.02837 44.5737 1.26264 45.6112 0.538311C46.1093 0.186492 46.7629 0.0933633 47.344 0.300316C47.6448 0.393444 47.842 0.548658 47.9042 0.734915C47.9665 0.921172 47.9146 1.14882 47.7382 1.39716C47.5411 1.67655 47.3232 1.95593 47.1157 2.23532C46.9186 2.50436 46.7007 2.7734 46.5139 3.05278C46.0055 3.74607 45.7254 4.56353 45.715 5.42238C45.6942 6.94348 45.4556 8.53702 44.9576 10.4306C44.6567 11.5689 44.1068 12.6761 43.1522 14.0109C42.2392 15.294 41.212 16.5047 40.0811 17.5912C39.9462 17.7257 39.8217 17.8602 39.6868 18.0051C39.6246 18.0775 39.5519 18.1499 39.4793 18.2327L39.3755 18.3466L52.3657 23.3858L34.6962 18.419L34.6132 18.6777L37.1344 19.6297C37.3523 19.7124 37.5806 19.7952 37.7985 19.878C38.3587 20.0953 38.9398 20.3126 39.5104 20.5092C39.8736 20.6334 40.0188 20.7989 40.0085 21.1301C40.0085 21.2439 40.0188 21.3681 40.0396 21.5026C40.0396 21.5233 40.05 21.544 40.05 21.575L30.8054 19.2261L30.7327 19.4744L61.8386 29.4909L32.6315 21.9475Z" fill="#131413"/>
<path d="M4.30585 20.3537L4.33697 20.1675L4.16059 20.2296C3.89082 20.333 3.62106 20.4365 3.3513 20.5296C2.71839 20.7573 2.11661 20.9746 1.54595 21.2747C1.07906 21.5127 0.695161 21.968 0.363144 22.3715L0.321641 22.4233C0.124506 22.682 0.0207511 22.9924 0 23.3235C0.0103755 23.5822 0.124506 23.8305 0.342393 23.9858C0.415021 24.0375 0.498025 24.0478 0.591405 24.0478C0.67441 24.0478 0.767789 24.0375 0.861169 24.0168C0.923422 24.0064 0.985675 23.9961 1.03755 23.9961C1.08943 23.9961 1.13093 23.9754 1.17244 23.9651C1.20356 23.9547 1.23469 23.9444 1.25544 23.9444C1.85722 24.0478 2.12698 23.9858 2.40712 23.4373C2.65614 22.9406 3.05041 22.682 3.67294 22.5785C3.80782 22.5474 3.92195 22.4543 3.9842 22.3301L3.99458 22.3094C4.07758 21.8541 4.15021 21.3988 4.23322 20.8711C4.25397 20.7159 4.27472 20.54 4.30585 20.3537ZM4.01533 20.8504C3.93233 21.3678 3.8597 21.8128 3.77669 22.268C3.74557 22.3301 3.69369 22.3715 3.63144 22.3922C2.94665 22.506 2.5005 22.8061 2.20999 23.3649C1.98173 23.8098 1.81572 23.8512 1.28657 23.7581C1.21394 23.7478 1.15168 23.7685 1.09981 23.7891C1.06868 23.7995 1.03755 23.8098 1.0168 23.8098C0.954549 23.8098 0.892296 23.8202 0.830042 23.8305C0.695161 23.8512 0.539528 23.8719 0.477274 23.8305C0.321641 23.7064 0.228262 23.5201 0.217886 23.3339C0.228262 23.0545 0.321641 22.7854 0.48765 22.5578L0.529152 22.506C0.871545 22.1025 1.21394 21.6886 1.64971 21.4609C2.20999 21.1712 2.80139 20.9539 3.4343 20.7263C3.64181 20.6538 3.8597 20.571 4.07758 20.4883C4.04646 20.6228 4.03608 20.7366 4.01533 20.8504Z" fill="#131413"/>
<path d="M42.7364 31.8708C40.765 31.3844 38.7729 30.8981 36.812 30.4221C36.3139 30.298 35.7952 30.1634 35.3075 30.0393C34.1558 29.7392 32.9523 29.4288 31.7591 29.2218C29.9537 28.901 28.0965 28.6423 26.3119 28.394C25.5649 28.2905 24.7971 28.187 24.0397 28.0732C23.552 28.0008 23.0644 27.9387 22.5767 27.8663L21.7778 27.7524L21.7675 27.8559C21.7675 27.8766 21.7571 27.8973 21.7571 27.918L21.7363 28.0215L43.5768 32.3364L43.1825 32.0467C43.0477 31.9639 42.892 31.8915 42.7364 31.8708ZM24.5481 28.3526C25.1291 28.4354 25.7102 28.5182 26.2808 28.6009C28.0654 28.8493 29.9122 29.108 31.728 29.4288C32.9108 29.6357 34.104 29.9461 35.2556 30.2462C35.7537 30.3704 36.2621 30.5049 36.7705 30.6291C37.8703 30.8981 38.9908 31.1671 40.101 31.4465L24.5481 28.3526Z" fill="#131413"/>
<path d="M24.414 27.2663C24.9743 27.3387 25.545 27.4111 26.1052 27.4836L26.7174 27.556L26.7589 27.287L15.2109 24.8967L15.1072 24.876L15.0449 25.1554L15.1383 25.1864C15.4288 25.2795 15.7193 25.3623 16.0098 25.4554C16.6739 25.6624 17.3587 25.8797 18.0435 26.0763C18.2198 26.128 18.3962 26.1798 18.5726 26.2315C19.3093 26.4488 20.0771 26.6765 20.8448 26.811C21.6645 26.9558 22.5049 27.049 23.3246 27.1421C23.6774 27.1731 24.0509 27.2145 24.414 27.2663ZM18.6245 26.0246C18.4481 25.9728 18.2717 25.9211 18.0953 25.8693C17.5454 25.7141 16.9851 25.5382 16.4456 25.3727L24.7875 27.1007C24.6734 27.0904 24.5593 27.0697 24.4452 27.0593C24.082 27.0179 23.7085 26.9765 23.3453 26.9351C22.5361 26.842 21.6956 26.7489 20.8863 26.604C20.1186 26.4592 19.3611 26.2419 18.6245 26.0246Z" fill="#131413"/>
<path d="M7.33597 21.5751C7.19072 21.544 7.04546 21.544 6.91058 21.5647C6.79645 21.5751 6.58894 21.6268 6.49556 21.7717C6.46443 21.8338 6.42293 21.9269 6.47481 22.0717C6.54743 22.2787 6.7757 22.527 6.98321 22.5581C7.53311 22.6409 8.10376 22.7029 8.65367 22.765C9.06869 22.8168 9.49408 22.8582 9.91948 22.9202C10.3449 22.9823 10.7703 23.0548 11.1853 23.1375C11.3721 23.1789 11.5692 23.21 11.7559 23.241L11.8493 23.2617L11.9323 22.9202L10.8637 22.6098C9.71197 22.2683 8.51878 21.9165 7.33597 21.5751ZM11.2164 22.9306C10.8014 22.8478 10.3656 22.765 9.94023 22.7133C9.51484 22.6616 9.08944 22.6098 8.67442 22.5581C8.12451 22.496 7.56424 22.4339 7.01433 22.3511C6.91058 22.3304 6.73419 22.1545 6.67194 21.9993C6.65119 21.9269 6.66157 21.8958 6.67194 21.8855C6.70307 21.8338 6.80682 21.7924 6.9417 21.7717C6.99358 21.7613 7.04546 21.7613 7.09734 21.7613C7.15959 21.7613 7.22184 21.7717 7.2841 21.782C8.45653 22.1235 9.64972 22.4753 10.8118 22.8064L11.2683 22.9409C11.2475 22.9306 11.2372 22.9306 11.2164 22.9306Z" fill="#131413"/>
<path d="M3.56896 12.6346L3.53783 12.645C3.43408 12.6967 3.41333 12.8312 3.39257 12.9968C3.3822 13.0692 3.37182 13.1417 3.36145 13.2141L3.30957 13.4314L4.62726 12.7381L4.50276 12.6346C4.14999 12.3449 3.81797 12.5105 3.56896 12.6346Z" fill="#131413"/>
<path d="M7.48114 9.95459C7.06612 9.96494 6.50584 10.3168 6.25683 10.741L6.09082 11.01L6.6511 10.7824C7.04537 10.6272 7.28401 10.5858 7.42926 10.6686C7.57452 10.741 7.68865 10.948 7.79241 11.3308C7.87541 11.6413 7.89616 11.9724 7.90654 12.2828C7.91691 12.4277 7.92729 12.5725 7.93766 12.7174L7.96879 12.9761L8.1348 12.7691C8.66395 12.0862 8.53944 10.6789 7.89616 10.1098C7.78203 10.0167 7.63677 9.96494 7.48114 9.95459ZM8.1348 12.3449C8.1348 12.3242 8.1348 12.2932 8.1348 12.2725C8.11405 11.9413 8.0933 11.5999 8.01029 11.2791C7.88579 10.8238 7.7509 10.5858 7.53302 10.4823C7.45001 10.4409 7.35663 10.4202 7.25288 10.4202C7.10762 10.4202 6.93124 10.4616 6.70298 10.5444C6.94161 10.3375 7.25288 10.1822 7.48114 10.1719C7.5849 10.1822 7.68865 10.2133 7.76128 10.2857C8.22818 10.6893 8.38381 11.7033 8.1348 12.3449Z" fill="#131413"/>
</g>
<defs>
<clipPath id="clip0">
<rect width="64.1727" height="37.1583" fill="white"/>
</clipPath>
</defs>
</svg>
