<svg width="32" height="32" viewBox="0 0 32 32" fill="none" xmlns="http://www.w3.org/2000/svg">
<path fill-rule="evenodd" clip-rule="evenodd" d="M9.33333 13.3333C11.5425 13.3333 13.3333 11.5425 13.3333 9.33333C13.3333 7.12419 11.5425 5.33333 9.33333 5.33333C7.12419 5.33333 5.33333 7.12419 5.33333 9.33333C5.33333 11.5425 7.12419 13.3333 9.33333 13.3333ZM9.33333 14.6667C12.2789 14.6667 14.6667 12.2789 14.6667 9.33333C14.6667 6.38781 12.2789 4 9.33333 4C6.38781 4 4 6.38781 4 9.33333C4 12.2789 6.38781 14.6667 9.33333 14.6667Z" fill="#EBF8F0"/>
<path fill-rule="evenodd" clip-rule="evenodd" d="M22.6666 26.6666C24.8757 26.6666 26.6666 24.8758 26.6666 22.6666C26.6666 20.4575 24.8757 18.6666 22.6666 18.6666C20.4574 18.6666 18.6666 20.4575 18.6666 22.6666C18.6666 24.8758 20.4574 26.6666 22.6666 26.6666ZM22.6666 28C25.6121 28 27.9999 25.6122 27.9999 22.6666C27.9999 19.7211 25.6121 17.3333 22.6666 17.3333C19.7211 17.3333 17.3333 19.7211 17.3333 22.6666C17.3333 25.6122 19.7211 28 22.6666 28Z" fill="#EBF8F0"/>
<path fill-rule="evenodd" clip-rule="evenodd" d="M23.0859 8.65333C24.0023 9.18785 24.6667 10.0548 24.6667 11.3334V15.9998C24.6667 16.368 24.3682 16.6667 24 16.6667C23.6318 16.6667 23.3334 16.3682 23.3334 16V11.3334C23.3334 10.6119 22.9978 10.1455 22.4141 9.80503C21.7912 9.44165 20.9081 9.24466 19.9447 9.16438C18.9948 9.08522 18.0348 9.12442 17.3054 9.18521C16.9424 9.21546 16.6404 9.25071 16.4303 9.27822C16.3254 9.29197 16.2435 9.30376 16.1888 9.31197L16.1274 9.32141L16.1129 9.32374L16.1098 9.32424C15.7467 9.38464 15.4029 9.13939 15.3424 8.77628C15.2819 8.4131 15.5272 8.06961 15.8904 8.00908L16 8.66668C15.8904 8.00908 15.8902 8.00912 15.8904 8.00908L15.8931 8.00863L15.8988 8.00771L15.9185 8.00454L15.991 7.99339C16.0534 7.98403 16.1434 7.97108 16.2572 7.95618C16.4846 7.9264 16.8076 7.88873 17.1947 7.85648C17.9652 7.79227 19.0052 7.74813 20.0554 7.83565C21.0919 7.92203 22.2089 8.14171 23.0859 8.65333Z" fill="#EBF8F0"/>
<path fill-rule="evenodd" clip-rule="evenodd" d="M8.91406 23.3467C7.99775 22.8122 7.33331 21.9452 7.33331 20.6666L7.33331 16.0002C7.33331 15.632 7.63179 15.3333 7.99998 15.3333C8.36817 15.3333 8.66664 15.6318 8.66664 16L8.66664 20.6666C8.66664 21.3881 9.00221 21.8545 9.58589 22.195C10.2088 22.5583 11.0919 22.7553 12.0553 22.8356C13.0052 22.9148 13.9652 22.8756 14.6946 22.8148C15.0576 22.7845 15.3596 22.7493 15.5697 22.7218C15.6746 22.708 15.7565 22.6962 15.8112 22.688L15.8726 22.6786L15.8871 22.6763L15.8902 22.6758C16.2533 22.6154 16.5971 22.8606 16.6576 23.2237C16.7181 23.5869 16.4728 23.9304 16.1096 23.9909L16 23.3333C16.1096 23.9909 16.1098 23.9909 16.1096 23.9909L16.1069 23.9914L16.1012 23.9923L16.0815 23.9955L16.009 24.0066C15.9466 24.016 15.8566 24.0289 15.7428 24.0438C15.5154 24.0736 15.1924 24.1113 14.8053 24.1435C14.0348 24.2077 12.9948 24.2519 11.9446 24.1644C10.9081 24.078 9.79113 23.8583 8.91406 23.3467Z" fill="#EBF8F0"/>
</svg>
