<svg width="32" height="32" viewBox="0 0 32 32" fill="none" xmlns="http://www.w3.org/2000/svg">
<path fill-rule="evenodd" clip-rule="evenodd" d="M26.6667 16.0001V16C26.6667 15.999 26.6668 15.9934 26.6626 15.9796C26.6581 15.9648 26.6469 15.9354 26.6199 15.8914C26.5633 15.7992 26.4479 15.6606 26.2317 15.4902C25.7914 15.1433 25.0718 14.7725 24.0636 14.4365C22.0613 13.769 19.2103 13.3333 16 13.3333C12.7897 13.3333 9.9387 13.769 7.93636 14.4365C6.92822 14.7725 6.20856 15.1433 5.76832 15.4902C5.55211 15.6606 5.43669 15.7992 5.3801 15.8914C5.3531 15.9354 5.34193 15.9648 5.33741 15.9796C5.33331 15.9931 5.33333 15.9987 5.33333 15.9999L5.33333 16L5.33333 16.0001C5.33333 16.0013 5.33331 16.0069 5.33741 16.0204C5.34193 16.0352 5.3531 16.0646 5.3801 16.1086C5.43669 16.2008 5.55211 16.3394 5.76832 16.5098C6.20856 16.8567 6.92822 17.2275 7.93636 17.5635C9.9387 18.231 12.7897 18.6667 16 18.6667C19.2103 18.6667 22.0613 18.231 24.0636 17.5635C25.0718 17.2275 25.7914 16.8567 26.2317 16.5098C26.4479 16.3394 26.5633 16.2008 26.6199 16.1086C26.6469 16.0646 26.6581 16.0352 26.6626 16.0204C26.6667 16.0069 26.6667 16.0013 26.6667 16.0001ZM16 20C22.6274 20 28 18.2091 28 16C28 13.7909 22.6274 12 16 12C9.37258 12 4 13.7909 4 16C4 18.2091 9.37258 20 16 20Z" fill="#EBF8F0"/>
<path fill-rule="evenodd" clip-rule="evenodd" d="M24.9438 12.5593C25.3196 12.2261 25.3333 12.034 25.3333 12C25.3333 11.966 25.3196 11.7739 24.9438 11.4407C24.5695 11.1089 23.9519 10.7491 23.0742 10.42C21.3287 9.76545 18.8279 9.33333 15.9999 9.33333C13.172 9.33333 10.6711 9.76545 8.92561 10.42C8.04794 10.7491 7.4303 11.1089 7.05603 11.4407C6.68022 11.7739 6.66659 11.966 6.66659 12C6.66659 12.034 6.68022 12.2261 7.05603 12.5593C7.4303 12.8911 8.04794 13.2509 8.92561 13.58C10.6711 14.2346 13.172 14.6667 15.9999 14.6667C18.8279 14.6667 21.3287 14.2346 23.0742 13.58C23.9519 13.2509 24.5695 12.8911 24.9438 12.5593ZM15.9999 16C21.891 16 26.6666 14.2091 26.6666 12C26.6666 9.79086 21.891 8 15.9999 8C10.1089 8 5.33325 9.79086 5.33325 12C5.33325 14.2091 10.1089 16 15.9999 16Z" fill="#EBF8F0"/>
<path fill-rule="evenodd" clip-rule="evenodd" d="M24.9438 20.5593C25.3196 20.2261 25.3333 20.034 25.3333 20C25.3333 19.966 25.3196 19.7739 24.9438 19.4407C24.5695 19.1089 23.9519 18.7491 23.0742 18.42C21.3287 17.7654 18.8279 17.3333 15.9999 17.3333C13.172 17.3333 10.6711 17.7654 8.92561 18.42C8.04794 18.7491 7.4303 19.1089 7.05603 19.4407C6.68022 19.7739 6.66659 19.966 6.66659 20C6.66659 20.034 6.68022 20.2261 7.05603 20.5593C7.4303 20.8911 8.04794 21.2509 8.92561 21.58C10.6711 22.2346 13.172 22.6667 15.9999 22.6667C18.8279 22.6667 21.3287 22.2346 23.0742 21.58C23.9519 21.2509 24.5695 20.8911 24.9438 20.5593ZM15.9999 24C21.891 24 26.6666 22.2091 26.6666 20C26.6666 17.7909 21.891 16 15.9999 16C10.1089 16 5.33325 17.7909 5.33325 20C5.33325 22.2091 10.1089 24 15.9999 24Z" fill="#EBF8F0"/>
</svg>
