<svg width="32" height="32" viewBox="0 0 32 32" fill="none" xmlns="http://www.w3.org/2000/svg">
<path fill-rule="evenodd" clip-rule="evenodd" d="M15.5907 3.47374C15.8314 3.2865 16.1685 3.2865 16.4093 3.47374L28.4093 12.8071C28.6341 12.9819 28.723 13.2803 28.6305 13.5497C28.5381 13.8191 28.2848 14 28 14H24.6666V28C24.6666 28.3682 24.3681 28.6666 24 28.6666H7.99996C7.63177 28.6666 7.33329 28.3682 7.33329 28V14H3.99996C3.71516 14 3.46181 13.8191 3.36938 13.5497C3.27695 13.2803 3.36586 12.9819 3.59066 12.8071L15.5907 3.47374ZM5.94298 12.6666H7.99996C8.36815 12.6666 8.66663 12.9651 8.66663 13.3333V27.3333H23.3333V13.3333C23.3333 12.9651 23.6318 12.6666 24 12.6666H26.0569L16 4.84455L5.94298 12.6666Z" fill="#EBF8F0"/>
<path fill-rule="evenodd" clip-rule="evenodd" d="M11.3333 17.3333C11.3333 15.4924 12.8256 14 14.6666 14H17.3333C19.1742 14 20.6666 15.4924 20.6666 17.3333V28H19.3333V17.3333C19.3333 16.2288 18.4378 15.3333 17.3333 15.3333H14.6666C13.562 15.3333 12.6666 16.2288 12.6666 17.3333V28H11.3333V17.3333Z" fill="#EBF8F0"/>
</svg>
