<svg width="32" height="32" viewBox="0 0 32 32" fill="none" xmlns="http://www.w3.org/2000/svg">
<path fill-rule="evenodd" clip-rule="evenodd" d="M19.9999 10.6667C21.4727 10.6667 22.6666 9.47276 22.6666 8C22.6666 6.52724 21.4727 5.33333 19.9999 5.33333C18.5272 5.33333 17.3333 6.52724 17.3333 8C17.3333 8.86821 17.7482 9.6395 18.3905 10.1264C18.3937 10.1287 18.3968 10.131 18.3999 10.1334C18.4033 10.1359 18.4066 10.1384 18.4099 10.141C18.8538 10.4712 19.4041 10.6667 19.9999 10.6667ZM18.1663 11.5559C18.7156 11.8397 19.339 12 19.9999 12C22.2091 12 23.9999 10.2091 23.9999 8C23.9999 5.79086 22.2091 4 19.9999 4C17.7908 4 15.9999 5.79086 15.9999 8C15.9999 9.06783 16.4183 10.0379 17.1002 10.7553L15.4666 12.9334L15.3333 13.3334V16.5767L12.6044 14.3027C13.0636 13.6516 13.3333 12.8573 13.3333 12C13.3333 9.79086 11.5424 8 9.33325 8C7.12411 8 5.33325 9.79086 5.33325 12C5.33325 14.2091 7.12411 16 9.33325 16C10.2019 16 11.0059 15.7231 11.6618 15.2528L15.3333 18.3123V26.6667H11.3333C10.9651 26.6667 10.6666 26.9651 10.6666 27.3333C10.6666 27.7015 10.9651 28 11.3333 28H15.99C15.9933 28 15.9966 28.0001 15.9999 28.0001C16.0033 28.0001 16.0066 28 16.0099 28H20.6666C21.0348 28 21.3333 27.7015 21.3333 27.3333C21.3333 26.9651 21.0348 26.6667 20.6666 26.6667H16.6666V23.0001L18.5781 21.5665C19.2954 22.2483 20.2655 22.6667 21.3333 22.6667C23.5424 22.6667 25.3333 20.8758 25.3333 18.6667C25.3333 16.4575 23.5424 14.6667 21.3333 14.6667C19.1241 14.6667 17.3333 16.4575 17.3333 18.6667C17.3333 19.3276 17.4935 19.9511 17.7774 20.5003L16.6666 21.3334V13.5556L18.1663 11.5559ZM19.2067 20.2759C19.2045 20.2728 19.2022 20.2698 19.1999 20.2667C19.1975 20.2635 19.1951 20.2603 19.1926 20.2571C18.8621 19.8131 18.6666 19.2627 18.6666 18.6667C18.6666 17.1939 19.8605 16 21.3333 16C22.806 16 23.9999 17.1939 23.9999 18.6667C23.9999 20.1394 22.806 21.3333 21.3333 21.3333C20.465 21.3333 19.6936 20.9183 19.2067 20.2759ZM9.33325 14.6667C10.806 14.6667 11.9999 13.4728 11.9999 12C11.9999 10.5272 10.806 9.33333 9.33325 9.33333C7.86049 9.33333 6.66659 10.5272 6.66659 12C6.66659 13.4728 7.86049 14.6667 9.33325 14.6667Z" fill="#EBF8F0"/>
</svg>
