<svg width="32" height="32" viewBox="0 0 32 32" fill="none" xmlns="http://www.w3.org/2000/svg">
<path fill-rule="evenodd" clip-rule="evenodd" d="M26.6667 8.00002H5.33333V21.3334H9.70937C10.2231 21.3334 10.719 21.5219 11.103 21.8632C13.9579 24.4009 18.2261 24.5117 21.2087 22.1255L21.6104 21.8042C21.9914 21.4994 22.4648 21.3334 22.9526 21.3334H26.6667V8.00002ZM5.33333 6.66669C4.59695 6.66669 4 7.26364 4 8.00002V21.3334C4 22.0697 4.59695 22.6667 5.33333 22.6667H9.70937C9.89659 22.6667 10.0773 22.7354 10.2172 22.8598C13.5576 25.829 18.5517 25.9586 22.0417 23.1667L22.4434 22.8453C22.5879 22.7297 22.7675 22.6667 22.9526 22.6667H26.6667C27.403 22.6667 28 22.0697 28 21.3334V8.00002C28 7.26364 27.403 6.66669 26.6667 6.66669H5.33333Z" fill="#9DD1B2"/>
<path d="M8 9.33337H10.0773C10.8964 9.33337 11.5032 9.51952 11.8978 9.8918C12.2924 10.2566 12.4897 10.8262 12.4897 11.6006C12.4897 12.7547 12.0579 13.3913 11.1942 13.5104C11.7303 13.637 12.1212 13.8901 12.3669 14.2698C12.6126 14.6421 12.7354 15.1522 12.7354 15.7999C12.7354 16.6115 12.5419 17.2444 12.1547 17.6986C11.775 18.1528 11.1942 18.3799 10.4124 18.3799H8V9.33337ZM10.0103 13.1083C10.5315 13.1083 10.8926 12.9966 11.0937 12.7733C11.2947 12.5425 11.3952 12.1516 11.3952 11.6006C11.3952 11.1985 11.3319 10.9044 11.2054 10.7183C11.0862 10.5247 10.9038 10.4018 10.6581 10.3497C10.4124 10.2976 10.0476 10.2715 9.56359 10.2715H9.26204V13.1083H10.0103ZM10.1108 17.4752C10.4831 17.4752 10.7698 17.4194 10.9708 17.3077C11.1793 17.1885 11.3245 17.0099 11.4064 16.7716C11.4883 16.5333 11.5292 16.2094 11.5292 15.7999C11.5292 15.2192 11.4101 14.7873 11.1719 14.5044C10.9336 14.214 10.5464 14.0688 10.0103 14.0688H9.26204V17.4752H10.1108Z" fill="#9DD1B2"/>
<path d="M15.2865 9.33337H16.5038L18.436 18.3799H17.241L16.8277 16.1015H14.9849L14.5494 18.3799H13.3655L15.2865 9.33337ZM16.6602 15.1968L15.9007 11.1203L15.1525 15.1968H16.6602Z" fill="#9DD1B2"/>
<path d="M19.3539 9.33337H21.1744C22.0902 9.33337 22.7603 9.52324 23.1847 9.90297C23.6165 10.2753 23.8325 10.8858 23.8325 11.7346C23.8325 12.8961 23.4602 13.5997 22.7156 13.8454L24 18.3799H22.7826L21.5988 14.1358H20.6159V18.3799H19.3539V9.33337ZM21.0962 13.2312C21.6397 13.2312 22.0269 13.1232 22.2577 12.9073C22.496 12.6914 22.6151 12.3005 22.6151 11.7346C22.6151 11.3623 22.5742 11.0719 22.4923 10.8635C22.4103 10.6475 22.2652 10.4912 22.0567 10.3944C21.8482 10.2901 21.5541 10.238 21.1744 10.238H20.6159V13.2312H21.0962Z" fill="#9DD1B2"/>
</svg>
