<svg width="48" height="56" viewBox="0 0 48 56" fill="none" xmlns="http://www.w3.org/2000/svg">
<path fill-rule="evenodd" clip-rule="evenodd" d="M27.9999 10.6667C29.4727 10.6667 30.6666 9.47276 30.6666 8C30.6666 6.52724 29.4727 5.33333 27.9999 5.33333C26.5272 5.33333 25.3333 6.52724 25.3333 8C25.3333 8.86821 25.7482 9.6395 26.3905 10.1264C26.3937 10.1287 26.3968 10.131 26.3999 10.1334C26.4033 10.1359 26.4066 10.1384 26.4099 10.141C26.8538 10.4712 27.4041 10.6667 27.9999 10.6667ZM26.1663 11.5559C26.7156 11.8397 27.339 12 27.9999 12C30.2091 12 31.9999 10.2091 31.9999 8C31.9999 5.79086 30.2091 4 27.9999 4C25.7908 4 23.9999 5.79086 23.9999 8C23.9999 9.06783 24.4183 10.0379 25.1002 10.7553L23.4666 12.9334L23.3333 13.3334V16.5767L20.6044 14.3027C21.0636 13.6516 21.3333 12.8573 21.3333 12C21.3333 9.79086 19.5424 8 17.3333 8C15.1241 8 13.3333 9.79086 13.3333 12C13.3333 14.2091 15.1241 16 17.3333 16C18.2019 16 19.0059 15.7231 19.6618 15.2528L23.3333 18.3123V26.6667H19.3333C18.9651 26.6667 18.6666 26.9651 18.6666 27.3333C18.6666 27.7015 18.9651 28 19.3333 28H23.99C23.9933 28 23.9966 28.0001 23.9999 28.0001C24.0033 28.0001 24.0066 28 24.0099 28H28.6666C29.0348 28 29.3333 27.7015 29.3333 27.3333C29.3333 26.9651 29.0348 26.6667 28.6666 26.6667H24.6666V23.0001L26.5781 21.5665C27.2954 22.2483 28.2655 22.6667 29.3333 22.6667C31.5424 22.6667 33.3333 20.8758 33.3333 18.6667C33.3333 16.4575 31.5424 14.6667 29.3333 14.6667C27.1241 14.6667 25.3333 16.4575 25.3333 18.6667C25.3333 19.3276 25.4935 19.9511 25.7774 20.5003L24.6666 21.3334V13.5556L26.1663 11.5559ZM27.2067 20.2759C27.2045 20.2728 27.2022 20.2698 27.1999 20.2667C27.1975 20.2635 27.1951 20.2603 27.1926 20.2571C26.8621 19.8131 26.6666 19.2627 26.6666 18.6667C26.6666 17.1939 27.8605 16 29.3333 16C30.806 16 31.9999 17.1939 31.9999 18.6667C31.9999 20.1394 30.806 21.3333 29.3333 21.3333C28.465 21.3333 27.6936 20.9183 27.2067 20.2759ZM17.3333 14.6667C18.806 14.6667 19.9999 13.4728 19.9999 12C19.9999 10.5272 18.806 9.33333 17.3333 9.33333C15.8605 9.33333 14.6666 10.5272 14.6666 12C14.6666 13.4728 15.8605 14.6667 17.3333 14.6667Z" fill="#EBF8F0"/>
<path d="M10.8899 44V36.9H15.5499V37.52H11.5899V40.13H14.9299V40.71H11.5899V44H10.8899Z" fill="#EBF8F0"/>
<path d="M15.5643 42.5C15.5643 42.1734 15.6576 41.8934 15.8443 41.66C16.0309 41.42 16.2876 41.2367 16.6143 41.11C16.9476 40.9767 17.3309 40.91 17.7643 40.91C18.0176 40.91 18.2809 40.93 18.5543 40.97C18.8276 41.01 19.0709 41.07 19.2843 41.15V40.71C19.2843 40.27 19.1543 39.92 18.8943 39.66C18.6343 39.4 18.2743 39.27 17.8143 39.27C17.5343 39.27 17.2576 39.3234 16.9843 39.43C16.7176 39.53 16.4376 39.68 16.1443 39.88L15.8843 39.4C16.2243 39.1667 16.5576 38.9934 16.8843 38.88C17.2109 38.76 17.5443 38.7 17.8843 38.7C18.5243 38.7 19.0309 38.8834 19.4043 39.25C19.7776 39.6167 19.9643 40.1234 19.9643 40.77V43.18C19.9643 43.2734 19.9843 43.3434 20.0243 43.39C20.0643 43.43 20.1276 43.4534 20.2143 43.46V44C20.1409 44.0067 20.0776 44.0134 20.0243 44.02C19.9709 44.0267 19.9309 44.0267 19.9043 44.02C19.7376 44.0134 19.6109 43.96 19.5243 43.86C19.4376 43.76 19.3909 43.6534 19.3843 43.54L19.3743 43.16C19.1409 43.46 18.8376 43.6934 18.4643 43.86C18.0909 44.02 17.7109 44.1 17.3243 44.1C16.9909 44.1 16.6876 44.03 16.4143 43.89C16.1476 43.7434 15.9376 43.55 15.7843 43.31C15.6376 43.0634 15.5643 42.7934 15.5643 42.5ZM19.0543 42.9C19.1276 42.8067 19.1843 42.7167 19.2243 42.63C19.2643 42.5434 19.2843 42.4667 19.2843 42.4V41.64C19.0576 41.5534 18.8209 41.4867 18.5743 41.44C18.3343 41.3934 18.0909 41.37 17.8443 41.37C17.3576 41.37 16.9643 41.4667 16.6643 41.66C16.3643 41.8534 16.2143 42.1167 16.2143 42.45C16.2143 42.6434 16.2643 42.8267 16.3643 43C16.4643 43.1667 16.6109 43.3067 16.8043 43.42C16.9976 43.5267 17.2243 43.58 17.4843 43.58C17.8109 43.58 18.1143 43.5167 18.3943 43.39C18.6809 43.2634 18.9009 43.1 19.0543 42.9Z" fill="#EBF8F0"/>
<path d="M24.0335 39.39C23.5802 39.4034 23.1802 39.53 22.8335 39.77C22.4935 40.01 22.2535 40.34 22.1135 40.76V44H21.4335V38.79H22.0735V40.04C22.2535 39.6734 22.4902 39.3767 22.7835 39.15C23.0835 38.9234 23.4002 38.7967 23.7335 38.77C23.8002 38.7634 23.8568 38.76 23.9035 38.76C23.9568 38.76 24.0002 38.7634 24.0335 38.77V39.39Z" fill="#EBF8F0"/>
<path d="M32.6893 44H32.0093V41.09C32.0093 40.4834 31.9127 40.0367 31.7193 39.75C31.526 39.4634 31.2393 39.32 30.8593 39.32C30.466 39.32 30.1127 39.46 29.7993 39.74C29.4927 40.02 29.276 40.38 29.1493 40.82V44H28.4693V41.09C28.4693 40.4767 28.376 40.03 28.1893 39.75C28.0027 39.4634 27.716 39.32 27.3293 39.32C26.9427 39.32 26.5927 39.4567 26.2793 39.73C25.966 40.0034 25.746 40.3634 25.6193 40.81V44H24.9393V38.79H25.5593V39.97C25.7793 39.5634 26.0593 39.25 26.3993 39.03C26.746 38.81 27.1293 38.7 27.5493 38.7C27.9827 38.7 28.3327 38.8234 28.5993 39.07C28.866 39.3167 29.0293 39.64 29.0893 40.04C29.3293 39.6 29.616 39.2667 29.9493 39.04C30.2893 38.8134 30.6727 38.7 31.0993 38.7C31.3927 38.7 31.6393 38.7534 31.8393 38.86C32.046 38.9667 32.2093 39.12 32.3293 39.32C32.456 39.5134 32.546 39.75 32.5993 40.03C32.6593 40.3034 32.6893 40.61 32.6893 40.95V44Z" fill="#EBF8F0"/>
<path d="M35.8388 44.1C35.4121 44.1 35.0155 44.03 34.6488 43.89C34.2821 43.75 33.9655 43.5367 33.6988 43.25L33.9788 42.77C34.2721 43.0434 34.5655 43.2434 34.8588 43.37C35.1588 43.49 35.4755 43.55 35.8088 43.55C36.2155 43.55 36.5455 43.47 36.7988 43.31C37.0521 43.1434 37.1788 42.9067 37.1788 42.6C37.1788 42.3934 37.1155 42.2367 36.9888 42.13C36.8688 42.0167 36.6921 41.9267 36.4588 41.86C36.2321 41.7867 35.9588 41.71 35.6388 41.63C35.2788 41.53 34.9755 41.4267 34.7288 41.32C34.4888 41.2067 34.3055 41.0667 34.1788 40.9C34.0588 40.7267 33.9988 40.5034 33.9988 40.23C33.9988 39.89 34.0821 39.61 34.2488 39.39C34.4221 39.1634 34.6555 38.9934 34.9488 38.88C35.2488 38.76 35.5821 38.7 35.9488 38.7C36.3488 38.7 36.7021 38.7634 37.0088 38.89C37.3155 39.0167 37.5655 39.1934 37.7588 39.42L37.4288 39.88C37.2421 39.6667 37.0188 39.51 36.7588 39.41C36.5055 39.3034 36.2221 39.25 35.9088 39.25C35.6955 39.25 35.4921 39.28 35.2988 39.34C35.1055 39.3934 34.9455 39.4867 34.8188 39.62C34.6988 39.7467 34.6388 39.9234 34.6388 40.15C34.6388 40.3367 34.6855 40.4834 34.7788 40.59C34.8721 40.69 35.0121 40.7767 35.1988 40.85C35.3855 40.9167 35.6155 40.99 35.8888 41.07C36.2821 41.1767 36.6255 41.2867 36.9188 41.4C37.2121 41.5067 37.4388 41.6467 37.5988 41.82C37.7588 41.9934 37.8388 42.2367 37.8388 42.55C37.8388 43.0367 37.6555 43.4167 37.2888 43.69C36.9221 43.9634 36.4388 44.1 35.8388 44.1Z" fill="#EBF8F0"/>
<path d="M0 52H48V56H0V52Z" fill="#EBF8F0"/>
</svg>
