<svg width="24" height="16" viewBox="0 0 24 16" fill="none" xmlns="http://www.w3.org/2000/svg">
<path fill-rule="evenodd" clip-rule="evenodd" d="M10.779 14.0616C9.93306 14.4501 8.99182 14.6667 8 14.6667C4.3181 14.6667 1.33333 11.6819 1.33333 8C1.33333 4.3181 4.3181 1.33333 8 1.33333C8.99182 1.33333 9.93306 1.54992 10.779 1.93838C9.07727 3.40544 8 5.57692 8 8C8 10.4231 9.07727 12.5946 10.779 14.0616ZM12 13.3338C10.3807 12.1175 9.33333 10.1811 9.33333 8C9.33333 5.81891 10.3807 3.88245 12 2.66618C13.6193 3.88245 14.6667 5.81891 14.6667 8C14.6667 10.1811 13.6193 12.1175 12 13.3338ZM12 14.9297C10.8233 15.6104 9.45715 16 8 16C3.58172 16 0 12.4183 0 8C0 3.58172 3.58172 0 8 0C9.45715 0 10.8233 0.389578 12 1.07026C13.1767 0.389578 14.5429 0 16 0C20.4183 0 24 3.58172 24 8C24 12.4183 20.4183 16 16 16C14.5429 16 13.1767 15.6104 12 14.9297ZM13.221 1.93838C14.0669 1.54992 15.0082 1.33333 16 1.33333C19.6819 1.33333 22.6667 4.3181 22.6667 8C22.6667 11.6819 19.6819 14.6667 16 14.6667C15.0082 14.6667 14.0669 14.4501 13.221 14.0616C14.9227 12.5946 16 10.4231 16 8C16 5.57692 14.9227 3.40544 13.221 1.93838Z" fill="#757B75"/>
</svg>
