<svg width="40" height="40" viewBox="0 0 40 40" fill="none" xmlns="http://www.w3.org/2000/svg">
<circle cx="20" cy="20" r="19.5" fill="#FCFCFC" stroke="#CECECE"/>
<mask id="mask0" mask-type="alpha" maskUnits="userSpaceOnUse" x="0" y="0" width="40" height="40">
<circle cx="20" cy="20" r="20" fill="#FCFCFC"/>
</mask>
<g mask="url(#mask0)">
<g clip-path="url(#clip0)">
<path d="M88.5682 36.4409C88.5811 36.4151 88.5811 36.3763 88.5941 36.3504L47.2295 22.989C47.2295 22.9632 47.2424 22.9502 47.2424 22.9244L58.8318 25.8734C58.8059 25.5759 58.7541 25.356 58.7541 25.1491C58.7541 24.6446 58.5084 24.4118 58.0427 24.2566C57.0468 23.9203 56.0638 23.5323 55.0807 23.1572C54.0718 22.7821 53.063 22.394 52.0541 22.0189C52.067 21.9931 52.067 21.9672 52.0799 21.9413L75.8148 28.6673C75.8277 28.6414 75.8277 28.6155 75.8406 28.5897L58.0557 21.6697C58.3402 21.3722 58.5601 21.1135 58.8059 20.8807C60.2287 19.4967 61.5092 17.9963 62.6474 16.3795C63.6305 14.9826 64.4841 13.521 64.911 11.8524C65.4542 9.79582 65.8293 7.70043 65.8552 5.56623C65.8681 4.51854 66.2044 3.50964 66.8253 2.6689C67.3168 1.97044 67.86 1.31077 68.3516 0.612311C68.856 -0.0990878 68.6361 -0.70701 67.7824 -0.9657C67.0193 -1.22439 66.1786 -1.10798 65.506 -0.642338C64.4195 0.120799 63.5011 1.09089 63.2942 2.44901C63.1131 3.7166 62.9967 4.99711 62.9708 6.27763C62.8803 8.74812 62.531 11.141 61.2893 13.314C60.0735 15.4094 58.5989 17.3496 56.9304 19.0957C55.9215 20.1564 54.7832 20.5961 53.3993 20.4021C51.873 20.1952 50.3467 19.9235 48.8334 19.6261C44.7073 18.85 40.5811 18.048 36.468 17.2461C36.1705 17.1814 35.8988 17.0262 35.679 16.8063C35.3427 16.4183 34.89 16.1467 34.3984 16.0303C34.0492 15.9527 33.7129 15.8233 33.3637 15.7069C32.3677 15.3835 31.3718 15.0602 30.3629 14.7368C30.3629 14.7239 30.3758 14.7109 30.3758 14.698L43.3491 17.7117C43.3621 17.6729 43.375 17.6212 43.3879 17.5824L30.531 13.4692C30.544 13.4434 30.544 13.4046 30.5569 13.3787L33.2085 13.7797C32.6652 13.314 32.0702 12.9777 31.514 12.5897C30.9579 12.2016 30.3499 11.9947 29.7032 12.0723C28.6038 12.2146 27.5043 12.4474 26.4049 12.6155C26.185 12.6543 25.8875 12.6543 25.7323 12.525C24.5294 11.5678 23.1713 11.2186 21.6579 11.4514C20.8172 11.5808 20.0023 11.529 19.2521 10.9987C18.9676 10.8176 18.6701 10.7012 18.3467 10.6236C17.5706 10.4167 17.1179 10.6236 16.6523 11.2704C16.5359 11.4126 16.3677 11.5032 16.1866 11.529C14.8026 11.6584 13.6256 12.2275 12.5908 13.1329C12.2933 13.4046 12.1252 13.715 12.2545 14.1418C12.358 14.4781 12.2416 14.7627 11.957 15.0084C11.6337 15.3189 11.3362 15.6422 11.0516 15.9785C10.7929 16.276 10.8188 16.5347 11.0516 16.8581C11.5043 17.4919 11.9312 18.1386 12.358 18.7853C12.6038 19.1604 12.9271 19.2639 13.341 19.1087C13.4833 19.0699 13.6127 18.9923 13.7291 18.9017C14.3241 18.3326 14.9061 18.3585 15.5658 18.8112C16.2125 19.251 16.8592 19.1475 17.4801 18.6689C18.1915 18.1386 19.4073 18.5137 19.7566 19.3286C20.2998 20.5961 20.8689 21.8508 21.4251 23.1184C21.4381 23.1313 21.3992 23.1701 21.4122 23.1572C20.662 23.1313 19.9118 23.1442 19.1745 23.0925C18.3984 23.0408 17.6353 22.8985 16.8592 22.8985C15.9668 22.8985 15.1519 23.2219 14.6992 24.0497C14.4663 24.4894 14.2982 24.9551 14.1947 25.4337C13.8455 26.8047 14.143 28.0464 15.0355 29.1329C15.4882 29.6762 16.4971 29.6244 16.6393 29.0165C16.8075 28.3181 17.2085 27.5937 16.5488 26.8565C16.0185 26.2615 16.4065 25.4337 17.1955 25.2784C17.5189 25.2008 17.8552 25.2138 18.1656 25.2914C19.6272 25.7311 21.0759 26.2356 22.5504 26.6624C24.0638 27.0893 25.6159 27.4385 27.1422 27.8265C27.5431 27.93 27.763 27.8395 27.7889 27.3738C27.8406 26.4813 27.9441 25.6018 28.0088 24.7223C28.0347 24.3084 28.0347 23.8944 28.0476 23.4935C28.371 24.6317 28.7073 25.77 28.4615 26.947C28.3968 27.2704 28.552 27.4126 28.8107 27.4902C30.2206 27.8912 31.6046 28.4086 33.0403 28.6543C37.8132 29.4563 42.5989 30.1677 47.3847 30.905C47.9668 30.9955 48.5488 31.0731 49.1309 31.1636C49.1309 31.1378 49.1438 31.099 49.1438 31.0731C44.5132 29.8961 39.8827 28.719 35.2521 27.542C36.5844 27.6455 37.9037 27.8136 39.223 27.9947C40.4389 28.1628 41.6418 28.3051 42.8964 28.0723C43.9053 27.9041 44.9271 27.8524 45.949 27.93C48.4453 28.0594 50.476 29.1071 51.9247 31.1895C52.455 31.9527 52.9724 32.7029 53.4381 33.5048C54.0201 34.4878 54.8609 35.1345 55.8956 35.5484C56.3483 35.7425 56.814 35.8977 57.2925 36.0141C58.9611 36.3763 60.6426 36.7126 62.3241 37.023C63.0484 37.1523 63.7339 37.4628 64.3031 37.9413C65.7905 39.1701 66.9546 40.6835 68.1058 42.2097C68.7655 43.0893 69.4639 43.9429 70.1883 44.7708C70.5504 45.1976 71.223 45.1071 71.4429 44.6544C71.6369 44.2534 71.6757 43.8395 71.43 43.4256C71.3524 43.2962 71.236 43.1539 71.2489 43.0375C71.3136 42.559 71.0549 42.2744 70.7315 41.9769C70.3823 41.6535 70.0589 41.2914 69.6968 40.9809C68.2481 39.7004 67.1098 38.1095 66.3726 36.3116C66.2691 36.1176 66.088 35.9753 65.8811 35.8977C63.0872 34.7594 60.2934 33.6471 57.4995 32.5218C57.3184 32.4442 57.1503 32.3795 56.9692 32.3019C56.9821 32.276 56.995 32.2372 56.995 32.2113L80.5359 38.1095C80.4324 37.9931 80.3031 37.9155 80.1478 37.8767C73.6288 35.7683 67.1228 33.66 60.5908 31.5905C59.8018 31.3447 59.3621 30.9955 59.375 30.1677C59.375 29.8185 59.168 29.702 58.8835 29.6115C57.2279 29.0553 55.5852 28.4862 53.9296 27.9171L49.493 26.4037C49.493 26.3779 49.506 26.3649 49.5189 26.3391L88.5682 36.4409ZM13.0694 15.3059C13.1341 15.0214 13.1082 14.7239 13.2117 14.6721C13.5221 14.5169 13.8843 14.3229 14.2853 14.6592L13.0694 15.3059ZM18.7865 14.6463C18.7347 14.0771 18.7477 13.4563 18.5925 12.8872C18.3208 11.8524 17.9716 11.7101 16.9886 12.1111C16.8851 12.1499 16.7816 12.1887 16.6523 12.2404C16.9368 11.7748 17.5965 11.335 18.0751 11.3221C18.2303 11.335 18.3855 11.3868 18.5019 11.5032C19.2651 12.1628 19.3944 13.8573 18.7865 14.6463Z" fill="#131413"/>
<path d="M9.25401 26.8691C9.03412 27.1666 8.90478 27.5417 8.87891 27.9168C8.89184 28.2013 9.02119 28.473 9.24107 28.6411C9.42216 28.7575 9.74552 28.6541 10.0042 28.6411C10.1077 28.6282 10.2112 28.5506 10.3017 28.5764C11.0131 28.6929 11.2847 28.6282 11.5952 28.0073C11.9573 27.2959 12.5264 26.9855 13.2637 26.8562C13.3931 26.8303 13.4965 26.7397 13.5612 26.6233C13.7035 25.8731 13.8199 25.11 13.9751 24.1787C12.8369 24.6185 11.7374 24.9548 10.7285 25.4722C10.1594 25.7697 9.69378 26.3517 9.25401 26.8691Z" fill="#131413"/>
<path d="M54.6155 36.8935C52.5201 36.3891 50.4505 35.7682 48.3293 35.3931C45.1345 34.824 41.9138 34.423 38.706 33.9574C37.8135 33.828 36.921 33.6987 36.0286 33.5693C36.0286 33.5952 36.0156 33.6211 36.0156 33.6469L62.5055 38.9113C62.3503 38.8078 62.1821 38.7302 62.0011 38.6914C59.5306 38.1093 57.073 37.5014 54.6155 36.8935Z" fill="#131413"/>
<path d="M41.9391 33.0396L41.9521 32.962L27.6724 30L27.6465 30.1035C28.8494 30.4786 30.0523 30.8666 31.2681 31.2158C32.4193 31.5521 33.5705 31.9143 34.7346 32.1342C36.2091 32.4058 37.6966 32.5222 39.1841 32.7033C40.1154 32.8068 41.0208 32.9232 41.9391 33.0396Z" fill="#131413"/>
<path d="M17.3766 25.8348C17.1179 25.8736 16.8334 25.99 16.9368 26.2875C17.0144 26.5074 17.2602 26.7791 17.4672 26.8179C18.683 26.9989 19.8988 27.1024 21.1147 27.2706C21.8908 27.374 22.6539 27.5422 23.417 27.6715L23.4688 27.4775C21.6062 26.9343 19.7436 26.3781 17.8681 25.8348C17.7129 25.809 17.5448 25.809 17.3766 25.8348Z" fill="#131413"/>
<path d="M18.7875 14.6337C18.7358 14.0646 18.7487 13.4438 18.5935 12.8746C18.3219 11.8399 17.9726 11.6976 16.9896 12.0986C16.8861 12.1374 16.7827 12.1762 16.6533 12.2279C16.9379 11.7623 17.5975 11.3225 18.0761 11.3096C18.2313 11.3225 18.3865 11.3872 18.503 11.4907C19.2661 12.1632 19.3954 13.8577 18.7875 14.6337Z" fill="#237745"/>
<path d="M25.5391 15.6943C25.3839 15.7331 25.2416 15.7849 25.0993 15.8496C25.0347 15.8884 25.0088 15.953 25.0088 16.0306C25.0605 16.1988 25.1381 16.354 25.2157 16.5092C25.2545 16.548 25.3063 16.561 25.358 16.5351C25.552 16.4316 25.7073 16.2505 25.7849 16.0436C25.8366 15.8625 25.7461 15.7331 25.5391 15.6943Z" fill="#131413"/>
<path d="M23.9743 14.4913C24.1165 14.4654 24.2588 14.4395 24.4011 14.3878C24.4658 14.3749 24.5175 14.3231 24.5434 14.2714C24.6081 14.155 24.5563 14.0127 24.4399 13.948C24.3364 13.8834 24.22 13.8187 24.0907 13.7799C24.0907 13.7799 24.0777 13.7669 24.0648 13.7669C23.9743 13.7281 23.8708 13.7799 23.832 13.8704C23.7803 13.961 23.7414 14.0515 23.7156 14.155C23.6509 14.4266 23.6768 14.4654 23.9743 14.4913Z" fill="#131413"/>
<path d="M23.4048 16.5609C23.3143 16.4962 23.2108 16.4445 23.1073 16.4057C23.0944 16.4057 23.0944 16.3927 23.0814 16.3927C23.0038 16.3669 22.9133 16.4057 22.8874 16.4833C22.8357 16.5997 22.7969 16.729 22.771 16.8584C22.7581 16.936 22.7969 16.9877 22.8745 16.9877C22.9133 16.9877 22.965 17.0007 23.0038 17.0007V17.0136C23.1202 17.0007 23.2496 16.9748 23.366 16.936C23.4177 16.9231 23.4695 16.8843 23.4953 16.8325C23.5471 16.742 23.5083 16.6126 23.4048 16.5609Z" fill="#131413"/>
<path d="M22.5119 14.841C22.3955 14.8927 22.292 14.9574 22.2014 15.0479C22.1626 15.0997 22.1497 15.1643 22.1756 15.229C22.2532 15.3454 22.3437 15.4489 22.4472 15.5394C22.486 15.5524 22.5377 15.5524 22.5765 15.5265C22.6671 15.3842 22.7447 15.229 22.7964 15.1514C22.8223 14.8798 22.693 14.7634 22.5119 14.841Z" fill="#131413"/>
<path d="M21.8271 13.1069C21.8659 13.1586 21.9176 13.1974 21.9823 13.2104C22.1116 13.2362 22.241 13.1457 22.2668 13.0164C22.3057 12.887 22.3315 12.7706 22.3445 12.6413C22.3445 12.6283 22.3445 12.6283 22.3445 12.6154C22.3574 12.5119 22.2798 12.4343 22.1892 12.4214C22.0858 12.3955 21.9823 12.3955 21.8788 12.3955C21.5813 12.3955 21.5684 12.4343 21.6201 12.7189C21.6848 12.8611 21.7495 12.9905 21.8271 13.1069Z" fill="#131413"/>
<path d="M20.546 14.8919C20.8046 14.8401 20.8823 14.672 20.7658 14.5297C20.6882 14.4392 20.5977 14.3486 20.4813 14.284C20.4166 14.2581 20.3519 14.271 20.3002 14.3098C20.2097 14.4133 20.1321 14.5427 20.0674 14.6591C20.0674 14.7108 20.0803 14.7496 20.1191 14.7755C20.2873 14.8272 20.4554 14.866 20.546 14.8919Z" fill="#131413"/>
<path d="M20.9341 16.3149C20.8436 16.289 20.753 16.2502 20.6625 16.2373C20.6237 16.2761 20.5331 16.302 20.5202 16.3537C20.4943 16.4572 20.4814 16.5736 20.4943 16.6771C20.4943 16.7029 20.559 16.7676 20.5849 16.7676C20.7272 16.7418 20.8565 16.69 20.9858 16.6253C21.0246 16.5995 21.0505 16.5607 21.0634 16.5219C21.0764 16.4184 21.0117 16.3278 20.9341 16.3149Z" fill="#131413"/>
<path d="M20.5982 18.1645C20.5076 18.1387 20.4171 18.0998 20.3265 18.0869C20.2877 18.1257 20.1972 18.1516 20.1843 18.2033C20.1584 18.3068 20.1455 18.4232 20.1584 18.5267C20.1584 18.5526 20.2231 18.6172 20.2489 18.6172C20.3912 18.5914 20.5206 18.5396 20.6499 18.475C20.6887 18.4491 20.7146 18.4103 20.7275 18.3715C20.7405 18.2809 20.6887 18.1904 20.5982 18.1645Z" fill="#131413"/>
<path d="M37.0376 26.5726C36.9471 26.5079 36.8436 26.4562 36.7401 26.4174C36.7272 26.4174 36.7272 26.4045 36.7142 26.4045C36.6366 26.3786 36.5461 26.4174 36.5202 26.495C36.4685 26.6114 36.4297 26.7408 36.4038 26.8701C36.3909 26.9477 36.4297 26.9994 36.5073 26.9994C36.5461 26.9994 36.5978 27.0124 36.6366 27.0124V27.0253C36.753 27.0124 36.8824 26.9865 36.9988 26.9477C37.0505 26.9348 37.1023 26.896 37.1281 26.8442C37.1799 26.7537 37.1411 26.6244 37.0376 26.5726Z" fill="#131413"/>
<path d="M39.0167 21.2043C38.9003 21.256 38.7969 21.3207 38.7063 21.4112C38.6675 21.463 38.6546 21.5276 38.6805 21.5923C38.7581 21.7087 38.8486 21.8122 38.9521 21.9027C38.9909 21.9157 39.0426 21.9157 39.0814 21.8898C39.172 21.7475 39.2496 21.5923 39.3013 21.5147C39.3272 21.2431 39.1978 21.1267 39.0167 21.2043Z" fill="#131413"/>
<path d="M37.1805 19.0698C37.077 19.0439 36.9735 19.0439 36.87 19.0439C36.5725 19.0439 36.5596 19.0827 36.6113 19.3673C36.676 19.4967 36.7407 19.626 36.8183 19.7424C36.8571 19.7941 36.9088 19.833 36.9735 19.8459C37.1028 19.8718 37.2322 19.7812 37.2581 19.6519C37.2969 19.5225 37.3227 19.4061 37.3357 19.2768C37.3357 19.2638 37.3357 19.2638 37.3357 19.2509C37.3486 19.1733 37.2839 19.0828 37.1805 19.0698Z" fill="#131413"/>
<path d="M35.5372 21.5276C35.7959 21.4759 35.8735 21.3077 35.7571 21.1655C35.6794 21.0749 35.5889 20.9844 35.4725 20.9197C35.4078 20.8938 35.3432 20.9068 35.2914 20.9456C35.2009 21.0491 35.1233 21.1784 35.0586 21.2948C35.0586 21.3465 35.0715 21.3853 35.1103 21.4112C35.2785 21.4759 35.4466 21.5018 35.5372 21.5276Z" fill="#131413"/>
<path d="M33.0536 22.9246C32.9889 22.8987 32.9242 22.9117 32.8725 22.9505C32.7819 23.0539 32.7043 23.1833 32.6396 23.2997C32.6396 23.3514 32.6526 23.3902 32.6914 23.4161C32.8466 23.4678 33.0147 23.4937 33.1182 23.5196C33.3769 23.4678 33.4545 23.2997 33.3381 23.1574C33.2476 23.0669 33.157 22.9893 33.0536 22.9246Z" fill="#131413"/>
<path d="M35.5633 23.8689C35.4986 23.8431 35.434 23.856 35.3822 23.8948C35.2917 23.9983 35.2141 24.1276 35.1494 24.244C35.1494 24.2958 35.1623 24.3346 35.2012 24.3604C35.3564 24.4122 35.5245 24.438 35.628 24.4639C35.8867 24.4122 35.9643 24.244 35.8479 24.1017C35.7703 24.0241 35.6797 23.9336 35.5633 23.8689Z" fill="#131413"/>
<path d="M38.7583 24.0239C38.6678 23.998 38.5772 23.9592 38.4867 23.9463C38.4479 23.9851 38.3574 24.011 38.3444 24.0627C38.3186 24.1662 38.3056 24.2826 38.3186 24.3861C38.3186 24.4119 38.3832 24.4766 38.4091 24.4766C38.5514 24.4507 38.6807 24.399 38.8101 24.3343C38.8489 24.3085 38.8747 24.2697 38.8877 24.2308C38.9006 24.1274 38.8489 24.0368 38.7583 24.0239Z" fill="#131413"/>
<path d="M32.6919 27.271C32.6014 27.2451 32.5108 27.2063 32.4203 27.1934C32.3815 27.2322 32.2909 27.258 32.278 27.3098C32.2521 27.4132 32.2392 27.5297 32.2521 27.6331C32.2521 27.659 32.3168 27.7237 32.3427 27.7237C32.485 27.6978 32.6143 27.6461 32.7437 27.5814C32.7825 27.5555 32.8083 27.5167 32.8213 27.4779C32.8342 27.3744 32.7695 27.2839 32.6919 27.271Z" fill="#131413"/>
<path d="M32.2906 20.247C32.4847 20.1435 32.6399 19.9624 32.7175 19.7555C32.7692 19.5744 32.6787 19.4451 32.4717 19.4062C32.3165 19.4451 32.1742 19.4968 32.0319 19.5615C31.9673 19.6003 31.9414 19.6649 31.9414 19.7426C31.9931 19.9107 32.0708 20.0659 32.1484 20.2211C32.1872 20.2599 32.2389 20.2599 32.2906 20.247Z" fill="#131413"/>
<path d="M32.1745 17.0265C32.2392 16.9101 32.1874 16.7678 32.071 16.7031C31.9676 16.6385 31.8511 16.5738 31.7218 16.5221L31.7089 16.5091C31.6183 16.4703 31.5148 16.5221 31.476 16.6126C31.4243 16.7031 31.3855 16.7937 31.3596 16.8972C31.282 17.1817 31.3079 17.2076 31.6054 17.2464C31.7477 17.2205 31.89 17.1947 32.0322 17.1429C32.084 17.13 32.1357 17.0783 32.1745 17.0265Z" fill="#131413"/>
<path d="M34.7742 17.376C34.6707 17.3113 34.5543 17.2467 34.4249 17.1949L34.412 17.182C34.3214 17.1432 34.218 17.1949 34.1792 17.2855C34.1274 17.376 34.0886 17.4665 34.0628 17.57C33.9852 17.8546 34.011 17.8804 34.3085 17.9192C34.4508 17.8934 34.5931 17.8675 34.7354 17.8158C34.8 17.8028 34.8518 17.7511 34.8776 17.6994C34.9423 17.5829 34.8906 17.4407 34.7742 17.376Z" fill="#131413"/>
<path d="M30.5185 21.7732C30.5703 21.6697 30.5315 21.5404 30.4409 21.4886C30.3504 21.424 30.2469 21.3722 30.1434 21.3334C30.1305 21.3334 30.1305 21.3205 30.1176 21.3205C30.04 21.2946 29.9494 21.3334 29.9235 21.411C29.8718 21.5274 29.833 21.6568 29.8071 21.7861C29.7942 21.8637 29.833 21.9155 29.9106 21.9155C29.9494 21.9155 30.0012 21.9284 30.04 21.9284V21.9413C30.1564 21.9284 30.2857 21.9025 30.4021 21.8637C30.4409 21.8637 30.4927 21.8249 30.5185 21.7732Z" fill="#131413"/>
<path d="M31.0874 25.2533C30.9969 25.1886 30.8934 25.1369 30.7899 25.0981C30.777 25.0981 30.777 25.0851 30.7641 25.0851C30.6864 25.0593 30.5959 25.0981 30.57 25.1757C30.5183 25.2921 30.4795 25.4214 30.4536 25.5508C30.4407 25.6284 30.4795 25.6801 30.5571 25.6801C30.5959 25.6801 30.6476 25.693 30.6864 25.693V25.706C30.8029 25.693 30.9322 25.6672 31.0486 25.6284C31.1004 25.6154 31.1521 25.5766 31.178 25.5249C31.2297 25.4473 31.1909 25.3179 31.0874 25.2533Z" fill="#131413"/>
<path d="M29.976 18.9405C30.0665 18.7982 30.1441 18.643 30.1958 18.5654C30.2088 18.2938 30.0794 18.1903 29.9113 18.255C29.7949 18.3067 29.6914 18.3714 29.6009 18.4619C29.562 18.5137 29.5491 18.5783 29.575 18.643C29.6526 18.7594 29.7431 18.8629 29.8466 18.9534C29.8983 18.9793 29.9371 18.9664 29.976 18.9405Z" fill="#131413"/>
<path d="M28.9021 15.772C28.7987 15.7461 28.6952 15.7461 28.5917 15.7461C28.2942 15.7461 28.2813 15.7849 28.333 16.0695C28.3977 16.1988 28.4624 16.3281 28.54 16.4446C28.5788 16.4963 28.6305 16.5351 28.6952 16.548C28.8245 16.5739 28.9539 16.4834 28.9797 16.354C29.0185 16.2247 29.0444 16.1083 29.0573 15.9789C29.0573 15.966 29.0573 15.966 29.0573 15.953C29.0703 15.8754 28.9927 15.7849 28.9021 15.772Z" fill="#131413"/>
<path d="M27.001 18.3712C27.001 18.423 27.0139 18.4618 27.0527 18.4876C27.2079 18.5394 27.3761 18.5652 27.4796 18.5911C27.7382 18.5394 27.8158 18.3712 27.6994 18.2289C27.6218 18.1384 27.5313 18.0479 27.4149 17.9832C27.3502 17.9573 27.2855 17.9703 27.2338 18.0091C27.1433 18.1384 27.0656 18.2548 27.001 18.3712Z" fill="#131413"/>
<path d="M27.854 20.0268C27.7635 20.001 27.6729 19.9622 27.5824 19.9492C27.5436 19.988 27.4531 20.0139 27.4401 20.0656C27.4143 20.1691 27.4013 20.2855 27.4143 20.389C27.4143 20.4149 27.4789 20.4795 27.5048 20.4795C27.6471 20.4537 27.7764 20.4019 27.9058 20.3373C27.9446 20.3114 27.9704 20.2726 27.9834 20.2338C27.9963 20.1303 27.9446 20.0398 27.854 20.0268Z" fill="#131413"/>
<path d="M27.5308 21.8901C27.4402 21.8642 27.3497 21.8254 27.2592 21.8125C27.2204 21.8513 27.1298 21.8772 27.1169 21.9289C27.091 22.0324 27.0781 22.1488 27.091 22.2523C27.091 22.2781 27.1557 22.3428 27.1816 22.3428C27.3238 22.3169 27.4532 22.2652 27.5825 22.2005C27.6213 22.1747 27.6472 22.1359 27.6601 22.0971C27.6731 21.9936 27.6084 21.903 27.5308 21.8901Z" fill="#131413"/>
<path d="M24.5041 24.7228C24.3747 24.6323 24.2454 24.5417 24.116 24.4641C24.0514 24.4382 23.9738 24.4512 23.9091 24.5029C23.8056 24.6452 23.728 24.8004 23.6504 24.9556C23.6504 25.0074 23.6763 25.0591 23.7151 25.085C23.922 25.1755 24.1548 25.1884 24.3618 25.1238C24.5558 25.0591 24.5946 24.9039 24.5041 24.7228Z" fill="#131413"/>
<path d="M17.7004 23.8175C17.571 23.727 17.4417 23.6364 17.3123 23.5588C17.2476 23.533 17.17 23.5459 17.1054 23.5976C17.0019 23.7399 16.9243 23.8951 16.8467 24.0503C16.8467 24.1021 16.8725 24.1538 16.9114 24.1797C17.1183 24.2702 17.3511 24.2832 17.5581 24.2185C17.7521 24.1538 17.7909 23.9986 17.7004 23.8175Z" fill="#131413"/>
<path d="M14.8943 25.3044C15.0753 25.2398 15.1141 25.0845 15.0236 24.9035C14.8943 24.8129 14.7649 24.7224 14.6356 24.6448C14.5709 24.6189 14.4933 24.6318 14.4286 24.6836C14.3251 24.8259 14.2475 24.9811 14.1699 25.1363C14.1699 25.188 14.1958 25.2398 14.2346 25.2656C14.4545 25.3562 14.6873 25.3691 14.8943 25.3044Z" fill="#131413"/>
<path d="M15.3205 28.1115C15.1911 28.0209 15.0618 27.9304 14.9324 27.8528C14.8678 27.8269 14.7902 27.8398 14.7255 27.8916C14.622 28.0339 14.5444 28.1891 14.4668 28.3443C14.4668 28.396 14.4927 28.4478 14.5315 28.4736C14.7384 28.5642 14.9712 28.5771 15.1782 28.5124C15.3593 28.4478 15.411 28.2926 15.3205 28.1115Z" fill="#131413"/>
<path d="M16.6916 28.4738C16.5622 28.3832 16.4329 28.2927 16.3035 28.2151C16.2389 28.1892 16.1613 28.2021 16.0966 28.2539C15.9931 28.3962 15.9155 28.5514 15.8379 28.7066C15.8379 28.7583 15.8638 28.8101 15.9026 28.8359C16.1095 28.9265 16.3423 28.9394 16.5493 28.8747C16.7304 28.8101 16.7821 28.6549 16.6916 28.4738Z" fill="#131413"/>
<path d="M25.1509 22.4071C25.1509 22.3941 25.1509 22.3941 25.1509 22.3812C25.125 22.2906 25.0345 22.226 24.931 22.2518C24.8276 22.2648 24.737 22.3036 24.6335 22.3424C24.3619 22.4459 24.349 22.4847 24.5042 22.7434C24.6077 22.8468 24.7241 22.9374 24.8405 23.015C24.8922 23.0538 24.9569 23.0667 25.0216 23.0538C25.1509 23.0279 25.2415 22.8986 25.2156 22.7692C25.2156 22.6528 25.1897 22.5235 25.1509 22.4071Z" fill="#131413"/>
<path d="M22.4607 23.2093C22.4607 23.1964 22.4607 23.1834 22.4478 23.1834C22.4219 23.1058 22.3313 23.0541 22.2537 23.08C22.1244 23.1188 21.995 23.1576 21.8786 23.2093C21.8657 23.2093 21.8528 23.2222 21.8528 23.2222C21.814 23.2611 21.801 23.3257 21.8398 23.3645C21.8657 23.4033 21.8916 23.4421 21.9045 23.468L21.8916 23.4809C21.9821 23.5715 22.0727 23.6491 22.1761 23.7138C22.2149 23.7526 22.2796 23.7655 22.3313 23.7526C22.4478 23.7396 22.5254 23.6362 22.5124 23.5197C22.5124 23.4292 22.4995 23.3128 22.4607 23.2093Z" fill="#131413"/>
<path d="M23.3535 21.7863C23.2501 21.7217 23.1337 21.6829 23.0043 21.6699C22.9396 21.6699 22.875 21.7087 22.8491 21.7605C22.8103 21.8898 22.7715 22.0321 22.7715 22.1744C22.7715 22.2002 22.8362 22.2779 22.862 22.2649C23.0302 22.252 23.1983 22.2261 23.2889 22.2132C23.5088 22.058 23.5088 21.8769 23.3535 21.7863Z" fill="#131413"/>
<path d="M24.4911 19.8073C24.4264 19.9367 24.3618 20.066 24.31 20.2083C24.2842 20.273 24.2842 20.3376 24.323 20.4023C24.3876 20.5187 24.5299 20.5705 24.6463 20.5187C24.7627 20.467 24.8791 20.4152 24.9956 20.3506C24.9956 20.3506 25.0085 20.3506 25.0085 20.3376C25.099 20.2859 25.1249 20.1824 25.0732 20.0919C25.0344 20.0013 24.9697 19.9108 24.905 19.8332C24.7369 19.5874 24.6981 19.5874 24.4911 19.8073Z" fill="#131413"/>
<path d="M22.4346 19.7041C22.2924 19.7041 22.1501 19.7041 22.0207 19.73C21.9819 19.7558 21.9561 19.7946 21.9561 19.8464C22.0207 20.0016 22.0854 20.1568 22.1242 20.2474C22.3312 20.4155 22.4993 20.3767 22.5381 20.1956C22.564 20.0792 22.5769 19.9499 22.564 19.8334C22.551 19.7688 22.4993 19.717 22.4346 19.7041Z" fill="#131413"/>
<path d="M24.4522 17.8936C24.3099 17.8936 24.1676 17.8936 24.0383 17.9194C23.9995 17.9453 23.9736 17.9841 23.9736 18.0358C24.0383 18.191 24.103 18.3463 24.1418 18.4368C24.3487 18.6049 24.5169 18.5661 24.5557 18.3851C24.5816 18.2687 24.5945 18.1393 24.5816 18.0229C24.5686 17.9582 24.5169 17.9065 24.4522 17.8936Z" fill="#131413"/>
<path d="M18.5801 15.1514C18.4249 15.1902 18.2826 15.2419 18.1403 15.3066C18.0757 15.3454 18.0498 15.4101 18.0498 15.4877C18.1015 15.6558 18.1792 15.811 18.2568 15.9662C18.2956 16.0051 18.3473 16.018 18.399 15.9921C18.5931 15.8886 18.7483 15.7076 18.8259 15.5006C18.8776 15.3066 18.7871 15.1772 18.5801 15.1514Z" fill="#131413"/>
<path d="M15.9032 16.444C15.942 16.444 15.9938 16.457 16.0326 16.457V16.4699C16.149 16.457 16.2783 16.4311 16.3947 16.3923C16.4465 16.3794 16.4982 16.3406 16.5241 16.2888C16.5758 16.1853 16.537 16.056 16.4465 16.0043C16.3559 15.9396 16.2524 15.8878 16.149 15.849C16.136 15.849 16.136 15.8361 16.1231 15.8361C16.0455 15.8102 15.9549 15.849 15.9291 15.9266C15.8773 16.0431 15.8385 16.1724 15.8127 16.3017C15.7868 16.3794 15.8256 16.4311 15.9032 16.444Z" fill="#131413"/>
<path d="M13.2642 17.9574C13.1736 17.8927 13.0702 17.841 12.9667 17.8022C12.9537 17.8022 12.9537 17.7892 12.9408 17.7892C12.8632 17.7634 12.7727 17.8022 12.7468 17.8798C12.6951 17.9962 12.6562 18.1255 12.6304 18.2549C12.6174 18.3325 12.6562 18.3842 12.7339 18.3842C12.7727 18.3842 12.8244 18.3972 12.8632 18.3972V18.4101C12.9796 18.3972 13.109 18.3713 13.2254 18.3325C13.2771 18.3195 13.3288 18.2807 13.3547 18.229C13.4065 18.1385 13.3676 18.0091 13.2642 17.9574Z" fill="#131413"/>
<path d="M15.8642 12.8748C15.916 12.7713 15.8772 12.6419 15.7866 12.5902C15.6961 12.5255 15.5926 12.4738 15.4891 12.435C15.4762 12.435 15.4762 12.422 15.4633 12.422C15.3857 12.3962 15.2951 12.435 15.2693 12.5126C15.2175 12.629 15.1787 12.7583 15.1528 12.8877C15.1399 12.9653 15.1787 13.017 15.2563 13.017C15.2951 13.017 15.3469 13.03 15.3857 13.03V13.0429C15.5021 13.03 15.6314 13.0041 15.7478 12.9653C15.7866 12.9524 15.8384 12.9136 15.8642 12.8748Z" fill="#131413"/>
<path d="M17.6743 13.7279C17.5838 13.6632 17.4803 13.6115 17.3768 13.5727C17.3639 13.5727 17.3639 13.5597 17.351 13.5597C17.2734 13.5339 17.1828 13.5727 17.1569 13.6503C17.1052 13.7667 17.0664 13.896 17.0405 14.0254C17.0276 14.103 17.0664 14.1547 17.144 14.1547C17.1828 14.1547 17.2346 14.1677 17.2734 14.1677V14.1806C17.3898 14.1677 17.5191 14.1418 17.6355 14.103C17.6873 14.0901 17.739 14.0513 17.7649 13.9995C17.8166 13.909 17.7778 13.7796 17.6743 13.7279Z" fill="#131413"/>
<path d="M29.0181 13.0941C28.9275 13.0294 28.8241 12.9777 28.7206 12.9389C28.7076 12.9389 28.7076 12.9259 28.6947 12.9259C28.6171 12.9001 28.5266 12.9389 28.5007 13.0165C28.449 13.1329 28.4102 13.2623 28.3843 13.3916C28.3714 13.4692 28.4102 13.5209 28.4878 13.5209C28.5266 13.5209 28.5783 13.5339 28.6171 13.5339V13.5468C28.7335 13.5339 28.8629 13.508 28.9793 13.4692C29.031 13.4563 29.0828 13.4175 29.1086 13.3657C29.1474 13.2752 29.1086 13.1588 29.0181 13.0941Z" fill="#131413"/>
<path d="M26.7419 14.7499V14.7629C26.8583 14.7499 26.9876 14.7241 27.104 14.6853C27.1558 14.6723 27.2075 14.6335 27.2334 14.5818C27.2851 14.4783 27.2463 14.349 27.1558 14.2972C27.0652 14.2326 26.9618 14.1808 26.8583 14.142C26.8453 14.142 26.8453 14.1291 26.8324 14.1291C26.7548 14.1032 26.6643 14.142 26.6384 14.2196C26.5867 14.336 26.5479 14.4654 26.522 14.5947C26.509 14.6723 26.5479 14.7241 26.6255 14.7241C26.6513 14.737 26.7031 14.737 26.7419 14.7499Z" fill="#131413"/>
<path d="M12.6561 16.328C12.6949 16.2375 12.6561 16.134 12.5655 16.0952C12.4879 16.0693 12.4103 16.0434 12.3327 16.0176C12.2939 16.0564 12.2292 16.0823 12.2163 16.134C12.1904 16.2375 12.1904 16.3539 12.1904 16.4574C12.1904 16.4832 12.2422 16.5479 12.2551 16.5479C12.3715 16.522 12.4879 16.4703 12.5914 16.4056C12.6302 16.3797 12.6431 16.3539 12.6561 16.328Z" fill="#131413"/>
<path d="M17.1828 17.8802C17.3897 18.0483 17.5579 18.0095 17.5967 17.8284C17.6226 17.712 17.6355 17.5827 17.6226 17.4663C17.6096 17.4016 17.5579 17.3498 17.4932 17.3369C17.3509 17.3369 17.2087 17.3369 17.0793 17.3628C17.0405 17.3887 17.0146 17.4275 17.0146 17.4792C17.0664 17.6473 17.144 17.8026 17.1828 17.8802Z" fill="#131413"/>
<path d="M20.2747 24.3731C20.2229 24.3602 20.1453 24.3084 20.0936 24.3343C19.9901 24.3731 19.8996 24.4378 19.822 24.5154C19.7961 24.5283 19.7832 24.6189 19.809 24.6318C19.9125 24.7223 20.0418 24.7999 20.1712 24.8646C20.3135 24.9163 20.4169 24.7999 20.3781 24.6447C20.3523 24.5542 20.3135 24.4636 20.2747 24.3731Z" fill="#131413"/>
<path d="M16.3947 25.8215C16.3689 25.7309 16.3301 25.6404 16.2913 25.5499C16.2395 25.5369 16.1619 25.4852 16.1102 25.511C16.0067 25.5499 15.9162 25.6145 15.8386 25.6921C15.8127 25.7051 15.7998 25.7956 15.8256 25.8085C15.9291 25.8991 16.0584 25.9767 16.1878 26.0414C16.3171 26.0931 16.4335 25.9637 16.3947 25.8215Z" fill="#131413"/>
<path d="M27.0784 25.3565C27.0266 25.3436 26.949 25.2918 26.8973 25.3177C26.7938 25.3565 26.7033 25.4212 26.6257 25.4988C26.5998 25.5117 26.5869 25.6023 26.6127 25.6152C26.7162 25.7057 26.8456 25.7833 26.9749 25.848C27.1172 25.8998 27.2207 25.7833 27.1819 25.6281C27.1431 25.5246 27.1172 25.4341 27.0784 25.3565Z" fill="#131413"/>
<path d="M9.25405 26.9342C9.16351 27.0635 9.07296 27.1929 8.99536 27.3222C8.96949 27.3869 8.98242 27.4645 9.03416 27.5292C9.17644 27.6326 9.33165 27.7102 9.48687 27.7879C9.53861 27.7879 9.59034 27.762 9.61621 27.7232C9.70675 27.5162 9.71969 27.2834 9.65502 27.0765C9.59034 26.8824 9.43513 26.8436 9.25405 26.9342Z" fill="#131413"/>
<path d="M11.6857 26.5465C11.5951 26.6758 11.5046 26.8052 11.427 26.9345C11.4011 26.9992 11.4141 27.0768 11.4658 27.1415C11.6081 27.2449 11.7633 27.3226 11.9185 27.4002C11.9702 27.4002 12.022 27.3743 12.0479 27.3355C12.1384 27.1285 12.1513 26.8957 12.0867 26.6888C12.022 26.4947 11.8668 26.4559 11.6857 26.5465Z" fill="#131413"/>
<path d="M12.8371 24.8257C12.7465 24.955 12.656 25.0844 12.5784 25.2137C12.5525 25.2784 12.5654 25.356 12.6172 25.4206C12.7594 25.5241 12.9147 25.6017 13.0699 25.6793C13.1216 25.6793 13.1734 25.6535 13.1992 25.6147C13.2898 25.4077 13.3027 25.1749 13.238 24.9679C13.1734 24.7739 13.0181 24.7222 12.8371 24.8257Z" fill="#131413"/>
<path d="M50.2573 23.8302L58.9881 26.0549L58.9622 25.8609C58.9493 25.7574 58.9363 25.6669 58.9234 25.5764C58.8975 25.4082 58.8846 25.2789 58.8846 25.1495C58.8846 24.6321 58.6388 24.3088 58.0827 24.1277C57.3713 23.8949 56.6469 23.6103 55.9485 23.3516C55.6768 23.2481 55.3923 23.1447 55.1207 23.0412L54.0471 22.6402L75.7642 28.7971L75.8806 28.8359L75.997 28.5254L58.2767 21.6313C58.3155 21.5796 58.3672 21.5408 58.406 21.489C58.5742 21.308 58.7294 21.1398 58.8846 20.9846C60.3074 19.6006 61.6009 18.0873 62.752 16.4705C63.9549 14.776 64.6663 13.3662 65.0414 11.9046C65.6623 9.52462 65.9598 7.50684 65.9857 5.5796C65.9986 4.55777 66.322 3.58768 66.9299 2.75987C67.1756 2.42357 67.4343 2.07434 67.6801 1.75098C67.9388 1.41468 68.2104 1.05252 68.4562 0.703283C68.7278 0.328182 68.8054 -0.0469185 68.7019 -0.357347C68.5855 -0.68071 68.288 -0.926466 67.8353 -1.06875C67.0463 -1.37917 66.1538 -1.24983 65.4553 -0.771252C64.1231 0.172968 63.3858 1.20773 63.1918 2.41064C63.0107 3.67822 62.8943 4.97167 62.8684 6.25219C62.8038 8.25704 62.5451 10.8698 61.1999 13.2239C59.984 15.3064 58.5224 17.2465 56.8539 18.9798C55.8838 20.0145 54.7585 20.4284 53.4392 20.2473C51.8482 20.0274 50.2573 19.7429 48.8733 19.4713C44.773 18.6952 40.6081 17.8933 36.5079 17.0913C36.2363 17.0266 35.9776 16.8973 35.7965 16.7033C35.4343 16.3023 34.9687 16.0177 34.4513 15.8884C34.2055 15.8367 33.9598 15.7461 33.727 15.6685C33.6235 15.6297 33.52 15.6038 33.4295 15.565L33.0285 15.4357L43.4796 17.8545L43.5831 17.4794L31.5798 13.6378L33.6882 13.9612L33.3389 13.6637C32.9638 13.3403 32.5629 13.0816 32.1748 12.8229C31.9937 12.7065 31.8127 12.5772 31.6316 12.4608C31.0107 12.021 30.364 11.8399 29.7302 11.9304C29.0835 12.021 28.4238 12.1374 27.79 12.2409C27.3373 12.3185 26.8846 12.409 26.4319 12.4737C26.1861 12.5125 25.9533 12.4866 25.8628 12.409C24.634 11.4389 23.2759 11.0768 21.6849 11.2967C20.7019 11.4389 19.9905 11.3096 19.3696 10.8569C19.0721 10.6758 18.7617 10.5335 18.4254 10.4688C17.6105 10.2619 17.1061 10.4559 16.5887 11.1673C16.4982 11.2837 16.3559 11.3613 16.2136 11.3743C14.8555 11.5036 13.6526 12.0339 12.5532 13.004C12.1651 13.3403 12.0487 13.7154 12.178 14.1422C12.2557 14.4268 12.178 14.6467 11.9194 14.8795C11.596 15.1899 11.2856 15.5262 11.0139 15.8625C10.7294 16.1859 10.7164 16.5222 11.001 16.9102C11.402 17.4664 11.79 18.0485 12.1522 18.6047L12.3074 18.8375C12.579 19.2643 12.98 19.3937 13.4327 19.2126C13.5879 19.1608 13.7431 19.0832 13.8725 18.9798C14.3899 18.4882 14.9072 18.4624 15.554 18.9021C16.2136 19.3549 16.9121 19.3031 17.6235 18.7599C17.908 18.54 18.309 18.4753 18.7229 18.5917C19.1627 18.7081 19.5378 19.0056 19.693 19.3678C20.0552 20.2085 20.4303 21.0493 20.7924 21.8771C20.9606 22.2522 21.1287 22.6402 21.2969 23.0153C21.1287 23.0153 20.9477 23.0024 20.7795 23.0024C20.2492 22.9895 19.7577 22.9895 19.2403 22.9507C18.9299 22.9377 18.6194 22.8989 18.309 22.8601C17.8563 22.8084 17.3907 22.7566 16.925 22.7566C15.8773 22.7566 15.0883 23.1705 14.6485 23.9725C14.4157 24.4252 14.2346 24.8908 14.1312 25.3823C13.769 26.7922 14.0665 28.0727 14.9978 29.198C15.2694 29.5343 15.7738 29.6895 16.2136 29.5861C16.537 29.5084 16.7698 29.3015 16.8345 29.0169C16.8603 28.9005 16.8991 28.7841 16.938 28.6548C17.1061 28.0727 17.3131 27.4001 16.7181 26.7405C16.524 26.5206 16.4594 26.249 16.5499 25.9903C16.6534 25.6928 16.938 25.4599 17.2872 25.3823C17.5847 25.3177 17.908 25.3177 18.1926 25.3953C18.8523 25.5893 19.5119 25.8092 20.1457 26.0161C20.9347 26.2748 21.7625 26.5335 22.5774 26.7663C23.5992 27.0509 24.6469 27.3096 25.6558 27.5553C26.1603 27.6717 26.6647 27.8011 27.1692 27.9304C27.3373 27.9692 27.5831 28.008 27.7512 27.8787C27.8806 27.7752 27.9582 27.6071 27.9711 27.3613C27.997 26.8569 28.0487 26.3524 28.1004 25.8609C28.1392 25.4858 28.1651 25.0978 28.2039 24.7097C28.2169 24.5933 28.2169 24.4899 28.2169 24.3734C28.4367 25.2142 28.5661 26.042 28.385 26.8957C28.3074 27.2578 28.4626 27.4907 28.8248 27.5941C29.2387 27.7106 29.6655 27.8528 30.0794 27.9692C31.0495 28.2667 32.0455 28.5901 33.0673 28.7582C36.5596 29.3532 40.1296 29.8965 43.5701 30.4268C44.8507 30.6208 46.1312 30.8148 47.4117 31.0218C47.8127 31.0865 48.2007 31.1382 48.6017 31.2029C48.7827 31.2287 48.9768 31.2546 49.1578 31.2805L49.2872 31.2934L49.3389 30.9571L36.9865 27.8528C37.7625 27.9434 38.5257 28.0469 39.2112 28.1374C40.3365 28.2926 41.617 28.4608 42.9234 28.215C43.9194 28.0469 44.9412 28.008 45.9501 28.0727C48.4723 28.215 50.4384 29.2886 51.8224 31.2805C52.3397 32.0307 52.8701 32.7938 53.3357 33.5828C53.9048 34.5529 54.7326 35.2384 55.8579 35.6782C56.3106 35.8722 56.7892 36.0404 57.2807 36.1568C58.6518 36.4543 60.4756 36.8294 62.3252 37.1657C63.0237 37.2821 63.6962 37.5925 64.2395 38.0582C65.714 39.274 66.8652 40.7615 68.0164 42.3007C68.6114 43.0897 69.271 43.9175 70.1118 44.8747C70.2929 45.0816 70.5515 45.198 70.8102 45.198C70.849 45.198 70.8878 45.198 70.9266 45.1851C71.2112 45.1463 71.457 44.9781 71.5863 44.7324C71.8321 44.2538 71.8191 43.7882 71.5734 43.3743C71.5604 43.3484 71.5346 43.3225 71.5216 43.2837C71.4828 43.219 71.4052 43.1156 71.4182 43.0638C71.4958 42.5206 71.1853 42.1843 70.862 41.8997C70.7068 41.7574 70.5386 41.5893 70.3963 41.447C70.2152 41.2659 70.0342 41.0848 69.8401 40.9038C68.4044 39.6491 67.2662 38.0452 66.5548 36.2861L66.5418 36.2732C66.4125 36.0533 66.2185 35.8852 65.9857 35.7946C63.7868 34.9021 61.5362 33.9967 59.3632 33.1301L58.1085 32.6257L80.938 38.3298L80.6534 38.0064C80.537 37.8641 80.3689 37.7736 80.2007 37.7348C78.7003 37.2562 77.2128 36.7647 75.7124 36.2861C70.7714 34.6952 65.6752 33.0396 60.6437 31.4486C59.803 31.1899 59.5055 30.8407 59.5184 30.1552C59.5184 29.7025 59.2209 29.5602 58.9363 29.4696C57.6946 29.0557 56.44 28.6289 55.2241 28.2021L51.9905 27.0897L88.5564 36.5319L88.6857 36.5578L88.7245 36.4284C88.7375 36.4025 88.7375 36.3637 88.7504 36.3379L88.7892 36.2215L50.2573 23.8302ZM49.4295 26.1843L49.3389 26.4947L55.1207 28.4737C56.3365 28.8876 57.5912 29.3274 58.8329 29.7413C59.1174 29.8318 59.2468 29.9224 59.2338 30.181C59.2209 31.177 59.8547 31.5133 60.5402 31.7203C65.5718 33.3112 70.6809 34.9539 75.6089 36.5578C76.4885 36.8423 77.3551 37.1269 78.2346 37.4114L57.0479 32.1212L56.9315 32.0954L56.8151 32.4187L57.0996 32.5351C57.2161 32.5869 57.3454 32.6386 57.4618 32.6903L59.2338 33.4017C61.4068 34.2684 63.6445 35.1738 65.8563 36.0662C66.0374 36.1309 66.1797 36.2603 66.2702 36.4155C67.0075 38.2134 68.1716 39.8431 69.6332 41.1236C69.8272 41.2918 70.0083 41.4729 70.1764 41.654C70.3317 41.8092 70.4869 41.9644 70.655 42.1196C70.9525 42.3912 71.1853 42.637 71.1207 43.0638C71.0948 43.2061 71.1853 43.3484 71.2629 43.4648C71.2759 43.4907 71.3017 43.5165 71.3147 43.5424C71.5216 43.8787 71.5216 44.2409 71.3147 44.6418C71.2241 44.81 71.056 44.9264 70.862 44.9523C70.6421 44.9781 70.4222 44.9005 70.2799 44.7194C69.4521 43.7623 68.7924 42.9474 68.1975 42.1584C67.0334 40.6063 65.8822 39.1059 64.3818 37.8641C63.7997 37.3726 63.1013 37.0493 62.3511 36.9199C60.5144 36.5836 58.6906 36.2085 57.3195 35.911C56.8539 35.7946 56.3882 35.6394 55.9355 35.4454C54.862 35.0315 54.073 34.3718 53.5426 33.4664C53.077 32.6645 52.5338 31.8884 52.0164 31.1511C50.5806 29.0945 48.537 27.9692 45.9501 27.827C45.6267 27.8011 45.3163 27.7882 44.9929 27.7882C44.2815 27.7882 43.5701 27.8528 42.8587 27.9692C41.5912 28.215 40.3365 28.0469 39.2241 27.8916C38.0212 27.7235 36.6243 27.5424 35.2403 27.4389L35.2015 27.6976L47.5022 30.8278C47.4634 30.8278 47.4246 30.8148 47.3858 30.8148C46.1053 30.6208 44.8248 30.4139 43.5443 30.2198C40.1037 29.6895 36.5338 29.1463 33.0414 28.5513C32.0455 28.3831 31.0495 28.0727 30.0924 27.7752C29.6785 27.6459 29.2516 27.5165 28.8248 27.3872C28.592 27.3225 28.5273 27.219 28.5661 26.9992C28.8118 25.7962 28.4755 24.6192 28.1522 23.4939L27.9064 22.6532L27.8806 23.5068C27.8806 23.6362 27.8806 23.7655 27.8676 23.8949C27.8676 24.1665 27.8547 24.4511 27.8418 24.7356C27.8159 25.1236 27.7771 25.5117 27.7383 25.8868C27.6865 26.3783 27.6477 26.8957 27.6089 27.3872C27.596 27.5553 27.5572 27.6717 27.4925 27.7106C27.4278 27.7623 27.2985 27.7623 27.1304 27.7106C26.6259 27.5812 26.1215 27.4648 25.617 27.3355C24.6081 27.0897 23.5604 26.831 22.5386 26.5464C21.7237 26.3136 20.9089 26.0549 20.1198 25.7962C19.4731 25.5893 18.8135 25.3694 18.1538 25.1754C17.8175 25.0848 17.4553 25.0848 17.119 25.1625C16.6663 25.253 16.3171 25.5505 16.1748 25.9385C16.0584 26.2878 16.136 26.6629 16.3947 26.9604C16.8862 27.5165 16.731 28.0598 16.5629 28.6289C16.524 28.7582 16.4852 28.8747 16.4594 29.004C16.3947 29.2498 16.1748 29.3403 16.0325 29.3791C15.6833 29.4567 15.2953 29.3403 15.0883 29.0816C14.2088 28.021 13.9371 26.8181 14.2734 25.4988C14.3769 25.0331 14.5451 24.5675 14.765 24.1536C15.2565 23.2611 16.1489 23.08 16.8086 23.08C17.2613 23.08 17.714 23.1317 18.1667 23.1835C18.4772 23.2223 18.8005 23.2611 19.111 23.274C19.6283 23.2999 20.1457 23.3128 20.6631 23.3258C20.883 23.3258 21.0899 23.3387 21.3098 23.3387L21.3616 23.3775L21.4392 23.3128C21.465 23.2999 21.4909 23.2481 21.5038 23.1964L21.5556 23.08H21.478C21.2969 22.6661 21.1029 22.2393 20.9218 21.8253C20.5596 21.0105 20.1845 20.1568 19.8224 19.329C19.6283 18.8892 19.2015 18.54 18.6712 18.3977C18.1797 18.2684 17.7011 18.346 17.3519 18.6176C16.731 19.0962 16.1489 19.135 15.5928 18.7599C14.8426 18.2554 14.1958 18.2813 13.5879 18.8504C13.4844 18.928 13.368 18.9927 13.2257 19.0315C12.8765 19.1608 12.6178 19.0832 12.4109 18.7599L12.2557 18.527C11.8806 17.9579 11.5055 17.3759 11.0915 16.8197C10.8846 16.5351 10.8846 16.3282 11.0915 16.0954C11.3632 15.7591 11.6736 15.4357 11.984 15.1382C12.3203 14.8407 12.4367 14.5044 12.3203 14.1293C12.2169 13.793 12.3203 13.5214 12.6178 13.2627C13.6785 12.3314 14.8296 11.814 16.136 11.6976C16.3559 11.6718 16.5499 11.5683 16.6922 11.3872C17.1449 10.7534 17.5459 10.5982 18.2573 10.7922C18.5677 10.8569 18.8523 10.9733 19.111 11.1414C19.7835 11.6329 20.5467 11.7752 21.6073 11.62C23.1207 11.4001 24.4141 11.7494 25.5782 12.6677C25.7981 12.8488 26.1991 12.81 26.3543 12.7841C26.807 12.7194 27.2726 12.6289 27.7253 12.5513C28.3591 12.4349 29.0059 12.3185 29.6526 12.2409C30.2217 12.1633 30.8038 12.3314 31.3729 12.7324C31.554 12.8617 31.748 12.9781 31.9291 13.1075C32.1748 13.2756 32.4335 13.4438 32.6793 13.6249L30.3899 13.2756L30.2993 13.6119L41.824 17.2983L30.3381 14.6338L30.2217 14.6079L30.1312 14.8795L33.326 15.8237C33.4295 15.8496 33.52 15.8884 33.6235 15.9272C33.8692 16.0048 34.115 16.0954 34.3737 16.1471C34.8523 16.2635 35.2662 16.5222 35.5895 16.8844C35.8224 17.1172 36.1198 17.2853 36.4432 17.35C40.5435 18.1519 44.7084 18.9539 48.8086 19.73C50.1926 19.9886 51.7965 20.2861 53.3874 20.506C54.7973 20.7 55.9873 20.2603 57.035 19.1479C58.7165 17.3888 60.191 15.4357 61.4198 13.3403C62.8038 10.9345 63.0495 8.28291 63.1271 6.23926C63.153 4.97167 63.2565 3.69116 63.4505 2.42357C63.6316 1.28534 64.3171 0.328182 65.6106 -0.577234C66.2314 -1.01701 67.0463 -1.13342 67.7706 -0.874728C68.1457 -0.758317 68.3915 -0.564299 68.4691 -0.331478C68.5467 -0.0986567 68.482 0.185903 68.2621 0.496331C68.0164 0.845563 67.7448 1.19479 67.4861 1.54403C67.2403 1.88032 66.9687 2.21662 66.7359 2.56585C66.1021 3.43247 65.7528 4.45429 65.7399 5.52786C65.714 7.42923 65.4165 9.42115 64.7957 11.7882C64.4206 13.211 63.7351 14.595 62.5451 16.2635C61.4068 17.8674 60.1263 19.3807 58.7165 20.7388C58.5483 20.907 58.3931 21.0751 58.2249 21.2562C58.1473 21.3468 58.0568 21.4373 57.9663 21.5408L57.8369 21.6831L74.0309 27.9822L52.0034 21.7736L51.9 22.097L55.0431 23.2869C55.3147 23.3904 55.5992 23.4939 55.8709 23.5974C56.5693 23.869 57.2937 24.1406 58.0051 24.3864C58.4578 24.5416 58.6389 24.7485 58.6259 25.1625C58.6259 25.3047 58.6388 25.4599 58.6647 25.6281C58.6647 25.654 58.6777 25.6798 58.6777 25.7186L47.153 22.7825L47.0625 23.0929L85.8401 35.6135L49.4295 26.1843Z" fill="#131413"/>
<path d="M14.1178 24.1928L14.1566 23.96L13.9367 24.0376C13.6004 24.1669 13.2641 24.2963 12.9278 24.4127C12.1388 24.6972 11.3886 24.9689 10.6772 25.344C10.0952 25.6415 9.61661 26.2106 9.20271 26.715L9.15097 26.7797C8.90521 27.103 8.77587 27.4911 8.75 27.905C8.76293 28.2284 8.90521 28.5388 9.17684 28.7328C9.26738 28.7975 9.37086 28.8104 9.48727 28.8104C9.59074 28.8104 9.70715 28.7975 9.82357 28.7716C9.90117 28.7587 9.97878 28.7457 10.0435 28.7457C10.1081 28.7457 10.1599 28.7199 10.2116 28.7069C10.2504 28.694 10.2892 28.6811 10.3151 28.6811C11.0653 28.8104 11.4016 28.7328 11.7508 28.0473C12.0612 27.4264 12.5527 27.103 13.3288 26.9737C13.497 26.9349 13.6392 26.8185 13.7169 26.6633L13.7298 26.6374C13.8333 26.0683 13.9238 25.4992 14.0273 24.8395C14.0532 24.6455 14.079 24.4256 14.1178 24.1928ZM13.7557 24.8136C13.6522 25.4604 13.5616 26.0165 13.4582 26.5857C13.4194 26.6633 13.3547 26.715 13.2771 26.7409C12.4234 26.8832 11.8672 27.2583 11.5051 27.9567C11.2205 28.5129 11.0135 28.5647 10.3539 28.4482C10.2633 28.4353 10.1857 28.4612 10.1211 28.487C10.0823 28.5 10.0435 28.5129 10.0176 28.5129C9.93998 28.5129 9.86237 28.5258 9.78476 28.5388C9.61661 28.5647 9.42259 28.5905 9.34499 28.5388C9.15097 28.3836 9.03456 28.1507 9.02162 27.9179C9.03456 27.5687 9.15097 27.2324 9.35792 26.9478L9.40966 26.8832C9.8365 26.3787 10.2633 25.8613 10.8066 25.5768C11.5051 25.2146 12.2423 24.943 13.0313 24.6584C13.29 24.5679 13.5616 24.4644 13.8333 24.3609C13.7945 24.5291 13.7815 24.6714 13.7557 24.8136Z" fill="#131413"/>
<path d="M62.0271 38.5884C59.5696 37.9804 57.0861 37.3725 54.6415 36.7775C54.0207 36.6223 53.3739 36.4542 52.766 36.299C51.3303 35.9239 49.8299 35.5358 48.3424 35.2771C46.0918 34.8762 43.7765 34.5528 41.5518 34.2424C40.6205 34.113 39.6633 33.9837 38.7191 33.8414C38.1112 33.7509 37.5033 33.6732 36.8954 33.5827L35.8994 33.4404L35.8865 33.5698C35.8865 33.5956 35.8735 33.6215 35.8735 33.6474L35.8477 33.7767L63.0748 39.1704L62.5833 38.8082C62.4152 38.7048 62.2211 38.6142 62.0271 38.5884ZM39.3529 34.1906C40.0772 34.2941 40.8016 34.3976 41.513 34.5011C43.7377 34.8115 46.0401 35.1348 48.3036 35.5358C49.7781 35.7945 51.2656 36.1825 52.7013 36.5576C53.3222 36.7129 53.956 36.881 54.5898 37.0362C55.9608 37.3725 57.3578 37.7088 58.7418 38.058L39.3529 34.1906Z" fill="#131413"/>
<path d="M39.1848 32.8326C39.8832 32.9231 40.5946 33.0137 41.2931 33.1042L42.0562 33.1948L42.108 32.8585L27.7118 29.8706L27.5825 29.8447L27.5049 30.194L27.6213 30.2328C27.9835 30.3492 28.3456 30.4526 28.7078 30.5691C29.5356 30.8277 30.3893 31.0994 31.243 31.3451C31.4628 31.4098 31.6827 31.4745 31.9026 31.5391C32.821 31.8108 33.7781 32.0953 34.7353 32.2635C35.7571 32.4446 36.8048 32.561 37.8266 32.6774C38.2664 32.7162 38.732 32.7679 39.1848 32.8326ZM31.9673 31.2805C31.7474 31.2158 31.5275 31.1511 31.3076 31.0864C30.6221 30.8924 29.9236 30.6725 29.251 30.4656L39.6504 32.6256C39.5081 32.6127 39.3658 32.5868 39.2236 32.5739C38.7709 32.5222 38.3052 32.4704 37.8525 32.4187C36.8436 32.3023 35.7959 32.1859 34.787 32.0048C33.8299 31.8237 32.8856 31.5521 31.9673 31.2805Z" fill="#131413"/>
<path d="M17.8943 25.7185C17.7132 25.6797 17.5321 25.6797 17.364 25.7055C17.2217 25.7185 16.963 25.7831 16.8466 25.9642C16.8078 26.0418 16.756 26.1582 16.8207 26.3393C16.9113 26.598 17.1958 26.9084 17.4545 26.9472C18.14 27.0507 18.8514 27.1283 19.537 27.2059C20.0543 27.2706 20.5847 27.3223 21.115 27.3999C21.6453 27.4775 22.1756 27.5681 22.693 27.6716C22.9258 27.7233 23.1716 27.7621 23.4044 27.8009L23.5208 27.8268L23.6243 27.3999L22.292 27.0119C20.8563 26.5851 19.3688 26.1453 17.8943 25.7185ZM22.7318 27.4129C22.2144 27.3094 21.6712 27.2059 21.1408 27.1413C20.6105 27.0766 20.0802 27.0119 19.5628 26.9472C18.8773 26.8696 18.1788 26.792 17.4933 26.6885C17.364 26.6627 17.1441 26.4428 17.0665 26.2488C17.0406 26.1582 17.0535 26.1194 17.0665 26.1065C17.1053 26.0418 17.2346 25.9901 17.4028 25.9642C17.4674 25.9513 17.5321 25.9513 17.5968 25.9513C17.6744 25.9513 17.752 25.9642 17.8296 25.9772C19.2912 26.404 20.7787 26.8438 22.2273 27.2577L22.7965 27.4258C22.7706 27.4129 22.7577 27.4129 22.7318 27.4129Z" fill="#131413"/>
<path d="M13.1993 14.543L13.1605 14.556C13.0312 14.6207 13.0053 14.7888 12.9795 14.9958C12.9665 15.0863 12.9536 15.1768 12.9406 15.2674L12.876 15.539L14.5187 14.6724L14.3634 14.543C13.9237 14.1809 13.5098 14.3878 13.1993 14.543Z" fill="#131413"/>
<path d="M18.076 11.1934C17.5586 11.2063 16.8602 11.6461 16.5497 12.1764L16.3428 12.5127L17.0412 12.2281C17.5327 12.0341 17.8302 11.9824 18.0113 12.0858C18.1924 12.1764 18.3347 12.4351 18.464 12.9137C18.5675 13.3017 18.5934 13.7156 18.6063 14.1036C18.6192 14.2847 18.6322 14.4658 18.6451 14.6469L18.6839 14.9702L18.8909 14.7115C19.5505 13.8579 19.3953 12.0988 18.5934 11.3874C18.4511 11.271 18.27 11.2063 18.076 11.1934ZM18.8909 14.1812C18.8909 14.1554 18.8909 14.1166 18.8909 14.0907C18.865 13.6768 18.8391 13.2499 18.7357 12.849C18.5804 12.2799 18.4123 11.9824 18.1407 11.853C18.0372 11.8013 17.9208 11.7754 17.7914 11.7754C17.6104 11.7754 17.3905 11.8272 17.1059 11.9306C17.4034 11.6719 17.7914 11.4779 18.076 11.465C18.2053 11.4779 18.3347 11.5167 18.4252 11.6073C19.0073 12.1117 19.2013 13.3793 18.8909 14.1812Z" fill="#131413"/>
</g>
</g>
<defs>
<clipPath id="clip0">
<rect width="80" height="46.4479" fill="white" transform="translate(8.75 -1.25)"/>
</clipPath>
</defs>
</svg>
