<svg width="48" height="48" viewBox="0 0 48 48" fill="none" xmlns="http://www.w3.org/2000/svg">
    <path d="M18 22C20.2091 22 22 20.2091 22 18C22 15.7909 20.2091 14 18 14C15.7909 14 14 15.7909 14 18C14 20.2091 15.7909 22 18 22Z" fill="#2BA55D"/>
    <path d="M30 22C32.2091 22 34 20.2091 34 18C34 15.7909 32.2091 14 30 14C27.7909 14 26 15.7909 26 18C26 20.2091 27.7909 22 30 22Z" fill="#2BA55D"/>
    <path d="M22 30C22 32.2091 20.2091 34 18 34C15.7909 34 14 32.2091 14 30C14 27.7909 15.7909 26 18 26C20.2091 26 22 27.7909 22 30Z" fill="#2BA55D"/>
    <path d="M30 34C32.2091 34 34 32.2091 34 30C34 27.7909 32.2091 26 30 26C27.7909 26 26 27.7909 26 30C26 32.2091 27.7909 34 30 34Z" fill="#2BA55D"/>
</svg>
