<svg width="30" height="30" viewBox="0 0 30 30" fill="none" xmlns="http://www.w3.org/2000/svg">
<path d="M8.0135 6.4534L5.6135 4.06673L3.7335 5.94673L6.12016 8.3334L8.0135 6.4534ZM0.333496 14.0001H4.3335V16.6667H0.333496V14.0001ZM13.6668 0.733398H16.3335V4.66673H13.6668V0.733398ZM24.3868 4.06007L26.2642 5.93607L23.8775 8.32273L22.0015 6.4454L24.3868 4.06007ZM21.9868 24.2134L24.3735 26.6134L26.2535 24.7334L23.8535 22.3467L21.9868 24.2134ZM25.6668 14.0001H29.6668V16.6667H25.6668V14.0001ZM15.0002 7.3334C10.5868 7.3334 7.00016 10.9201 7.00016 15.3334C7.00016 19.7467 10.5868 23.3334 15.0002 23.3334C19.4135 23.3334 23.0002 19.7467 23.0002 15.3334C23.0002 10.9201 19.4135 7.3334 15.0002 7.3334ZM15.0002 20.6667C12.0535 20.6667 9.66683 18.2801 9.66683 15.3334C9.66683 12.3867 12.0535 10.0001 15.0002 10.0001C17.9468 10.0001 20.3335 12.3867 20.3335 15.3334C20.3335 18.2801 17.9468 20.6667 15.0002 20.6667ZM13.6668 26.0001H16.3335V29.9334H13.6668V26.0001ZM3.7335 24.7201L5.6135 26.6001L8.00016 24.2001L6.12016 22.3201L3.7335 24.7201Z" fill="#FCFCFC"/>
</svg>
