<svg width="32" height="32" viewBox="0 0 32 32" fill="none" xmlns="http://www.w3.org/2000/svg">
    <path d="M13.3332 5.33317C19.2132 5.33317 23.9998 10.1198 23.9998 15.9998C23.9998 21.8798 19.2132 26.6665 13.3332 26.6665C12.8798 26.6665 12.4265 26.6398 11.9865 26.5732C14.5332 23.6932 15.9998 19.9332 15.9998 15.9998C15.9998 12.0665 14.5332 8.3065 11.9865 5.4265C12.4265 5.35984 12.8798 5.33317 13.3332 5.33317ZM13.3332 2.6665C10.9065 2.6665 8.6265 3.33317 6.6665 4.4665C10.6532 6.77317 13.3332 11.0665 13.3332 15.9998C13.3332 20.9332 10.6532 25.2265 6.6665 27.5332C8.6265 28.6665 10.9065 29.3332 13.3332 29.3332C20.6932 29.3332 26.6665 23.3598 26.6665 15.9998C26.6665 8.63984 20.6932 2.6665 13.3332 2.6665Z" fill="#EBF8F0"/>
</svg>
