<svg width="32" height="32" viewBox="0 0 32 32" fill="none" xmlns="http://www.w3.org/2000/svg">
    <path d="M9.0135 6.4534L6.6135 4.06673L4.7335 5.94673L7.12016 8.3334L9.0135 6.4534ZM1.3335 14.0001H5.3335V16.6667H1.3335V14.0001ZM14.6668 0.733398H17.3335V4.66673H14.6668V0.733398ZM25.3868 4.06007L27.2642 5.93607L24.8775 8.32273L23.0015 6.4454L25.3868 4.06007ZM22.9868 24.2134L25.3735 26.6134L27.2535 24.7334L24.8535 22.3467L22.9868 24.2134ZM26.6668 14.0001H30.6668V16.6667H26.6668V14.0001ZM16.0002 7.3334C11.5868 7.3334 8.00016 10.9201 8.00016 15.3334C8.00016 19.7467 11.5868 23.3334 16.0002 23.3334C20.4135 23.3334 24.0002 19.7467 24.0002 15.3334C24.0002 10.9201 20.4135 7.3334 16.0002 7.3334ZM16.0002 20.6667C13.0535 20.6667 10.6668 18.2801 10.6668 15.3334C10.6668 12.3867 13.0535 10.0001 16.0002 10.0001C18.9468 10.0001 21.3335 12.3867 21.3335 15.3334C21.3335 18.2801 18.9468 20.6667 16.0002 20.6667ZM14.6668 26.0001H17.3335V29.9334H14.6668V26.0001ZM4.7335 24.7201L6.6135 26.6001L9.00016 24.2001L7.12016 22.3201L4.7335 24.7201Z" fill="#2BA55D"/>
</svg>
