<svg width="32" height="32" viewBox="0 0 32 32" fill="none" xmlns="http://www.w3.org/2000/svg">
<circle cx="16" cy="16" r="15.5" fill="#FCFCFC" stroke="#CECECE"/>
<mask id="mask0" mask-type="alpha" maskUnits="userSpaceOnUse" x="0" y="0" width="32" height="32">
<circle cx="16" cy="16" r="16" fill="#FCFCFC"/>
</mask>
<g mask="url(#mask0)">
<g clip-path="url(#clip0)">
<path d="M70.8552 29.1528C70.8655 29.1321 70.8655 29.1011 70.8758 29.0804L37.7842 18.3913C37.7842 18.3706 37.7945 18.3603 37.7945 18.3396L47.066 20.6988C47.0453 20.4608 47.0039 20.2849 47.0039 20.1194C47.0039 19.7158 46.8073 19.5296 46.4348 19.4054C45.638 19.1363 44.8516 18.8259 44.0652 18.5258C43.2581 18.2258 42.4509 17.9153 41.6438 17.6152C41.6542 17.5946 41.6542 17.5739 41.6645 17.5532L60.6524 22.9339C60.6628 22.9132 60.6628 22.8925 60.6731 22.8718L46.4451 17.3359C46.6728 17.0979 46.8487 16.8909 47.0453 16.7047C48.1835 15.5975 49.2079 14.3971 50.1185 13.1037C50.9049 11.9861 51.5879 10.8169 51.9294 9.48202C52.364 7.83675 52.664 6.16044 52.6847 4.45308C52.6951 3.61493 52.9641 2.80781 53.4608 2.13522C53.854 1.57645 54.2886 1.04872 54.6818 0.489946C55.0854 -0.0791726 54.9095 -0.56551 54.2265 -0.772463C53.616 -0.979415 52.9434 -0.886287 52.4054 -0.513772C51.5362 0.0967369 50.8015 0.872808 50.6359 1.95931C50.491 2.97337 50.3979 3.99779 50.3772 5.0222C50.3048 6.9986 50.0254 8.9129 49.032 10.6513C48.0594 12.3276 46.8797 13.8798 45.5449 15.2767C44.7378 16.1252 43.8272 16.477 42.72 16.3218C41.499 16.1562 40.2779 15.9389 39.0673 15.7009C35.7664 15.0801 32.4655 14.4385 29.175 13.797C28.937 13.7452 28.7197 13.6211 28.5438 13.4452C28.2747 13.1347 27.9125 12.9174 27.5193 12.8243C27.24 12.7622 26.9709 12.6587 26.6915 12.5656C25.8948 12.3069 25.098 12.0482 24.2909 11.7895C24.2909 11.7792 24.3012 11.7688 24.3012 11.7585L34.6799 14.1695C34.6902 14.1385 34.7006 14.0971 34.7109 14.066L24.4254 10.7755C24.4357 10.7548 24.4358 10.7237 24.4461 10.703L26.5674 11.0238C26.1328 10.6513 25.6568 10.3823 25.2118 10.0718C24.7669 9.76141 24.2805 9.59585 23.7632 9.65793C22.8836 9.77176 22.0041 9.95801 21.1245 10.0925C20.9486 10.1236 20.7106 10.1236 20.5864 10.0201C19.6241 9.25438 18.5376 8.97499 17.3269 9.16125C16.6543 9.26472 16.0024 9.22333 15.4023 8.79908C15.1746 8.65421 14.9366 8.56109 14.6779 8.499C14.0571 8.33344 13.6949 8.499 13.3224 9.01638C13.2293 9.13021 13.0948 9.20264 12.9499 9.22333C11.8427 9.32681 10.9011 9.7821 10.0733 10.5064C9.83526 10.7237 9.70074 10.9721 9.80422 11.3136C9.887 11.5826 9.79387 11.8102 9.56622 12.0068C9.30753 12.2552 9.06954 12.5139 8.84189 12.7829C8.63494 13.0209 8.65563 13.2279 8.84189 13.4866C9.20406 13.9936 9.54553 14.511 9.887 15.0283C10.0836 15.3284 10.3423 15.4112 10.6734 15.287C10.7872 15.256 10.8907 15.1939 10.9838 15.1215C11.4598 14.6662 11.9255 14.6869 12.4532 15.049C12.9706 15.4009 13.488 15.3181 13.9847 14.9352C14.5538 14.511 15.5265 14.811 15.8058 15.4629C16.2404 16.477 16.6957 17.4807 17.1407 18.4948C17.151 18.5051 17.12 18.5362 17.1303 18.5258C16.5302 18.5051 15.93 18.5155 15.3402 18.4741C14.7193 18.4327 14.1088 18.3189 13.488 18.3189C12.774 18.3189 12.1221 18.5776 11.7599 19.2398C11.5737 19.5916 11.4391 19.9642 11.3564 20.347C11.077 21.4439 11.315 22.4372 12.029 23.3064C12.3911 23.741 13.1982 23.6996 13.3121 23.2133C13.4466 22.6545 13.7674 22.0751 13.2396 21.4853C12.8154 21.0093 13.1258 20.347 13.757 20.2228C14.0157 20.1608 14.2847 20.1711 14.5331 20.2332C15.7024 20.585 16.8613 20.9886 18.0409 21.33C19.2516 21.6715 20.4933 21.9509 21.7143 22.2613C22.0351 22.3441 22.211 22.2717 22.2317 21.8992C22.2731 21.1852 22.3559 20.4815 22.4076 19.7779C22.4283 19.4468 22.4283 19.1157 22.4387 18.7949C22.6973 19.7055 22.9664 20.6161 22.7698 21.5577C22.718 21.8164 22.8422 21.9302 23.0492 21.9923C24.1771 22.3131 25.2843 22.727 26.4328 22.9236C30.2511 23.5651 34.0797 24.1342 37.9083 24.7241C38.374 24.7965 38.8396 24.8586 39.3053 24.931C39.3053 24.9103 39.3156 24.8793 39.3156 24.8586C35.6112 23.9169 31.9067 22.9753 28.2023 22.0337C29.2681 22.1165 30.3235 22.251 31.379 22.3958C32.3517 22.5304 33.314 22.6442 34.3177 22.4579C35.1248 22.3234 35.9423 22.282 36.7598 22.3441C38.7568 22.4476 40.3814 23.2857 41.5404 24.9517C41.9646 25.5622 42.3785 26.1624 42.751 26.8039C43.2167 27.5904 43.8893 28.1077 44.7171 28.4389C45.0792 28.5941 45.4518 28.7182 45.8346 28.8114C47.1695 29.1011 48.5147 29.3701 49.8598 29.6185C50.4393 29.722 50.9877 29.9703 51.443 30.3532C52.633 31.3362 53.5643 32.5469 54.4852 33.7679C55.013 34.4715 55.5717 35.1545 56.1512 35.8167C56.4409 36.1582 56.979 36.0857 57.1549 35.7236C57.3101 35.4028 57.3412 35.0717 57.1446 34.7406C57.0825 34.6371 56.9893 34.5233 56.9997 34.4301C57.0514 34.0473 56.8445 33.8196 56.5858 33.5816C56.3064 33.3229 56.0477 33.0332 55.758 32.7849C54.599 31.7604 53.6885 30.4877 53.0986 29.0494C53.0159 28.8941 52.871 28.7803 52.7054 28.7182C50.4704 27.8077 48.2353 26.9178 46.0002 26.0175C45.8553 25.9554 45.7208 25.9037 45.5759 25.8416C45.5863 25.8209 45.5966 25.7899 45.5966 25.7692L64.4293 30.4877C64.3465 30.3946 64.243 30.3325 64.1189 30.3014C58.9037 28.6148 53.6988 26.9281 48.4733 25.2725C47.8421 25.0759 47.4902 24.7965 47.5006 24.1342C47.5006 23.8549 47.335 23.7617 47.1074 23.6893C45.7829 23.2444 44.4687 22.7891 43.1442 22.3338L39.595 21.1231C39.595 21.1024 39.6054 21.092 39.6157 21.0714L70.8552 29.1528ZM10.4561 12.2448C10.5079 12.0172 10.4872 11.7792 10.5699 11.7378C10.8183 11.6136 11.108 11.4584 11.4288 11.7275L10.4561 12.2448ZM15.0298 11.7171C14.9884 11.2618 14.9987 10.7651 14.8746 10.3098C14.6573 9.48202 14.3779 9.3682 13.5914 9.68898C13.5087 9.72002 13.4259 9.75106 13.3224 9.79245C13.5501 9.41994 14.0778 9.06812 14.4606 9.05777C14.5848 9.06812 14.709 9.10951 14.8021 9.20264C15.4126 9.73037 15.5161 11.0859 15.0298 11.7171Z" fill="#2BA55D"/>
<path d="M7.4036 21.4956C7.22769 21.7336 7.12421 22.0336 7.10352 22.3337C7.11386 22.5614 7.21734 22.7787 7.39325 22.9132C7.53812 23.0063 7.79681 22.9235 8.00376 22.9132C8.08654 22.9028 8.16932 22.8408 8.24175 22.8614C8.81087 22.9546 9.02817 22.9028 9.27651 22.4062C9.56625 21.837 10.0215 21.5887 10.6114 21.4852C10.7148 21.4645 10.7976 21.3921 10.8494 21.299C10.9632 20.6988 11.0563 20.0883 11.1805 19.3433C10.2699 19.6951 9.39034 19.9641 8.58322 20.378C8.12793 20.616 7.75542 21.0817 7.4036 21.4956Z" fill="#2BA55D"/>
<path d="M43.6926 29.5148C42.0163 29.1112 40.3607 28.6146 38.6637 28.3145C36.1078 27.8592 33.5313 27.5384 30.965 27.1659C30.2511 27.0624 29.5371 26.9589 28.8231 26.8555C28.8231 26.8762 28.8127 26.8969 28.8127 26.9176L50.0046 31.129C49.8805 31.0462 49.746 30.9842 49.6011 30.9531C47.6247 30.4875 45.6587 30.0011 43.6926 29.5148Z" fill="#2BA55D"/>
<path d="M33.552 26.4312L33.5624 26.3691L22.1386 23.9995L22.1179 24.0823C23.0802 24.3824 24.0426 24.6928 25.0153 24.9722C25.9362 25.2412 26.8571 25.531 27.7884 25.7069C28.968 25.9242 30.158 26.0173 31.348 26.1622C32.093 26.2449 32.8173 26.3381 33.552 26.4312Z" fill="#2BA55D"/>
<path d="M13.902 20.6679C13.695 20.6989 13.4674 20.792 13.5502 21.03C13.6122 21.2059 13.8088 21.4232 13.9744 21.4543C14.9471 21.5992 15.9198 21.6819 16.8924 21.8165C17.5133 21.8992 18.1238 22.0338 18.7343 22.1372L18.7757 21.982C17.2856 21.5474 15.7956 21.1025 14.2952 20.6679C14.171 20.6472 14.0365 20.6472 13.902 20.6679Z" fill="#2BA55D"/>
<path d="M15.0299 11.7067C14.9885 11.2514 14.9988 10.7547 14.8747 10.2994C14.6574 9.47161 14.378 9.35779 13.5915 9.67857C13.5088 9.70961 13.426 9.74065 13.3225 9.78204C13.5502 9.40953 14.0779 9.05771 14.4607 9.04736C14.5849 9.05771 14.7091 9.10945 14.8022 9.19223C15.4127 9.7303 15.5162 11.0858 15.0299 11.7067Z" fill="#237745"/>
<path d="M20.4313 12.5552C20.3072 12.5862 20.1933 12.6276 20.0795 12.6793C20.0278 12.7104 20.0071 12.7621 20.0071 12.8242C20.0485 12.9587 20.1106 13.0829 20.1726 13.2071C20.2037 13.2381 20.2451 13.2485 20.2865 13.2278C20.4417 13.145 20.5659 13.0001 20.6279 12.8346C20.6693 12.6897 20.5969 12.5862 20.4313 12.5552Z" fill="#131413"/>
<path d="M19.1792 11.5928C19.293 11.5721 19.4068 11.5514 19.5206 11.51C19.5724 11.4997 19.6138 11.4583 19.6345 11.4169C19.6862 11.3238 19.6448 11.21 19.5517 11.1582C19.4689 11.1065 19.3758 11.0547 19.2723 11.0237C19.2723 11.0237 19.262 11.0134 19.2516 11.0134C19.1792 10.9823 19.0964 11.0237 19.0653 11.0961C19.024 11.1686 18.9929 11.241 18.9722 11.3238C18.9205 11.5411 18.9412 11.5721 19.1792 11.5928Z" fill="#131413"/>
<path d="M18.7238 13.2488C18.6514 13.1971 18.5686 13.1557 18.4858 13.1246C18.4755 13.1246 18.4755 13.1143 18.4651 13.1143C18.4031 13.0936 18.3306 13.1246 18.3099 13.1867C18.2685 13.2799 18.2375 13.3833 18.2168 13.4868C18.2065 13.5489 18.2375 13.5903 18.2996 13.5903C18.3306 13.5903 18.372 13.6006 18.4031 13.6006V13.611C18.4962 13.6006 18.5997 13.5799 18.6928 13.5489C18.7342 13.5385 18.7756 13.5075 18.7963 13.4661C18.8377 13.3937 18.8066 13.2902 18.7238 13.2488Z" fill="#131413"/>
<path d="M18.0098 11.8724C17.9167 11.9138 17.8339 11.9655 17.7614 12.038C17.7304 12.0793 17.7201 12.1311 17.7407 12.1828C17.8028 12.276 17.8753 12.3587 17.958 12.4312C17.9891 12.4415 18.0305 12.4415 18.0615 12.4208C18.134 12.307 18.196 12.1828 18.2374 12.1207C18.2581 11.9034 18.1547 11.8103 18.0098 11.8724Z" fill="#131413"/>
<path d="M17.4614 10.4861C17.4925 10.5275 17.5338 10.5585 17.5856 10.5689C17.6891 10.5896 17.7925 10.5172 17.8132 10.4137C17.8443 10.3102 17.865 10.2171 17.8753 10.1136C17.8753 10.1032 17.8753 10.1032 17.8753 10.0929C17.8857 10.0101 17.8236 9.94803 17.7511 9.93769C17.6684 9.91699 17.5856 9.91699 17.5028 9.91699C17.2648 9.91699 17.2545 9.94803 17.2959 10.1757C17.3476 10.2895 17.3993 10.393 17.4614 10.4861Z" fill="#131413"/>
<path d="M16.4371 11.9136C16.644 11.8722 16.7061 11.7377 16.613 11.6239C16.5509 11.5514 16.4785 11.479 16.3853 11.4273C16.3336 11.4066 16.2818 11.4169 16.2405 11.448C16.168 11.5307 16.1059 11.6342 16.0542 11.7274C16.0542 11.7687 16.0645 11.7998 16.0956 11.8205C16.2301 11.8619 16.3646 11.8929 16.4371 11.9136Z" fill="#131413"/>
<path d="M16.7475 13.0523C16.675 13.0316 16.6026 13.0006 16.5302 12.9902C16.4991 13.0213 16.4267 13.042 16.4164 13.0834C16.3957 13.1661 16.3853 13.2593 16.3957 13.3421C16.3957 13.3627 16.4474 13.4145 16.4681 13.4145C16.5819 13.3938 16.6854 13.3524 16.7889 13.3007C16.8199 13.28 16.8406 13.2489 16.851 13.2179C16.8613 13.1351 16.8096 13.0627 16.7475 13.0523Z" fill="#131413"/>
<path d="M16.4784 14.5318C16.406 14.5111 16.3336 14.4801 16.2611 14.4697C16.2301 14.5008 16.1577 14.5215 16.1473 14.5629C16.1266 14.6456 16.1163 14.7388 16.1266 14.8215C16.1266 14.8422 16.1784 14.894 16.1991 14.894C16.3129 14.8733 16.4164 14.8319 16.5198 14.7802C16.5509 14.7595 16.5716 14.7284 16.5819 14.6974C16.5923 14.6249 16.5509 14.5525 16.4784 14.5318Z" fill="#131413"/>
<path d="M29.6303 21.2576C29.5579 21.2059 29.4751 21.1645 29.3923 21.1334C29.382 21.1334 29.382 21.1231 29.3716 21.1231C29.3096 21.1024 29.2371 21.1334 29.2164 21.1955C29.175 21.2886 29.144 21.3921 29.1233 21.4956C29.113 21.5577 29.144 21.5991 29.2061 21.5991C29.2371 21.5991 29.2785 21.6094 29.3096 21.6094V21.6198C29.4027 21.6094 29.5062 21.5887 29.5993 21.5577C29.6407 21.5473 29.6821 21.5163 29.7028 21.4749C29.7442 21.4025 29.7131 21.299 29.6303 21.2576Z" fill="#131413"/>
<path d="M31.2134 16.9632C31.1203 17.0046 31.0375 17.0563 30.9651 17.1288C30.934 17.1702 30.9237 17.2219 30.9444 17.2736C31.0064 17.3668 31.0789 17.4496 31.1617 17.522C31.1927 17.5323 31.2341 17.5323 31.2651 17.5116C31.3376 17.3978 31.3997 17.2736 31.441 17.2116C31.4617 16.9943 31.3583 16.9011 31.2134 16.9632Z" fill="#131413"/>
<path d="M29.7441 15.256C29.6613 15.2354 29.5785 15.2354 29.4957 15.2354C29.2577 15.2354 29.2474 15.2664 29.2888 15.494C29.3405 15.5975 29.3922 15.701 29.4543 15.7941C29.4854 15.8355 29.5268 15.8666 29.5785 15.8769C29.682 15.8976 29.7855 15.8252 29.8062 15.7217C29.8372 15.6182 29.8579 15.5251 29.8682 15.4216C29.8682 15.4113 29.8682 15.4113 29.8682 15.4009C29.8786 15.3388 29.8269 15.2664 29.7441 15.256Z" fill="#131413"/>
<path d="M28.43 17.2222C28.6369 17.1808 28.699 17.0463 28.6059 16.9325C28.5438 16.86 28.4714 16.7876 28.3782 16.7359C28.3265 16.7152 28.2748 16.7255 28.2334 16.7566C28.1609 16.8393 28.0989 16.9428 28.0471 17.0359C28.0471 17.0773 28.0575 17.1084 28.0885 17.1291C28.223 17.1808 28.3575 17.2015 28.43 17.2222Z" fill="#131413"/>
<path d="M26.4432 18.3399C26.3914 18.3192 26.3397 18.3295 26.2983 18.3606C26.2259 18.4433 26.1638 18.5468 26.1121 18.64C26.1121 18.6813 26.1224 18.7124 26.1535 18.7331C26.2776 18.7745 26.4121 18.7952 26.4949 18.8159C26.7019 18.7745 26.764 18.64 26.6708 18.5261C26.5984 18.4537 26.526 18.3916 26.4432 18.3399Z" fill="#131413"/>
<path d="M28.4508 19.0952C28.399 19.0745 28.3473 19.0849 28.3059 19.1159C28.2335 19.1987 28.1714 19.3022 28.1196 19.3953C28.1196 19.4367 28.13 19.4677 28.161 19.4884C28.2852 19.5298 28.4197 19.5505 28.5025 19.5712C28.7094 19.5298 28.7715 19.3953 28.6784 19.2815C28.6163 19.2194 28.5439 19.147 28.4508 19.0952Z" fill="#131413"/>
<path d="M31.0065 19.2193C30.9341 19.1986 30.8616 19.1676 30.7892 19.1572C30.7582 19.1883 30.6857 19.209 30.6754 19.2504C30.6547 19.3331 30.6443 19.4263 30.6547 19.509C30.6547 19.5297 30.7064 19.5815 30.7271 19.5815C30.841 19.5608 30.9444 19.5194 31.0479 19.4677C31.0789 19.447 31.0996 19.4159 31.11 19.3849C31.1203 19.3021 31.0789 19.2297 31.0065 19.2193Z" fill="#131413"/>
<path d="M26.1535 21.8165C26.0811 21.7958 26.0086 21.7647 25.9362 21.7544C25.9051 21.7854 25.8327 21.8061 25.8224 21.8475C25.8017 21.9303 25.7913 22.0234 25.8017 22.1062C25.8017 22.1269 25.8534 22.1786 25.8741 22.1786C25.9879 22.158 26.0914 22.1166 26.1949 22.0648C26.2259 22.0441 26.2466 22.0131 26.257 21.982C26.2673 21.8993 26.2156 21.8268 26.1535 21.8165Z" fill="#131413"/>
<path d="M25.8326 16.198C25.9878 16.1152 26.112 15.9703 26.1741 15.8048C26.2155 15.6599 26.143 15.5564 25.9775 15.5254C25.8533 15.5564 25.7395 15.5978 25.6257 15.6496C25.5739 15.6806 25.5532 15.7323 25.5532 15.7944C25.5946 15.929 25.6567 16.0531 25.7188 16.1773C25.7498 16.2083 25.7912 16.2083 25.8326 16.198Z" fill="#131413"/>
<path d="M25.7397 13.6211C25.7914 13.528 25.75 13.4142 25.6569 13.3624C25.5741 13.3107 25.481 13.2589 25.3775 13.2176L25.3671 13.2072C25.2947 13.1762 25.2119 13.2176 25.1809 13.29C25.1395 13.3624 25.1085 13.4349 25.0878 13.5176C25.0257 13.7453 25.0464 13.766 25.2844 13.797C25.3982 13.7763 25.512 13.7556 25.6258 13.7142C25.6672 13.7039 25.7086 13.6625 25.7397 13.6211Z" fill="#131413"/>
<path d="M27.8195 13.9005C27.7367 13.8488 27.6436 13.797 27.5401 13.7556L27.5297 13.7453C27.4573 13.7142 27.3745 13.7556 27.3435 13.8281C27.3021 13.9005 27.271 13.9729 27.2504 14.0557C27.1883 14.2834 27.209 14.3041 27.447 14.3351C27.5608 14.3144 27.6746 14.2937 27.7884 14.2523C27.8402 14.242 27.8816 14.2006 27.9023 14.1592C27.954 14.0661 27.9126 13.9522 27.8195 13.9005Z" fill="#131413"/>
<path d="M24.4151 17.4188C24.4565 17.3361 24.4254 17.2326 24.353 17.1912C24.2806 17.1395 24.1978 17.0981 24.115 17.067C24.1046 17.067 24.1046 17.0567 24.0943 17.0567C24.0322 17.036 23.9598 17.067 23.9391 17.1291C23.8977 17.2222 23.8667 17.3257 23.846 17.4292C23.8356 17.4913 23.8667 17.5327 23.9287 17.5327C23.9598 17.5327 24.0012 17.543 24.0322 17.543V17.5534C24.1253 17.543 24.2288 17.5223 24.3219 17.4913C24.353 17.4913 24.3944 17.4602 24.4151 17.4188Z" fill="#131413"/>
<path d="M24.8703 20.2024C24.7979 20.1507 24.7151 20.1093 24.6323 20.0783C24.622 20.0783 24.622 20.0679 24.6116 20.0679C24.5495 20.0472 24.4771 20.0783 24.4564 20.1403C24.415 20.2335 24.384 20.3369 24.3633 20.4404C24.3529 20.5025 24.384 20.5439 24.4461 20.5439C24.4771 20.5439 24.5185 20.5542 24.5495 20.5542V20.5646C24.6427 20.5542 24.7462 20.5335 24.8393 20.5025C24.8807 20.4922 24.9221 20.4611 24.9428 20.4197C24.9841 20.3576 24.9531 20.2542 24.8703 20.2024Z" fill="#131413"/>
<path d="M23.9805 15.1527C24.0529 15.0389 24.115 14.9147 24.1564 14.8526C24.1667 14.6353 24.0633 14.5525 23.9287 14.6043C23.8356 14.6457 23.7528 14.6974 23.6804 14.7698C23.6493 14.8112 23.639 14.863 23.6597 14.9147C23.7218 15.0078 23.7942 15.0906 23.877 15.1631C23.9184 15.1837 23.9494 15.1734 23.9805 15.1527Z" fill="#131413"/>
<path d="M23.1215 12.6174C23.0387 12.5967 22.9559 12.5967 22.8732 12.5967C22.6352 12.5967 22.6248 12.6277 22.6662 12.8554C22.718 12.9588 22.7697 13.0623 22.8318 13.1555C22.8628 13.1968 22.9042 13.2279 22.9559 13.2382C23.0594 13.2589 23.1629 13.1865 23.1836 13.083C23.2146 12.9795 23.2353 12.8864 23.2457 12.7829C23.2457 12.7726 23.2457 12.7726 23.2457 12.7622C23.256 12.7002 23.1939 12.6277 23.1215 12.6174Z" fill="#131413"/>
<path d="M21.6006 14.6972C21.6006 14.7386 21.6109 14.7696 21.642 14.7903C21.7661 14.8317 21.9007 14.8524 21.9834 14.8731C22.1904 14.8317 22.2525 14.6972 22.1594 14.5833C22.0973 14.5109 22.0248 14.4385 21.9317 14.3867C21.88 14.366 21.8282 14.3764 21.7868 14.4074C21.7144 14.5109 21.6523 14.604 21.6006 14.6972Z" fill="#131413"/>
<path d="M22.2834 16.022C22.2109 16.0014 22.1385 15.9703 22.0661 15.96C22.035 15.991 21.9626 16.0117 21.9522 16.0531C21.9315 16.1359 21.9212 16.229 21.9315 16.3118C21.9315 16.3325 21.9833 16.3842 22.004 16.3842C22.1178 16.3635 22.2213 16.3221 22.3248 16.2704C22.3558 16.2497 22.3765 16.2187 22.3868 16.1876C22.3972 16.1048 22.3558 16.0324 22.2834 16.022Z" fill="#131413"/>
<path d="M22.0248 17.5118C21.9524 17.4911 21.88 17.4601 21.8075 17.4497C21.7765 17.4807 21.704 17.5014 21.6937 17.5428C21.673 17.6256 21.6627 17.7187 21.673 17.8015C21.673 17.8222 21.7247 17.874 21.7454 17.874C21.8593 17.8533 21.9627 17.8119 22.0662 17.7601C22.0973 17.7394 22.118 17.7084 22.1283 17.6774C22.1387 17.5946 22.0869 17.5221 22.0248 17.5118Z" fill="#131413"/>
<path d="M19.6034 19.7778C19.4999 19.7054 19.3964 19.633 19.2929 19.5709C19.2412 19.5502 19.1791 19.5605 19.1274 19.6019C19.0446 19.7158 18.9825 19.8399 18.9204 19.9641C18.9204 20.0055 18.9411 20.0469 18.9721 20.0676C19.1377 20.14 19.324 20.1504 19.4895 20.0986C19.6447 20.0469 19.6758 19.9227 19.6034 19.7778Z" fill="#131413"/>
<path d="M14.1605 19.0537C14.057 18.9813 13.9535 18.9089 13.8501 18.8468C13.7983 18.8261 13.7362 18.8364 13.6845 18.8778C13.6017 18.9916 13.5396 19.1158 13.4775 19.24C13.4775 19.2814 13.4982 19.3228 13.5293 19.3435C13.6948 19.4159 13.8811 19.4262 14.0467 19.3745C14.2019 19.3228 14.2329 19.1986 14.1605 19.0537Z" fill="#131413"/>
<path d="M11.9152 20.2436C12.06 20.1919 12.0911 20.0677 12.0186 19.9229C11.9152 19.8504 11.8117 19.778 11.7082 19.7159C11.6565 19.6952 11.5944 19.7056 11.5426 19.747C11.4599 19.8608 11.3978 19.985 11.3357 20.1091C11.3357 20.1505 11.3564 20.1919 11.3874 20.2126C11.5633 20.285 11.7496 20.2954 11.9152 20.2436Z" fill="#131413"/>
<path d="M12.2567 22.4893C12.1532 22.4168 12.0497 22.3444 11.9462 22.2823C11.8945 22.2616 11.8324 22.272 11.7807 22.3134C11.6979 22.4272 11.6358 22.5514 11.5737 22.6755C11.5737 22.7169 11.5944 22.7583 11.6255 22.779C11.791 22.8514 11.9773 22.8618 12.1428 22.8101C12.2877 22.7583 12.3291 22.6341 12.2567 22.4893Z" fill="#131413"/>
<path d="M13.3534 22.7788C13.2499 22.7064 13.1464 22.634 13.0429 22.5719C12.9912 22.5512 12.9291 22.5615 12.8774 22.6029C12.7946 22.7167 12.7325 22.8409 12.6704 22.9651C12.6704 23.0065 12.6911 23.0479 12.7221 23.0686C12.8877 23.141 13.074 23.1513 13.2395 23.0996C13.3844 23.0479 13.4258 22.9237 13.3534 22.7788Z" fill="#131413"/>
<path d="M20.1207 17.9256C20.1207 17.9153 20.1207 17.9153 20.1207 17.9049C20.1 17.8325 20.0276 17.7808 19.9448 17.8015C19.862 17.8118 19.7896 17.8429 19.7068 17.8739C19.4895 17.9567 19.4792 17.9877 19.6034 18.1947C19.6861 18.2775 19.7793 18.3499 19.8724 18.412C19.9138 18.443 19.9655 18.4534 20.0173 18.443C20.1207 18.4223 20.1932 18.3189 20.1725 18.2154C20.1725 18.1222 20.1518 18.0188 20.1207 17.9256Z" fill="#131413"/>
<path d="M17.9686 18.5674C17.9686 18.557 17.9686 18.5467 17.9582 18.5467C17.9375 18.4846 17.8651 18.4432 17.803 18.4639C17.6995 18.4949 17.596 18.526 17.5029 18.5674C17.4926 18.5674 17.4822 18.5777 17.4822 18.5777C17.4512 18.6087 17.4408 18.6605 17.4719 18.6915C17.4926 18.7226 17.5133 18.7536 17.5236 18.7743L17.5133 18.7847C17.5857 18.8571 17.6581 18.9192 17.7409 18.9709C17.7719 19.002 17.8237 19.0123 17.8651 19.002C17.9582 18.9916 18.0203 18.9088 18.0099 18.8157C18.0099 18.7433 17.9996 18.6501 17.9686 18.5674Z" fill="#131413"/>
<path d="M18.6824 17.4291C18.5997 17.3773 18.5065 17.3463 18.4031 17.3359C18.3513 17.3359 18.2996 17.367 18.2789 17.4084C18.2478 17.5118 18.2168 17.6257 18.2168 17.7395C18.2168 17.7602 18.2685 17.8223 18.2892 17.8119C18.4237 17.8016 18.5583 17.7809 18.6307 17.7705C18.8066 17.6464 18.8066 17.5015 18.6824 17.4291Z" fill="#131413"/>
<path d="M19.5931 15.8458C19.5414 15.9492 19.4897 16.0527 19.4483 16.1665C19.4276 16.2183 19.4276 16.27 19.4586 16.3218C19.5103 16.4149 19.6242 16.4563 19.7173 16.4149C19.8104 16.3735 19.9036 16.3321 19.9967 16.2804C19.9967 16.2804 20.007 16.2804 20.007 16.27C20.0795 16.2286 20.1002 16.1458 20.0588 16.0734C20.0277 16.001 19.976 15.9285 19.9243 15.8665C19.7897 15.6699 19.7587 15.6699 19.5931 15.8458Z" fill="#131413"/>
<path d="M17.9478 15.7632C17.834 15.7632 17.7202 15.7632 17.6167 15.7839C17.5856 15.8046 17.5649 15.8356 17.5649 15.877C17.6167 16.0012 17.6684 16.1254 17.6995 16.1978C17.865 16.3323 17.9995 16.3013 18.0306 16.1564C18.0513 16.0633 18.0616 15.9598 18.0513 15.8667C18.0409 15.8149 17.9995 15.7735 17.9478 15.7632Z" fill="#131413"/>
<path d="M19.5621 14.3145C19.4482 14.3145 19.3344 14.3145 19.2309 14.3351C19.1999 14.3558 19.1792 14.3869 19.1792 14.4283C19.2309 14.5524 19.2827 14.6766 19.3137 14.749C19.4793 14.8836 19.6138 14.8525 19.6448 14.7077C19.6655 14.6145 19.6759 14.5111 19.6655 14.4179C19.6552 14.3662 19.6138 14.3248 19.5621 14.3145Z" fill="#131413"/>
<path d="M14.8642 12.1206C14.74 12.1516 14.6262 12.193 14.5124 12.2448C14.4606 12.2758 14.4399 12.3276 14.4399 12.3896C14.4813 12.5242 14.5434 12.6483 14.6055 12.7725C14.6365 12.8036 14.6779 12.8139 14.7193 12.7932C14.8745 12.7104 14.9987 12.5656 15.0608 12.4C15.1022 12.2448 15.0298 12.1413 14.8642 12.1206Z" fill="#131413"/>
<path d="M12.7224 13.1553C12.7534 13.1553 12.7948 13.1657 12.8258 13.1657V13.176C12.919 13.1657 13.0225 13.145 13.1156 13.1139C13.157 13.1036 13.1984 13.0725 13.2191 13.0311C13.2604 12.9484 13.2294 12.8449 13.157 12.8035C13.0845 12.7518 13.0018 12.7104 12.919 12.6793C12.9086 12.6793 12.9086 12.669 12.8983 12.669C12.8362 12.6483 12.7638 12.6793 12.7431 12.7414C12.7017 12.8345 12.6706 12.938 12.6499 13.0415C12.6292 13.1036 12.6603 13.145 12.7224 13.1553Z" fill="#131413"/>
<path d="M10.6113 14.366C10.5389 14.3143 10.4561 14.2729 10.3733 14.2418C10.3629 14.2418 10.3629 14.2315 10.3526 14.2315C10.2905 14.2108 10.2181 14.2418 10.1974 14.3039C10.156 14.397 10.125 14.5005 10.1043 14.604C10.0939 14.6661 10.125 14.7075 10.187 14.7075C10.2181 14.7075 10.2595 14.7178 10.2905 14.7178V14.7282C10.3836 14.7178 10.4871 14.6971 10.5802 14.6661C10.6216 14.6557 10.663 14.6247 10.6837 14.5833C10.7251 14.5109 10.6941 14.4074 10.6113 14.366Z" fill="#131413"/>
<path d="M12.6912 10.2997C12.7326 10.2169 12.7015 10.1134 12.6291 10.0721C12.5567 10.0203 12.4739 9.97893 12.3911 9.94789C12.3808 9.94789 12.3808 9.93754 12.3704 9.93754C12.3083 9.91684 12.2359 9.94789 12.2152 10.01C12.1738 10.1031 12.1428 10.2066 12.1221 10.3101C12.1117 10.3721 12.1428 10.4135 12.2049 10.4135C12.2359 10.4135 12.2773 10.4239 12.3083 10.4239V10.4342C12.4015 10.4239 12.5049 10.4032 12.5981 10.3721C12.6291 10.3618 12.6705 10.3307 12.6912 10.2997Z" fill="#131413"/>
<path d="M14.1399 10.9827C14.0674 10.931 13.9846 10.8896 13.9019 10.8585C13.8915 10.8585 13.8915 10.8482 13.8812 10.8482C13.8191 10.8275 13.7466 10.8585 13.7259 10.9206C13.6846 11.0137 13.6535 11.1172 13.6328 11.2207C13.6225 11.2828 13.6535 11.3242 13.7156 11.3242C13.7466 11.3242 13.788 11.3345 13.8191 11.3345V11.3449C13.9122 11.3345 14.0157 11.3138 14.1088 11.2828C14.1502 11.2724 14.1916 11.2414 14.2123 11.2C14.2537 11.1276 14.2226 11.0241 14.1399 10.9827Z" fill="#131413"/>
<path d="M23.2146 10.4754C23.1421 10.4236 23.0593 10.3822 22.9766 10.3512C22.9662 10.3512 22.9662 10.3409 22.9559 10.3409C22.8938 10.3202 22.8214 10.3512 22.8007 10.4133C22.7593 10.5064 22.7282 10.6099 22.7075 10.7134C22.6972 10.7755 22.7282 10.8169 22.7903 10.8169C22.8214 10.8169 22.8627 10.8272 22.8938 10.8272V10.8376C22.9869 10.8272 23.0904 10.8065 23.1835 10.7755C23.2249 10.7651 23.2663 10.7341 23.287 10.6927C23.318 10.6202 23.287 10.5271 23.2146 10.4754Z" fill="#131413"/>
<path d="M21.3934 11.7999V11.8103C21.4866 11.7999 21.59 11.7793 21.6832 11.7482C21.7246 11.7379 21.766 11.7068 21.7867 11.6654C21.828 11.5826 21.797 11.4792 21.7246 11.4378C21.6521 11.386 21.5694 11.3447 21.4866 11.3136C21.4762 11.3136 21.4762 11.3033 21.4659 11.3033C21.4038 11.2826 21.3314 11.3136 21.3107 11.3757C21.2693 11.4688 21.2382 11.5723 21.2175 11.6758C21.2072 11.7379 21.2382 11.7793 21.3003 11.7793C21.321 11.7896 21.3624 11.7896 21.3934 11.7999Z" fill="#131413"/>
<path d="M10.125 13.0623C10.156 12.9899 10.125 12.9071 10.0525 12.8761C9.99044 12.8554 9.92835 12.8347 9.86627 12.814C9.83522 12.845 9.78348 12.8657 9.77314 12.9071C9.75244 12.9899 9.75244 13.083 9.75244 13.1658C9.75244 13.1865 9.79383 13.2382 9.80418 13.2382C9.89731 13.2175 9.99044 13.1761 10.0732 13.1244C10.1043 13.1037 10.1146 13.083 10.125 13.0623Z" fill="#131413"/>
<path d="M13.7466 14.3042C13.9121 14.4387 14.0467 14.4077 14.0777 14.2628C14.0984 14.1697 14.1087 14.0662 14.0984 13.9731C14.0881 13.9214 14.0467 13.88 13.9949 13.8696C13.8811 13.8696 13.7673 13.8696 13.6638 13.8903C13.6328 13.911 13.6121 13.9421 13.6121 13.9835C13.6535 14.118 13.7155 14.2421 13.7466 14.3042Z" fill="#131413"/>
<path d="M16.2197 19.4987C16.1783 19.4883 16.1163 19.4469 16.0749 19.4676C15.9921 19.4987 15.9197 19.5504 15.8576 19.6125C15.8369 19.6228 15.8265 19.6953 15.8472 19.7056C15.93 19.7781 16.0335 19.8401 16.137 19.8919C16.2508 19.9333 16.3336 19.8401 16.3025 19.716C16.2818 19.6435 16.2508 19.5711 16.2197 19.4987Z" fill="#131413"/>
<path d="M13.1155 20.6574C13.0948 20.5849 13.0638 20.5125 13.0327 20.4401C12.9913 20.4297 12.9292 20.3883 12.8879 20.409C12.8051 20.4401 12.7326 20.4918 12.6706 20.5539C12.6499 20.5642 12.6395 20.6367 12.6602 20.647C12.743 20.7195 12.8465 20.7815 12.9499 20.8333C13.0534 20.8747 13.1465 20.7712 13.1155 20.6574Z" fill="#131413"/>
<path d="M21.6626 20.2853C21.6212 20.2749 21.5591 20.2336 21.5177 20.2543C21.435 20.2853 21.3625 20.337 21.3004 20.3991C21.2797 20.4095 21.2694 20.4819 21.2901 20.4922C21.3729 20.5647 21.4763 20.6268 21.5798 20.6785C21.6936 20.7199 21.7764 20.6268 21.7454 20.5026C21.7143 20.4198 21.6936 20.3474 21.6626 20.2853Z" fill="#131413"/>
<path d="M7.40358 21.5474C7.33115 21.6509 7.25871 21.7544 7.19663 21.8579C7.17593 21.9096 7.18628 21.9717 7.22767 22.0234C7.34149 22.1062 7.46566 22.1683 7.58984 22.2304C7.63123 22.2304 7.67262 22.2097 7.69331 22.1786C7.76575 22.0131 7.77609 21.8268 7.72436 21.6613C7.67262 21.506 7.54845 21.475 7.40358 21.5474Z" fill="#131413"/>
<path d="M9.34889 21.2369C9.27646 21.3404 9.20403 21.4438 9.14194 21.5473C9.12124 21.5991 9.13159 21.6611 9.17298 21.7129C9.28681 21.7957 9.41098 21.8577 9.53515 21.9198C9.57654 21.9198 9.61793 21.8991 9.63863 21.8681C9.71106 21.7025 9.72141 21.5163 9.66967 21.3507C9.61793 21.1955 9.49376 21.1645 9.34889 21.2369Z" fill="#131413"/>
<path d="M10.2698 19.8606C10.1974 19.9641 10.1249 20.0676 10.0628 20.1711C10.0421 20.2228 10.0525 20.2849 10.0939 20.3366C10.2077 20.4194 10.3319 20.4815 10.456 20.5436C10.4974 20.5436 10.5388 20.5229 10.5595 20.4918C10.632 20.3263 10.6423 20.14 10.5906 19.9745C10.5388 19.8192 10.4147 19.7778 10.2698 19.8606Z" fill="#131413"/>
<path d="M40.2054 19.0643L47.1901 20.844L47.1694 20.6888C47.159 20.6061 47.1487 20.5336 47.1383 20.4612C47.1176 20.3267 47.1073 20.2232 47.1073 20.1197C47.1073 19.7058 46.9107 19.4471 46.4657 19.3023C45.8966 19.116 45.3172 18.8883 44.7584 18.6814C44.5411 18.5986 44.3134 18.5158 44.0961 18.4331L43.2373 18.1123L60.6109 23.0377L60.7041 23.0688L60.7972 22.8204L46.621 17.3052C46.652 17.2638 46.6934 17.2327 46.7244 17.1913C46.8589 17.0465 46.9831 16.912 47.1073 16.7878C48.2455 15.6806 49.2803 14.4699 50.2012 13.1765C51.1636 11.8209 51.7327 10.693 52.0328 9.52376C52.5294 7.6198 52.7674 6.00557 52.7881 4.46377C52.7985 3.64631 53.0572 2.87024 53.5435 2.20799C53.7401 1.93896 53.9471 1.65957 54.1437 1.40088C54.3506 1.13184 54.5679 0.84211 54.7645 0.562724C54.9818 0.262644 55.0439 -0.0374371 54.9611 -0.28578C54.868 -0.54447 54.63 -0.741075 54.2678 -0.854899C53.6366 -1.10324 52.9226 -0.999765 52.3639 -0.616904C51.2981 0.138472 50.7083 0.966281 50.553 1.92861C50.4082 2.94268 50.3151 3.97744 50.2944 5.00185C50.2426 6.60573 50.0357 8.69595 48.9595 10.5792C47.9868 12.2452 46.8176 13.7973 45.4827 15.1839C44.7066 16.0117 43.8064 16.3428 42.7509 16.198C41.4782 16.0221 40.2054 15.7944 39.0982 15.5771C35.818 14.9563 32.4861 14.3147 29.2059 13.6732C28.9886 13.6214 28.7817 13.5179 28.6368 13.3627C28.3471 13.0419 27.9745 12.8143 27.5606 12.7108C27.364 12.6694 27.1674 12.597 26.9812 12.5349C26.8984 12.5039 26.8156 12.4832 26.7432 12.4521L26.4224 12.3487L34.7833 14.2837L34.8661 13.9836L25.2635 10.9103L26.9501 11.169L26.6707 10.931C26.3707 10.6723 26.0499 10.4654 25.7395 10.2584C25.5946 10.1653 25.4497 10.0618 25.3049 9.96871C24.8082 9.61689 24.2908 9.47202 23.7838 9.54445C23.2664 9.61689 22.7387 9.71002 22.2316 9.7928C21.8695 9.85488 21.5073 9.92731 21.1451 9.97905C20.9485 10.0101 20.7623 9.9894 20.6898 9.92731C19.7068 9.15124 18.6203 8.86151 17.3475 9.03742C16.5611 9.15124 15.992 9.04777 15.4953 8.6856C15.2573 8.54073 15.009 8.42691 14.7399 8.37517C14.088 8.20961 13.6845 8.36483 13.2706 8.93394C13.1982 9.02707 13.0843 9.08916 12.9705 9.09951C11.884 9.20298 10.9217 9.62723 10.0421 10.4033C9.7317 10.6723 9.63857 10.9724 9.74205 11.3139C9.80413 11.5415 9.74205 11.7175 9.5351 11.9037C9.27641 12.1521 9.02806 12.4211 8.81076 12.6901C8.58312 12.9488 8.57277 13.2179 8.80042 13.5283C9.12119 13.9732 9.43162 14.4389 9.72135 14.8838L9.84552 15.0701C10.0628 15.4116 10.3836 15.515 10.7458 15.3702C10.8699 15.3288 10.9941 15.2667 11.0976 15.1839C11.5115 14.7907 11.9254 14.77 12.4428 15.1218C12.9705 15.484 13.5293 15.4426 14.0984 15.008C14.326 14.8321 14.6468 14.7803 14.9779 14.8735C15.3298 14.9666 15.6298 15.2046 15.754 15.4943C16.0437 16.1669 16.3438 16.8395 16.6336 17.5018C16.7681 17.8018 16.9026 18.1123 17.0371 18.4124C16.9026 18.4124 16.7577 18.402 16.6232 18.402C16.199 18.3917 15.8058 18.3917 15.3918 18.3606C15.1435 18.3503 14.8952 18.3192 14.6468 18.2882C14.2847 18.2468 13.9121 18.2054 13.5396 18.2054C12.7015 18.2054 12.0703 18.5365 11.7184 19.1781C11.5322 19.5402 11.3873 19.9128 11.3045 20.306C11.0148 21.4339 11.2528 22.4583 11.9978 23.3585C12.2151 23.6276 12.6187 23.7517 12.9705 23.6689C13.2292 23.6069 13.4155 23.4413 13.4672 23.2136C13.4879 23.1205 13.5189 23.0274 13.55 22.9239C13.6845 22.4583 13.8501 21.9202 13.3741 21.3925C13.2188 21.2166 13.1671 20.9993 13.2395 20.7923C13.3223 20.5543 13.55 20.3681 13.8294 20.306C14.0674 20.2542 14.326 20.2542 14.5537 20.3163C15.0814 20.4715 15.6091 20.6474 16.1162 20.813C16.7474 21.02 17.4096 21.2269 18.0615 21.4132C18.879 21.6408 19.7171 21.8478 20.5243 22.0444C20.9278 22.1375 21.3314 22.241 21.7349 22.3445C21.8695 22.3755 22.0661 22.4065 22.2006 22.3031C22.3041 22.2203 22.3661 22.0858 22.3765 21.8892C22.3972 21.4856 22.4386 21.082 22.48 20.6888C22.511 20.3888 22.5317 20.0783 22.5627 19.7679C22.5731 19.6748 22.5731 19.592 22.5731 19.4989C22.749 20.1715 22.8525 20.8337 22.7076 21.5166C22.6455 21.8064 22.7697 21.9926 23.0594 22.0754C23.3906 22.1685 23.732 22.2824 24.0631 22.3755C24.8392 22.6135 25.636 22.8722 26.4534 23.0067C29.2473 23.4827 32.1032 23.9173 34.8557 24.3415C35.8801 24.4968 36.9045 24.652 37.929 24.8175C38.2497 24.8693 38.5602 24.9107 38.8809 24.9624C39.0258 24.9831 39.181 25.0038 39.3259 25.0245L39.4294 25.0348L39.4707 24.7658L29.5888 22.2824C30.2096 22.3548 30.8201 22.4376 31.3686 22.51C32.2688 22.6342 33.2932 22.7687 34.3383 22.5721C35.1351 22.4376 35.9526 22.4065 36.7597 22.4583C38.7775 22.5721 40.3503 23.431 41.4575 25.0245C41.8714 25.6246 42.2957 26.2352 42.6682 26.8664C43.1235 27.6424 43.7857 28.1909 44.686 28.5427C45.0481 28.6979 45.431 28.8324 45.8242 28.9255C46.921 29.1635 48.3801 29.4636 49.8598 29.7326C50.4185 29.8258 50.9566 30.0741 51.3912 30.4466C52.5708 31.4193 53.4918 32.6093 54.4127 33.8407C54.8887 34.4719 55.4164 35.1341 56.089 35.8998C56.2339 36.0654 56.4408 36.1585 56.6478 36.1585C56.6788 36.1585 56.7099 36.1585 56.7409 36.1482C56.9686 36.1171 57.1652 35.9826 57.2687 35.786C57.4653 35.4031 57.4549 35.0306 57.2583 34.6995C57.248 34.6788 57.2273 34.6581 57.2169 34.6271C57.1859 34.5753 57.1238 34.4925 57.1341 34.4512C57.1962 34.0166 56.9479 33.7475 56.6892 33.5199C56.565 33.4061 56.4305 33.2715 56.3167 33.1577C56.1718 33.0128 56.0269 32.868 55.8717 32.7231C54.7231 31.7194 53.8125 30.4363 53.2434 29.029L53.2331 29.0187C53.1296 28.8428 52.9744 28.7082 52.7881 28.6358C51.029 27.9218 49.2285 27.1975 47.4902 26.5042L46.4864 26.1006L64.75 30.6639L64.5223 30.4052C64.4292 30.2914 64.2947 30.219 64.1602 30.1879C62.9598 29.8051 61.7699 29.4119 60.5695 29.029C56.6168 27.7563 52.5398 26.4318 48.5146 25.159C47.842 24.952 47.604 24.6727 47.6143 24.1242C47.6143 23.7621 47.3763 23.6483 47.1487 23.5758C46.1553 23.2447 45.1516 22.9032 44.1789 22.5618L41.592 21.6719L70.8447 29.2256L70.9482 29.2463L70.9792 29.1428C70.9896 29.1221 70.9896 29.0911 70.9999 29.0704L71.031 28.9773L40.2054 19.0643ZM39.5432 20.9475L39.4707 21.1959L44.0961 22.7791C45.0688 23.1102 46.0725 23.462 47.0659 23.7931C47.2935 23.8656 47.397 23.938 47.3867 24.1449C47.3763 24.9417 47.8834 25.2107 48.4318 25.3763C52.457 26.6491 56.5443 27.9632 60.4868 29.2463C61.1904 29.474 61.8837 29.7016 62.5873 29.9293L45.6379 25.6971L45.5448 25.6764L45.4517 25.9351L45.6793 26.0282C45.7724 26.0696 45.8759 26.111 45.9691 26.1524L47.3867 26.7215C49.1251 27.4148 50.9152 28.1391 52.6847 28.8531C52.8295 28.9048 52.9433 29.0083 53.0158 29.1325C53.6056 30.5708 54.5369 31.8746 55.7062 32.899C55.8614 33.0335 56.0062 33.1784 56.1408 33.3233C56.2649 33.4474 56.3891 33.5716 56.5236 33.6958C56.7616 33.9131 56.9479 34.1097 56.8961 34.4512C56.8754 34.565 56.9479 34.6788 57.01 34.7719C57.0203 34.7926 57.041 34.8133 57.0513 34.834C57.2169 35.1031 57.2169 35.3928 57.0513 35.7136C56.9789 35.8481 56.8444 35.9412 56.6892 35.9619C56.5133 35.9826 56.3374 35.9205 56.2235 35.7757C55.5613 35.0099 55.0336 34.358 54.5576 33.7268C53.6263 32.4851 52.7054 31.2848 51.505 30.2914C51.0394 29.8982 50.4806 29.6395 49.8805 29.536C48.4111 29.267 46.9521 28.9669 45.8552 28.7289C45.4827 28.6358 45.1102 28.5116 44.748 28.3564C43.8892 28.0253 43.258 27.4976 42.8337 26.7732C42.4612 26.1317 42.0266 25.5108 41.6127 24.921C40.4641 23.2757 38.8292 22.3755 36.7597 22.2617C36.501 22.241 36.2526 22.2306 35.994 22.2306C35.4248 22.2306 34.8557 22.2824 34.2866 22.3755C33.2725 22.5721 32.2688 22.4376 31.3789 22.3134C30.4166 22.1789 29.299 22.034 28.1918 21.9512L28.1608 22.1582L38.0014 24.6623C37.9703 24.6623 37.9393 24.652 37.9083 24.652C36.8838 24.4968 35.8594 24.3312 34.835 24.176C32.0826 23.7517 29.2266 23.3171 26.4328 22.8411C25.636 22.7066 24.8392 22.4583 24.0735 22.2203C23.7424 22.1168 23.4009 22.0133 23.0594 21.9099C22.8732 21.8581 22.8214 21.7753 22.8525 21.5994C23.0491 20.6371 22.78 19.6955 22.5214 18.7952L22.3247 18.1226L22.3041 18.8056C22.3041 18.909 22.3041 19.0125 22.2937 19.116C22.2937 19.3333 22.2834 19.5609 22.273 19.7886C22.2523 20.099 22.2213 20.4094 22.1902 20.7095C22.1488 21.1027 22.1178 21.5166 22.0868 21.9099C22.0764 22.0444 22.0454 22.1375 21.9936 22.1685C21.9419 22.2099 21.8384 22.2099 21.7039 22.1685C21.3003 22.0651 20.8968 21.9719 20.4932 21.8685C19.6861 21.6719 18.848 21.4649 18.0305 21.2373C17.3786 21.051 16.7267 20.844 16.0955 20.6371C15.5781 20.4715 15.0504 20.2956 14.5226 20.1404C14.2536 20.068 13.9639 20.068 13.6948 20.1301C13.3327 20.2025 13.0533 20.4405 12.9395 20.7509C12.8463 21.0303 12.9084 21.3304 13.1154 21.5684C13.5086 22.0133 13.3844 22.4479 13.2499 22.9032C13.2188 23.0067 13.1878 23.0998 13.1671 23.2033C13.1154 23.3999 12.9395 23.4723 12.8256 23.5034C12.5463 23.5655 12.2358 23.4723 12.0703 23.2654C11.3666 22.4169 11.1493 21.4546 11.4184 20.3991C11.5011 20.0266 11.6357 19.6541 11.8116 19.3229C12.2048 18.609 12.9188 18.4641 13.4465 18.4641C13.8087 18.4641 14.1708 18.5055 14.533 18.5469C14.7813 18.5779 15.04 18.609 15.2884 18.6193C15.7023 18.64 16.1162 18.6504 16.5301 18.6607C16.706 18.6607 16.8716 18.671 17.0475 18.671L17.0889 18.7021L17.1509 18.6504C17.1716 18.64 17.1923 18.5986 17.2027 18.5572L17.2441 18.4641H17.182C17.0371 18.133 16.8819 17.7915 16.737 17.4604C16.4473 16.8085 16.1472 16.1255 15.8575 15.4633C15.7023 15.1115 15.3608 14.8321 14.9366 14.7183C14.5433 14.6148 14.1605 14.6769 13.8811 14.8942C13.3844 15.277 12.9188 15.3081 12.4738 15.008C11.8737 14.6044 11.3563 14.6251 10.8699 15.0804C10.7872 15.1425 10.694 15.1943 10.5802 15.2253C10.3008 15.3288 10.0939 15.2667 9.92831 15.008L9.80413 14.8217C9.50405 14.3664 9.20397 13.9008 8.87285 13.4558C8.70729 13.2282 8.70729 13.0626 8.87285 12.8764C9.09015 12.6073 9.33849 12.3487 9.58683 12.1107C9.85587 11.8727 9.949 11.6036 9.85587 11.3035C9.77309 11.0345 9.85587 10.8172 10.0939 10.6103C10.9424 9.86523 11.8633 9.45132 12.9084 9.3582C13.0843 9.3375 13.2395 9.25472 13.3534 9.10985C13.7155 8.60282 14.0363 8.47865 14.6054 8.63386C14.8538 8.6856 15.0814 8.77873 15.2884 8.91325C15.8264 9.30646 16.437 9.42028 17.2855 9.29611C18.4961 9.1202 19.5309 9.39959 20.4622 10.1343C20.6381 10.2791 20.9589 10.2481 21.083 10.2274C21.4452 10.1757 21.8177 10.1032 22.1799 10.0411C22.6869 9.94801 23.2043 9.85488 23.7217 9.7928C24.177 9.73071 24.6426 9.86523 25.0979 10.186C25.2428 10.2895 25.398 10.3826 25.5429 10.4861C25.7395 10.6206 25.9464 10.7551 26.143 10.9L24.3115 10.6206L24.2391 10.8896L33.4588 13.8387L24.2701 11.7071L24.177 11.6864L24.1045 11.9037L26.6604 12.6591C26.7432 12.6798 26.8156 12.7108 26.8984 12.7419C27.095 12.804 27.2916 12.8764 27.4986 12.9178C27.8814 13.0109 28.2125 13.2179 28.4712 13.5076C28.6575 13.6938 28.8955 13.8284 29.1542 13.8801C32.4344 14.5217 35.7663 15.1632 39.0465 15.7841C40.1537 15.991 41.4368 16.229 42.7096 16.4049C43.8374 16.5601 44.7894 16.2083 45.6276 15.3184C46.9728 13.9111 48.1524 12.3487 49.1354 10.6723C50.2426 8.74769 50.4392 6.62643 50.5013 4.9915C50.522 3.97744 50.6048 2.95302 50.76 1.93896C50.9049 1.02837 51.4533 0.262644 52.4881 -0.461689C52.9847 -0.813508 53.6366 -0.906637 54.2161 -0.699684C54.5162 -0.606556 54.7128 -0.451342 54.7749 -0.265085C54.837 -0.0788276 54.7852 0.14882 54.6093 0.397163C54.4127 0.676548 54.1954 0.955934 53.9885 1.23532C53.7919 1.50436 53.5746 1.7734 53.3883 2.05278C52.8813 2.74607 52.6019 3.56353 52.5915 4.42238C52.5708 5.94348 52.3328 7.53702 51.8362 9.43063C51.5361 10.5689 50.9876 11.6761 50.0357 13.0109C49.1251 14.294 48.1007 15.5047 46.9728 16.5912C46.8383 16.7257 46.7141 16.8602 46.5796 17.0051C46.5175 17.0775 46.445 17.1499 46.3726 17.2327L46.2691 17.3466L59.2243 22.3858L41.6024 17.419L41.5196 17.6777L44.034 18.6297C44.2514 18.7124 44.479 18.7952 44.6963 18.878C45.2551 19.0953 45.8345 19.3126 46.4037 19.5092C46.7658 19.6334 46.9107 19.7989 46.9003 20.1301C46.9003 20.2439 46.9107 20.3681 46.9314 20.5026C46.9314 20.5233 46.9417 20.544 46.9417 20.575L37.722 18.2261L37.6496 18.4744L68.6717 28.4909L39.5432 20.9475Z" fill="#131413"/>
<path d="M11.2943 19.3537L11.3253 19.1675L11.1494 19.2296C10.8804 19.333 10.6113 19.4365 10.3423 19.5296C9.71108 19.7573 9.11091 19.9746 8.54179 20.2747C8.07615 20.5127 7.69329 20.968 7.36217 21.3715L7.32078 21.4233C7.12417 21.682 7.0207 21.9924 7 22.3235C7.01035 22.5822 7.12417 22.8305 7.34147 22.9858C7.4139 23.0375 7.49669 23.0478 7.58981 23.0478C7.67259 23.0478 7.76572 23.0375 7.85885 23.0168C7.92094 23.0064 7.98302 22.9961 8.03476 22.9961C8.0865 22.9961 8.12789 22.9754 8.16928 22.9651C8.20032 22.9547 8.23137 22.9444 8.25206 22.9444C8.85222 23.0478 9.12126 22.9858 9.40065 22.4373C9.64899 21.9406 10.0422 21.682 10.6631 21.5785C10.7976 21.5474 10.9114 21.4543 10.9735 21.3301L10.9838 21.3094C11.0666 20.8541 11.139 20.3988 11.2218 19.8711C11.2425 19.7159 11.2632 19.54 11.2943 19.3537ZM11.0045 19.8504C10.9217 20.3678 10.8493 20.8128 10.7665 21.268C10.7355 21.3301 10.6838 21.3715 10.6217 21.3922C9.93872 21.506 9.49378 21.8061 9.20404 22.3649C8.97639 22.8098 8.81083 22.8512 8.2831 22.7581C8.21067 22.7478 8.14859 22.7685 8.09685 22.7891C8.0658 22.7995 8.03476 22.8098 8.01407 22.8098C7.95198 22.8098 7.88989 22.8202 7.82781 22.8305C7.69329 22.8512 7.53808 22.8719 7.47599 22.8305C7.32078 22.7064 7.22765 22.5201 7.2173 22.3339C7.22765 22.0545 7.32078 21.7854 7.48634 21.5578L7.52773 21.506C7.8692 21.1025 8.21067 20.6886 8.64527 20.4609C9.20404 20.1712 9.79386 19.9539 10.4251 19.7263C10.632 19.6538 10.8493 19.571 11.0666 19.4883C11.0356 19.6228 11.0252 19.7366 11.0045 19.8504Z" fill="#131413"/>
<path d="M49.6218 30.8708C47.6557 30.3844 45.669 29.8981 43.7133 29.4221C43.2166 29.298 42.6992 29.1634 42.2129 29.0393C41.0643 28.7392 39.864 28.4288 38.674 28.2218C36.8735 27.901 35.0213 27.6423 33.2415 27.394C32.4965 27.2905 31.7308 27.187 30.9754 27.0732C30.4891 27.0008 30.0027 26.9387 29.5164 26.8663L28.7196 26.7524L28.7093 26.8559C28.7093 26.8766 28.6989 26.8973 28.6989 26.918L28.6782 27.0215L50.4599 31.3364L50.0667 31.0467C49.9322 30.9639 49.777 30.8915 49.6218 30.8708ZM31.4824 27.3526C32.0619 27.4354 32.6414 27.5182 33.2105 27.6009C34.9903 27.8493 36.8321 28.108 38.643 28.4288C39.8226 28.6357 41.0126 28.9461 42.1612 29.2462C42.6578 29.3704 43.1649 29.5049 43.6719 29.6291C44.7688 29.8981 45.8863 30.1671 46.9935 30.4465L31.4824 27.3526Z" fill="#131413"/>
<path d="M31.3481 26.2663C31.9068 26.3387 32.4759 26.4111 33.0347 26.4836L33.6452 26.556L33.6866 26.287L22.1697 23.8967L22.0662 23.876L22.0042 24.1554L22.0973 24.1864C22.387 24.2795 22.6767 24.3623 22.9665 24.4554C23.6287 24.6624 24.3117 24.8797 24.9946 25.0763C25.1705 25.128 25.3464 25.1798 25.5223 25.2315C26.257 25.4488 27.0227 25.6765 27.7885 25.811C28.6059 25.9558 29.4441 26.049 30.2616 26.1421C30.6134 26.1731 30.9859 26.2145 31.3481 26.2663ZM25.5741 25.0246C25.3982 24.9728 25.2223 24.9211 25.0464 24.8693C24.4979 24.7141 23.9392 24.5382 23.4011 24.3727L31.7206 26.1007C31.6067 26.0904 31.4929 26.0697 31.3791 26.0593C31.0169 26.0179 30.6444 25.9765 30.2822 25.9351C29.4751 25.842 28.637 25.7489 27.8299 25.604C27.0641 25.4592 26.3088 25.2419 25.5741 25.0246Z" fill="#131413"/>
<path d="M14.3158 20.5751C14.1709 20.544 14.026 20.544 13.8915 20.5647C13.7777 20.5751 13.5707 20.6268 13.4776 20.7717C13.4466 20.8338 13.4052 20.9269 13.4569 21.0717C13.5294 21.2787 13.757 21.527 13.964 21.5581C14.5124 21.6409 15.0815 21.7029 15.6299 21.765C16.0438 21.8168 16.4681 21.8582 16.8923 21.9202C17.3166 21.9823 17.7408 22.0548 18.1547 22.1375C18.341 22.1789 18.5376 22.21 18.7239 22.241L18.817 22.2617L18.8998 21.9202L17.834 21.6098C16.6854 21.2683 15.4954 20.9165 14.3158 20.5751ZM18.1858 21.9306C17.7719 21.8478 17.3373 21.765 16.913 21.7133C16.4888 21.6616 16.0645 21.6098 15.6506 21.5581C15.1022 21.496 14.5434 21.4339 13.995 21.3511C13.8915 21.3304 13.7156 21.1545 13.6535 20.9993C13.6328 20.9269 13.6432 20.8958 13.6535 20.8855C13.6846 20.8338 13.788 20.7924 13.9226 20.7717C13.9743 20.7613 14.026 20.7613 14.0778 20.7613C14.1399 20.7613 14.2019 20.7717 14.264 20.782C15.4333 21.1235 16.6233 21.4753 17.7822 21.8064L18.2375 21.9409C18.2168 21.9306 18.2065 21.9306 18.1858 21.9306Z" fill="#131413"/>
<path d="M10.5595 11.6346L10.5284 11.645C10.425 11.6967 10.4043 11.8312 10.3836 11.9968C10.3732 12.0692 10.3629 12.1417 10.3525 12.2141L10.3008 12.4314L11.6149 11.7381L11.4908 11.6346C11.1389 11.3449 10.8078 11.5105 10.5595 11.6346Z" fill="#131413"/>
<path d="M14.4606 8.95459C14.0466 8.96494 13.4879 9.31676 13.2395 9.74101L13.074 10.01L13.6327 9.7824C14.026 9.62718 14.2639 9.58579 14.4088 9.66858C14.5537 9.74101 14.6675 9.94796 14.771 10.3308C14.8538 10.6413 14.8745 10.9724 14.8848 11.2828C14.8952 11.4277 14.9055 11.5725 14.9158 11.7174L14.9469 11.9761L15.1125 11.7691C15.6402 11.0862 15.516 9.67892 14.8745 9.1098C14.7606 9.01668 14.6158 8.96494 14.4606 8.95459ZM15.1125 11.3449C15.1125 11.3242 15.1125 11.2932 15.1125 11.2725C15.0918 10.9413 15.0711 10.5999 14.9883 10.2791C14.8641 9.82379 14.7296 9.5858 14.5123 9.48232C14.4295 9.44093 14.3364 9.42023 14.2329 9.42023C14.088 9.42023 13.9121 9.46162 13.6845 9.5444C13.9225 9.33745 14.2329 9.18224 14.4606 9.17189C14.564 9.18224 14.6675 9.21328 14.7399 9.28571C15.2056 9.68927 15.3608 10.7033 15.1125 11.3449Z" fill="#131413"/>
</g>
</g>
<defs>
<clipPath id="clip0">
<rect width="64" height="37.1583" fill="white" transform="translate(7 -1)"/>
</clipPath>
</defs>
</svg>
