<svg width="14" height="14" viewBox="0 0 14 14" fill="none" xmlns="http://www.w3.org/2000/svg">
<path d="M6.99992 0.333008C3.31992 0.333008 0.333252 3.31967 0.333252 6.99967C0.333252 10.6797 3.31992 13.6663 6.99992 13.6663C10.6799 13.6663 13.6666 10.6797 13.6666 6.99967C13.6666 3.31967 10.6799 0.333008 6.99992 0.333008ZM6.99992 12.333C4.05992 12.333 1.66659 9.93967 1.66659 6.99967C1.66659 4.05967 4.05992 1.66634 6.99992 1.66634C9.93992 1.66634 12.3333 4.05967 12.3333 6.99967C12.3333 9.93967 9.93992 12.333 6.99992 12.333ZM6.33325 9.66634H7.66659V10.9997H6.33325V9.66634ZM7.40659 3.02634C6.03325 2.82634 4.81992 3.67301 4.45325 4.88634C4.33325 5.27301 4.62659 5.66634 5.03325 5.66634H5.16659C5.43992 5.66634 5.65992 5.47301 5.75325 5.21967C5.96659 4.62634 6.59992 4.21967 7.28659 4.36634C7.91992 4.49967 8.38659 5.11967 8.33325 5.76634C8.26659 6.65967 7.25325 6.85301 6.69992 7.68634C6.69992 7.69301 6.69325 7.69301 6.69325 7.69967C6.68659 7.71301 6.67992 7.71968 6.67325 7.73301C6.61325 7.83301 6.55325 7.94634 6.50659 8.06634C6.49992 8.08634 6.48659 8.09967 6.47992 8.11967C6.47325 8.13301 6.47325 8.14634 6.46659 8.16634C6.38659 8.39301 6.33325 8.66634 6.33325 8.99967H7.66659C7.66659 8.71968 7.73992 8.48634 7.85325 8.28634C7.86659 8.26634 7.87325 8.24634 7.88659 8.22634C7.93992 8.13301 8.00659 8.04634 8.07325 7.96634C8.07992 7.95967 8.08659 7.94634 8.09325 7.93967C8.15992 7.85967 8.23325 7.78634 8.31325 7.71301C8.95325 7.10634 9.81992 6.61301 9.63992 5.33967C9.47992 4.17967 8.56659 3.19967 7.40659 3.02634Z" fill="#757B75"/>
</svg>
