<svg width="246" height="88" viewBox="0 0 246 88" fill="none" xmlns="http://www.w3.org/2000/svg">
<path d="M97.1667 36.9851H108.946V40.5899H102.367V48.9304H107.744V52.5706H102.367V65.6116H97.1667V36.9851Z" fill="#131413"/>
<path d="M116.302 36.9851H121.891L127.622 65.6116H122.775L121.643 59.0027H116.655L115.488 65.6116H110.571L116.302 36.9851ZM121.077 55.6806L119.132 43.6646L117.186 55.6806H121.077Z" fill="#131413"/>
<path d="M138.687 66.0003C136.093 66.0003 134.147 65.2699 132.85 63.8092C131.577 62.3484 130.881 60.169 130.763 57.271L135.255 56.3875C135.326 58.2017 135.609 59.5918 136.104 60.5578C136.623 61.5002 137.425 61.9714 138.51 61.9714C139.312 61.9714 139.901 61.7358 140.279 61.2646C140.68 60.7698 140.88 60.1101 140.88 59.2855C140.88 58.1545 140.621 57.2003 140.102 56.4228C139.607 55.6217 138.817 54.75 137.732 53.8076L134.124 50.6622C133.015 49.7197 132.178 48.7066 131.612 47.6228C131.07 46.539 130.798 45.2432 130.798 43.7353C130.798 41.497 131.447 39.7653 132.744 38.5401C134.065 37.2914 135.88 36.667 138.192 36.667C140.668 36.667 142.437 37.3738 143.498 38.7875C144.583 40.1776 145.208 42.0624 145.373 44.4421L140.88 45.2196C140.809 43.6646 140.585 42.4983 140.208 41.7208C139.854 40.9197 139.147 40.5192 138.085 40.5192C137.331 40.5192 136.741 40.7784 136.317 41.2967C135.892 41.7915 135.68 42.4276 135.68 43.2051C135.68 44.124 135.857 44.9015 136.211 45.5377C136.588 46.1503 137.189 46.81 138.015 47.5168L141.588 50.6622C142.932 51.8167 143.981 53.0536 144.736 54.373C145.491 55.6924 145.868 57.2239 145.868 58.9674C145.868 60.3339 145.561 61.5473 144.948 62.6076C144.359 63.6678 143.521 64.5042 142.437 65.1168C141.352 65.7058 140.102 66.0003 138.687 66.0003Z" fill="#131413"/>
<path d="M152.921 40.8373H148.358V36.9851H162.614V40.8373H158.157V65.6116H152.921V40.8373Z" fill="#131413"/>
<path d="M173.543 66.0003C170.949 66.0003 169.003 65.2699 167.706 63.8092C166.433 62.3484 165.737 60.169 165.619 57.271L170.112 56.3875C170.183 58.2017 170.466 59.5918 170.961 60.5578C171.48 61.5002 172.282 61.9714 173.366 61.9714C174.168 61.9714 174.758 61.7358 175.135 61.2646C175.536 60.7698 175.736 60.1101 175.736 59.2855C175.736 58.1545 175.477 57.2003 174.958 56.4228C174.463 55.6217 173.673 54.75 172.588 53.8076L168.98 50.6622C167.871 49.7197 167.034 48.7066 166.468 47.6228C165.926 46.539 165.655 45.2432 165.655 43.7353C165.655 41.497 166.303 39.7653 167.6 38.5401C168.921 37.2914 170.737 36.667 173.048 36.667C175.524 36.667 177.293 37.3738 178.354 38.7875C179.439 40.1776 180.064 42.0624 180.229 44.4421L175.736 45.2196C175.666 43.6646 175.442 42.4983 175.064 41.7208C174.711 40.9197 174.003 40.5192 172.942 40.5192C172.187 40.5192 171.598 40.7784 171.173 41.2967C170.749 41.7915 170.536 42.4276 170.536 43.2051C170.536 44.124 170.713 44.9015 171.067 45.5377C171.444 46.1503 172.046 46.81 172.871 47.5168L176.444 50.6622C177.788 51.8167 178.838 53.0536 179.592 54.373C180.347 55.6924 180.724 57.2239 180.724 58.9674C180.724 60.3339 180.418 61.5473 179.805 62.6076C179.215 63.6678 178.378 64.5042 177.293 65.1168C176.208 65.7058 174.958 66.0003 173.543 66.0003Z" fill="#131413"/>
<path d="M183.886 36.9851H188.237L190.608 55.5393L193.579 37.0557H197.117L200.194 55.5393L202.529 36.9851H206.845L202.847 65.6116H198.602L195.419 46.4212L192.27 65.6116H187.919L183.886 36.9851Z" fill="#131413"/>
<path d="M214.618 36.9851H220.207L225.938 65.6116H221.092L219.96 59.0027H214.972L213.804 65.6116H208.887L214.618 36.9851ZM219.394 55.6806L217.448 43.6646L215.502 55.6806H219.394Z" fill="#131413"/>
<path d="M229.925 36.9851H238.344C243.226 36.9851 245.667 39.6946 245.667 45.1136C245.667 50.297 243.108 52.8887 237.99 52.8887H235.125V65.6116H229.925V36.9851ZM237.141 49.2132C238.556 49.2132 239.512 48.9187 240.007 48.3296C240.502 47.7171 240.75 46.6333 240.75 45.0782C240.75 43.9473 240.667 43.0873 240.502 42.4983C240.337 41.8857 239.995 41.4263 239.476 41.12C238.981 40.8137 238.203 40.6606 237.141 40.6606H235.125V49.2132H237.141Z" fill="#131413"/>
<g clip-path="url(#clip0)">
<path d="M118.897 62.162C118.916 62.1231 118.916 62.0648 118.935 62.0259L57.3195 41.9393C57.3195 41.9004 57.3387 41.881 57.3387 41.8421L74.602 46.2755C74.5635 45.8283 74.4864 45.4977 74.4864 45.1866C74.4864 44.4283 74.1203 44.0783 73.4267 43.8449C71.9431 43.3394 70.4788 42.756 69.0145 42.1921C67.5117 41.6282 66.0089 41.0449 64.5061 40.481C64.5253 40.4421 64.5253 40.4032 64.5446 40.3643L99.8996 50.4756C99.9189 50.4367 99.9189 50.3979 99.9382 50.359L73.446 39.956C73.8699 39.5087 74.1974 39.1198 74.5635 38.7698C76.6828 36.6892 78.5903 34.4336 80.2858 32.003C81.7501 29.9029 83.0217 27.7057 83.6575 25.1973C84.4667 22.1055 85.0255 18.9555 85.064 15.7471C85.0833 14.172 85.5842 12.6553 86.509 11.3914C87.2412 10.3414 88.0504 9.34969 88.7825 8.29966C89.534 7.23019 89.2064 6.31629 87.9348 5.92739C86.798 5.53849 85.5457 5.71349 84.5438 6.41351C82.9254 7.56076 81.5574 9.01913 81.2491 11.0608C80.9794 12.9664 80.806 14.8915 80.7674 16.8165C80.6326 20.5305 80.1124 24.1278 78.2627 27.3945C76.4516 30.5446 74.2552 33.4614 71.7697 36.0864C70.2669 37.6809 68.5714 38.342 66.5098 38.0504C64.2363 37.7392 61.9628 37.3309 59.7086 36.8837C53.5624 35.717 47.4162 34.5114 41.2893 33.3058C40.8461 33.2086 40.4415 32.9752 40.114 32.6447C39.613 32.0613 38.9387 31.653 38.2065 31.478C37.6863 31.3613 37.1854 31.1669 36.6652 30.9919C35.1816 30.5057 33.6981 30.0196 32.1952 29.5335C32.1952 29.514 32.2145 29.4946 32.2145 29.4752L51.5393 34.0058C51.5586 33.9475 51.5779 33.8697 51.5971 33.8114L32.4457 27.6279C32.465 27.589 32.465 27.5307 32.4842 27.4918L36.434 28.0946C35.6248 27.3945 34.7385 26.889 33.91 26.3056C33.0815 25.7223 32.176 25.4112 31.2126 25.5278C29.5749 25.7417 27.9372 26.0917 26.2995 26.3445C25.972 26.4029 25.5288 26.4029 25.2976 26.2084C23.5058 24.7695 21.4828 24.2445 19.2285 24.5945C17.9761 24.7889 16.7623 24.7112 15.6448 23.9139C15.221 23.6417 14.7778 23.4667 14.2961 23.35C13.1401 23.0389 12.4658 23.35 11.7722 24.3223C11.5988 24.5361 11.3483 24.6723 11.0785 24.7112C9.01697 24.9056 7.26367 25.7612 5.72231 27.1223C5.27917 27.5307 5.0287 27.9973 5.22137 28.639C5.3755 29.1446 5.2021 29.5724 4.77822 29.9418C4.29655 30.4085 3.85341 30.8946 3.42953 31.4002C3.04419 31.8474 3.08272 32.2363 3.42953 32.7225C4.10388 33.6753 4.73969 34.6475 5.3755 35.6197C5.74158 36.1836 6.22325 36.3392 6.8398 36.1059C7.05173 36.0475 7.24441 35.9309 7.41781 35.7947C8.30409 34.9392 9.17111 34.9781 10.1537 35.6586C11.1171 36.3198 12.0804 36.1642 13.0053 35.4447C14.0649 34.6475 15.876 35.2114 16.3963 36.4364C17.2055 38.342 18.0532 40.2282 18.8817 42.1338C18.901 42.1532 18.8432 42.2116 18.8624 42.1921C17.7449 42.1532 16.6275 42.1727 15.5292 42.0949C14.3732 42.0171 13.2365 41.8032 12.0804 41.8032C10.751 41.8032 9.53718 42.2893 8.86284 43.5338C8.51603 44.1949 8.26556 44.895 8.11142 45.6144C7.59121 47.6756 8.03435 49.5423 9.36378 51.1757C10.0381 51.9923 11.541 51.9146 11.7529 51.0006C12.0034 49.9506 12.6006 48.8617 11.618 47.7534C10.8281 46.8589 11.4061 45.6144 12.5814 45.3811C13.0631 45.2644 13.564 45.2839 14.0264 45.4005C16.2036 46.0616 18.3615 46.82 20.5579 47.4617C22.8122 48.1034 25.1242 48.6284 27.3977 49.2117C27.995 49.3673 28.3226 49.2312 28.3611 48.5312C28.4382 47.1895 28.5923 45.8672 28.6886 44.5449C28.7272 43.9227 28.7272 43.3005 28.7464 42.6977C29.2281 44.4088 29.729 46.12 29.363 47.8895C29.2666 48.3756 29.4978 48.5895 29.8832 48.7062C31.9833 49.3089 34.0449 50.0867 36.1835 50.4562C43.293 51.6618 50.4219 52.7312 57.5507 53.8396C58.4177 53.9757 59.2847 54.0924 60.1517 54.2285C60.1517 54.1896 60.171 54.1313 60.171 54.0924C53.2734 52.3229 46.3758 50.5534 39.4782 48.7839C41.4627 48.9395 43.4279 49.1923 45.3932 49.4645C47.2043 49.7173 48.9961 49.9312 50.865 49.5812C52.3678 49.3284 53.8899 49.2506 55.412 49.3673C59.1306 49.5617 62.1555 51.1368 64.3134 54.2674C65.1033 55.4146 65.874 56.5424 66.5676 57.748C67.4347 59.2258 68.687 60.1981 70.2284 60.8203C70.9027 61.112 71.5963 61.3453 72.3092 61.5203C74.7947 62.0648 77.2994 62.5704 79.8041 63.037C80.883 63.2315 81.9042 63.6982 82.752 64.4176C84.9677 66.2649 86.7017 68.5399 88.4165 70.8344C89.3991 72.1567 90.4395 73.4401 91.5185 74.6845C92.0579 75.3262 93.0598 75.1901 93.3874 74.5095C93.6764 73.9067 93.7342 73.2845 93.3681 72.6623C93.2525 72.4678 93.0791 72.2539 93.0984 72.0789C93.1947 71.3595 92.8093 70.9317 92.3277 70.4844C91.8075 69.9983 91.3258 69.4539 90.7863 68.9872C88.6284 67.0621 86.9329 64.6704 85.8347 61.9676C85.6805 61.6759 85.4108 61.462 85.1025 61.3453C80.9408 59.6342 76.7792 57.9619 72.6175 56.2702C72.3477 56.1535 72.0973 56.0563 71.8275 55.9397C71.8468 55.9008 71.8661 55.8424 71.8661 55.8035L106.932 64.6704C106.778 64.4954 106.585 64.3787 106.354 64.3204C96.6435 61.1509 86.9522 57.9814 77.2223 54.8702C76.047 54.5007 75.3919 53.9757 75.4112 52.7312C75.4112 52.2062 75.1029 52.0312 74.6791 51.8951C72.2129 51.059 69.766 50.2034 67.2998 49.3478L60.6912 47.0728C60.6912 47.0339 60.7105 47.0144 60.7297 46.9756L118.897 62.162ZM6.43519 30.3891C6.53153 29.9613 6.49299 29.514 6.64713 29.4363C7.10954 29.2029 7.64901 28.9113 8.24629 29.4168L6.43519 30.3891ZM14.9512 29.3974C14.8742 28.5418 14.8934 27.6084 14.6622 26.7529C14.2576 25.1973 13.7374 24.9834 12.2731 25.5862C12.119 25.6445 11.9648 25.7028 11.7722 25.7806C12.196 25.0806 13.1787 24.4195 13.8915 24.4C14.1227 24.4195 14.3539 24.4973 14.5273 24.6723C15.6641 25.664 15.8568 28.2112 14.9512 29.3974Z" fill="#2BA55D"/>
<path d="M0.751371 47.773C0.423831 48.2203 0.231161 48.7842 0.192627 49.3481C0.211894 49.7759 0.404564 50.1842 0.732104 50.437C1.00184 50.612 1.48352 50.4564 1.86886 50.437C2.023 50.4176 2.17713 50.3009 2.312 50.3398C3.37169 50.5148 3.7763 50.4176 4.23871 49.4842C4.77818 48.4147 5.62593 47.9481 6.72415 47.7536C6.91682 47.7147 7.07096 47.5786 7.1673 47.4036C7.37923 46.2758 7.55264 45.1285 7.78384 43.7285C6.08834 44.3896 4.45064 44.8952 2.94781 45.673C2.10006 46.1202 1.40645 46.9953 0.751371 47.773Z" fill="#2BA55D"/>
<path d="M68.3207 62.843C65.1995 62.0847 62.1168 61.1513 58.957 60.5874C54.198 59.7319 49.4005 59.1291 44.6223 58.429C43.2929 58.2346 41.9634 58.0402 40.634 57.8457C40.634 57.8846 40.6147 57.9235 40.6147 57.9624L80.0736 65.8764C79.8424 65.7209 79.592 65.6042 79.3222 65.5459C75.6422 64.6708 71.9815 63.7569 68.3207 62.843Z" fill="#2BA55D"/>
<path d="M49.4393 57.0481L49.4585 56.9314L28.1877 52.4785L28.1492 52.6341C29.941 53.198 31.7328 53.7813 33.5439 54.3063C35.2587 54.8119 36.9735 55.3564 38.7075 55.6869C40.9039 56.0953 43.1197 56.2703 45.3354 56.5425C46.7226 56.698 48.0713 56.8731 49.4393 57.0481Z" fill="#2BA55D"/>
<path d="M12.8511 46.2176C12.4658 46.276 12.0419 46.451 12.196 46.8982C12.3116 47.2288 12.6777 47.6371 12.986 47.6955C14.7971 47.9677 16.6082 48.1232 18.4193 48.376C19.5753 48.5316 20.7121 48.7844 21.8488 48.9788L21.9259 48.6872C19.1514 47.8705 16.377 47.0343 13.5833 46.2176C13.3521 46.1788 13.1016 46.1788 12.8511 46.2176Z" fill="#2BA55D"/>
<path d="M14.9513 29.3782C14.8742 28.5226 14.8935 27.5893 14.6623 26.7337C14.2577 25.1781 13.7375 24.9642 12.2732 25.567C12.119 25.6253 11.9649 25.6837 11.7722 25.7614C12.1961 25.0614 13.1787 24.4003 13.8916 24.3809C14.1228 24.4003 14.354 24.4975 14.5274 24.6531C15.6642 25.6642 15.8568 28.2115 14.9513 29.3782Z" fill="#237745"/>
<path d="M25.0087 30.9727C24.7775 31.031 24.5656 31.1088 24.3536 31.206C24.2573 31.2643 24.2188 31.3616 24.2188 31.4782C24.2958 31.731 24.4114 31.9643 24.527 32.1977C24.5848 32.256 24.6619 32.2755 24.739 32.2366C25.028 32.081 25.2592 31.8088 25.3748 31.4977C25.4518 31.2254 25.317 31.031 25.0087 30.9727Z" fill="#131413"/>
<path d="M22.6774 29.1642C22.8893 29.1253 23.1013 29.0864 23.3132 29.0086C23.4095 28.9892 23.4866 28.9114 23.5251 28.8336C23.6215 28.6586 23.5444 28.4447 23.371 28.3475C23.2169 28.2503 23.0435 28.153 22.8508 28.0947C22.8508 28.0947 22.8315 28.0753 22.8123 28.0753C22.6774 28.0169 22.5233 28.0947 22.4655 28.2308C22.3884 28.3669 22.3306 28.503 22.2921 28.6586C22.1957 29.0669 22.2343 29.1253 22.6774 29.1642Z" fill="#131413"/>
<path d="M21.8296 32.2755C21.6947 32.1783 21.5406 32.1005 21.3864 32.0422C21.3672 32.0422 21.3672 32.0227 21.3479 32.0227C21.2323 31.9839 21.0974 32.0422 21.0589 32.1589C20.9818 32.3339 20.924 32.5283 20.8855 32.7228C20.8662 32.8394 20.924 32.9172 21.0396 32.9172C21.0974 32.9172 21.1745 32.9366 21.2323 32.9366V32.9561C21.4057 32.9366 21.5984 32.8978 21.7718 32.8394C21.8488 32.82 21.9259 32.7616 21.9644 32.6839C22.0415 32.5478 21.9837 32.3533 21.8296 32.2755Z" fill="#131413"/>
<path d="M20.5 29.6898C20.3266 29.7676 20.1725 29.8648 20.0376 30.0009C19.9798 30.0787 19.9605 30.1759 19.9991 30.2731C20.1147 30.4481 20.2495 30.6037 20.4037 30.7398C20.4615 30.7592 20.5385 30.7592 20.5963 30.7204C20.7312 30.5065 20.8468 30.2731 20.9239 30.1565C20.9624 29.7481 20.7697 29.5731 20.5 29.6898Z" fill="#131413"/>
<path d="M19.4789 27.0841C19.5367 27.1619 19.6138 27.2202 19.7101 27.2397C19.9028 27.2786 20.0955 27.1424 20.134 26.948C20.1918 26.7536 20.2303 26.5785 20.2496 26.3841C20.2496 26.3647 20.2496 26.3647 20.2496 26.3452C20.2689 26.1897 20.1533 26.073 20.0184 26.0535C19.8643 26.0146 19.7101 26.0146 19.556 26.0146C19.1129 26.0146 19.0936 26.073 19.1707 26.5008C19.267 26.7147 19.3633 26.9091 19.4789 27.0841Z" fill="#131413"/>
<path d="M17.5715 29.7672C17.9569 29.6894 18.0725 29.4366 17.8991 29.2227C17.7835 29.0866 17.6486 28.9505 17.4752 28.8532C17.3789 28.8144 17.2825 28.8338 17.2054 28.8921C17.0706 29.0477 16.955 29.2421 16.8586 29.4171C16.8586 29.4949 16.8779 29.5533 16.9357 29.5921C17.1862 29.6699 17.4367 29.7283 17.5715 29.7672Z" fill="#131413"/>
<path d="M18.1497 31.9057C18.0148 31.8668 17.88 31.8085 17.7451 31.7891C17.6873 31.8474 17.5524 31.8863 17.5332 31.9641C17.4946 32.1196 17.4754 32.2946 17.4946 32.4502C17.4946 32.4891 17.591 32.5863 17.6295 32.5863C17.8414 32.5474 18.0341 32.4696 18.2268 32.3724C18.2846 32.3335 18.3231 32.2752 18.3424 32.2169C18.3616 32.0613 18.2653 31.9252 18.1497 31.9057Z" fill="#131413"/>
<path d="M17.6487 34.687C17.5139 34.6481 17.379 34.5898 17.2441 34.5703C17.1863 34.6286 17.0514 34.6675 17.0322 34.7453C16.9936 34.9009 16.9744 35.0759 16.9936 35.2314C16.9936 35.2703 17.09 35.3676 17.1285 35.3676C17.3404 35.3287 17.5331 35.2509 17.7258 35.1537C17.7836 35.1148 17.8221 35.0564 17.8414 34.9981C17.8607 34.862 17.7836 34.7259 17.6487 34.687Z" fill="#131413"/>
<path d="M49.6127 47.1123C49.3815 47.1706 49.1696 47.2484 48.9576 47.3456C48.8613 47.404 48.8228 47.5012 48.8228 47.6179C48.8998 47.8707 49.0154 48.104 49.131 48.3373C49.1888 48.3957 49.2659 48.4151 49.343 48.3762C49.632 48.2207 49.8632 47.9484 49.9788 47.6373C50.0558 47.3456 49.9017 47.1512 49.6127 47.1123Z" fill="#131413"/>
<path d="M48.5531 36.0671C48.3989 35.9699 48.2255 35.8727 48.0329 35.7949C48.0329 35.7949 48.0136 35.7755 47.9943 35.7755C47.8595 35.7171 47.7053 35.7949 47.6475 35.931C47.5705 36.0671 47.5127 36.2032 47.4741 36.3588C47.3585 36.7866 47.3971 36.8255 47.8402 36.8838C48.0521 36.8449 48.2641 36.806 48.476 36.7282C48.5723 36.7088 48.6494 36.631 48.6879 36.5532C48.7843 36.3782 48.7265 36.1449 48.5531 36.0671Z" fill="#131413"/>
<path d="M56.2599 48.5124C56.1058 48.4152 55.9323 48.318 55.7397 48.2402L55.7204 48.2208C55.5855 48.1624 55.4314 48.2402 55.3736 48.3763C55.2965 48.5124 55.2387 48.6486 55.2002 48.8041C55.0846 49.2319 55.1231 49.2708 55.5663 49.3291C55.7782 49.2902 55.9901 49.2514 56.2021 49.1736C56.2984 49.1541 56.3755 49.0764 56.414 48.9986C56.5104 48.8236 56.4526 48.6097 56.2599 48.5124Z" fill="#131413"/>
<path d="M42.1369 47.3263C42.0021 47.2291 41.8479 47.1513 41.6938 47.093C41.6745 47.093 41.6745 47.0735 41.6553 47.0735C41.5397 47.0346 41.4048 47.093 41.3663 47.2096C41.2892 47.3846 41.2314 47.5791 41.1929 47.7735C41.1736 47.8902 41.2314 47.968 41.347 47.968C41.4048 47.968 41.4819 47.9874 41.5397 47.9874V48.0069C41.7131 47.9874 41.9057 47.9485 42.0791 47.8902C42.1562 47.8708 42.2333 47.8124 42.2718 47.7346C42.3489 47.5985 42.2911 47.4041 42.1369 47.3263Z" fill="#131413"/>
<path d="M45.085 39.2562C44.9116 39.334 44.7574 39.4312 44.6225 39.5673C44.5647 39.6451 44.5455 39.7423 44.584 39.8395C44.6996 40.0145 44.8345 40.1701 44.9886 40.3062C45.0464 40.3256 45.1235 40.3256 45.1813 40.2868C45.3162 40.0729 45.4318 39.8395 45.5088 39.7229C45.5474 39.3145 45.3547 39.1395 45.085 39.2562Z" fill="#131413"/>
<path d="M56.7607 38.3816C56.5873 38.4593 56.4332 38.5566 56.2983 38.6927C56.2405 38.7705 56.2213 38.8677 56.2598 38.9649C56.3754 39.1399 56.5103 39.2955 56.6644 39.4316C56.7222 39.451 56.7993 39.451 56.8571 39.4121C56.9919 39.1982 57.1075 38.9649 57.1846 38.8482C57.2231 38.4399 57.0112 38.2843 56.7607 38.3816Z" fill="#131413"/>
<path d="M63.928 37.5066C63.7546 37.5843 63.6004 37.6816 63.4656 37.8177C63.4078 37.8955 63.3885 37.9927 63.427 38.0899C63.5426 38.2649 63.6775 38.4205 63.8316 38.5566C63.8894 38.576 63.9665 38.576 64.0243 38.5371C64.1592 38.3232 64.2748 38.0899 64.3519 37.9732C64.3904 37.5649 64.1977 37.4093 63.928 37.5066Z" fill="#131413"/>
<path d="M42.349 36.0477C42.1948 36.0088 42.0407 36.0088 41.8866 36.0088C41.4434 36.0088 41.4242 36.0671 41.5012 36.4949C41.5976 36.6894 41.6939 36.8838 41.8095 37.0588C41.8673 37.1366 41.9444 37.1949 42.0407 37.2144C42.2334 37.2533 42.426 37.1171 42.4646 36.9227C42.5224 36.7283 42.5609 36.5532 42.5802 36.3588C42.5802 36.3394 42.5802 36.3394 42.5802 36.3199C42.5995 36.2032 42.5031 36.0671 42.349 36.0477Z" fill="#131413"/>
<path d="M39.9021 39.7427C40.2874 39.665 40.403 39.4122 40.2296 39.1983C40.114 39.0622 39.9792 38.926 39.8057 38.8288C39.7094 38.7899 39.6131 38.8094 39.536 38.8677C39.4011 39.0233 39.2855 39.2177 39.1892 39.3927C39.1892 39.4705 39.2085 39.5288 39.2663 39.5677C39.5167 39.665 39.7672 39.7038 39.9021 39.7427Z" fill="#131413"/>
<path d="M79.0333 27.862C78.8792 27.7648 78.7058 27.6676 78.5131 27.5898C78.5131 27.5898 78.4938 27.5704 78.4746 27.5704C78.3397 27.512 78.1856 27.5898 78.1278 27.7259C78.0507 27.862 77.9929 27.9982 77.9543 28.1537C77.8387 28.5815 77.8773 28.6204 78.3204 28.6787C78.5324 28.6398 78.7443 28.6009 78.9563 28.5232C79.0526 28.5037 79.1297 28.4259 79.1682 28.3482C79.2838 28.1537 79.2067 27.9398 79.0333 27.862Z" fill="#131413"/>
<path d="M80.7868 30.7007C80.8831 30.5257 80.8061 30.3118 80.6327 30.2146C80.4785 30.1174 80.3051 30.0201 80.1125 29.9424L80.0932 29.9229C79.9583 29.8646 79.8042 29.9424 79.7464 30.0785C79.6693 30.2146 79.6115 30.3507 79.573 30.5063C79.4574 30.9341 79.4959 30.9729 79.9391 31.0313C80.151 30.9924 80.3629 30.9535 80.5749 30.8757C80.6712 30.8563 80.7483 30.7785 80.7868 30.7007Z" fill="#131413"/>
<path d="M76.837 35.6785C76.6829 35.5812 76.5095 35.484 76.3168 35.4062C76.3168 35.4062 76.2975 35.3868 76.2783 35.3868C76.1434 35.3284 75.9893 35.4062 75.9315 35.5423C75.8544 35.6785 75.7966 35.8146 75.7581 35.9701C75.6425 36.3979 75.681 36.4368 76.1241 36.4951C76.3361 36.4563 76.548 36.4174 76.7599 36.3396C76.8563 36.3201 76.9333 36.2424 76.9719 36.1646C77.0875 35.9896 77.0104 35.7757 76.837 35.6785Z" fill="#131413"/>
<path d="M70.3824 37.9148C70.2283 37.8176 70.0549 37.7203 69.8622 37.6426C69.8622 37.6426 69.8429 37.6231 69.8237 37.6231C69.6888 37.5648 69.5347 37.6426 69.4769 37.7787C69.3998 37.9148 69.342 38.0509 69.3035 38.2065C69.1879 38.6343 69.2264 38.6731 69.6695 38.7315C69.8815 38.6926 70.0934 38.6537 70.3053 38.5759C70.4017 38.5565 70.4787 38.4787 70.5173 38.4009C70.6329 38.2259 70.5558 38.012 70.3824 37.9148Z" fill="#131413"/>
<path d="M76.0084 42.6013C75.8543 42.5041 75.6808 42.4069 75.4882 42.3291C75.4882 42.3291 75.4689 42.3096 75.4496 42.3096C75.3148 42.2513 75.1606 42.3291 75.1028 42.4652C75.0258 42.6013 74.968 42.7374 74.9294 42.893C74.8138 43.3208 74.8524 43.3597 75.2955 43.418C75.5074 43.3791 75.7194 43.3402 75.9313 43.2624C76.0277 43.243 76.1047 43.1652 76.1433 43.0874C76.2589 42.9124 76.2011 42.6985 76.0084 42.6013Z" fill="#131413"/>
<path d="M85.642 7.34769C85.7768 7.13379 85.8924 6.90045 85.9695 6.78379C85.9888 6.37544 85.7961 6.21988 85.5456 6.31711C85.3722 6.39489 85.2181 6.49211 85.0832 6.62823C85.0254 6.70601 85.0062 6.80323 85.0447 6.90045C85.1603 7.07546 85.2952 7.23102 85.4493 7.36713C85.5071 7.38658 85.5842 7.38658 85.642 7.34769Z" fill="#131413"/>
<path d="M80.5749 20.1618C80.6712 20.3563 80.7676 20.5507 80.8832 20.7257C80.941 20.8035 81.018 20.8618 81.1144 20.8813C81.307 20.9202 81.4997 20.7841 81.5382 20.5896C81.596 20.3952 81.6346 20.2202 81.6538 20.0257C81.6538 20.0063 81.6538 20.0063 81.6538 19.9868C81.6731 19.8313 81.5575 19.7146 81.4226 19.6951C81.2685 19.6562 81.1144 19.6562 80.9602 19.6562C80.5364 19.6757 80.4978 19.7146 80.5749 20.1618Z" fill="#131413"/>
<path d="M84.2354 17.9256C84.0813 17.8867 83.9272 17.8867 83.773 17.8867C83.3299 17.8867 83.3106 17.9451 83.3877 18.3728C83.484 18.5673 83.5804 18.7617 83.696 18.9367C83.7538 19.0145 83.8308 19.0729 83.9272 19.0923C84.1198 19.1312 84.3125 18.9951 84.351 18.8006C84.4088 18.6062 84.4474 18.4312 84.4666 18.2367C84.4666 18.2173 84.4666 18.2173 84.4666 18.1978C84.4859 18.0617 84.3703 17.9256 84.2354 17.9256Z" fill="#131413"/>
<path d="M82.9638 12.9672C83.1565 13.0061 83.3492 12.87 83.3877 12.6755C83.4455 12.4811 83.484 12.3061 83.5033 12.1116C83.5033 12.0922 83.5033 12.0922 83.5033 12.0728C83.5226 11.9172 83.407 11.8005 83.2721 11.7811C83.1179 11.7422 82.9638 11.7422 82.8097 11.7422C82.3665 11.7422 82.3473 11.8005 82.4243 12.2283C82.5207 12.4228 82.617 12.6172 82.7326 12.7922C82.7904 12.8894 82.8675 12.9478 82.9638 12.9672Z" fill="#131413"/>
<path d="M86.4127 10.9253C86.432 10.7697 86.3164 10.6531 86.1815 10.6336C86.0274 10.5947 85.8732 10.5947 85.7191 10.5947C85.2759 10.5947 85.2567 10.6531 85.3337 11.0808C85.4301 11.2753 85.5264 11.4697 85.642 11.6448C85.6998 11.7225 85.7769 11.7809 85.8732 11.8003C86.0659 11.8392 86.2586 11.7031 86.2971 11.5086C86.3549 11.3142 86.3935 11.1392 86.4127 10.9447C86.4127 10.9447 86.4127 10.9447 86.4127 10.9253Z" fill="#131413"/>
<path d="M83.2335 24.2058C83.1372 24.1669 83.0408 24.1863 82.9638 24.2447C82.8289 24.4002 82.7133 24.5947 82.6169 24.7697C82.6169 24.8475 82.6362 24.9058 82.694 24.9447C82.9252 25.0225 83.1757 25.0614 83.3298 25.1002C83.7152 25.0225 83.8308 24.7697 83.6574 24.5558C83.5418 24.4197 83.3876 24.303 83.2335 24.2058Z" fill="#131413"/>
<path d="M36.2027 41.8425C36.1064 41.8036 36.0101 41.8231 35.933 41.8814C35.7981 42.0369 35.6825 42.2314 35.5862 42.4064C35.5862 42.4842 35.6055 42.5425 35.6633 42.5814C35.8945 42.6592 36.1449 42.6981 36.2991 42.737C36.6844 42.6592 36.8 42.4064 36.6266 42.1925C36.4917 42.0564 36.3569 41.9397 36.2027 41.8425Z" fill="#131413"/>
<path d="M39.9405 43.2624C39.8442 43.2235 39.7478 43.243 39.6708 43.3013C39.5359 43.4569 39.4203 43.6513 39.324 43.8263C39.324 43.9041 39.3432 43.9624 39.401 44.0013C39.6322 44.0791 39.8827 44.118 40.0369 44.1569C40.4222 44.0791 40.5378 43.8263 40.3644 43.6124C40.2488 43.4958 40.1139 43.3596 39.9405 43.2624Z" fill="#131413"/>
<path d="M44.6995 43.4956C44.5646 43.4567 44.4298 43.3984 44.2949 43.3789C44.2371 43.4372 44.1022 43.4761 44.083 43.5539C44.0444 43.7095 44.0252 43.8845 44.0444 44.04C44.0444 44.0789 44.1408 44.1761 44.1793 44.1761C44.3912 44.1373 44.5839 44.0595 44.7766 43.9622C44.8344 43.9234 44.8729 43.865 44.8922 43.8067C44.9114 43.6511 44.8344 43.515 44.6995 43.4956Z" fill="#131413"/>
<path d="M51.5008 42.1147C51.3659 42.0758 51.231 42.0175 51.0962 41.998C51.0384 42.0564 50.9035 42.0953 50.8842 42.1731C50.8457 42.3286 50.8264 42.5036 50.8457 42.6592C50.8457 42.6981 50.942 42.7953 50.9806 42.7953C51.1925 42.7564 51.3852 42.6786 51.5778 42.5814C51.6356 42.5425 51.6742 42.4842 51.6934 42.4258C51.7127 42.2897 51.6356 42.1536 51.5008 42.1147Z" fill="#131413"/>
<path d="M59.0535 45.2456C58.9186 45.2067 58.7838 45.1484 58.6489 45.1289C58.5911 45.1872 58.4562 45.2261 58.437 45.3039C58.3984 45.4595 58.3792 45.6345 58.3984 45.79C58.3984 45.8289 58.4948 45.9261 58.5333 45.9261C58.7452 45.8872 58.9379 45.8095 59.1306 45.7122C59.1884 45.6734 59.2269 45.615 59.2462 45.5567C59.2654 45.4206 59.1884 45.2845 59.0535 45.2456Z" fill="#131413"/>
<path d="M53.4661 35.6206C53.3312 35.5817 53.1964 35.5234 53.0615 35.5039C53.0037 35.5622 52.8688 35.6011 52.8496 35.6789C52.811 35.8345 52.7918 36.0095 52.811 36.165C52.811 36.2039 52.9074 36.3011 52.9459 36.3011C53.1578 36.2623 53.3505 36.1845 53.5432 36.0873C53.601 36.0484 53.6395 35.99 53.6588 35.9317C53.678 35.7956 53.601 35.6595 53.4661 35.6206Z" fill="#131413"/>
<path d="M35.6634 48.3764C35.5285 48.3375 35.3936 48.2792 35.2588 48.2598C35.201 48.3181 35.0661 48.357 35.0468 48.4348C35.0083 48.5903 34.989 48.7653 35.0083 48.9209C35.0083 48.9598 35.1046 49.057 35.1432 49.057C35.3551 49.0181 35.5478 48.9403 35.7404 48.8431C35.7982 48.8042 35.8368 48.7459 35.856 48.6876C35.8753 48.532 35.779 48.3959 35.6634 48.3764Z" fill="#131413"/>
<path d="M35.0661 37.8176C35.3551 37.6621 35.5863 37.3898 35.7019 37.0787C35.779 36.8065 35.6441 36.612 35.3358 36.5537C35.1046 36.612 34.8927 36.6898 34.6808 36.7871C34.5844 36.8454 34.5459 36.9426 34.5459 37.0593C34.623 37.3121 34.7386 37.5454 34.8542 37.7788C34.912 37.8371 34.989 37.8371 35.0661 37.8176Z" fill="#131413"/>
<path d="M34.8925 32.9761C34.9889 32.8011 34.9118 32.5872 34.7384 32.49C34.5843 32.3928 34.4109 32.2955 34.2182 32.2178L34.1989 32.1983C34.0641 32.14 33.9099 32.2178 33.8521 32.3539C33.775 32.49 33.7172 32.6261 33.6787 32.7817C33.5631 33.2094 33.6016 33.2483 34.0448 33.3067C34.2567 33.2678 34.4687 33.2289 34.6806 33.1511C34.7577 33.1317 34.8347 33.0539 34.8925 32.9761Z" fill="#131413"/>
<path d="M65.3538 51.9734C65.1997 51.8762 65.0263 51.7789 64.8336 51.7012L64.8144 51.6817C64.6795 51.6234 64.5254 51.7012 64.4676 51.8373C64.3905 51.9734 64.3327 52.1095 64.2942 52.265C64.1786 52.6928 64.2171 52.7317 64.6602 52.79C64.8722 52.7512 65.0841 52.7123 65.296 52.6345C65.3924 52.615 65.4694 52.5373 65.508 52.4595C65.6043 52.2845 65.5465 52.0706 65.3538 51.9734Z" fill="#131413"/>
<path d="M69.6888 59.1872C69.5347 59.09 69.3613 58.9928 69.1686 58.915L69.1494 58.8956C69.0145 58.8372 68.8604 58.915 68.8026 59.0511C68.7255 59.1872 68.6677 59.3428 68.6291 59.4789C68.5135 59.9067 68.5521 59.9456 68.9952 60.0039C69.2072 59.965 69.4191 59.9261 69.631 59.8484C69.7274 59.8289 69.8044 59.7511 69.843 59.6734C69.9393 59.4984 69.8815 59.2845 69.6888 59.1872Z" fill="#131413"/>
<path d="M74.9488 59.032C74.7947 58.9347 74.6213 58.8375 74.4286 58.7597C74.4286 58.7597 74.4093 58.7403 74.3901 58.7403C74.2552 58.682 74.1011 58.7597 74.0433 58.8959C73.9662 59.032 73.9084 59.1681 73.8699 59.3236C73.7543 59.7514 73.7928 59.7903 74.2359 59.8487C74.4479 59.8098 74.6598 59.7709 74.8718 59.6931C74.9681 59.6737 75.0452 59.5959 75.0837 59.5181C75.1993 59.3431 75.1222 59.1292 74.9488 59.032Z" fill="#131413"/>
<path d="M81.7115 62.4148C81.5574 62.3176 81.384 62.2203 81.1913 62.1426C81.1913 62.1426 81.172 62.1231 81.1528 62.1231C81.0179 62.0648 80.8638 62.1426 80.806 62.2787C80.7289 62.4148 80.6711 62.5509 80.6326 62.7065C80.517 63.1343 80.5555 63.1731 80.9986 63.2315C81.2106 63.1926 81.4225 63.1537 81.6345 63.0759C81.7308 63.0565 81.8079 62.9787 81.8464 62.9009C81.962 62.7259 81.8849 62.4926 81.7115 62.4148Z" fill="#131413"/>
<path d="M87.4723 65.2546C87.3182 65.1574 87.1448 65.0602 86.9521 64.9824L86.9328 64.963C86.7979 64.9046 86.6438 64.9824 86.586 65.1185C86.5089 65.2546 86.4511 65.3907 86.4126 65.5463C86.297 65.9741 86.3355 66.013 86.7787 66.0713C86.9906 66.0324 87.2026 65.9935 87.4145 65.9157C87.5108 65.8963 87.5879 65.8185 87.6264 65.7407C87.7228 65.5657 87.6457 65.3518 87.4723 65.2546Z" fill="#131413"/>
<path d="M89.1293 69.7068C88.9751 69.6095 88.8017 69.5123 88.609 69.4345L88.5898 69.4151C88.4549 69.3568 88.3008 69.4345 88.243 69.5707C88.1659 69.7068 88.1081 69.8429 88.0696 69.9984C87.954 70.4262 87.9925 70.4651 88.4356 70.5234C88.6476 70.4845 88.8595 70.4457 89.0715 70.3679C89.1678 70.3484 89.2449 70.2707 89.2834 70.1929C89.3797 70.0179 89.3027 69.804 89.1293 69.7068Z" fill="#131413"/>
<path d="M92.4625 72.3318C92.3084 72.2346 92.135 72.1373 91.9423 72.0595C91.9423 72.0595 91.923 72.0401 91.9038 72.0401C91.7689 71.9818 91.6148 72.0595 91.557 72.1957C91.4799 72.3318 91.4221 72.4679 91.3835 72.6235C91.2679 73.0513 91.3065 73.0901 91.7496 73.1485C91.9616 73.1096 92.1735 73.0707 92.3855 72.9929C92.4818 72.9735 92.5589 72.8957 92.5974 72.8179C92.6937 72.6429 92.6359 72.429 92.4625 72.3318Z" fill="#131413"/>
<path d="M73.5424 53.0622C73.3882 52.965 73.2148 52.8678 73.0221 52.79C73.0221 52.79 73.0029 52.7706 72.9836 52.7706C72.8487 52.7122 72.6946 52.79 72.6368 52.9261C72.5597 53.0622 72.5019 53.1984 72.4634 53.3539C72.3478 53.7817 72.3863 53.8206 72.8295 53.8789C73.0414 53.84 73.2533 53.8011 73.4653 53.7234C73.5616 53.7039 73.6387 53.6261 73.6772 53.5484C73.7928 53.3734 73.7158 53.1595 73.5424 53.0622Z" fill="#131413"/>
<path d="M38.7653 33.5007C38.6111 33.4035 38.4377 33.3063 38.245 33.2285L38.2258 33.209C38.0909 33.1507 37.9368 33.2285 37.879 33.3646C37.8019 33.5007 37.7441 33.6368 37.7056 33.7924C37.59 34.2202 37.6285 34.2591 38.0716 34.3174C38.2836 34.2785 38.4955 34.2396 38.7075 34.1618C38.8038 34.1424 38.8809 34.0646 38.9194 33.9868C39.0157 33.8118 38.9387 33.5979 38.7653 33.5007Z" fill="#131413"/>
<path d="M32.4264 40.1115C32.5035 39.956 32.4457 39.7615 32.3108 39.6837C32.1759 39.5865 32.0218 39.5087 31.8676 39.4504C31.8484 39.4504 31.8484 39.4309 31.8291 39.4309C31.7135 39.3921 31.5786 39.4504 31.5401 39.5671C31.463 39.7421 31.4052 39.9365 31.3667 40.131C31.3474 40.2476 31.4052 40.3254 31.5208 40.3254C31.5786 40.3254 31.6557 40.3448 31.7135 40.3448V40.3643C31.8869 40.3449 32.0796 40.306 32.253 40.2476C32.3108 40.2476 32.3878 40.1893 32.4264 40.1115Z" fill="#131413"/>
<path d="M33.2742 45.3429C33.1393 45.2457 32.9851 45.1679 32.831 45.1096C32.8117 45.1096 32.8117 45.0901 32.7925 45.0901C32.6769 45.0512 32.542 45.1096 32.5035 45.2262C32.4264 45.4012 32.3686 45.5957 32.3301 45.7901C32.3108 45.9068 32.3686 45.9846 32.4842 45.9846C32.542 45.9846 32.6191 46.004 32.6769 46.004V46.0235C32.8503 46.004 33.0429 45.9651 33.2163 45.9068C33.2934 45.8874 33.3705 45.829 33.409 45.7512C33.4861 45.6346 33.4283 45.4401 33.2742 45.3429Z" fill="#131413"/>
<path d="M31.6173 35.8536C31.7522 35.6397 31.8678 35.4063 31.9449 35.2896C31.9641 34.8813 31.7715 34.7257 31.521 34.823C31.3476 34.9007 31.1935 34.998 31.0586 35.1341C31.0008 35.2119 30.9815 35.3091 31.02 35.4063C31.1357 35.5813 31.2705 35.7369 31.4247 35.873C31.5017 35.9119 31.5595 35.8924 31.6173 35.8536Z" fill="#131413"/>
<path d="M30.0179 31.0897C29.8638 31.0508 29.7096 31.0508 29.5555 31.0508C29.1124 31.0508 29.0931 31.1091 29.1702 31.5369C29.2665 31.7313 29.3628 31.9258 29.4784 32.1008C29.5362 32.1786 29.6133 32.2369 29.7096 32.2564C29.9023 32.2952 30.095 32.1591 30.1335 31.9647C30.1913 31.7702 30.2298 31.5952 30.2491 31.4008C30.2491 31.3813 30.2491 31.3813 30.2491 31.3619C30.2684 31.2452 30.1528 31.1091 30.0179 31.0897Z" fill="#131413"/>
<path d="M27.1858 34.9981C27.1858 35.0759 27.2051 35.1342 27.2629 35.1731C27.4941 35.2509 27.7445 35.2898 27.8987 35.3287C28.284 35.2509 28.3996 34.9981 28.2262 34.7842C28.1106 34.6481 27.9757 34.512 27.8023 34.4148C27.706 34.3759 27.6097 34.3953 27.5326 34.4537C27.3977 34.6481 27.2821 34.8231 27.1858 34.9981Z" fill="#131413"/>
<path d="M28.4573 37.4868C28.3224 37.4479 28.1876 37.3896 28.0527 37.3701C27.9949 37.4285 27.86 37.4673 27.8408 37.5451C27.8022 37.7007 27.783 37.8757 27.8022 38.0312C27.8022 38.0701 27.8986 38.1674 27.9371 38.1674C28.149 38.1285 28.3417 38.0507 28.5344 37.9535C28.5922 37.9146 28.6307 37.8562 28.65 37.7979C28.6692 37.6423 28.5922 37.5062 28.4573 37.4868Z" fill="#131413"/>
<path d="M27.9759 40.2866C27.841 40.2477 27.7061 40.1894 27.5713 40.1699C27.5135 40.2283 27.3786 40.2671 27.3593 40.3449C27.3208 40.5005 27.3015 40.6755 27.3208 40.831C27.3208 40.8699 27.4171 40.9672 27.4557 40.9672C27.6676 40.9283 27.8603 40.8505 28.0529 40.7533C28.1107 40.7144 28.1493 40.656 28.1685 40.5977C28.1878 40.4421 28.0915 40.306 27.9759 40.2866Z" fill="#131413"/>
<path d="M23.4672 44.5451C23.2745 44.4089 23.0818 44.2728 22.8892 44.1562C22.7928 44.1173 22.6772 44.1367 22.5809 44.2145C22.4268 44.4284 22.3112 44.6617 22.1956 44.8951C22.1956 44.9728 22.2341 45.0506 22.2919 45.0895C22.6002 45.2256 22.947 45.2451 23.2552 45.1478C23.5443 45.0506 23.6021 44.8173 23.4672 44.5451Z" fill="#131413"/>
<path d="M13.3327 43.1837C13.14 43.0476 12.9473 42.9115 12.7546 42.7948C12.6583 42.7559 12.5427 42.7754 12.4464 42.8532C12.2922 43.0671 12.1766 43.3004 12.061 43.5337C12.061 43.6115 12.0996 43.6893 12.1574 43.7282C12.4656 43.8643 12.8125 43.8837 13.1207 43.7865C13.4097 43.6893 13.4675 43.456 13.3327 43.1837Z" fill="#131413"/>
<path d="M9.15171 45.4203C9.42145 45.3231 9.47925 45.0898 9.34438 44.8175C9.15171 44.6814 8.95904 44.5453 8.76637 44.4286C8.67003 44.3897 8.55443 44.4092 8.4581 44.487C8.30396 44.7009 8.18836 44.9342 8.07275 45.1675C8.07275 45.2453 8.11129 45.3231 8.16909 45.362C8.49663 45.4981 8.84344 45.5175 9.15171 45.4203Z" fill="#131413"/>
<path d="M9.78774 49.6398C9.59507 49.5037 9.4024 49.3676 9.20973 49.2509C9.11339 49.212 8.99779 49.2314 8.90145 49.3092C8.74732 49.5231 8.63172 49.7565 8.51611 49.9898C8.51611 50.0676 8.55465 50.1454 8.61245 50.1843C8.92072 50.3204 9.26753 50.3398 9.5758 50.2426C9.84554 50.1454 9.9226 49.912 9.78774 49.6398Z" fill="#131413"/>
<path d="M11.83 50.1847C11.6373 50.0486 11.4446 49.9125 11.252 49.7958C11.1556 49.7569 11.04 49.7764 10.9437 49.8541C10.7896 50.068 10.674 50.3014 10.5583 50.5347C10.5583 50.6125 10.5969 50.6903 10.6547 50.7292C10.963 50.8653 11.3098 50.8847 11.618 50.7875C11.8878 50.6903 11.9648 50.4569 11.83 50.1847Z" fill="#131413"/>
<path d="M24.4308 41.0642C24.4308 41.0448 24.4308 41.0448 24.4308 41.0254C24.3922 40.8892 24.2574 40.792 24.1032 40.8309C23.9491 40.8504 23.8142 40.9087 23.6601 40.967C23.2555 41.1226 23.2362 41.1809 23.4674 41.5698C23.6215 41.7254 23.7949 41.8615 23.9683 41.9782C24.0454 42.0365 24.1417 42.0559 24.2381 42.0365C24.4308 41.9976 24.5656 41.8032 24.5271 41.6087C24.5271 41.4337 24.4886 41.2392 24.4308 41.0642Z" fill="#131413"/>
<path d="M20.4231 42.27C20.4231 42.2506 20.4231 42.2311 20.4038 42.2311C20.3653 42.1144 20.2304 42.0367 20.1148 42.0755C19.9222 42.1339 19.7295 42.1922 19.5561 42.27C19.5368 42.27 19.5175 42.2894 19.5175 42.2894C19.4597 42.3478 19.4405 42.445 19.4983 42.5033C19.5368 42.5617 19.5753 42.62 19.5946 42.6589L19.5753 42.6783C19.7102 42.8144 19.8451 42.9311 19.9992 43.0283C20.057 43.0867 20.1534 43.1061 20.2304 43.0867C20.4038 43.0672 20.5194 42.9117 20.5002 42.7367C20.5002 42.6006 20.4809 42.4256 20.4231 42.27Z" fill="#131413"/>
<path d="M21.7525 40.1311C21.5984 40.0338 21.425 39.9755 21.2323 39.9561C21.136 39.9561 21.0396 40.0144 21.0011 40.0922C20.9433 40.2866 20.8855 40.5005 20.8855 40.7144C20.8855 40.7533 20.9818 40.87 21.0204 40.8505C21.2708 40.8311 21.5213 40.7922 21.6562 40.7728C21.9837 40.5394 21.9837 40.2672 21.7525 40.1311Z" fill="#131413"/>
<path d="M23.448 37.1563C23.3516 37.3508 23.2553 37.5452 23.1782 37.7591C23.1397 37.8564 23.1397 37.9536 23.1975 38.0508C23.2938 38.2258 23.5058 38.3036 23.6792 38.2258C23.8526 38.148 24.026 38.0703 24.1994 37.973C24.1994 37.973 24.2186 37.973 24.2186 37.9536C24.3535 37.8758 24.3921 37.7202 24.315 37.5841C24.2572 37.448 24.1608 37.3119 24.0645 37.1952C23.814 36.8258 23.7562 36.8258 23.448 37.1563Z" fill="#131413"/>
<path d="M20.3845 37.001C20.1726 37.001 19.9606 37.001 19.768 37.0399C19.7102 37.0788 19.6716 37.1371 19.6716 37.2149C19.768 37.4482 19.8643 37.6815 19.9221 37.8177C20.2304 38.0704 20.4809 38.0121 20.5387 37.7399C20.5772 37.5649 20.5965 37.3704 20.5772 37.1954C20.5579 37.0982 20.4809 37.0204 20.3845 37.001Z" fill="#131413"/>
<path d="M23.3901 34.2783C23.1782 34.2783 22.9663 34.2783 22.7736 34.3172C22.7158 34.3561 22.6772 34.4144 22.6772 34.4922C22.7736 34.7255 22.8699 34.9589 22.9277 35.095C23.236 35.3478 23.4865 35.2894 23.5443 35.0172C23.5828 34.8422 23.6021 34.6478 23.5828 34.4728C23.5635 34.3755 23.4865 34.2978 23.3901 34.2783Z" fill="#131413"/>
<path d="M14.643 30.1562C14.4118 30.2146 14.1998 30.2924 13.9879 30.3896C13.8916 30.4479 13.853 30.5451 13.853 30.6618C13.9301 30.9146 14.0457 31.1479 14.1613 31.3813C14.2191 31.4396 14.2962 31.4591 14.3732 31.4202C14.6622 31.2646 14.8934 30.9924 15.0091 30.6813C15.0861 30.3896 14.9513 30.1951 14.643 30.1562Z" fill="#131413"/>
<path d="M10.6548 32.1007C10.7126 32.1007 10.7897 32.1202 10.8475 32.1202V32.1396C11.0209 32.1202 11.2136 32.0813 11.387 32.0229C11.464 32.0035 11.5411 31.9452 11.5796 31.8674C11.6567 31.7118 11.5989 31.5174 11.464 31.4396C11.3292 31.3424 11.175 31.2646 11.0209 31.2062C11.0016 31.2062 11.0016 31.1868 10.9824 31.1868C10.8668 31.1479 10.7319 31.2062 10.6933 31.3229C10.6163 31.4979 10.5585 31.6924 10.5199 31.8868C10.4814 32.0035 10.5392 32.0813 10.6548 32.1007Z" fill="#131413"/>
<path d="M6.7241 34.3761C6.58924 34.2789 6.4351 34.2011 6.28096 34.1428C6.26169 34.1428 6.2617 34.1233 6.24243 34.1233C6.12683 34.0844 5.99196 34.1428 5.95342 34.2594C5.87635 34.4344 5.81855 34.6289 5.78002 34.8233C5.76075 34.94 5.81855 35.0178 5.93415 35.0178C5.99196 35.0178 6.06902 35.0372 6.12683 35.0372V35.0567C6.30023 35.0372 6.4929 34.9983 6.6663 34.94C6.74337 34.9206 6.82044 34.8622 6.85897 34.7845C6.93604 34.6483 6.87824 34.4539 6.7241 34.3761Z" fill="#131413"/>
<path d="M10.5968 26.7336C10.6739 26.578 10.6161 26.3836 10.4812 26.3058C10.3463 26.2086 10.1922 26.1308 10.038 26.0725C10.0188 26.0725 10.0188 26.053 9.99951 26.053C9.88391 26.0141 9.74904 26.0725 9.7105 26.1891C9.63343 26.3641 9.57563 26.5586 9.5371 26.753C9.51783 26.8697 9.57563 26.9475 9.69123 26.9475C9.74904 26.9475 9.8261 26.9669 9.8839 26.9669V26.9864C10.0573 26.9669 10.25 26.928 10.4234 26.8697C10.4812 26.8503 10.5583 26.7919 10.5968 26.7336Z" fill="#131413"/>
<path d="M13.2942 28.0167C13.1593 27.9195 13.0052 27.8417 12.851 27.7834C12.8318 27.7834 12.8318 27.764 12.8125 27.764C12.6969 27.7251 12.562 27.7834 12.5235 27.9001C12.4464 28.0751 12.3886 28.2695 12.3501 28.464C12.3308 28.5806 12.3886 28.6584 12.5042 28.6584C12.562 28.6584 12.6391 28.6779 12.6969 28.6779V28.6973C12.8703 28.6779 13.063 28.639 13.2364 28.5806C13.3134 28.5612 13.3905 28.5029 13.429 28.4251C13.5061 28.289 13.4483 28.0945 13.2942 28.0167Z" fill="#131413"/>
<path d="M30.1914 27.0646C30.0565 26.9674 29.9024 26.8896 29.7482 26.8312C29.729 26.8312 29.729 26.8118 29.7097 26.8118C29.5941 26.7729 29.4592 26.8312 29.4207 26.9479C29.3436 27.1229 29.2858 27.3174 29.2473 27.5118C29.228 27.6285 29.2858 27.7063 29.4014 27.7063C29.4592 27.7063 29.5363 27.7257 29.5941 27.7257V27.7452C29.7675 27.7257 29.9602 27.6868 30.1336 27.6285C30.2107 27.6091 30.2877 27.5507 30.3263 27.4729C30.3841 27.3368 30.3263 27.1618 30.1914 27.0646Z" fill="#131413"/>
<path d="M26.8004 29.5538V29.5732C26.9738 29.5538 27.1665 29.5149 27.3399 29.4565C27.417 29.4371 27.494 29.3788 27.5326 29.301C27.6096 29.1454 27.5518 28.951 27.417 28.8732C27.2821 28.776 27.128 28.6982 26.9738 28.6398C26.9546 28.6398 26.9546 28.6204 26.9353 28.6204C26.8197 28.5815 26.6848 28.6398 26.6463 28.7565C26.5692 28.9315 26.5114 29.126 26.4729 29.3204C26.4536 29.4371 26.5114 29.5149 26.627 29.5149C26.6656 29.5343 26.7426 29.5343 26.8004 29.5538Z" fill="#131413"/>
<path d="M5.81861 31.9257C5.87641 31.7895 5.81861 31.634 5.68374 31.5757C5.56814 31.5368 5.45254 31.4979 5.33694 31.459C5.27914 31.5173 5.1828 31.5562 5.16353 31.634C5.125 31.7895 5.125 31.9646 5.125 32.1201C5.125 32.159 5.20207 32.2562 5.22134 32.2562C5.39474 32.2173 5.56814 32.1396 5.72228 32.0423C5.78008 32.0034 5.79935 31.9646 5.81861 31.9257Z" fill="#131413"/>
<path d="M12.562 34.2591C12.8703 34.5118 13.1207 34.4535 13.1785 34.1813C13.2171 34.0063 13.2363 33.8118 13.2171 33.6368C13.1978 33.5396 13.1207 33.4618 13.0244 33.4424C12.8125 33.4424 12.6005 33.4424 12.4079 33.4813C12.3501 33.5202 12.3115 33.5785 12.3115 33.6563C12.3886 33.9091 12.5042 34.1424 12.562 34.2591Z" fill="#131413"/>
<path d="M17.167 44.0202C17.0899 44.0008 16.9743 43.923 16.8973 43.9619C16.7431 44.0202 16.6083 44.1175 16.4927 44.2341C16.4541 44.2536 16.4349 44.3897 16.4734 44.4091C16.6275 44.5453 16.8202 44.6619 17.0129 44.7592C17.2248 44.8369 17.3789 44.6619 17.3211 44.4286C17.2826 44.2925 17.2248 44.1564 17.167 44.0202Z" fill="#131413"/>
<path d="M11.3868 46.1981C11.3483 46.062 11.2905 45.9259 11.2327 45.7898C11.1556 45.7703 11.04 45.6926 10.9629 45.7314C10.8088 45.7898 10.6739 45.887 10.5583 46.0037C10.5198 46.0231 10.5005 46.1592 10.5391 46.1787C10.6932 46.3148 10.8859 46.4314 11.0785 46.5287C11.2712 46.6064 11.4446 46.412 11.3868 46.1981Z" fill="#131413"/>
<path d="M27.3015 45.4978C27.2245 45.4783 27.1089 45.4006 27.0318 45.4395C26.8777 45.4978 26.7428 45.595 26.6272 45.7117C26.5887 45.7311 26.5694 45.8672 26.6079 45.8867C26.7621 46.0228 26.9547 46.1395 27.1474 46.2367C27.3593 46.3145 27.5135 46.1395 27.4557 45.9061C27.3979 45.7506 27.3593 45.6145 27.3015 45.4978Z" fill="#131413"/>
<path d="M0.751532 47.8707C0.616663 48.0651 0.481793 48.2596 0.366191 48.454C0.327657 48.5512 0.346924 48.6679 0.423992 48.7651C0.63593 48.9207 0.867134 49.0373 1.09834 49.154C1.17541 49.154 1.25248 49.1151 1.29101 49.0568C1.42588 48.7457 1.44515 48.3957 1.34881 48.0846C1.25248 47.7929 1.02127 47.7345 0.751532 47.8707Z" fill="#131413"/>
<path d="M4.3736 47.2867C4.23873 47.4811 4.10386 47.6756 3.98826 47.87C3.94973 47.9672 3.96899 48.0839 4.04606 48.1811C4.258 48.3367 4.4892 48.4534 4.72041 48.57C4.79748 48.57 4.87454 48.5311 4.91308 48.4728C5.04795 48.1617 5.06721 47.8117 4.97088 47.5006C4.87454 47.2089 4.64334 47.1506 4.3736 47.2867Z" fill="#131413"/>
<path d="M6.08845 44.7006C5.95358 44.895 5.81871 45.0895 5.7031 45.2839C5.66457 45.3812 5.68384 45.4978 5.76091 45.595C5.97284 45.7506 6.20405 45.8673 6.43525 45.9839C6.51232 45.9839 6.58939 45.9451 6.62792 45.8867C6.76279 45.5756 6.78206 45.2256 6.68572 44.9145C6.58939 44.6228 6.35818 44.545 6.08845 44.7006Z" fill="#131413"/>
<path d="M61.8279 43.2034L74.8331 46.5479L74.7946 46.2562C74.7753 46.1007 74.7561 45.9645 74.7368 45.8284C74.6983 45.5756 74.679 45.3812 74.679 45.1868C74.679 44.409 74.3129 43.9228 73.4844 43.6506C72.4247 43.3006 71.3458 42.8728 70.3054 42.4839C69.9008 42.3284 69.4769 42.1728 69.0723 42.0172L67.4731 41.4144L99.8225 50.6702L99.9959 50.7285L100.169 50.2619L73.7734 39.8977C73.8312 39.82 73.9083 39.7616 73.9661 39.6838C74.2166 39.4116 74.4478 39.1588 74.679 38.9255C76.7984 36.8449 78.7251 34.5698 80.4398 32.1392C82.2317 29.5919 83.2914 27.4725 83.8501 25.2752C84.7749 21.6973 85.2181 18.6639 85.2566 15.7666C85.2759 14.2305 85.7575 12.7721 86.6631 11.5276C87.0292 11.0221 87.4145 10.4971 87.7806 10.0109C88.1659 9.50537 88.5705 8.96092 88.9366 8.43591C89.3412 7.872 89.4568 7.3081 89.3027 6.84142C89.1293 6.3553 88.6861 5.98585 88.0118 5.77196C86.8365 5.30528 85.5071 5.49973 84.4667 6.21919C82.4821 7.63867 81.3839 9.19426 81.0949 11.0026C80.8252 12.9082 80.6518 14.8527 80.6132 16.7778C80.5169 19.7917 80.1316 23.7196 78.1278 27.2586C76.3167 30.3892 74.1395 33.3059 71.6541 35.9115C70.209 37.4671 68.5328 38.0894 66.5676 37.8171C64.1977 37.4866 61.8279 37.0588 59.7663 36.6504C53.6586 35.4837 47.4547 34.2782 41.347 33.0726C40.9424 32.9754 40.557 32.7809 40.2873 32.4892C39.7478 31.8864 39.0542 31.4587 38.2835 31.2642C37.9175 31.1864 37.5514 31.0503 37.2046 30.9336C37.0504 30.8753 36.8963 30.8364 36.7614 30.7781L36.1642 30.5836L51.7319 34.2198L51.8861 33.6559L34.0063 27.8808L37.1468 28.3669L36.6266 27.9197C36.0678 27.4336 35.4706 27.0447 34.8925 26.6558C34.6228 26.4808 34.3531 26.2863 34.0833 26.1113C33.1585 25.4502 32.1952 25.178 31.2511 25.3141C30.2877 25.4502 29.3051 25.6252 28.361 25.7808C27.6867 25.8974 27.0123 26.0335 26.338 26.1308C25.9719 26.1891 25.6251 26.1502 25.4902 26.0335C23.6598 24.5752 21.6368 24.0307 19.267 24.3613C17.8027 24.5752 16.743 24.3807 15.8182 23.7001C15.375 23.4279 14.9126 23.214 14.4117 23.1168C13.1978 22.8057 12.4464 23.0974 11.6757 24.1668C11.5409 24.3418 11.3289 24.4585 11.117 24.4779C9.09396 24.6724 7.30213 25.4696 5.66443 26.928C5.08642 27.4336 4.91301 27.9975 5.10568 28.6391C5.22129 29.0669 5.10568 29.3975 4.72034 29.7475C4.23867 30.2142 3.77626 30.7198 3.37165 31.2253C2.94777 31.7114 2.92851 32.217 3.35238 32.8004C3.94966 33.6365 4.52767 34.5115 5.06715 35.3476L5.29835 35.6976C5.70296 36.3393 6.30024 36.5338 6.97459 36.2615C7.20579 36.1838 7.437 36.0671 7.62967 35.9115C8.40035 35.1726 9.17103 35.1337 10.1344 35.7949C11.117 36.4754 12.1574 36.3977 13.2171 35.581C13.641 35.2504 14.2383 35.1532 14.8548 35.3282C15.5099 35.5032 16.0686 35.9504 16.2998 36.4949C16.8393 37.7588 17.3981 39.0227 17.9375 40.2672C18.188 40.8311 18.4385 41.4144 18.689 41.9783C18.4385 41.9783 18.1687 41.9589 17.9183 41.9589C17.1283 41.9395 16.3962 41.9395 15.6255 41.8811C15.1631 41.8617 14.7007 41.8033 14.2383 41.745C13.5639 41.6672 12.8703 41.5894 12.1767 41.5894C10.6161 41.5894 9.44077 42.2117 8.78569 43.4173C8.43888 44.0978 8.16914 44.7979 8.01501 45.5368C7.47553 47.6562 7.91867 49.5813 9.3059 51.273C9.71051 51.7786 10.4619 52.0119 11.117 51.8563C11.5987 51.7397 11.9455 51.4286 12.0418 51.0008C12.0804 50.8258 12.1382 50.6508 12.196 50.4563C12.4464 49.5813 12.7547 48.5702 11.8684 47.5785C11.5794 47.2479 11.4831 46.8396 11.6179 46.4507C11.7721 46.0034 12.196 45.6534 12.7162 45.5368C13.1593 45.4395 13.641 45.4395 14.0649 45.5562C15.0475 45.8479 16.0301 46.1784 16.9742 46.4896C18.1495 46.8785 19.3826 47.2674 20.5964 47.6174C22.1185 48.0452 23.6791 48.434 25.1819 48.8035C25.9334 48.9785 26.6848 49.173 27.4362 49.3674C27.6867 49.4257 28.0527 49.4841 28.3032 49.2896C28.4959 49.1341 28.6115 48.8813 28.6307 48.5118C28.6693 47.7535 28.7464 46.9951 28.8234 46.2562C28.8812 45.6923 28.9198 45.109 28.9776 44.5256C28.9968 44.3506 28.9968 44.1951 28.9968 44.0201C29.3244 45.284 29.517 46.5285 29.2473 47.8118C29.1317 48.3563 29.3629 48.7063 29.9024 48.8618C30.5189 49.0368 31.1547 49.2507 31.7713 49.4257C33.2163 49.873 34.6999 50.3591 36.222 50.6119C41.4241 51.5063 46.7418 52.323 51.8668 53.1203C53.7742 53.4119 55.6817 53.7036 57.5891 54.0147C58.1864 54.112 58.7644 54.1897 59.3617 54.287C59.6314 54.3258 59.9204 54.3647 60.1902 54.4036L60.3828 54.4231L60.4599 53.9175L42.0599 49.2507C43.2159 49.3868 44.3527 49.5424 45.3738 49.6785C47.05 49.9119 48.9575 50.1646 50.9035 49.7952C52.387 49.5424 53.9091 49.4841 55.4119 49.5813C59.169 49.7952 62.0976 51.4091 64.1592 54.4036C64.9299 55.5314 65.7198 56.6787 66.4134 57.8648C67.2612 59.3232 68.4943 60.3538 70.1705 61.0149C70.8448 61.3066 71.5577 61.5594 72.2899 61.7344C74.3322 62.1816 77.0488 62.7455 79.804 63.2511C80.8445 63.4261 81.8463 63.8927 82.6555 64.5928C84.852 66.4206 86.5668 68.6567 88.2815 70.9707C89.1678 72.1568 90.1504 73.4013 91.4028 74.8402C91.6725 75.1513 92.0579 75.3263 92.4432 75.3263C92.501 75.3263 92.5588 75.3263 92.6166 75.3069C93.0405 75.2486 93.4066 74.9958 93.5992 74.6263C93.9653 73.9069 93.946 73.2068 93.58 72.5846C93.5607 72.5457 93.5222 72.5068 93.5029 72.4485C93.4451 72.3513 93.3295 72.1957 93.3488 72.1179C93.4644 71.3012 93.002 70.7957 92.5203 70.3679C92.2891 70.154 92.0386 69.9012 91.8267 69.6873C91.5569 69.4151 91.2872 69.1429 90.9982 68.8706C88.8595 66.9845 87.164 64.5733 86.1043 61.9288L86.0851 61.9094C85.8924 61.5788 85.6034 61.326 85.2566 61.1899C81.9812 59.8482 78.6287 58.4871 75.3919 57.1842L73.523 56.4259L107.529 65.0011L107.105 64.515C106.932 64.3011 106.682 64.165 106.431 64.1066C104.196 63.3872 101.98 62.6483 99.7454 61.9288C92.3854 59.5371 84.7942 57.0481 77.2993 54.6564C76.047 54.2675 75.6038 53.7425 75.6231 52.7119C75.6231 52.0314 75.1799 51.8175 74.7561 51.6813C72.9064 51.0591 71.0375 50.4174 69.2264 49.7757L64.4097 48.1035L118.878 62.2983L119.07 62.3371L119.128 62.1427C119.147 62.1038 119.147 62.0455 119.167 62.0066L119.224 61.8316L61.8279 43.2034ZM60.5948 46.7423L60.4599 47.209L69.0723 50.1841C70.8834 50.8063 72.7523 51.4675 74.6019 52.0897C75.0258 52.2258 75.2185 52.3619 75.1992 52.7508C75.1799 54.2481 76.124 54.7536 77.1452 55.0648C84.6401 57.4565 92.2505 59.926 99.5913 62.3371C100.901 62.7649 102.192 63.1927 103.502 63.6205L71.9431 55.6675L71.7697 55.6287L71.5963 56.1148L72.0201 56.2898C72.1935 56.3676 72.3862 56.4453 72.5596 56.5231L75.1992 57.5926C78.4361 58.8954 81.7693 60.2565 85.0639 61.5982C85.3337 61.6955 85.5456 61.8899 85.6805 62.1233C86.7787 64.8261 88.5127 67.2761 90.6899 69.2012C90.9789 69.454 91.2486 69.7262 91.4991 69.9984C91.7303 70.2318 91.9615 70.4651 92.212 70.6984C92.6551 71.1068 93.002 71.4762 92.9056 72.1179C92.8671 72.3318 93.002 72.5457 93.1176 72.7207C93.1368 72.7596 93.1754 72.7985 93.1946 72.8374C93.5029 73.3429 93.5029 73.8874 93.1946 74.4902C93.0598 74.743 92.8093 74.918 92.5203 74.9569C92.1927 74.9958 91.8652 74.8791 91.6533 74.6069C90.4202 73.1679 89.4376 71.9429 88.5513 70.7568C86.8172 68.4234 85.1025 66.1678 82.8675 64.3011C82.0005 63.5622 80.96 63.076 79.8426 62.8816C77.1066 62.376 74.39 61.8121 72.3477 61.3649C71.6541 61.1899 70.9604 60.9566 70.2861 60.6649C68.6869 60.0426 67.5117 59.051 66.7217 57.6898C66.0281 56.4842 65.2189 55.3175 64.4482 54.2092C62.3095 51.1174 59.2654 49.4257 55.4119 49.2118C54.9303 49.173 54.4679 49.1535 53.9862 49.1535C52.9265 49.1535 51.8668 49.2507 50.8071 49.4257C48.9189 49.7952 47.05 49.5424 45.3931 49.3091C43.6012 49.0563 41.5204 48.7841 39.4588 48.6285L39.401 49.0174L57.724 53.7231C57.6662 53.7231 57.6084 53.7036 57.5506 53.7036C55.6432 53.4119 53.7357 53.1008 51.8283 52.8091C46.7032 52.0119 41.3855 51.1952 36.1834 50.3008C34.6999 50.048 33.2163 49.5813 31.7905 49.1341C31.174 48.9396 30.5382 48.7452 29.9024 48.5507C29.5556 48.4535 29.4592 48.2979 29.517 47.9674C29.8831 46.159 29.3822 44.3895 28.9005 42.6978L28.5344 41.4339L28.4959 42.7172C28.4959 42.9117 28.4959 43.1061 28.4766 43.3006C28.4766 43.7089 28.4573 44.1367 28.4381 44.5645C28.3995 45.1479 28.3417 45.7312 28.2839 46.2951C28.2069 47.034 28.1491 47.8118 28.0913 48.5507C28.072 48.8035 28.0142 48.9785 27.9179 49.0368C27.8215 49.1146 27.6289 49.1146 27.3784 49.0368C26.627 48.8424 25.8756 48.6674 25.1241 48.4729C23.6213 48.1035 22.0607 47.7146 20.5386 47.2868C19.3248 46.9368 18.1109 46.5479 16.9356 46.159C15.9723 45.8479 14.9897 45.5173 14.0071 45.2256C13.5061 45.0895 12.9666 45.0895 12.4657 45.2062C11.7913 45.3423 11.2711 45.7895 11.0592 46.3729C10.8858 46.8979 11.0014 47.4618 11.3867 47.909C12.1189 48.7452 11.8877 49.5619 11.6372 50.4174C11.5794 50.6119 11.5216 50.7869 11.4831 50.9813C11.3867 51.3508 11.0592 51.4869 10.8473 51.5452C10.3271 51.6619 9.74904 51.4869 9.44077 51.098C8.13061 49.5035 7.726 47.6951 8.22694 45.7118C8.38108 45.0117 8.63155 44.3117 8.95909 43.6895C9.69124 42.3478 11.0207 42.0756 12.0033 42.0756C12.6776 42.0756 13.352 42.1533 14.0263 42.2311C14.4887 42.2895 14.9704 42.3478 15.4328 42.3672C16.2035 42.4061 16.9742 42.4256 17.7449 42.445C18.0724 42.445 18.3807 42.4645 18.7082 42.4645L18.7853 42.5228L18.9009 42.4256C18.9394 42.4061 18.978 42.3284 18.9972 42.2506L19.0743 42.0756H18.9587C18.689 41.4533 18.3999 40.8116 18.1302 40.1894C17.5907 38.9644 17.032 37.681 16.4925 36.4366C16.2035 35.7754 15.5677 35.2504 14.7777 35.0365C14.0456 34.8421 13.3327 34.9587 12.8125 35.3671C11.8877 36.0865 11.0207 36.1449 10.1922 35.581C9.0747 34.8226 8.11134 34.8615 7.20579 35.7171C7.05166 35.8338 6.87825 35.931 6.66631 35.9893C6.1461 36.1838 5.76076 36.0671 5.45249 35.581L5.22129 35.231C4.66254 34.3754 4.1038 33.5004 3.48725 32.6642C3.17898 32.2365 3.17898 31.9253 3.48725 31.5753C3.89186 31.0698 4.35427 30.5836 4.81668 30.1364C5.31762 29.6892 5.49102 29.1836 5.31762 28.6197C5.16348 28.1141 5.31762 27.7058 5.76076 27.3169C7.34066 25.9169 9.05543 25.1391 11.0014 24.9641C11.3289 24.9252 11.6179 24.7696 11.8299 24.4974C12.5042 23.5446 13.1015 23.3112 14.1612 23.6029C14.6236 23.7001 15.0475 23.8752 15.4328 24.1279C16.4347 24.8668 17.5715 25.0807 19.1514 24.8474C21.4056 24.5168 23.3323 25.0418 25.0663 26.4224C25.3939 26.6947 25.9912 26.6363 26.2224 26.5974C26.8967 26.5002 27.5903 26.3641 28.2647 26.2474C29.2088 26.0724 30.1721 25.8974 31.1355 25.7808C31.9832 25.6641 32.8502 25.9169 33.698 26.5197C33.9677 26.7141 34.2567 26.8891 34.5265 27.0836C34.8925 27.3363 35.2779 27.5891 35.644 27.8614L32.2337 27.3363L32.0988 27.8419L49.2658 33.3837L32.1566 29.3781L31.9832 29.3392L31.8483 29.7475L36.6073 31.167C36.7614 31.2059 36.8963 31.2642 37.0504 31.3225C37.4165 31.4392 37.7826 31.5753 38.1679 31.6531C38.8808 31.8281 39.4974 32.217 39.979 32.7615C40.3258 33.1115 40.769 33.3643 41.2507 33.4615C47.3583 34.6671 53.5623 35.8726 59.67 37.0393C61.7315 37.4282 64.1207 37.8755 66.4905 38.206C68.5906 38.4977 70.3632 37.8366 71.9238 36.1643C74.4285 33.5198 76.625 30.5836 78.4553 27.4336C80.5169 23.8168 80.883 19.8306 80.9986 16.7583C81.0371 14.8527 81.1913 12.9277 81.4803 11.0221C81.75 9.31093 82.7711 7.872 84.6979 6.51086C85.6227 5.84974 86.8365 5.67473 87.9155 6.06363C88.4742 6.23863 88.8403 6.53031 88.9559 6.88031C89.0715 7.23032 88.9751 7.65811 88.6476 8.12479C88.2815 8.6498 87.8769 9.17481 87.4916 9.69982C87.1255 10.2054 86.7209 10.711 86.3741 11.236C85.43 12.5388 84.9098 14.0749 84.8905 15.6889C84.852 18.5472 84.4088 21.5418 83.484 25.1002C82.9253 27.2391 81.9041 29.3197 80.1316 31.8281C78.4361 34.2393 76.5286 36.5143 74.4285 38.556C74.178 38.8088 73.9468 39.0616 73.6964 39.3338C73.5808 39.47 73.4459 39.6061 73.311 39.7616L73.1184 39.9755L97.2407 49.4452L64.4289 40.1116L64.2748 40.5978L68.9567 42.3867C69.3613 42.5422 69.7852 42.6978 70.1898 42.8534C71.2302 43.2617 72.3091 43.67 73.3688 44.0395C74.0432 44.2728 74.3129 44.584 74.2936 45.2062C74.2936 45.4201 74.3129 45.6534 74.3514 45.9062C74.3514 45.9451 74.3707 45.984 74.3707 46.0423L57.2038 41.6283L57.0689 42.095L114.832 60.9177L60.5948 46.7423Z" fill="#131413"/>
<path d="M7.99582 43.7475L8.05362 43.3975L7.72608 43.5141C7.22514 43.7086 6.7242 43.903 6.22325 44.078C5.04797 44.5058 3.93048 44.9142 2.87079 45.4781C2.00377 45.9253 1.29089 46.7809 0.674347 47.5392L0.597278 47.6364C0.231205 48.1226 0.0385341 48.7059 0 49.3282C0.019267 49.8143 0.231205 50.281 0.635812 50.5726C0.770682 50.6699 0.924818 50.6893 1.09822 50.6893C1.25236 50.6893 1.42576 50.6699 1.59916 50.631C1.71477 50.6115 1.83037 50.5921 1.9267 50.5921C2.02304 50.5921 2.10011 50.5532 2.17718 50.5337C2.23498 50.5143 2.29278 50.4948 2.33131 50.4948C3.4488 50.6893 3.94974 50.5726 4.46995 49.542C4.93236 48.6087 5.66451 48.1226 6.82053 47.9281C7.07101 47.8698 7.28294 47.6948 7.39854 47.4614L7.41781 47.4226C7.57195 46.567 7.70682 45.7114 7.86095 44.7197C7.89949 44.428 7.93802 44.0975 7.99582 43.7475ZM7.45635 44.6808C7.30221 45.6531 7.16734 46.4892 7.0132 47.3448C6.9554 47.4614 6.85907 47.5392 6.74347 47.5781C5.47184 47.792 4.64336 48.3559 4.10388 49.4059C3.68001 50.2421 3.37173 50.3198 2.38911 50.1448C2.25424 50.1254 2.13864 50.1643 2.04231 50.2032C1.98451 50.2226 1.9267 50.2421 1.88817 50.2421C1.77257 50.2421 1.65697 50.2615 1.54136 50.281C1.29089 50.3198 1.00189 50.3587 0.886284 50.281C0.597278 50.0476 0.423875 49.6976 0.404608 49.3476C0.423875 48.8226 0.597278 48.317 0.905551 47.8892L0.982619 47.792C1.61843 47.0337 2.25424 46.2559 3.06346 45.8281C4.10388 45.2836 5.2021 44.8753 6.37739 44.4475C6.76273 44.3114 7.16734 44.1558 7.57195 44.0003C7.51415 44.253 7.49488 44.4669 7.45635 44.6808Z" fill="#131413"/>
<path d="M79.361 65.3904C75.7003 64.4765 72.001 63.5626 68.3595 62.6681C67.4347 62.4348 66.4713 62.182 65.5658 61.9487C63.4272 61.3848 61.1922 60.8014 58.9765 60.4125C55.624 59.8097 52.1752 59.3236 48.8613 58.8569C47.474 58.6625 46.0483 58.468 44.6418 58.2542C43.7362 58.118 42.8307 58.0014 41.9251 57.8653L40.4416 57.6514L40.4223 57.8458C40.4223 57.8847 40.403 57.9236 40.403 57.9625L40.3645 58.1569L80.9216 66.2654L80.1895 65.721C79.939 65.5654 79.65 65.4293 79.361 65.3904ZM45.5859 58.7792C46.6648 58.9347 47.7438 59.0903 48.8035 59.2458C52.1174 59.7125 55.5469 60.1986 58.9187 60.8014C61.1151 61.1903 63.3308 61.7737 65.4695 62.3376C66.3943 62.5709 67.3384 62.8237 68.2824 63.057C70.3248 63.5626 72.4056 64.0682 74.4672 64.5932L45.5859 58.7792Z" fill="#131413"/>
<path d="M45.3354 56.7369C46.3758 56.873 47.4355 57.0091 48.4759 57.1452L49.6127 57.2813L49.6898 56.7758L28.2455 52.284L28.0529 52.2451L27.9373 52.7701L28.1107 52.8285C28.6501 53.0035 29.1896 53.159 29.7291 53.334C30.9622 53.7229 32.2338 54.1313 33.5054 54.5007C33.833 54.5979 34.1605 54.6952 34.4881 54.7924C35.856 55.2007 37.2818 55.6285 38.7075 55.8813C40.2296 56.1535 41.7903 56.3285 43.3124 56.5035C43.9674 56.5619 44.6611 56.6397 45.3354 56.7369ZM34.5844 54.4035C34.2568 54.3063 33.9293 54.209 33.6018 54.1118C32.5806 53.8202 31.5402 53.4896 30.5383 53.1785L46.029 56.4258C45.8171 56.4063 45.6051 56.3674 45.3932 56.348C44.7189 56.2702 44.0252 56.1924 43.3509 56.1146C41.8481 55.9396 40.2874 55.7646 38.7846 55.4924C37.3588 55.2202 35.9523 54.8118 34.5844 54.4035Z" fill="#131413"/>
<path d="M13.6219 46.0426C13.3522 45.9843 13.0824 45.9843 12.832 46.0232C12.62 46.0426 12.2347 46.1399 12.0613 46.4121C12.0035 46.5288 11.9264 46.7038 12.0228 46.976C12.1576 47.3649 12.5815 47.8316 12.9668 47.8899C13.988 48.0455 15.0477 48.1621 16.0688 48.2788C16.8395 48.376 17.6295 48.4538 18.4194 48.5705C19.2094 48.6871 19.9993 48.8232 20.77 48.9788C21.1168 49.0566 21.4829 49.1149 21.8297 49.1732L22.0031 49.2121L22.1572 48.5705L20.1727 47.9871C18.0341 47.3454 15.8184 46.6843 13.6219 46.0426ZM20.8278 48.5899C20.0571 48.4343 19.2479 48.2788 18.4579 48.1816C17.668 48.0843 16.878 47.9871 16.1074 47.8899C15.0862 47.7732 14.0458 47.6566 13.0246 47.501C12.832 47.4621 12.5044 47.1315 12.3888 46.8399C12.3503 46.7038 12.3696 46.6454 12.3888 46.626C12.4466 46.5288 12.6393 46.451 12.8898 46.4121C12.9861 46.3926 13.0824 46.3926 13.1788 46.3926C13.2944 46.3926 13.41 46.4121 13.5256 46.4315C15.7028 47.0732 17.9185 47.7343 20.0764 48.3566L20.9241 48.6093C20.8856 48.5899 20.8663 48.5899 20.8278 48.5899Z" fill="#131413"/>
<path d="M6.62792 29.242L6.57012 29.2614C6.37744 29.3587 6.33891 29.6114 6.30038 29.9226C6.28111 30.0587 6.26184 30.1948 6.24258 30.3309L6.14624 30.7393L8.59316 29.4364L8.36195 29.242C7.70687 28.6975 7.09033 29.0087 6.62792 29.242Z" fill="#131413"/>
<path d="M13.8916 24.2061C13.1209 24.2255 12.0805 24.8866 11.6181 25.6839L11.3098 26.1894L12.3502 25.7616C13.0824 25.47 13.5255 25.3922 13.7953 25.5478C14.065 25.6839 14.2769 26.0728 14.4696 26.7922C14.6237 27.3756 14.6623 27.9978 14.6815 28.5812C14.7008 28.8534 14.7201 29.1256 14.7393 29.3978L14.7971 29.884L15.1054 29.4951C16.088 28.2117 15.8568 25.5672 14.6623 24.4977C14.4503 24.3227 14.1806 24.2255 13.8916 24.2061ZM15.1054 28.6978C15.1054 28.6589 15.1054 28.6006 15.1054 28.5617C15.0669 27.9395 15.0284 27.2978 14.8742 26.695C14.643 25.8394 14.3925 25.3922 13.9879 25.1977C13.8338 25.12 13.6604 25.0811 13.4677 25.0811C13.198 25.0811 12.8704 25.1589 12.4466 25.3144C12.8897 24.9255 13.4677 24.6338 13.8916 24.6144C14.0843 24.6338 14.2769 24.6922 14.4118 24.8283C15.2788 25.5866 15.5678 27.4922 15.1054 28.6978Z" fill="#131413"/>
</g>
<defs>
<clipPath id="clip0">
<rect width="119.167" height="69.8266" fill="white" transform="translate(0 5.5)"/>
</clipPath>
</defs>
</svg>
