<svg width="246" height="88" viewBox="0 0 246 88" fill="none" xmlns="http://www.w3.org/2000/svg">
<path d="M97.1667 36.9846H108.946V40.5894H102.367V48.93H107.744V52.5701H102.367V65.6111H97.1667V36.9846Z" fill="#FCFCFC"/>
<path d="M116.302 36.9846H121.891L127.622 65.6111H122.775L121.643 59.0023H116.655L115.488 65.6111H110.571L116.302 36.9846ZM121.077 55.6802L119.132 43.6641L117.186 55.6802H121.077Z" fill="#FCFCFC"/>
<path d="M138.687 65.9998C136.093 65.9998 134.147 65.2695 132.85 63.8087C131.577 62.3479 130.881 60.1685 130.763 57.2705L135.255 56.387C135.326 58.2012 135.609 59.5913 136.104 60.5573C136.623 61.4997 137.425 61.9709 138.51 61.9709C139.312 61.9709 139.901 61.7353 140.279 61.2641C140.68 60.7693 140.88 60.1096 140.88 59.285C140.88 58.1541 140.621 57.1998 140.102 56.4223C139.607 55.6213 138.817 54.7495 137.732 53.8071L134.124 50.6617C133.015 49.7193 132.178 48.7061 131.612 47.6223C131.07 46.5385 130.798 45.2427 130.798 43.7348C130.798 41.4965 131.447 39.7648 132.744 38.5396C134.065 37.2909 135.88 36.6665 138.192 36.6665C140.668 36.6665 142.437 37.3733 143.498 38.787C144.583 40.1771 145.208 42.062 145.373 44.4416L140.88 45.2191C140.809 43.6641 140.585 42.4978 140.208 41.7203C139.854 40.9193 139.147 40.5187 138.085 40.5187C137.331 40.5187 136.741 40.7779 136.317 41.2962C135.892 41.791 135.68 42.4271 135.68 43.2047C135.68 44.1235 135.857 44.901 136.211 45.5372C136.588 46.1498 137.189 46.8095 138.015 47.5163L141.588 50.6617C142.932 51.8162 143.981 53.0531 144.736 54.3725C145.491 55.6919 145.868 57.2234 145.868 58.9669C145.868 60.3334 145.561 61.5468 144.948 62.6071C144.359 63.6673 143.521 64.5037 142.437 65.1163C141.352 65.7053 140.102 65.9998 138.687 65.9998Z" fill="#FCFCFC"/>
<path d="M152.921 40.8368H148.358V36.9846H162.614V40.8368H158.157V65.6111H152.921V40.8368Z" fill="#FCFCFC"/>
<path d="M173.543 65.9998C170.949 65.9998 169.003 65.2695 167.706 63.8087C166.433 62.3479 165.737 60.1685 165.619 57.2705L170.112 56.387C170.183 58.2012 170.466 59.5913 170.961 60.5573C171.48 61.4997 172.282 61.9709 173.366 61.9709C174.168 61.9709 174.758 61.7353 175.135 61.2641C175.536 60.7693 175.736 60.1096 175.736 59.285C175.736 58.1541 175.477 57.1998 174.958 56.4223C174.463 55.6213 173.673 54.7495 172.588 53.8071L168.98 50.6617C167.871 49.7193 167.034 48.7061 166.468 47.6223C165.926 46.5385 165.655 45.2427 165.655 43.7348C165.655 41.4965 166.303 39.7648 167.6 38.5396C168.921 37.2909 170.737 36.6665 173.048 36.6665C175.524 36.6665 177.293 37.3733 178.354 38.787C179.439 40.1771 180.064 42.062 180.229 44.4416L175.736 45.2191C175.666 43.6641 175.442 42.4978 175.064 41.7203C174.711 40.9193 174.003 40.5187 172.942 40.5187C172.187 40.5187 171.598 40.7779 171.173 41.2962C170.749 41.791 170.536 42.4271 170.536 43.2047C170.536 44.1235 170.713 44.901 171.067 45.5372C171.444 46.1498 172.046 46.8095 172.871 47.5163L176.444 50.6617C177.788 51.8162 178.838 53.0531 179.592 54.3725C180.347 55.6919 180.724 57.2234 180.724 58.9669C180.724 60.3334 180.418 61.5468 179.805 62.6071C179.215 63.6673 178.378 64.5037 177.293 65.1163C176.208 65.7053 174.958 65.9998 173.543 65.9998Z" fill="#FCFCFC"/>
<path d="M183.886 36.9846H188.237L190.608 55.5388L193.579 37.0553H197.117L200.194 55.5388L202.529 36.9846H206.845L202.847 65.6111H198.602L195.419 46.4207L192.27 65.6111H187.919L183.886 36.9846Z" fill="#FCFCFC"/>
<path d="M214.618 36.9846H220.207L225.938 65.6111H221.092L219.96 59.0023H214.972L213.804 65.6111H208.887L214.618 36.9846ZM219.394 55.6802L217.448 43.6641L215.502 55.6802H219.394Z" fill="#FCFCFC"/>
<path d="M229.925 36.9846H238.344C243.226 36.9846 245.667 39.6941 245.667 45.1131C245.667 50.2965 243.108 52.8882 237.99 52.8882H235.125V65.6111H229.925V36.9846ZM237.141 49.2127C238.556 49.2127 239.512 48.9182 240.007 48.3292C240.502 47.7166 240.75 46.6328 240.75 45.0778C240.75 43.9468 240.667 43.0869 240.502 42.4978C240.337 41.8852 239.995 41.4258 239.476 41.1195C238.981 40.8132 238.203 40.6601 237.141 40.6601H235.125V49.2127H237.141Z" fill="#FCFCFC"/>
<g clip-path="url(#clip0)">
<path d="M118.897 62.1625C118.916 62.1236 118.916 62.0653 118.935 62.0264L57.3195 41.9398C57.3195 41.9009 57.3387 41.8815 57.3387 41.8426L74.602 46.276C74.5635 45.8288 74.4864 45.4982 74.4864 45.1871C74.4864 44.4288 74.1203 44.0788 73.4267 43.8454C71.9431 43.3399 70.4788 42.7565 69.0145 42.1926C67.5117 41.6287 66.0089 41.0454 64.5061 40.4814C64.5253 40.4426 64.5253 40.4037 64.5446 40.3648L99.8996 50.4761C99.9189 50.4372 99.9189 50.3983 99.9382 50.3595L73.446 39.9564C73.8699 39.5092 74.1974 39.1203 74.5635 38.7703C76.6828 36.6897 78.5903 34.4341 80.2858 32.0035C81.7501 29.9034 83.0217 27.7062 83.6575 25.1978C84.4667 22.106 85.0255 18.956 85.064 15.7475C85.0833 14.1725 85.5842 12.6558 86.509 11.3919C87.2412 10.3419 88.0504 9.35018 88.7825 8.30015C89.534 7.23068 89.2064 6.31677 87.9348 5.92788C86.798 5.53898 85.5457 5.71398 84.5438 6.414C82.9254 7.56125 81.5574 9.01961 81.2491 11.0613C80.9794 12.9669 80.806 14.892 80.7674 16.817C80.6326 20.531 80.1124 24.1283 78.2627 27.395C76.4516 30.5451 74.2552 33.4618 71.7697 36.0869C70.2669 37.6814 68.5714 38.3425 66.5098 38.0508C64.2363 37.7397 61.9628 37.3314 59.7086 36.8841C53.5624 35.7175 47.4162 34.5119 41.2893 33.3063C40.8461 33.2091 40.4415 32.9757 40.114 32.6452C39.613 32.0618 38.9387 31.6535 38.2065 31.4785C37.6863 31.3618 37.1854 31.1673 36.6652 30.9923C35.1816 30.5062 33.6981 30.0201 32.1952 29.534C32.1952 29.5145 32.2145 29.4951 32.2145 29.4756L51.5393 34.0063C51.5586 33.948 51.5779 33.8702 51.5971 33.8119L32.4457 27.6284C32.465 27.5895 32.465 27.5312 32.4842 27.4923L36.434 28.0951C35.6248 27.395 34.7385 26.8895 33.91 26.3061C33.0815 25.7228 32.176 25.4117 31.2126 25.5283C29.5749 25.7422 27.9372 26.0922 26.2995 26.345C25.972 26.4033 25.5288 26.4033 25.2976 26.2089C23.5058 24.77 21.4828 24.245 19.2285 24.595C17.9761 24.7894 16.7623 24.7116 15.6448 23.9144C15.221 23.6422 14.7778 23.4672 14.2961 23.3505C13.1401 23.0394 12.4658 23.3505 11.7722 24.3227C11.5988 24.5366 11.3483 24.6728 11.0785 24.7116C9.01697 24.9061 7.26367 25.7617 5.72231 27.1228C5.27917 27.5312 5.0287 27.9978 5.22137 28.6395C5.3755 29.1451 5.2021 29.5729 4.77822 29.9423C4.29655 30.409 3.85341 30.8951 3.42953 31.4007C3.04419 31.8479 3.08272 32.2368 3.42953 32.7229C4.10388 33.6757 4.73969 34.648 5.3755 35.6202C5.74158 36.1841 6.22325 36.3397 6.8398 36.1063C7.05173 36.048 7.24441 35.9313 7.41781 35.7952C8.30409 34.9397 9.17111 34.9785 10.1537 35.6591C11.1171 36.3202 12.0804 36.1647 13.0053 35.4452C14.0649 34.648 15.876 35.2119 16.3963 36.4369C17.2055 38.3425 18.0532 40.2287 18.8817 42.1343C18.901 42.1537 18.8432 42.212 18.8624 42.1926C17.7449 42.1537 16.6275 42.1732 15.5292 42.0954C14.3732 42.0176 13.2365 41.8037 12.0804 41.8037C10.751 41.8037 9.53718 42.2898 8.86284 43.5343C8.51603 44.1954 8.26556 44.8954 8.11142 45.6149C7.59121 47.6761 8.03435 49.5428 9.36378 51.1761C10.0381 51.9928 11.541 51.915 11.7529 51.0011C12.0034 49.9511 12.6006 48.8622 11.618 47.7538C10.8281 46.8594 11.4061 45.6149 12.5814 45.3816C13.0631 45.2649 13.564 45.2843 14.0264 45.401C16.2036 46.0621 18.3615 46.8205 20.5579 47.4622C22.8122 48.1039 25.1242 48.6289 27.3977 49.2122C27.995 49.3678 28.3226 49.2317 28.3611 48.5316C28.4382 47.1899 28.5923 45.8677 28.6886 44.5454C28.7272 43.9232 28.7272 43.301 28.7464 42.6982C29.2281 44.4093 29.729 46.1205 29.363 47.89C29.2666 48.3761 29.4978 48.59 29.8832 48.7066C31.9833 49.3094 34.0449 50.0872 36.1835 50.4567C43.293 51.6623 50.4219 52.7317 57.5507 53.8401C58.4177 53.9762 59.2847 54.0929 60.1517 54.229C60.1517 54.1901 60.171 54.1318 60.171 54.0929C53.2734 52.3234 46.3758 50.5539 39.4782 48.7844C41.4627 48.94 43.4279 49.1928 45.3932 49.465C47.2043 49.7178 48.9961 49.9317 50.865 49.5817C52.3678 49.3289 53.8899 49.2511 55.412 49.3678C59.1306 49.5622 62.1555 51.1373 64.3134 54.2679C65.1033 55.4151 65.874 56.5429 66.5676 57.7485C67.4347 59.2263 68.687 60.1986 70.2284 60.8208C70.9027 61.1125 71.5963 61.3458 72.3092 61.5208C74.7947 62.0653 77.2994 62.5709 79.8041 63.0375C80.883 63.232 81.9042 63.6987 82.752 64.4181C84.9677 66.2654 86.7017 68.5404 88.4165 70.8349C89.3991 72.1572 90.4395 73.4405 91.5185 74.685C92.0579 75.3267 93.0598 75.1906 93.3874 74.51C93.6764 73.9072 93.7342 73.285 93.3681 72.6628C93.2525 72.4683 93.0791 72.2544 93.0984 72.0794C93.1947 71.3599 92.8093 70.9322 92.3277 70.4849C91.8075 69.9988 91.3258 69.4543 90.7863 68.9877C88.6284 67.0626 86.9329 64.6709 85.8347 61.9681C85.6805 61.6764 85.4108 61.4625 85.1025 61.3458C80.9408 59.6347 76.7792 57.9624 72.6175 56.2707C72.3477 56.154 72.0973 56.0568 71.8275 55.9401C71.8468 55.9012 71.8661 55.8429 71.8661 55.804L106.932 64.6709C106.778 64.4959 106.585 64.3792 106.354 64.3209C96.6435 61.1514 86.9522 57.9819 77.2223 54.8707C76.047 54.5012 75.3919 53.9762 75.4112 52.7317C75.4112 52.2067 75.1029 52.0317 74.6791 51.8956C72.2129 51.0595 69.766 50.2039 67.2998 49.3483L60.6912 47.0733C60.6912 47.0344 60.7105 47.0149 60.7297 46.976L118.897 62.1625ZM6.43519 30.3896C6.53153 29.9618 6.49299 29.5145 6.64713 29.4368C7.10954 29.2034 7.64901 28.9117 8.24629 29.4173L6.43519 30.3896ZM14.9512 29.3979C14.8742 28.5423 14.8934 27.6089 14.6622 26.7534C14.2576 25.1978 13.7374 24.9839 12.2731 25.5867C12.119 25.645 11.9648 25.7033 11.7722 25.7811C12.196 25.0811 13.1787 24.42 13.8915 24.4005C14.1227 24.42 14.3539 24.4977 14.5273 24.6728C15.6641 25.6644 15.8568 28.2117 14.9512 29.3979Z" fill="#2BA55D"/>
<path d="M0.751371 47.773C0.423831 48.2203 0.231161 48.7842 0.192627 49.3481C0.211894 49.7759 0.404564 50.1842 0.732104 50.437C1.00184 50.612 1.48352 50.4564 1.86886 50.437C2.023 50.4176 2.17713 50.3009 2.312 50.3398C3.37169 50.5148 3.7763 50.4176 4.23871 49.4842C4.77818 48.4147 5.62593 47.9481 6.72415 47.7536C6.91682 47.7147 7.07096 47.5786 7.1673 47.4036C7.37923 46.2758 7.55264 45.1285 7.78384 43.7285C6.08834 44.3896 4.45064 44.8952 2.94781 45.673C2.10006 46.1202 1.40645 46.9953 0.751371 47.773Z" fill="#2BA55D"/>
<path d="M68.3207 62.843C65.1995 62.0847 62.1168 61.1513 58.957 60.5874C54.198 59.7319 49.4005 59.1291 44.6223 58.429C43.2929 58.2346 41.9634 58.0402 40.634 57.8457C40.634 57.8846 40.6147 57.9235 40.6147 57.9624L80.0736 65.8764C79.8424 65.7209 79.592 65.6042 79.3222 65.5459C75.6422 64.6708 71.9815 63.7569 68.3207 62.843Z" fill="#2BA55D"/>
<path d="M49.4393 57.0485L49.4585 56.9319L28.1877 52.479L28.1492 52.6346C29.941 53.1985 31.7328 53.7818 33.5439 54.3068C35.2587 54.8124 36.9735 55.3568 38.7075 55.6874C40.9039 56.0957 43.1197 56.2708 45.3354 56.543C46.7226 56.6985 48.0713 56.8735 49.4393 57.0485Z" fill="#2BA55D"/>
<path d="M12.8511 46.2176C12.4658 46.276 12.0419 46.451 12.196 46.8982C12.3116 47.2288 12.6777 47.6371 12.986 47.6955C14.7971 47.9677 16.6082 48.1232 18.4193 48.376C19.5753 48.5316 20.7121 48.7844 21.8488 48.9788L21.9259 48.6872C19.1514 47.8705 16.377 47.0343 13.5833 46.2176C13.3521 46.1788 13.1016 46.1788 12.8511 46.2176Z" fill="#2BA55D"/>
<path d="M14.9513 29.3782C14.8742 28.5226 14.8935 27.5893 14.6623 26.7337C14.2577 25.1781 13.7375 24.9642 12.2732 25.567C12.119 25.6253 11.9649 25.6837 11.7722 25.7614C12.1961 25.0614 13.1787 24.4003 13.8916 24.3809C14.1228 24.4003 14.354 24.4975 14.5274 24.6531C15.6642 25.6642 15.8568 28.2115 14.9513 29.3782Z" fill="#237745"/>
<path d="M25.0087 30.9727C24.7775 31.031 24.5656 31.1088 24.3536 31.206C24.2573 31.2643 24.2188 31.3616 24.2188 31.4782C24.2958 31.731 24.4114 31.9643 24.527 32.1977C24.5848 32.256 24.6619 32.2755 24.739 32.2366C25.028 32.081 25.2592 31.8088 25.3748 31.4977C25.4518 31.2254 25.317 31.031 25.0087 30.9727Z" fill="#131413"/>
<path d="M22.6774 29.1647C22.8893 29.1258 23.1013 29.0869 23.3132 29.0091C23.4095 28.9897 23.4866 28.9119 23.5251 28.8341C23.6215 28.6591 23.5444 28.4452 23.371 28.348C23.2169 28.2508 23.0435 28.1535 22.8508 28.0952C22.8508 28.0952 22.8315 28.0757 22.8123 28.0757C22.6774 28.0174 22.5233 28.0952 22.4655 28.2313C22.3884 28.3674 22.3306 28.5035 22.2921 28.6591C22.1957 29.0674 22.2343 29.1258 22.6774 29.1647Z" fill="#131413"/>
<path d="M21.8296 32.2755C21.6947 32.1783 21.5406 32.1005 21.3864 32.0422C21.3672 32.0422 21.3672 32.0227 21.3479 32.0227C21.2323 31.9839 21.0974 32.0422 21.0589 32.1589C20.9818 32.3339 20.924 32.5283 20.8855 32.7228C20.8662 32.8394 20.924 32.9172 21.0396 32.9172C21.0974 32.9172 21.1745 32.9366 21.2323 32.9366V32.9561C21.4057 32.9366 21.5984 32.8978 21.7718 32.8394C21.8488 32.82 21.9259 32.7616 21.9644 32.6839C22.0415 32.5478 21.9837 32.3533 21.8296 32.2755Z" fill="#131413"/>
<path d="M20.5 29.6893C20.3266 29.7671 20.1725 29.8643 20.0376 30.0004C19.9798 30.0782 19.9605 30.1754 19.9991 30.2726C20.1147 30.4476 20.2495 30.6032 20.4037 30.7393C20.4615 30.7588 20.5385 30.7588 20.5963 30.7199C20.7312 30.506 20.8468 30.2726 20.9239 30.156C20.9624 29.7476 20.7697 29.5726 20.5 29.6893Z" fill="#131413"/>
<path d="M19.4789 27.0836C19.5367 27.1614 19.6138 27.2197 19.7101 27.2392C19.9028 27.2781 20.0955 27.142 20.134 26.9475C20.1918 26.7531 20.2303 26.5781 20.2496 26.3836C20.2496 26.3642 20.2496 26.3642 20.2496 26.3447C20.2689 26.1892 20.1533 26.0725 20.0184 26.053C19.8643 26.0142 19.7101 26.0142 19.556 26.0142C19.1129 26.0142 19.0936 26.0725 19.1707 26.5003C19.267 26.7142 19.3633 26.9086 19.4789 27.0836Z" fill="#131413"/>
<path d="M17.5715 29.7672C17.9569 29.6894 18.0725 29.4366 17.8991 29.2227C17.7835 29.0866 17.6486 28.9505 17.4752 28.8532C17.3789 28.8144 17.2825 28.8338 17.2054 28.8921C17.0706 29.0477 16.955 29.2421 16.8586 29.4171C16.8586 29.4949 16.8779 29.5533 16.9357 29.5921C17.1862 29.6699 17.4367 29.7283 17.5715 29.7672Z" fill="#131413"/>
<path d="M18.1497 31.9062C18.0148 31.8673 17.88 31.809 17.7451 31.7896C17.6873 31.8479 17.5524 31.8868 17.5332 31.9646C17.4946 32.1201 17.4754 32.2951 17.4946 32.4507C17.4946 32.4896 17.591 32.5868 17.6295 32.5868C17.8414 32.5479 18.0341 32.4701 18.2268 32.3729C18.2846 32.334 18.3231 32.2757 18.3424 32.2173C18.3616 32.0618 18.2653 31.9257 18.1497 31.9062Z" fill="#131413"/>
<path d="M17.6487 34.687C17.5139 34.6481 17.379 34.5898 17.2441 34.5703C17.1863 34.6286 17.0514 34.6675 17.0322 34.7453C16.9936 34.9009 16.9744 35.0759 16.9936 35.2314C16.9936 35.2703 17.09 35.3676 17.1285 35.3676C17.3404 35.3287 17.5331 35.2509 17.7258 35.1537C17.7836 35.1148 17.8221 35.0564 17.8414 34.9981C17.8607 34.862 17.7836 34.7259 17.6487 34.687Z" fill="#131413"/>
<path d="M49.6127 47.1118C49.3815 47.1702 49.1696 47.2479 48.9576 47.3452C48.8613 47.4035 48.8228 47.5007 48.8228 47.6174C48.8998 47.8702 49.0154 48.1035 49.131 48.3369C49.1888 48.3952 49.2659 48.4146 49.343 48.3757C49.632 48.2202 49.8632 47.948 49.9788 47.6368C50.0558 47.3452 49.9017 47.1507 49.6127 47.1118Z" fill="#131413"/>
<path d="M48.5531 36.0671C48.3989 35.9699 48.2255 35.8727 48.0329 35.7949C48.0329 35.7949 48.0136 35.7755 47.9943 35.7755C47.8595 35.7171 47.7053 35.7949 47.6475 35.931C47.5705 36.0671 47.5127 36.2032 47.4741 36.3588C47.3585 36.7866 47.3971 36.8255 47.8402 36.8838C48.0521 36.8449 48.2641 36.806 48.476 36.7282C48.5723 36.7088 48.6494 36.631 48.6879 36.5532C48.7843 36.3782 48.7265 36.1449 48.5531 36.0671Z" fill="#131413"/>
<path d="M56.2599 48.512C56.1058 48.4147 55.9323 48.3175 55.7397 48.2397L55.7204 48.2203C55.5855 48.1619 55.4314 48.2397 55.3736 48.3758C55.2965 48.512 55.2387 48.6481 55.2002 48.8036C55.0846 49.2314 55.1231 49.2703 55.5663 49.3286C55.7782 49.2898 55.9901 49.2509 56.2021 49.1731C56.2984 49.1536 56.3755 49.0759 56.414 48.9981C56.5104 48.8231 56.4526 48.6092 56.2599 48.512Z" fill="#131413"/>
<path d="M42.1369 47.3258C42.0021 47.2286 41.8479 47.1508 41.6938 47.0925C41.6745 47.0925 41.6745 47.073 41.6553 47.073C41.5397 47.0341 41.4048 47.0925 41.3663 47.2091C41.2892 47.3842 41.2314 47.5786 41.1929 47.773C41.1736 47.8897 41.2314 47.9675 41.347 47.9675C41.4048 47.9675 41.4819 47.9869 41.5397 47.9869V48.0064C41.7131 47.9869 41.9057 47.9481 42.0791 47.8897C42.1562 47.8703 42.2333 47.8119 42.2718 47.7342C42.3489 47.598 42.2911 47.4036 42.1369 47.3258Z" fill="#131413"/>
<path d="M45.085 39.2562C44.9116 39.334 44.7574 39.4312 44.6225 39.5673C44.5647 39.6451 44.5455 39.7423 44.584 39.8395C44.6996 40.0145 44.8345 40.1701 44.9886 40.3062C45.0464 40.3256 45.1235 40.3256 45.1813 40.2868C45.3162 40.0729 45.4318 39.8395 45.5088 39.7229C45.5474 39.3145 45.3547 39.1395 45.085 39.2562Z" fill="#131413"/>
<path d="M56.7607 38.3816C56.5873 38.4593 56.4332 38.5566 56.2983 38.6927C56.2405 38.7705 56.2213 38.8677 56.2598 38.9649C56.3754 39.1399 56.5103 39.2955 56.6644 39.4316C56.7222 39.451 56.7993 39.451 56.8571 39.4121C56.9919 39.1982 57.1075 38.9649 57.1846 38.8482C57.2231 38.4399 57.0112 38.2843 56.7607 38.3816Z" fill="#131413"/>
<path d="M63.928 37.5061C63.7546 37.5839 63.6004 37.6811 63.4656 37.8172C63.4078 37.895 63.3885 37.9922 63.427 38.0894C63.5426 38.2644 63.6775 38.42 63.8316 38.5561C63.8894 38.5755 63.9665 38.5755 64.0243 38.5367C64.1592 38.3228 64.2748 38.0894 64.3519 37.9727C64.3904 37.5644 64.1977 37.4088 63.928 37.5061Z" fill="#131413"/>
<path d="M42.349 36.0482C42.1948 36.0093 42.0407 36.0093 41.8866 36.0093C41.4434 36.0093 41.4242 36.0676 41.5012 36.4954C41.5976 36.6898 41.6939 36.8843 41.8095 37.0593C41.8673 37.1371 41.9444 37.1954 42.0407 37.2149C42.2334 37.2537 42.426 37.1176 42.4646 36.9232C42.5224 36.7287 42.5609 36.5537 42.5802 36.3593C42.5802 36.3398 42.5802 36.3398 42.5802 36.3204C42.5995 36.2037 42.5031 36.0676 42.349 36.0482Z" fill="#131413"/>
<path d="M39.9021 39.7422C40.2874 39.6645 40.403 39.4117 40.2296 39.1978C40.114 39.0617 39.9792 38.9256 39.8057 38.8283C39.7094 38.7894 39.6131 38.8089 39.536 38.8672C39.4011 39.0228 39.2855 39.2172 39.1892 39.3922C39.1892 39.47 39.2085 39.5284 39.2663 39.5672C39.5167 39.6645 39.7672 39.7034 39.9021 39.7422Z" fill="#131413"/>
<path d="M79.0333 27.8616C78.8792 27.7643 78.7058 27.6671 78.5131 27.5893C78.5131 27.5893 78.4938 27.5699 78.4746 27.5699C78.3397 27.5116 78.1856 27.5893 78.1278 27.7254C78.0507 27.8616 77.9929 27.9977 77.9543 28.1532C77.8387 28.581 77.8773 28.6199 78.3204 28.6782C78.5324 28.6394 78.7443 28.6005 78.9563 28.5227C79.0526 28.5032 79.1297 28.4255 79.1682 28.3477C79.2838 28.1532 79.2067 27.9393 79.0333 27.8616Z" fill="#131413"/>
<path d="M80.7868 30.7007C80.8831 30.5257 80.8061 30.3118 80.6327 30.2146C80.4785 30.1174 80.3051 30.0201 80.1125 29.9424L80.0932 29.9229C79.9583 29.8646 79.8042 29.9424 79.7464 30.0785C79.6693 30.2146 79.6115 30.3507 79.573 30.5063C79.4574 30.9341 79.4959 30.9729 79.9391 31.0313C80.151 30.9924 80.3629 30.9535 80.5749 30.8757C80.6712 30.8563 80.7483 30.7785 80.7868 30.7007Z" fill="#131413"/>
<path d="M76.837 35.6785C76.6829 35.5812 76.5095 35.484 76.3168 35.4062C76.3168 35.4062 76.2975 35.3868 76.2783 35.3868C76.1434 35.3284 75.9893 35.4062 75.9315 35.5423C75.8544 35.6785 75.7966 35.8146 75.7581 35.9701C75.6425 36.3979 75.681 36.4368 76.1241 36.4951C76.3361 36.4563 76.548 36.4174 76.7599 36.3396C76.8563 36.3201 76.9333 36.2424 76.9719 36.1646C77.0875 35.9896 77.0104 35.7757 76.837 35.6785Z" fill="#131413"/>
<path d="M70.3824 37.9148C70.2283 37.8176 70.0549 37.7203 69.8622 37.6426C69.8622 37.6426 69.8429 37.6231 69.8237 37.6231C69.6888 37.5648 69.5347 37.6426 69.4769 37.7787C69.3998 37.9148 69.342 38.0509 69.3035 38.2065C69.1879 38.6343 69.2264 38.6731 69.6695 38.7315C69.8815 38.6926 70.0934 38.6537 70.3053 38.5759C70.4017 38.5565 70.4787 38.4787 70.5173 38.4009C70.6329 38.2259 70.5558 38.012 70.3824 37.9148Z" fill="#131413"/>
<path d="M76.0084 42.6008C75.8543 42.5036 75.6808 42.4064 75.4882 42.3286C75.4882 42.3286 75.4689 42.3091 75.4496 42.3091C75.3148 42.2508 75.1606 42.3286 75.1028 42.4647C75.0258 42.6008 74.968 42.7369 74.9294 42.8925C74.8138 43.3203 74.8524 43.3592 75.2955 43.4175C75.5074 43.3786 75.7194 43.3397 75.9313 43.262C76.0277 43.2425 76.1047 43.1647 76.1433 43.0869C76.2589 42.9119 76.2011 42.698 76.0084 42.6008Z" fill="#131413"/>
<path d="M85.642 7.3472C85.7768 7.13331 85.8924 6.89997 85.9695 6.7833C85.9888 6.37495 85.7961 6.2194 85.5456 6.31662C85.3722 6.3944 85.2181 6.49162 85.0832 6.62774C85.0254 6.70552 85.0062 6.80274 85.0447 6.89997C85.1603 7.07497 85.2952 7.23053 85.4493 7.36664C85.5071 7.38609 85.5842 7.38609 85.642 7.3472Z" fill="#131413"/>
<path d="M80.5749 20.1613C80.6712 20.3558 80.7676 20.5502 80.8832 20.7252C80.941 20.803 81.018 20.8613 81.1144 20.8808C81.307 20.9197 81.4997 20.7836 81.5382 20.5891C81.596 20.3947 81.6346 20.2197 81.6538 20.0252C81.6538 20.0058 81.6538 20.0058 81.6538 19.9863C81.6731 19.8308 81.5575 19.7141 81.4226 19.6947C81.2685 19.6558 81.1144 19.6558 80.9602 19.6558C80.5364 19.6752 80.4978 19.7141 80.5749 20.1613Z" fill="#131413"/>
<path d="M84.2354 17.9251C84.0813 17.8862 83.9272 17.8862 83.773 17.8862C83.3299 17.8862 83.3106 17.9446 83.3877 18.3724C83.484 18.5668 83.5804 18.7613 83.696 18.9363C83.7538 19.014 83.8308 19.0724 83.9272 19.0918C84.1198 19.1307 84.3125 18.9946 84.351 18.8001C84.4088 18.6057 84.4474 18.4307 84.4666 18.2362C84.4666 18.2168 84.4666 18.2168 84.4666 18.1974C84.4859 18.0612 84.3703 17.9251 84.2354 17.9251Z" fill="#131413"/>
<path d="M82.9638 12.9667C83.1565 13.0056 83.3492 12.8695 83.3877 12.6751C83.4455 12.4806 83.484 12.3056 83.5033 12.1112C83.5033 12.0917 83.5033 12.0917 83.5033 12.0723C83.5226 11.9167 83.407 11.8 83.2721 11.7806C83.1179 11.7417 82.9638 11.7417 82.8097 11.7417C82.3665 11.7417 82.3473 11.8 82.4243 12.2278C82.5207 12.4223 82.617 12.6167 82.7326 12.7917C82.7904 12.8889 82.8675 12.9473 82.9638 12.9667Z" fill="#131413"/>
<path d="M86.4127 10.9253C86.432 10.7697 86.3164 10.6531 86.1815 10.6336C86.0274 10.5947 85.8732 10.5947 85.7191 10.5947C85.2759 10.5947 85.2567 10.6531 85.3337 11.0808C85.4301 11.2753 85.5264 11.4697 85.642 11.6448C85.6998 11.7225 85.7769 11.7809 85.8732 11.8003C86.0659 11.8392 86.2586 11.7031 86.2971 11.5086C86.3549 11.3142 86.3935 11.1392 86.4127 10.9447C86.4127 10.9447 86.4127 10.9447 86.4127 10.9253Z" fill="#131413"/>
<path d="M83.2335 24.2058C83.1372 24.1669 83.0408 24.1863 82.9638 24.2447C82.8289 24.4002 82.7133 24.5947 82.6169 24.7697C82.6169 24.8475 82.6362 24.9058 82.694 24.9447C82.9252 25.0225 83.1757 25.0614 83.3298 25.1002C83.7152 25.0225 83.8308 24.7697 83.6574 24.5558C83.5418 24.4197 83.3876 24.303 83.2335 24.2058Z" fill="#131413"/>
<path d="M36.2027 41.8425C36.1064 41.8036 36.0101 41.8231 35.933 41.8814C35.7981 42.0369 35.6825 42.2314 35.5862 42.4064C35.5862 42.4842 35.6055 42.5425 35.6633 42.5814C35.8945 42.6592 36.1449 42.6981 36.2991 42.737C36.6844 42.6592 36.8 42.4064 36.6266 42.1925C36.4917 42.0564 36.3569 41.9397 36.2027 41.8425Z" fill="#131413"/>
<path d="M39.9405 43.2619C39.8442 43.223 39.7478 43.2425 39.6708 43.3008C39.5359 43.4564 39.4203 43.6508 39.324 43.8258C39.324 43.9036 39.3432 43.9619 39.401 44.0008C39.6322 44.0786 39.8827 44.1175 40.0369 44.1564C40.4222 44.0786 40.5378 43.8258 40.3644 43.6119C40.2488 43.4953 40.1139 43.3592 39.9405 43.2619Z" fill="#131413"/>
<path d="M44.6995 43.4956C44.5646 43.4567 44.4298 43.3984 44.2949 43.3789C44.2371 43.4372 44.1022 43.4761 44.083 43.5539C44.0444 43.7095 44.0252 43.8845 44.0444 44.04C44.0444 44.0789 44.1408 44.1761 44.1793 44.1761C44.3912 44.1373 44.5839 44.0595 44.7766 43.9622C44.8344 43.9234 44.8729 43.865 44.8922 43.8067C44.9114 43.6511 44.8344 43.515 44.6995 43.4956Z" fill="#131413"/>
<path d="M51.5008 42.1147C51.3659 42.0758 51.231 42.0175 51.0962 41.998C51.0384 42.0564 50.9035 42.0953 50.8842 42.1731C50.8457 42.3286 50.8264 42.5036 50.8457 42.6592C50.8457 42.6981 50.942 42.7953 50.9806 42.7953C51.1925 42.7564 51.3852 42.6786 51.5778 42.5814C51.6356 42.5425 51.6742 42.4842 51.6934 42.4258C51.7127 42.2897 51.6356 42.1536 51.5008 42.1147Z" fill="#131413"/>
<path d="M59.0535 45.2456C58.9186 45.2067 58.7838 45.1484 58.6489 45.1289C58.5911 45.1872 58.4562 45.2261 58.437 45.3039C58.3984 45.4595 58.3792 45.6345 58.3984 45.79C58.3984 45.8289 58.4948 45.9261 58.5333 45.9261C58.7452 45.8872 58.9379 45.8095 59.1306 45.7122C59.1884 45.6734 59.2269 45.615 59.2462 45.5567C59.2654 45.4206 59.1884 45.2845 59.0535 45.2456Z" fill="#131413"/>
<path d="M53.4661 35.6201C53.3312 35.5812 53.1964 35.5229 53.0615 35.5034C53.0037 35.5618 52.8688 35.6006 52.8496 35.6784C52.811 35.834 52.7918 36.009 52.811 36.1645C52.811 36.2034 52.9074 36.3007 52.9459 36.3007C53.1578 36.2618 53.3505 36.184 53.5432 36.0868C53.601 36.0479 53.6395 35.9895 53.6588 35.9312C53.678 35.7951 53.601 35.659 53.4661 35.6201Z" fill="#131413"/>
<path d="M35.6634 48.3759C35.5285 48.3371 35.3936 48.2787 35.2588 48.2593C35.201 48.3176 35.0661 48.3565 35.0468 48.4343C35.0083 48.5898 34.989 48.7648 35.0083 48.9204C35.0083 48.9593 35.1046 49.0565 35.1432 49.0565C35.3551 49.0176 35.5478 48.9398 35.7404 48.8426C35.7982 48.8037 35.8368 48.7454 35.856 48.6871C35.8753 48.5315 35.779 48.3954 35.6634 48.3759Z" fill="#131413"/>
<path d="M35.0661 37.8176C35.3551 37.6621 35.5863 37.3898 35.7019 37.0787C35.779 36.8065 35.6441 36.612 35.3358 36.5537C35.1046 36.612 34.8927 36.6898 34.6808 36.7871C34.5844 36.8454 34.5459 36.9426 34.5459 37.0593C34.623 37.3121 34.7386 37.5454 34.8542 37.7788C34.912 37.8371 34.989 37.8371 35.0661 37.8176Z" fill="#131413"/>
<path d="M34.8925 32.9756C34.9889 32.8006 34.9118 32.5867 34.7384 32.4895C34.5843 32.3923 34.4109 32.295 34.2182 32.2173L34.1989 32.1978C34.0641 32.1395 33.9099 32.2173 33.8521 32.3534C33.775 32.4895 33.7172 32.6256 33.6787 32.7812C33.5631 33.209 33.6016 33.2478 34.0448 33.3062C34.2567 33.2673 34.4687 33.2284 34.6806 33.1506C34.7577 33.1312 34.8347 33.0534 34.8925 32.9756Z" fill="#131413"/>
<path d="M65.3538 51.9734C65.1997 51.8762 65.0263 51.7789 64.8336 51.7012L64.8144 51.6817C64.6795 51.6234 64.5254 51.7012 64.4676 51.8373C64.3905 51.9734 64.3327 52.1095 64.2942 52.265C64.1786 52.6928 64.2171 52.7317 64.6602 52.79C64.8722 52.7512 65.0841 52.7123 65.296 52.6345C65.3924 52.615 65.4694 52.5373 65.508 52.4595C65.6043 52.2845 65.5465 52.0706 65.3538 51.9734Z" fill="#131413"/>
<path d="M69.6888 59.1872C69.5347 59.09 69.3613 58.9928 69.1686 58.915L69.1494 58.8956C69.0145 58.8372 68.8604 58.915 68.8026 59.0511C68.7255 59.1872 68.6677 59.3428 68.6291 59.4789C68.5135 59.9067 68.5521 59.9456 68.9952 60.0039C69.2072 59.965 69.4191 59.9261 69.631 59.8484C69.7274 59.8289 69.8044 59.7511 69.843 59.6734C69.9393 59.4984 69.8815 59.2845 69.6888 59.1872Z" fill="#131413"/>
<path d="M74.9488 59.032C74.7947 58.9347 74.6213 58.8375 74.4286 58.7597C74.4286 58.7597 74.4093 58.7403 74.3901 58.7403C74.2552 58.682 74.1011 58.7597 74.0433 58.8959C73.9662 59.032 73.9084 59.1681 73.8699 59.3236C73.7543 59.7514 73.7928 59.7903 74.2359 59.8487C74.4479 59.8098 74.6598 59.7709 74.8718 59.6931C74.9681 59.6737 75.0452 59.5959 75.0837 59.5181C75.1993 59.3431 75.1222 59.1292 74.9488 59.032Z" fill="#131413"/>
<path d="M81.7115 62.4153C81.5574 62.3181 81.384 62.2208 81.1913 62.143C81.1913 62.143 81.172 62.1236 81.1528 62.1236C81.0179 62.0653 80.8638 62.143 80.806 62.2792C80.7289 62.4153 80.6711 62.5514 80.6326 62.707C80.517 63.1347 80.5555 63.1736 80.9986 63.232C81.2106 63.1931 81.4225 63.1542 81.6345 63.0764C81.7308 63.057 81.8079 62.9792 81.8464 62.9014C81.962 62.7264 81.8849 62.4931 81.7115 62.4153Z" fill="#131413"/>
<path d="M87.4723 65.2541C87.3182 65.1569 87.1448 65.0597 86.9521 64.9819L86.9328 64.9625C86.7979 64.9041 86.6438 64.9819 86.586 65.118C86.5089 65.2541 86.4511 65.3902 86.4126 65.5458C86.297 65.9736 86.3355 66.0125 86.7787 66.0708C86.9906 66.0319 87.2026 65.993 87.4145 65.9153C87.5108 65.8958 87.5879 65.818 87.6264 65.7402C87.7228 65.5652 87.6457 65.3514 87.4723 65.2541Z" fill="#131413"/>
<path d="M89.1293 69.7073C88.9751 69.61 88.8017 69.5128 88.609 69.435L88.5898 69.4156C88.4549 69.3573 88.3008 69.435 88.243 69.5711C88.1659 69.7073 88.1081 69.8434 88.0696 69.9989C87.954 70.4267 87.9925 70.4656 88.4356 70.5239C88.6476 70.485 88.8595 70.4462 89.0715 70.3684C89.1678 70.3489 89.2449 70.2712 89.2834 70.1934C89.3797 70.0184 89.3027 69.8045 89.1293 69.7073Z" fill="#131413"/>
<path d="M92.4625 72.3323C92.3084 72.235 92.135 72.1378 91.9423 72.06C91.9423 72.06 91.923 72.0406 91.9038 72.0406C91.7689 71.9823 91.6148 72.06 91.557 72.1962C91.4799 72.3323 91.4221 72.4684 91.3835 72.6239C91.2679 73.0517 91.3065 73.0906 91.7496 73.149C91.9616 73.1101 92.1735 73.0712 92.3855 72.9934C92.4818 72.974 92.5589 72.8962 92.5974 72.8184C92.6937 72.6434 92.6359 72.4295 92.4625 72.3323Z" fill="#131413"/>
<path d="M73.5424 53.0622C73.3882 52.965 73.2148 52.8678 73.0221 52.79C73.0221 52.79 73.0029 52.7706 72.9836 52.7706C72.8487 52.7122 72.6946 52.79 72.6368 52.9261C72.5597 53.0622 72.5019 53.1984 72.4634 53.3539C72.3478 53.7817 72.3863 53.8206 72.8295 53.8789C73.0414 53.84 73.2533 53.8011 73.4653 53.7234C73.5616 53.7039 73.6387 53.6261 73.6772 53.5484C73.7928 53.3734 73.7158 53.1595 73.5424 53.0622Z" fill="#131413"/>
<path d="M38.7653 33.5007C38.6111 33.4035 38.4377 33.3063 38.245 33.2285L38.2258 33.209C38.0909 33.1507 37.9368 33.2285 37.879 33.3646C37.8019 33.5007 37.7441 33.6368 37.7056 33.7924C37.59 34.2202 37.6285 34.2591 38.0716 34.3174C38.2836 34.2785 38.4955 34.2396 38.7075 34.1618C38.8038 34.1424 38.8809 34.0646 38.9194 33.9868C39.0157 33.8118 38.9387 33.5979 38.7653 33.5007Z" fill="#131413"/>
<path d="M32.4264 40.112C32.5035 39.9564 32.4457 39.762 32.3108 39.6842C32.1759 39.587 32.0218 39.5092 31.8676 39.4509C31.8484 39.4509 31.8484 39.4314 31.8291 39.4314C31.7135 39.3925 31.5786 39.4509 31.5401 39.5675C31.463 39.7425 31.4052 39.937 31.3667 40.1314C31.3474 40.2481 31.4052 40.3259 31.5208 40.3259C31.5786 40.3259 31.6557 40.3453 31.7135 40.3453V40.3648C31.8869 40.3453 32.0796 40.3064 32.253 40.2481C32.3108 40.2481 32.3878 40.1898 32.4264 40.112Z" fill="#131413"/>
<path d="M33.2742 45.3424C33.1393 45.2452 32.9851 45.1674 32.831 45.1091C32.8117 45.1091 32.8117 45.0896 32.7925 45.0896C32.6769 45.0507 32.542 45.1091 32.5035 45.2257C32.4264 45.4007 32.3686 45.5952 32.3301 45.7896C32.3108 45.9063 32.3686 45.9841 32.4842 45.9841C32.542 45.9841 32.6191 46.0035 32.6769 46.0035V46.023C32.8503 46.0035 33.0429 45.9646 33.2163 45.9063C33.2934 45.8869 33.3705 45.8285 33.409 45.7508C33.4861 45.6341 33.4283 45.4396 33.2742 45.3424Z" fill="#131413"/>
<path d="M31.6173 35.8536C31.7522 35.6397 31.8678 35.4063 31.9449 35.2896C31.9641 34.8813 31.7715 34.7257 31.521 34.823C31.3476 34.9007 31.1935 34.998 31.0586 35.1341C31.0008 35.2119 30.9815 35.3091 31.02 35.4063C31.1357 35.5813 31.2705 35.7369 31.4247 35.873C31.5017 35.9119 31.5595 35.8924 31.6173 35.8536Z" fill="#131413"/>
<path d="M30.0179 31.0897C29.8638 31.0508 29.7096 31.0508 29.5555 31.0508C29.1124 31.0508 29.0931 31.1091 29.1702 31.5369C29.2665 31.7313 29.3628 31.9258 29.4784 32.1008C29.5362 32.1786 29.6133 32.2369 29.7096 32.2564C29.9023 32.2952 30.095 32.1591 30.1335 31.9647C30.1913 31.7702 30.2298 31.5952 30.2491 31.4008C30.2491 31.3813 30.2491 31.3813 30.2491 31.3619C30.2684 31.2452 30.1528 31.1091 30.0179 31.0897Z" fill="#131413"/>
<path d="M27.1858 34.9981C27.1858 35.0759 27.2051 35.1342 27.2629 35.1731C27.4941 35.2509 27.7445 35.2898 27.8987 35.3287C28.284 35.2509 28.3996 34.9981 28.2262 34.7842C28.1106 34.6481 27.9757 34.512 27.8023 34.4148C27.706 34.3759 27.6097 34.3953 27.5326 34.4537C27.3977 34.6481 27.2821 34.8231 27.1858 34.9981Z" fill="#131413"/>
<path d="M28.4573 37.4868C28.3224 37.4479 28.1876 37.3896 28.0527 37.3701C27.9949 37.4285 27.86 37.4673 27.8408 37.5451C27.8022 37.7007 27.783 37.8757 27.8022 38.0312C27.8022 38.0701 27.8986 38.1674 27.9371 38.1674C28.149 38.1285 28.3417 38.0507 28.5344 37.9535C28.5922 37.9146 28.6307 37.8562 28.65 37.7979C28.6692 37.6423 28.5922 37.5062 28.4573 37.4868Z" fill="#131413"/>
<path d="M27.9759 40.2871C27.841 40.2482 27.7061 40.1899 27.5713 40.1704C27.5135 40.2287 27.3786 40.2676 27.3593 40.3454C27.3208 40.501 27.3015 40.676 27.3208 40.8315C27.3208 40.8704 27.4171 40.9676 27.4557 40.9676C27.6676 40.9288 27.8603 40.851 28.0529 40.7538C28.1107 40.7149 28.1493 40.6565 28.1685 40.5982C28.1878 40.4426 28.0915 40.3065 27.9759 40.2871Z" fill="#131413"/>
<path d="M23.4672 44.5455C23.2745 44.4094 23.0818 44.2733 22.8892 44.1567C22.7928 44.1178 22.6772 44.1372 22.5809 44.215C22.4268 44.4289 22.3112 44.6622 22.1956 44.8956C22.1956 44.9733 22.2341 45.0511 22.2919 45.09C22.6002 45.2261 22.947 45.2456 23.2552 45.1483C23.5443 45.0511 23.6021 44.8178 23.4672 44.5455Z" fill="#131413"/>
<path d="M13.3327 43.1842C13.14 43.0481 12.9473 42.912 12.7546 42.7953C12.6583 42.7564 12.5427 42.7759 12.4464 42.8537C12.2922 43.0676 12.1766 43.3009 12.061 43.5342C12.061 43.612 12.0996 43.6898 12.1574 43.7287C12.4656 43.8648 12.8125 43.8842 13.1207 43.787C13.4097 43.6898 13.4675 43.4564 13.3327 43.1842Z" fill="#131413"/>
<path d="M9.15171 45.4203C9.42145 45.3231 9.47925 45.0898 9.34438 44.8175C9.15171 44.6814 8.95904 44.5453 8.76637 44.4286C8.67003 44.3897 8.55443 44.4092 8.4581 44.487C8.30396 44.7009 8.18836 44.9342 8.07275 45.1675C8.07275 45.2453 8.11129 45.3231 8.16909 45.362C8.49663 45.4981 8.84344 45.5175 9.15171 45.4203Z" fill="#131413"/>
<path d="M9.78774 49.6398C9.59507 49.5037 9.4024 49.3676 9.20973 49.2509C9.11339 49.212 8.99779 49.2314 8.90145 49.3092C8.74732 49.5231 8.63172 49.7565 8.51611 49.9898C8.51611 50.0676 8.55465 50.1454 8.61245 50.1842C8.92072 50.3204 9.26753 50.3398 9.5758 50.2426C9.84554 50.1454 9.9226 49.912 9.78774 49.6398Z" fill="#131413"/>
<path d="M11.83 50.1842C11.6373 50.0481 11.4446 49.912 11.252 49.7953C11.1556 49.7564 11.04 49.7759 10.9437 49.8537C10.7896 50.0676 10.674 50.3009 10.5583 50.5342C10.5583 50.612 10.5969 50.6898 10.6547 50.7287C10.963 50.8648 11.3098 50.8842 11.618 50.787C11.8878 50.6898 11.9648 50.4564 11.83 50.1842Z" fill="#131413"/>
<path d="M24.4308 41.0647C24.4308 41.0453 24.4308 41.0453 24.4308 41.0258C24.3922 40.8897 24.2574 40.7925 24.1032 40.8314C23.9491 40.8508 23.8142 40.9092 23.6601 40.9675C23.2555 41.1231 23.2362 41.1814 23.4674 41.5703C23.6215 41.7259 23.7949 41.862 23.9683 41.9786C24.0454 42.037 24.1417 42.0564 24.2381 42.037C24.4308 41.9981 24.5656 41.8036 24.5271 41.6092C24.5271 41.4342 24.4886 41.2397 24.4308 41.0647Z" fill="#131413"/>
<path d="M20.4231 42.2705C20.4231 42.251 20.4231 42.2316 20.4038 42.2316C20.3653 42.1149 20.2304 42.0371 20.1148 42.076C19.9222 42.1344 19.7295 42.1927 19.5561 42.2705C19.5368 42.2705 19.5175 42.2899 19.5175 42.2899C19.4597 42.3483 19.4405 42.4455 19.4983 42.5038C19.5368 42.5622 19.5753 42.6205 19.5946 42.6594L19.5753 42.6788C19.7102 42.8149 19.8451 42.9316 19.9992 43.0288C20.057 43.0872 20.1534 43.1066 20.2304 43.0872C20.4038 43.0677 20.5194 42.9122 20.5002 42.7372C20.5002 42.601 20.4809 42.426 20.4231 42.2705Z" fill="#131413"/>
<path d="M21.7525 40.1316C21.5984 40.0343 21.425 39.976 21.2323 39.9565C21.136 39.9565 21.0396 40.0149 21.0011 40.0927C20.9433 40.2871 20.8855 40.501 20.8855 40.7149C20.8855 40.7538 20.9818 40.8705 21.0204 40.851C21.2708 40.8316 21.5213 40.7927 21.6562 40.7732C21.9837 40.5399 21.9837 40.2677 21.7525 40.1316Z" fill="#131413"/>
<path d="M23.448 37.1563C23.3516 37.3508 23.2553 37.5452 23.1782 37.7591C23.1397 37.8564 23.1397 37.9536 23.1975 38.0508C23.2938 38.2258 23.5058 38.3036 23.6792 38.2258C23.8526 38.148 24.026 38.0703 24.1994 37.973C24.1994 37.973 24.2186 37.973 24.2186 37.9536C24.3535 37.8758 24.3921 37.7202 24.315 37.5841C24.2572 37.448 24.1608 37.3119 24.0645 37.1952C23.814 36.8258 23.7562 36.8258 23.448 37.1563Z" fill="#131413"/>
<path d="M20.3845 37.0005C20.1726 37.0005 19.9606 37.0005 19.768 37.0394C19.7102 37.0783 19.6716 37.1366 19.6716 37.2144C19.768 37.4477 19.8643 37.6811 19.9221 37.8172C20.2304 38.07 20.4809 38.0116 20.5387 37.7394C20.5772 37.5644 20.5965 37.3699 20.5772 37.1949C20.5579 37.0977 20.4809 37.0199 20.3845 37.0005Z" fill="#131413"/>
<path d="M23.3901 34.2783C23.1782 34.2783 22.9663 34.2783 22.7736 34.3172C22.7158 34.3561 22.6772 34.4144 22.6772 34.4922C22.7736 34.7255 22.8699 34.9589 22.9277 35.095C23.236 35.3478 23.4865 35.2894 23.5443 35.0172C23.5828 34.8422 23.6021 34.6478 23.5828 34.4728C23.5635 34.3755 23.4865 34.2978 23.3901 34.2783Z" fill="#131413"/>
<path d="M14.643 30.1562C14.4118 30.2146 14.1998 30.2924 13.9879 30.3896C13.8916 30.4479 13.853 30.5451 13.853 30.6618C13.9301 30.9146 14.0457 31.1479 14.1613 31.3813C14.2191 31.4396 14.2962 31.4591 14.3732 31.4202C14.6622 31.2646 14.8934 30.9924 15.0091 30.6813C15.0861 30.3896 14.9513 30.1951 14.643 30.1562Z" fill="#131413"/>
<path d="M10.6548 32.1007C10.7126 32.1007 10.7897 32.1202 10.8475 32.1202V32.1396C11.0209 32.1202 11.2136 32.0813 11.387 32.0229C11.464 32.0035 11.5411 31.9452 11.5796 31.8674C11.6567 31.7118 11.5989 31.5174 11.464 31.4396C11.3292 31.3424 11.175 31.2646 11.0209 31.2062C11.0016 31.2062 11.0016 31.1868 10.9824 31.1868C10.8668 31.1479 10.7319 31.2062 10.6933 31.3229C10.6163 31.4979 10.5585 31.6924 10.5199 31.8868C10.4814 32.0035 10.5392 32.0813 10.6548 32.1007Z" fill="#131413"/>
<path d="M6.7241 34.3756C6.58924 34.2784 6.4351 34.2006 6.28096 34.1423C6.26169 34.1423 6.2617 34.1228 6.24243 34.1228C6.12683 34.0839 5.99196 34.1423 5.95342 34.259C5.87635 34.434 5.81855 34.6284 5.78002 34.8229C5.76075 34.9395 5.81855 35.0173 5.93415 35.0173C5.99196 35.0173 6.06902 35.0367 6.12683 35.0367V35.0562C6.30023 35.0367 6.4929 34.9979 6.6663 34.9395C6.74337 34.9201 6.82044 34.8617 6.85897 34.784C6.93604 34.6479 6.87824 34.4534 6.7241 34.3756Z" fill="#131413"/>
<path d="M10.5968 26.7336C10.6739 26.578 10.6161 26.3836 10.4812 26.3058C10.3463 26.2086 10.1922 26.1308 10.038 26.0725C10.0188 26.0725 10.0188 26.053 9.99951 26.053C9.88391 26.0141 9.74904 26.0725 9.7105 26.1891C9.63343 26.3641 9.57563 26.5586 9.5371 26.753C9.51783 26.8697 9.57563 26.9475 9.69123 26.9475C9.74904 26.9475 9.8261 26.9669 9.8839 26.9669V26.9864C10.0573 26.9669 10.25 26.928 10.4234 26.8697C10.4812 26.8503 10.5583 26.7919 10.5968 26.7336Z" fill="#131413"/>
<path d="M13.2942 28.0172C13.1593 27.92 13.0052 27.8422 12.851 27.7839C12.8318 27.7839 12.8318 27.7644 12.8125 27.7644C12.6969 27.7255 12.562 27.7839 12.5235 27.9006C12.4464 28.0756 12.3886 28.27 12.3501 28.4645C12.3308 28.5811 12.3886 28.6589 12.5042 28.6589C12.562 28.6589 12.6391 28.6784 12.6969 28.6784V28.6978C12.8703 28.6784 13.063 28.6395 13.2364 28.5811C13.3134 28.5617 13.3905 28.5033 13.429 28.4256C13.5061 28.2895 13.4483 28.095 13.2942 28.0172Z" fill="#131413"/>
<path d="M30.1914 27.0646C30.0565 26.9674 29.9024 26.8896 29.7482 26.8312C29.729 26.8312 29.729 26.8118 29.7097 26.8118C29.5941 26.7729 29.4592 26.8312 29.4207 26.9479C29.3436 27.1229 29.2858 27.3174 29.2473 27.5118C29.228 27.6285 29.2858 27.7063 29.4014 27.7063C29.4592 27.7063 29.5363 27.7257 29.5941 27.7257V27.7452C29.7675 27.7257 29.9602 27.6868 30.1336 27.6285C30.2107 27.6091 30.2877 27.5507 30.3263 27.4729C30.3841 27.3368 30.3263 27.1618 30.1914 27.0646Z" fill="#131413"/>
<path d="M26.8004 29.5533V29.5727C26.9738 29.5533 27.1665 29.5144 27.3399 29.456C27.417 29.4366 27.494 29.3783 27.5326 29.3005C27.6096 29.1449 27.5518 28.9505 27.417 28.8727C27.2821 28.7755 27.128 28.6977 26.9738 28.6394C26.9546 28.6394 26.9546 28.6199 26.9353 28.6199C26.8197 28.581 26.6848 28.6394 26.6463 28.756C26.5692 28.931 26.5114 29.1255 26.4729 29.3199C26.4536 29.4366 26.5114 29.5144 26.627 29.5144C26.6656 29.5338 26.7426 29.5338 26.8004 29.5533Z" fill="#131413"/>
<path d="M5.81861 31.9257C5.87641 31.7895 5.81861 31.634 5.68374 31.5757C5.56814 31.5368 5.45254 31.4979 5.33694 31.459C5.27914 31.5173 5.1828 31.5562 5.16353 31.634C5.125 31.7895 5.125 31.9646 5.125 32.1201C5.125 32.159 5.20207 32.2562 5.22134 32.2562C5.39474 32.2173 5.56814 32.1396 5.72228 32.0423C5.78008 32.0034 5.79935 31.9646 5.81861 31.9257Z" fill="#131413"/>
<path d="M12.562 34.2591C12.8703 34.5118 13.1207 34.4535 13.1785 34.1813C13.2171 34.0063 13.2363 33.8118 13.2171 33.6368C13.1978 33.5396 13.1207 33.4618 13.0244 33.4424C12.8125 33.4424 12.6005 33.4424 12.4079 33.4813C12.3501 33.5202 12.3115 33.5785 12.3115 33.6563C12.3886 33.9091 12.5042 34.1424 12.562 34.2591Z" fill="#131413"/>
<path d="M17.167 44.0202C17.0899 44.0008 16.9743 43.923 16.8973 43.9619C16.7431 44.0202 16.6083 44.1175 16.4927 44.2341C16.4541 44.2536 16.4349 44.3897 16.4734 44.4091C16.6275 44.5453 16.8202 44.6619 17.0129 44.7592C17.2248 44.8369 17.3789 44.6619 17.3211 44.4286C17.2826 44.2925 17.2248 44.1564 17.167 44.0202Z" fill="#131413"/>
<path d="M11.3868 46.1981C11.3483 46.062 11.2905 45.9259 11.2327 45.7898C11.1556 45.7703 11.04 45.6926 10.9629 45.7314C10.8088 45.7898 10.6739 45.887 10.5583 46.0037C10.5198 46.0231 10.5005 46.1592 10.5391 46.1787C10.6932 46.3148 10.8859 46.4314 11.0785 46.5287C11.2712 46.6064 11.4446 46.412 11.3868 46.1981Z" fill="#131413"/>
<path d="M27.3015 45.4983C27.2245 45.4788 27.1089 45.401 27.0318 45.4399C26.8777 45.4983 26.7428 45.5955 26.6272 45.7122C26.5887 45.7316 26.5694 45.8677 26.6079 45.8872C26.7621 46.0233 26.9547 46.14 27.1474 46.2372C27.3593 46.315 27.5135 46.14 27.4557 45.9066C27.3979 45.7511 27.3593 45.6149 27.3015 45.4983Z" fill="#131413"/>
<path d="M0.751532 47.8702C0.616663 48.0646 0.481793 48.2591 0.366191 48.4535C0.327657 48.5507 0.346924 48.6674 0.423992 48.7646C0.63593 48.9202 0.867134 49.0369 1.09834 49.1535C1.17541 49.1535 1.25248 49.1146 1.29101 49.0563C1.42588 48.7452 1.44515 48.3952 1.34881 48.0841C1.25248 47.7924 1.02127 47.7341 0.751532 47.8702Z" fill="#131413"/>
<path d="M4.3736 47.2872C4.23873 47.4816 4.10386 47.6761 3.98826 47.8705C3.94973 47.9677 3.96899 48.0844 4.04606 48.1816C4.258 48.3372 4.4892 48.4539 4.72041 48.5705C4.79748 48.5705 4.87454 48.5316 4.91308 48.4733C5.04795 48.1622 5.06721 47.8122 4.97088 47.5011C4.87454 47.2094 4.64334 47.151 4.3736 47.2872Z" fill="#131413"/>
<path d="M6.08845 44.7011C5.95358 44.8955 5.81871 45.09 5.7031 45.2844C5.66457 45.3816 5.68384 45.4983 5.76091 45.5955C5.97284 45.7511 6.20405 45.8678 6.43525 45.9844C6.51232 45.9844 6.58939 45.9455 6.62792 45.8872C6.76279 45.5761 6.78206 45.2261 6.68572 44.915C6.58939 44.6233 6.35818 44.5455 6.08845 44.7011Z" fill="#131413"/>
<path d="M61.8279 43.2039L74.8331 46.5484L74.7946 46.2567C74.7753 46.1012 74.7561 45.965 74.7368 45.8289C74.6983 45.5761 74.679 45.3817 74.679 45.1872C74.679 44.4094 74.3129 43.9233 73.4844 43.6511C72.4247 43.3011 71.3458 42.8733 70.3054 42.4844C69.9008 42.3288 69.4769 42.1733 69.0723 42.0177L67.4731 41.4149L99.8225 50.6707L99.9959 50.729L100.169 50.2624L73.7734 39.8982C73.8312 39.8204 73.9083 39.7621 73.9661 39.6843C74.2166 39.4121 74.4478 39.1593 74.679 38.926C76.7984 36.8454 78.7251 34.5703 80.4398 32.1397C82.2317 29.5924 83.2914 27.4729 83.8501 25.2757C84.7749 21.6978 85.2181 18.6644 85.2566 15.7671C85.2759 14.231 85.7575 12.7726 86.6631 11.5281C87.0292 11.0226 87.4145 10.4976 87.7806 10.0114C88.1659 9.50586 88.5705 8.96141 88.9366 8.43639C89.3412 7.87249 89.4568 7.30859 89.3027 6.84191C89.1293 6.35579 88.6861 5.98634 88.0118 5.77244C86.8365 5.30577 85.5071 5.50022 84.4667 6.21968C82.4821 7.63915 81.3839 9.19474 81.0949 11.0031C80.8252 12.9087 80.6518 14.8532 80.6132 16.7783C80.5169 19.7922 80.1316 23.7201 78.1278 27.2591C76.3167 30.3897 74.1395 33.3064 71.6541 35.912C70.209 37.4676 68.5328 38.0899 66.5676 37.8176C64.1977 37.4871 61.8279 37.0593 59.7663 36.6509C53.6586 35.4842 47.4547 34.2787 41.347 33.0731C40.9424 32.9758 40.557 32.7814 40.2873 32.4897C39.7478 31.8869 39.0542 31.4591 38.2835 31.2647C37.9175 31.1869 37.5514 31.0508 37.2046 30.9341C37.0504 30.8758 36.8963 30.8369 36.7614 30.7786L36.1642 30.5841L51.7319 34.2203L51.8861 33.6564L34.0063 27.8813L37.1468 28.3674L36.6266 27.9202C36.0678 27.4341 35.4706 27.0452 34.8925 26.6563C34.6228 26.4813 34.3531 26.2868 34.0833 26.1118C33.1585 25.4507 32.1952 25.1784 31.2511 25.3146C30.2877 25.4507 29.3051 25.6257 28.361 25.7812C27.6867 25.8979 27.0123 26.034 26.338 26.1312C25.9719 26.1896 25.6251 26.1507 25.4902 26.034C23.6598 24.5757 21.6368 24.0312 19.267 24.3618C17.8027 24.5757 16.743 24.3812 15.8182 23.7006C15.375 23.4284 14.9126 23.2145 14.4117 23.1173C13.1978 22.8062 12.4464 23.0978 11.6757 24.1673C11.5409 24.3423 11.3289 24.459 11.117 24.4784C9.09396 24.6729 7.30213 25.4701 5.66443 26.9285C5.08642 27.4341 4.91301 27.998 5.10568 28.6396C5.22129 29.0674 5.10568 29.398 4.72034 29.748C4.23867 30.2147 3.77626 30.7202 3.37165 31.2258C2.94777 31.7119 2.92851 32.2175 3.35238 32.8008C3.94966 33.637 4.52767 34.512 5.06715 35.3481L5.29835 35.6981C5.70296 36.3398 6.30024 36.5343 6.97459 36.262C7.20579 36.1843 7.437 36.0676 7.62967 35.912C8.40035 35.1731 9.17103 35.1342 10.1344 35.7954C11.117 36.4759 12.1574 36.3981 13.2171 35.5815C13.641 35.2509 14.2383 35.1537 14.8548 35.3287C15.5099 35.5037 16.0686 35.9509 16.2998 36.4954C16.8393 37.7593 17.3981 39.0232 17.9375 40.2677C18.188 40.8316 18.4385 41.4149 18.689 41.9788C18.4385 41.9788 18.1687 41.9594 17.9183 41.9594C17.1283 41.9399 16.3962 41.9399 15.6255 41.8816C15.1631 41.8622 14.7007 41.8038 14.2383 41.7455C13.5639 41.6677 12.8703 41.5899 12.1767 41.5899C10.6161 41.5899 9.44077 42.2122 8.78569 43.4178C8.43888 44.0983 8.16914 44.7983 8.01501 45.5372C7.47553 47.6567 7.91867 49.5818 9.3059 51.2735C9.71051 51.7791 10.4619 52.0124 11.117 51.8568C11.5987 51.7402 11.9455 51.429 12.0418 51.0013C12.0804 50.8263 12.1382 50.6513 12.196 50.4568C12.4464 49.5818 12.7547 48.5706 11.8684 47.579C11.5794 47.2484 11.4831 46.8401 11.6179 46.4512C11.7721 46.0039 12.196 45.6539 12.7162 45.5372C13.1593 45.44 13.641 45.44 14.0649 45.5567C15.0475 45.8484 16.0301 46.1789 16.9742 46.49C18.1495 46.8789 19.3826 47.2678 20.5964 47.6179C22.1185 48.0456 23.6791 48.4345 25.1819 48.804C25.9334 48.979 26.6848 49.1734 27.4362 49.3679C27.6867 49.4262 28.0527 49.4846 28.3032 49.2901C28.4959 49.1346 28.6115 48.8818 28.6307 48.5123C28.6693 47.754 28.7464 46.9956 28.8234 46.2567C28.8812 45.6928 28.9198 45.1095 28.9776 44.5261C28.9968 44.3511 28.9968 44.1955 28.9968 44.0205C29.3244 45.2845 29.517 46.5289 29.2473 47.8123C29.1317 48.3568 29.3629 48.7068 29.9024 48.8623C30.5189 49.0373 31.1547 49.2512 31.7713 49.4262C33.2163 49.8735 34.6999 50.3596 36.222 50.6124C41.4241 51.5068 46.7418 52.3235 51.8668 53.1208C53.7742 53.4124 55.6817 53.7041 57.5891 54.0152C58.1864 54.1124 58.7644 54.1902 59.3617 54.2874C59.6314 54.3263 59.9204 54.3652 60.1902 54.4041L60.3828 54.4236L60.4599 53.918L42.0599 49.2512C43.2159 49.3873 44.3527 49.5429 45.3738 49.679C47.05 49.9123 48.9575 50.1651 50.9035 49.7957C52.387 49.5429 53.9091 49.4846 55.4119 49.5818C59.169 49.7957 62.0976 51.4096 64.1592 54.4041C64.9299 55.5319 65.7198 56.6792 66.4134 57.8653C67.2612 59.3237 68.4943 60.3543 70.1705 61.0154C70.8448 61.3071 71.5577 61.5598 72.2899 61.7348C74.3322 62.1821 77.0488 62.746 79.804 63.2515C80.8445 63.4265 81.8463 63.8932 82.6555 64.5932C84.852 66.4211 86.5668 68.6572 88.2815 70.9712C89.1678 72.1573 90.1504 73.4018 91.4028 74.8407C91.6725 75.1518 92.0579 75.3268 92.4432 75.3268C92.501 75.3268 92.5588 75.3268 92.6166 75.3074C93.0405 75.249 93.4066 74.9963 93.5992 74.6268C93.9653 73.9073 93.946 73.2073 93.58 72.5851C93.5607 72.5462 93.5222 72.5073 93.5029 72.449C93.4451 72.3518 93.3295 72.1962 93.3488 72.1184C93.4644 71.3017 93.002 70.7962 92.5203 70.3684C92.2891 70.1545 92.0386 69.9017 91.8267 69.6878C91.5569 69.4156 91.2872 69.1433 90.9982 68.8711C88.8595 66.985 87.164 64.5738 86.1043 61.9293L86.0851 61.9098C85.8924 61.5793 85.6034 61.3265 85.2566 61.1904C81.9812 59.8487 78.6287 58.4875 75.3919 57.1847L73.523 56.4264L107.529 65.0016L107.105 64.5155C106.932 64.3016 106.682 64.1655 106.431 64.1071C104.196 63.3877 101.98 62.6488 99.7454 61.9293C92.3854 59.5376 84.7942 57.0486 77.2993 54.6569C76.047 54.268 75.6038 53.743 75.6231 52.7124C75.6231 52.0318 75.1799 51.8179 74.7561 51.6818C72.9064 51.0596 71.0375 50.4179 69.2264 49.7762L64.4097 48.104L118.878 62.2987L119.07 62.3376L119.128 62.1432C119.147 62.1043 119.147 62.046 119.167 62.0071L119.224 61.8321L61.8279 43.2039ZM60.5948 46.7428L60.4599 47.2095L69.0723 50.1846C70.8834 50.8068 72.7523 51.4679 74.6019 52.0902C75.0258 52.2263 75.2185 52.3624 75.1992 52.7513C75.1799 54.2486 76.124 54.7541 77.1452 55.0652C84.6401 57.457 92.2505 59.9265 99.5913 62.3376C100.901 62.7654 102.192 63.1932 103.502 63.621L71.9431 55.668L71.7697 55.6291L71.5963 56.1153L72.0201 56.2903C72.1935 56.3681 72.3862 56.4458 72.5596 56.5236L75.1992 57.5931C78.4361 58.8959 81.7693 60.257 85.0639 61.5987C85.3337 61.6959 85.5456 61.8904 85.6805 62.1237C86.7787 64.8266 88.5127 67.2766 90.6899 69.2017C90.9789 69.4545 91.2486 69.7267 91.4991 69.9989C91.7303 70.2323 91.9615 70.4656 92.212 70.6989C92.6551 71.1073 93.002 71.4767 92.9056 72.1184C92.8671 72.3323 93.002 72.5462 93.1176 72.7212C93.1368 72.7601 93.1754 72.799 93.1946 72.8379C93.5029 73.3434 93.5029 73.8879 93.1946 74.4907C93.0598 74.7435 92.8093 74.9185 92.5203 74.9574C92.1927 74.9963 91.8652 74.8796 91.6533 74.6074C90.4202 73.1684 89.4376 71.9434 88.5513 70.7573C86.8172 68.4239 85.1025 66.1683 82.8675 64.3016C82.0005 63.5627 80.96 63.0765 79.8426 62.8821C77.1066 62.3765 74.39 61.8126 72.3477 61.3654C71.6541 61.1904 70.9604 60.957 70.2861 60.6654C68.6869 60.0431 67.5117 59.0514 66.7217 57.6903C66.0281 56.4847 65.2189 55.318 64.4482 54.2097C62.3095 51.1179 59.2654 49.4262 55.4119 49.2123C54.9303 49.1734 54.4679 49.154 53.9862 49.154C52.9265 49.154 51.8668 49.2512 50.8071 49.4262C48.9189 49.7957 47.05 49.5429 45.3931 49.3096C43.6012 49.0568 41.5204 48.7845 39.4588 48.629L39.401 49.0179L57.724 53.7235C57.6662 53.7235 57.6084 53.7041 57.5506 53.7041C55.6432 53.4124 53.7357 53.1013 51.8283 52.8096C46.7032 52.0124 41.3855 51.1957 36.1834 50.3012C34.6999 50.0485 33.2163 49.5818 31.7905 49.1345C31.174 48.9401 30.5382 48.7457 29.9024 48.5512C29.5556 48.454 29.4592 48.2984 29.517 47.9679C29.8831 46.1595 29.3822 44.39 28.9005 42.6983L28.5344 41.4344L28.4959 42.7177C28.4959 42.9122 28.4959 43.1066 28.4766 43.3011C28.4766 43.7094 28.4573 44.1372 28.4381 44.565C28.3995 45.1483 28.3417 45.7317 28.2839 46.2956C28.2069 47.0345 28.1491 47.8123 28.0913 48.5512C28.072 48.804 28.0142 48.979 27.9179 49.0373C27.8215 49.1151 27.6289 49.1151 27.3784 49.0373C26.627 48.8429 25.8756 48.6679 25.1241 48.4734C23.6213 48.104 22.0607 47.7151 20.5386 47.2873C19.3248 46.9373 18.1109 46.5484 16.9356 46.1595C15.9723 45.8484 14.9897 45.5178 14.0071 45.2261C13.5061 45.09 12.9666 45.09 12.4657 45.2067C11.7913 45.3428 11.2711 45.79 11.0592 46.3734C10.8858 46.8984 11.0014 47.4623 11.3867 47.9095C12.1189 48.7457 11.8877 49.5623 11.6372 50.4179C11.5794 50.6124 11.5216 50.7874 11.4831 50.9818C11.3867 51.3513 11.0592 51.4874 10.8473 51.5457C10.3271 51.6624 9.74904 51.4874 9.44077 51.0985C8.13061 49.504 7.726 47.6956 8.22694 45.7122C8.38108 45.0122 8.63155 44.3122 8.95909 43.69C9.69124 42.3483 11.0207 42.0761 12.0033 42.0761C12.6776 42.0761 13.352 42.1538 14.0263 42.2316C14.4887 42.2899 14.9704 42.3483 15.4328 42.3677C16.2035 42.4066 16.9742 42.4261 17.7449 42.4455C18.0724 42.4455 18.3807 42.465 18.7082 42.465L18.7853 42.5233L18.9009 42.4261C18.9394 42.4066 18.978 42.3288 18.9972 42.2511L19.0743 42.0761H18.9587C18.689 41.4538 18.3999 40.8121 18.1302 40.1899C17.5907 38.9649 17.032 37.6815 16.4925 36.437C16.2035 35.7759 15.5677 35.2509 14.7777 35.037C14.0456 34.8426 13.3327 34.9592 12.8125 35.3676C11.8877 36.087 11.0207 36.1454 10.1922 35.5815C9.0747 34.8231 8.11134 34.862 7.20579 35.7176C7.05166 35.8342 6.87825 35.9315 6.66631 35.9898C6.1461 36.1843 5.76076 36.0676 5.45249 35.5815L5.22129 35.2315C4.66254 34.3759 4.1038 33.5009 3.48725 32.6647C3.17898 32.2369 3.17898 31.9258 3.48725 31.5758C3.89186 31.0702 4.35427 30.5841 4.81668 30.1369C5.31762 29.6897 5.49102 29.1841 5.31762 28.6202C5.16348 28.1146 5.31762 27.7063 5.76076 27.3174C7.34066 25.9174 9.05543 25.1396 11.0014 24.9646C11.3289 24.9257 11.6179 24.7701 11.8299 24.4979C12.5042 23.5451 13.1015 23.3117 14.1612 23.6034C14.6236 23.7006 15.0475 23.8756 15.4328 24.1284C16.4347 24.8673 17.5715 25.0812 19.1514 24.8479C21.4056 24.5173 23.3323 25.0423 25.0663 26.4229C25.3939 26.6951 25.9912 26.6368 26.2224 26.5979C26.8967 26.5007 27.5903 26.3646 28.2647 26.2479C29.2088 26.0729 30.1721 25.8979 31.1355 25.7812C31.9832 25.6646 32.8502 25.9174 33.698 26.5201C33.9677 26.7146 34.2567 26.8896 34.5265 27.084C34.8925 27.3368 35.2779 27.5896 35.644 27.8618L32.2337 27.3368L32.0988 27.8424L49.2658 33.3842L32.1566 29.3785L31.9832 29.3397L31.8483 29.748L36.6073 31.1675C36.7614 31.2064 36.8963 31.2647 37.0504 31.323C37.4165 31.4397 37.7826 31.5758 38.1679 31.6536C38.8808 31.8286 39.4974 32.2175 39.979 32.762C40.3258 33.112 40.769 33.3647 41.2507 33.462C47.3583 34.6676 53.5623 35.8731 59.67 37.0398C61.7315 37.4287 64.1207 37.876 66.4905 38.2065C68.5906 38.4982 70.3632 37.8371 71.9238 36.1648C74.4285 33.5203 76.625 30.5841 78.4553 27.4341C80.5169 23.8173 80.883 19.8311 80.9986 16.7588C81.0371 14.8532 81.1913 12.9282 81.4803 11.0226C81.75 9.31141 82.7711 7.87249 84.6979 6.51135C85.6227 5.85022 86.8365 5.67522 87.9155 6.06412C88.4742 6.23912 88.8403 6.53079 88.9559 6.8808C89.0715 7.23081 88.9751 7.6586 88.6476 8.12528C88.2815 8.65029 87.8769 9.1753 87.4916 9.70031C87.1255 10.2059 86.7209 10.7114 86.3741 11.2365C85.43 12.5393 84.9098 14.0754 84.8905 15.6893C84.852 18.5477 84.4088 21.5423 83.484 25.1007C82.9253 27.2396 81.9041 29.3202 80.1316 31.8286C78.4361 34.2398 76.5286 36.5148 74.4285 38.5565C74.178 38.8093 73.9468 39.0621 73.6964 39.3343C73.5808 39.4704 73.4459 39.6066 73.311 39.7621L73.1184 39.976L97.2407 49.4457L64.4289 40.1121L64.2748 40.5982L68.9567 42.3872C69.3613 42.5427 69.7852 42.6983 70.1898 42.8539C71.2302 43.2622 72.3091 43.6705 73.3688 44.04C74.0432 44.2733 74.3129 44.5844 74.2936 45.2067C74.2936 45.4206 74.3129 45.6539 74.3514 45.9067C74.3514 45.9456 74.3707 45.9845 74.3707 46.0428L57.2038 41.6288L57.0689 42.0955L114.832 60.9182L60.5948 46.7428Z" fill="#131413"/>
<path d="M7.99582 43.7484L8.05362 43.3984L7.72608 43.5151C7.22514 43.7096 6.7242 43.904 6.22325 44.079C5.04797 44.5068 3.93048 44.9151 2.87079 45.479C2.00377 45.9263 1.29089 46.7818 0.674347 47.5402L0.597278 47.6374C0.231205 48.1235 0.0385341 48.7069 0 49.3291C0.019267 49.8153 0.231205 50.2819 0.635812 50.5736C0.770682 50.6708 0.924818 50.6903 1.09822 50.6903C1.25236 50.6903 1.42576 50.6708 1.59916 50.6319C1.71477 50.6125 1.83037 50.593 1.9267 50.593C2.02304 50.593 2.10011 50.5542 2.17718 50.5347C2.23498 50.5153 2.29278 50.4958 2.33131 50.4958C3.4488 50.6903 3.94974 50.5736 4.46995 49.543C4.93236 48.6097 5.66451 48.1235 6.82053 47.9291C7.07101 47.8708 7.28294 47.6958 7.39854 47.4624L7.41781 47.4235C7.57195 46.568 7.70682 45.7124 7.86095 44.7207C7.89949 44.429 7.93802 44.0985 7.99582 43.7484ZM7.45635 44.6818C7.30221 45.654 7.16734 46.4902 7.0132 47.3458C6.9554 47.4624 6.85907 47.5402 6.74347 47.5791C5.47184 47.793 4.64336 48.3569 4.10388 49.4069C3.68001 50.243 3.37173 50.3208 2.38911 50.1458C2.25424 50.1264 2.13864 50.1653 2.04231 50.2042C1.98451 50.2236 1.9267 50.243 1.88817 50.243C1.77257 50.243 1.65697 50.2625 1.54136 50.2819C1.29089 50.3208 1.00189 50.3597 0.886284 50.2819C0.597278 50.0486 0.423875 49.6986 0.404608 49.3486C0.423875 48.8236 0.597278 48.318 0.905551 47.8902L0.982619 47.793C1.61843 47.0346 2.25424 46.2568 3.06346 45.829C4.10388 45.2846 5.2021 44.8763 6.37739 44.4485C6.76273 44.3123 7.16734 44.1568 7.57195 44.0012C7.51415 44.254 7.49488 44.4679 7.45635 44.6818Z" fill="#131413"/>
<path d="M79.361 65.3904C75.7003 64.4765 72.001 63.5626 68.3595 62.6681C67.4347 62.4348 66.4713 62.182 65.5658 61.9487C63.4272 61.3848 61.1922 60.8014 58.9765 60.4125C55.624 59.8097 52.1752 59.3236 48.8613 58.8569C47.474 58.6625 46.0483 58.468 44.6418 58.2542C43.7362 58.118 42.8307 58.0014 41.9251 57.8653L40.4416 57.6514L40.4223 57.8458C40.4223 57.8847 40.403 57.9236 40.403 57.9625L40.3645 58.1569L80.9216 66.2654L80.1895 65.721C79.939 65.5654 79.65 65.4293 79.361 65.3904ZM45.5859 58.7792C46.6648 58.9347 47.7438 59.0903 48.8035 59.2458C52.1174 59.7125 55.5469 60.1986 58.9187 60.8014C61.1151 61.1903 63.3308 61.7737 65.4695 62.3376C66.3943 62.5709 67.3384 62.8237 68.2824 63.057C70.3248 63.5626 72.4056 64.0682 74.4672 64.5932L45.5859 58.7792Z" fill="#131413"/>
<path d="M45.3354 56.7374C46.3758 56.8735 47.4355 57.0096 48.4759 57.1457L49.6127 57.2818L49.6898 56.7763L28.2455 52.2845L28.0529 52.2456L27.9373 52.7706L28.1107 52.829C28.6501 53.004 29.1896 53.1595 29.7291 53.3345C30.9622 53.7234 32.2338 54.1318 33.5054 54.5012C33.833 54.5984 34.1605 54.6957 34.4881 54.7929C35.856 55.2012 37.2818 55.629 38.7075 55.8818C40.2296 56.154 41.7903 56.329 43.3124 56.504C43.9674 56.5624 44.6611 56.6401 45.3354 56.7374ZM34.5844 54.404C34.2568 54.3068 33.9293 54.2095 33.6018 54.1123C32.5806 53.8206 31.5402 53.4901 30.5383 53.179L46.029 56.4262C45.8171 56.4068 45.6051 56.3679 45.3932 56.3485C44.7189 56.2707 44.0252 56.1929 43.3509 56.1151C41.8481 55.9401 40.2874 55.7651 38.7846 55.4929C37.3588 55.2207 35.9523 54.8123 34.5844 54.404Z" fill="#131413"/>
<path d="M13.6219 46.0426C13.3522 45.9843 13.0824 45.9843 12.832 46.0232C12.62 46.0426 12.2347 46.1399 12.0613 46.4121C12.0035 46.5288 11.9264 46.7038 12.0228 46.976C12.1576 47.3649 12.5815 47.8316 12.9668 47.8899C13.988 48.0455 15.0477 48.1621 16.0688 48.2788C16.8395 48.376 17.6295 48.4538 18.4194 48.5705C19.2094 48.6871 19.9993 48.8232 20.77 48.9788C21.1168 49.0566 21.4829 49.1149 21.8297 49.1732L22.0031 49.2121L22.1572 48.5705L20.1727 47.9871C18.0341 47.3454 15.8184 46.6843 13.6219 46.0426ZM20.8278 48.5899C20.0571 48.4343 19.2479 48.2788 18.4579 48.1816C17.668 48.0843 16.878 47.9871 16.1074 47.8899C15.0862 47.7732 14.0458 47.6566 13.0246 47.501C12.832 47.4621 12.5044 47.1315 12.3888 46.8399C12.3503 46.7038 12.3696 46.6454 12.3888 46.626C12.4466 46.5288 12.6393 46.451 12.8898 46.4121C12.9861 46.3926 13.0824 46.3926 13.1788 46.3926C13.2944 46.3926 13.41 46.4121 13.5256 46.4315C15.7028 47.0732 17.9185 47.7343 20.0764 48.3566L20.9241 48.6093C20.8856 48.5899 20.8663 48.5899 20.8278 48.5899Z" fill="#131413"/>
<path d="M6.62792 29.2425L6.57012 29.2619C6.37744 29.3592 6.33891 29.6119 6.30038 29.9231C6.28111 30.0592 6.26184 30.1953 6.24258 30.3314L6.14624 30.7397L8.59316 29.4369L8.36195 29.2425C7.70687 28.698 7.09033 29.0091 6.62792 29.2425Z" fill="#131413"/>
<path d="M13.8916 24.2061C13.1209 24.2255 12.0805 24.8866 11.6181 25.6839L11.3098 26.1894L12.3502 25.7616C13.0824 25.47 13.5255 25.3922 13.7953 25.5478C14.065 25.6839 14.2769 26.0728 14.4696 26.7922C14.6237 27.3756 14.6623 27.9978 14.6815 28.5812C14.7008 28.8534 14.7201 29.1256 14.7393 29.3978L14.7971 29.884L15.1054 29.4951C16.088 28.2117 15.8568 25.5672 14.6623 24.4977C14.4503 24.3227 14.1806 24.2255 13.8916 24.2061ZM15.1054 28.6978C15.1054 28.6589 15.1054 28.6006 15.1054 28.5617C15.0669 27.9395 15.0284 27.2978 14.8742 26.695C14.643 25.8394 14.3925 25.3922 13.9879 25.1977C13.8338 25.12 13.6604 25.0811 13.4677 25.0811C13.198 25.0811 12.8704 25.1589 12.4466 25.3144C12.8897 24.9255 13.4677 24.6338 13.8916 24.6144C14.0843 24.6338 14.2769 24.6922 14.4118 24.8283C15.2788 25.5866 15.5678 27.4922 15.1054 28.6978Z" fill="#131413"/>
</g>
<defs>
<clipPath id="clip0">
<rect width="119.167" height="69.8266" fill="white" transform="translate(0 5.5)"/>
</clipPath>
</defs>
</svg>
