<svg width="32" height="32" viewBox="0 0 32 32" fill="none" xmlns="http://www.w3.org/2000/svg">
<path d="M25.9065 17.307C25.9598 16.8803 25.9998 16.4537 25.9998 16.0003C25.9998 15.547 25.9598 15.1203 25.9065 14.6937L28.7198 12.4937C28.9731 12.2937 29.0398 11.9337 28.8798 11.6403L26.2131 7.02699C26.0931 6.81366 25.8665 6.69366 25.6265 6.69366C25.5465 6.69366 25.4665 6.70699 25.3998 6.73366L22.0798 8.06699C21.3865 7.53366 20.6398 7.09366 19.8265 6.76033L19.3198 3.22699C19.2798 2.90699 18.9998 2.66699 18.6665 2.66699H13.3331C12.9998 2.66699 12.7198 2.90699 12.6798 3.22699L12.1731 6.76033C11.3598 7.09366 10.6131 7.54699 9.91979 8.06699L6.59979 6.73366C6.51979 6.70699 6.43979 6.69366 6.35979 6.69366C6.13312 6.69366 5.90645 6.81366 5.78645 7.02699L3.11979 11.6403C2.94645 11.9337 3.02645 12.2937 3.27979 12.4937L6.09312 14.6937C6.03979 15.1203 5.99979 15.5603 5.99979 16.0003C5.99979 16.4403 6.03979 16.8803 6.09312 17.307L3.27979 19.507C3.02645 19.707 2.95979 20.067 3.11979 20.3603L5.78645 24.9737C5.90645 25.187 6.13312 25.307 6.37312 25.307C6.45312 25.307 6.53312 25.2937 6.59979 25.267L9.91979 23.9337C10.6131 24.467 11.3598 24.907 12.1731 25.2403L12.6798 28.7737C12.7198 29.0937 12.9998 29.3337 13.3331 29.3337H18.6665C18.9998 29.3337 19.2798 29.0937 19.3198 28.7737L19.8265 25.2403C20.6398 24.907 21.3865 24.4537 22.0798 23.9337L25.3998 25.267C25.4798 25.2937 25.5598 25.307 25.6398 25.307C25.8665 25.307 26.0931 25.187 26.2131 24.9737L28.8798 20.3603C29.0398 20.067 28.9731 19.707 28.7198 19.507L25.9065 17.307ZM23.2665 15.027C23.3198 15.4403 23.3331 15.7203 23.3331 16.0003C23.3331 16.2803 23.3065 16.5737 23.2665 16.9737L23.0798 18.4803L24.2665 19.4137L25.7065 20.5337L24.7731 22.147L23.0798 21.467L21.6931 20.907L20.4931 21.8137C19.9198 22.2403 19.3731 22.5603 18.8265 22.787L17.4131 23.3603L17.1998 24.867L16.9331 26.667H15.0665L14.8131 24.867L14.5998 23.3603L13.1865 22.787C12.6131 22.547 12.0798 22.2403 11.5465 21.8403L10.3331 20.907L8.91979 21.4803L7.22645 22.1603L6.29312 20.547L7.73312 19.427L8.91979 18.4937L8.73312 16.987C8.69312 16.5737 8.66645 16.267 8.66645 16.0003C8.66645 15.7337 8.69312 15.427 8.73312 15.027L8.91979 13.5203L7.73312 12.587L6.29312 11.467L7.22645 9.85366L8.91979 10.5337L10.3065 11.0937L11.5065 10.187C12.0798 9.76033 12.6265 9.44033 13.1731 9.21366L14.5865 8.64033L14.7998 7.13366L15.0665 5.33366H16.9198L17.1731 7.13366L17.3865 8.64033L18.7998 9.21366C19.3731 9.45366 19.9065 9.76033 20.4398 10.1603L21.6531 11.0937L23.0665 10.5203L24.7598 9.84033L25.6931 11.4537L24.2665 12.587L23.0798 13.5203L23.2665 15.027ZM15.9998 10.667C13.0531 10.667 10.6665 13.0537 10.6665 16.0003C10.6665 18.947 13.0531 21.3337 15.9998 21.3337C18.9465 21.3337 21.3331 18.947 21.3331 16.0003C21.3331 13.0537 18.9465 10.667 15.9998 10.667ZM15.9998 18.667C14.5331 18.667 13.3331 17.467 13.3331 16.0003C13.3331 14.5337 14.5331 13.3337 15.9998 13.3337C17.4665 13.3337 18.6665 14.5337 18.6665 16.0003C18.6665 17.467 17.4665 18.667 15.9998 18.667Z" fill="#363936"/>
</svg>
