<svg width="477" height="592" viewBox="0 0 477 592" fill="none" xmlns="http://www.w3.org/2000/svg">
<g clip-path="url(#clip0)">
<g opacity="0.4">
<g clip-path="url(#clip1)">
<path d="M991.861 446.756C992.014 446.451 992.014 445.993 992.166 445.688L503.547 288.024C503.547 287.719 503.7 287.566 503.7 287.261L640.599 322.06C640.293 318.549 639.682 315.955 639.682 313.513C639.682 307.56 636.779 304.813 631.279 302.982C619.514 299.013 607.902 294.434 596.29 290.008C584.373 285.582 572.455 281.003 560.537 276.577C560.69 276.272 560.69 275.966 560.843 275.661L841.211 355.027C841.364 354.722 841.364 354.417 841.517 354.112L631.432 272.456C634.793 268.946 637.39 265.893 640.293 263.146C657.1 246.815 672.226 229.11 685.672 210.031C697.284 193.548 707.368 176.301 712.41 156.612C718.827 132.344 723.258 107.619 723.563 82.435C723.716 70.0722 727.689 58.1673 735.023 48.2465C740.829 40.0046 747.246 32.2207 753.052 23.9788C759.01 15.5843 756.413 8.4108 746.329 5.35825C737.314 2.3057 727.383 3.67935 719.438 9.17393C706.604 18.1789 695.756 29.626 693.311 45.6519C691.172 60.6093 689.797 75.7194 689.491 90.8296C688.422 119.981 684.297 148.217 669.629 173.859C655.267 198.584 637.849 221.479 618.139 242.083C606.221 254.599 592.776 259.788 576.428 257.499C558.398 255.057 540.369 251.851 522.493 248.341C473.753 239.183 425.014 229.72 376.427 220.258C372.913 219.494 369.704 217.663 367.107 215.068C363.134 210.489 357.786 207.284 351.981 205.911C347.855 204.995 343.883 203.469 339.757 202.095C327.993 198.279 316.228 194.463 304.31 190.648C304.31 190.495 304.463 190.343 304.463 190.19L457.711 225.752C457.863 225.294 458.016 224.684 458.169 224.226L306.297 175.69C306.449 175.385 306.449 174.927 306.602 174.622L337.924 179.353C331.507 173.859 324.479 169.891 317.909 165.312C311.339 160.733 304.158 158.291 296.518 159.207C283.531 160.885 270.544 163.633 257.557 165.617C254.959 166.075 251.445 166.075 249.612 164.549C235.402 153.254 219.36 149.133 201.483 151.88C191.552 153.407 181.926 152.796 173.065 146.539C169.703 144.402 166.189 143.028 162.369 142.112C153.202 139.67 147.854 142.112 142.354 149.744C140.979 151.423 138.993 152.491 136.854 152.796C120.505 154.323 106.601 161.038 94.3782 171.722C90.8641 174.927 88.8778 178.59 90.4057 183.627C91.628 187.595 90.2529 190.953 86.8916 193.853C83.0718 197.516 79.5577 201.332 76.1963 205.3C73.1405 208.81 73.4461 211.863 76.1963 215.679C81.5439 223.157 86.586 230.789 91.628 238.42C94.531 242.846 98.3507 244.067 103.24 242.236C104.921 241.778 106.449 240.862 107.824 239.794C114.852 233.078 121.727 233.383 129.52 238.725C137.159 243.915 144.799 242.694 152.132 237.047C160.536 230.789 174.898 235.215 179.023 244.831C185.44 259.788 192.163 274.593 198.733 289.55C198.886 289.703 198.428 290.161 198.58 290.008C189.719 289.703 180.857 289.856 172.148 289.245C162.98 288.635 153.966 286.956 144.799 286.956C134.256 286.956 124.63 290.771 119.283 300.539C116.533 305.729 114.546 311.223 113.324 316.871C109.199 333.049 112.713 347.701 123.255 360.522C128.603 366.932 140.521 366.322 142.201 359.148C144.187 350.906 148.924 342.359 141.132 333.66C134.867 326.639 139.451 316.871 148.771 315.039C152.591 314.123 156.563 314.276 160.23 315.192C177.495 320.381 194.608 326.333 212.026 331.37C229.902 336.407 248.237 340.528 266.266 345.107C271.002 346.328 273.6 345.259 273.905 339.765C274.516 329.233 275.739 318.855 276.503 308.476C276.808 303.592 276.808 298.708 276.961 293.977C280.781 307.408 284.753 320.839 281.85 334.728C281.086 338.544 282.92 340.223 285.976 341.138C302.63 345.87 318.978 351.975 335.938 354.875C392.317 364.338 448.849 372.732 505.381 381.432C512.256 382.5 519.132 383.416 526.007 384.484C526.007 384.179 526.16 383.721 526.16 383.416C471.461 369.527 416.763 355.638 362.065 341.749C377.802 342.97 393.386 344.954 408.971 347.091C423.333 349.075 437.542 350.754 452.363 348.007C464.28 346.022 476.351 345.412 488.421 346.328C517.909 347.854 541.897 360.217 559.01 384.79C565.274 393.795 571.386 402.647 576.886 412.11C583.761 423.71 593.693 431.341 605.916 436.225C611.263 438.515 616.764 440.346 622.417 441.72C642.127 445.993 661.989 449.962 681.852 453.625C690.408 455.151 698.506 458.814 705.229 464.461C722.799 478.961 736.55 496.818 750.149 514.828C757.941 525.207 766.192 535.28 774.748 545.048C779.026 550.085 786.971 549.017 789.568 543.675C791.86 538.943 792.318 534.059 789.415 529.175C788.499 527.649 787.124 525.97 787.276 524.596C788.04 518.949 784.985 515.591 781.165 512.081C777.04 508.265 773.22 503.992 768.942 500.329C751.829 485.219 738.384 466.445 729.675 445.23C728.453 442.941 726.314 441.262 723.869 440.346C690.867 426.915 657.864 413.789 624.862 400.51C622.723 399.595 620.736 398.831 618.597 397.916C618.75 397.61 618.903 397.153 618.903 396.847L896.979 466.445C895.757 465.072 894.229 464.156 892.395 463.698C815.39 438.82 738.537 413.942 661.378 389.521C652.058 386.621 646.863 382.5 647.016 372.732C647.016 368.611 644.571 367.238 641.21 366.169C621.653 359.606 602.249 352.891 582.692 346.175L530.285 328.318C530.285 328.012 530.438 327.86 530.591 327.555L991.861 446.756ZM100.031 197.363C100.795 194.006 100.49 190.495 101.712 189.885C105.379 188.053 109.657 185.764 114.394 189.732L100.031 197.363ZM167.564 189.579C166.953 182.864 167.106 175.538 165.272 168.822C162.064 156.612 157.938 154.933 146.326 159.664C145.104 160.122 143.882 160.58 142.354 161.191C145.715 155.696 153.508 150.507 159.161 150.354C160.994 150.507 162.828 151.117 164.203 152.491C173.217 160.275 174.745 180.269 167.564 189.579Z" fill="#2BA55D"/>
<path d="M54.9587 333.812C52.3613 337.322 50.8334 341.748 50.5278 346.175C50.6806 349.532 52.2085 352.738 54.8059 354.722C56.945 356.095 60.7647 354.874 63.8205 354.722C65.0428 354.569 66.2651 353.653 67.3346 353.959C75.738 355.332 78.9466 354.569 82.6135 347.243C86.8916 338.849 93.6143 335.186 102.323 333.659C103.851 333.354 105.074 332.286 105.837 330.912C107.518 322.06 108.893 313.055 110.727 302.065C97.2813 307.255 84.2942 311.223 72.3767 317.328C65.6539 320.839 60.1535 327.707 54.9587 333.812Z" fill="#2BA55D"/>
<path d="M590.79 452.098C566.038 446.146 541.592 438.82 516.534 434.393C478.795 427.678 440.751 422.946 402.859 417.452C392.317 415.926 381.774 414.399 371.232 412.873C371.232 413.178 371.079 413.484 371.079 413.789L683.991 475.908C682.157 474.687 680.171 473.771 678.032 473.313C648.849 466.445 619.82 459.272 590.79 452.098Z" fill="#2BA55D"/>
<path d="M441.056 406.615L441.209 405.7L272.53 370.748L272.225 371.969C286.434 376.395 300.643 380.974 315.006 385.095C328.604 389.063 342.202 393.337 355.953 395.932C373.371 399.137 390.942 400.51 408.512 402.647C419.513 403.868 430.208 405.242 441.056 406.615Z" fill="#2BA55D"/>
<path d="M150.91 321.602C147.855 322.06 144.493 323.434 145.716 326.944C146.632 329.539 149.535 332.744 151.98 333.202C166.342 335.338 180.704 336.56 195.066 338.544C204.234 339.765 213.248 341.749 222.263 343.275L222.874 340.986C200.872 334.575 178.871 328.012 156.716 321.602C154.883 321.297 152.897 321.297 150.91 321.602Z" fill="#2BA55D"/>
<path d="M167.564 189.426C166.953 182.711 167.106 175.385 165.272 168.669C162.064 156.459 157.938 154.78 146.327 159.511C145.104 159.969 143.882 160.427 142.354 161.038C145.715 155.543 153.508 150.354 159.161 150.201C160.994 150.354 162.828 151.117 164.203 152.338C173.217 160.275 174.745 180.269 167.564 189.426Z" fill="#237745"/>
<path d="M247.32 201.941C245.487 202.399 243.806 203.01 242.125 203.773C241.361 204.231 241.056 204.994 241.056 205.91C241.667 207.894 242.584 209.725 243.5 211.557C243.959 212.015 244.57 212.167 245.181 211.862C247.473 210.641 249.306 208.504 250.223 206.062C250.834 203.926 249.765 202.399 247.32 201.941Z" fill="#131413"/>
<path d="M228.833 187.748C230.514 187.443 232.194 187.137 233.875 186.527C234.639 186.374 235.25 185.764 235.556 185.153C236.32 183.779 235.709 182.101 234.333 181.337C233.111 180.574 231.736 179.811 230.208 179.353C230.208 179.353 230.055 179.201 229.903 179.201C228.833 178.743 227.611 179.353 227.152 180.422C226.541 181.49 226.083 182.558 225.777 183.779C225.013 186.985 225.319 187.443 228.833 187.748Z" fill="#131413"/>
<path d="M222.11 212.168C221.04 211.405 219.818 210.795 218.596 210.337C218.443 210.337 218.443 210.184 218.29 210.184C217.373 209.879 216.304 210.337 215.998 211.252C215.387 212.626 214.929 214.152 214.623 215.679C214.47 216.594 214.929 217.205 215.845 217.205C216.304 217.205 216.915 217.358 217.373 217.358V217.51C218.748 217.357 220.276 217.052 221.651 216.594C222.263 216.442 222.874 215.984 223.179 215.373C223.79 214.305 223.332 212.779 222.11 212.168Z" fill="#131413"/>
<path d="M211.568 191.868C210.192 192.479 208.97 193.242 207.901 194.31C207.442 194.921 207.289 195.684 207.595 196.447C208.512 197.821 209.581 199.042 210.804 200.11C211.262 200.263 211.873 200.263 212.331 199.958C213.401 198.279 214.318 196.447 214.929 195.531C215.234 192.326 213.707 190.953 211.568 191.868Z" fill="#131413"/>
<path d="M203.47 171.416C203.928 172.026 204.539 172.484 205.303 172.637C206.831 172.942 208.359 171.874 208.664 170.348C209.123 168.821 209.428 167.448 209.581 165.921C209.581 165.769 209.581 165.769 209.581 165.616C209.734 164.395 208.817 163.479 207.748 163.327C206.525 163.021 205.303 163.021 204.081 163.021C200.567 163.021 200.414 163.479 201.025 166.837C201.789 168.516 202.553 170.042 203.47 171.416Z" fill="#131413"/>
<path d="M188.343 192.479C191.399 191.868 192.316 189.884 190.941 188.205C190.024 187.137 188.954 186.068 187.579 185.305C186.815 185 186.051 185.153 185.44 185.611C184.371 186.832 183.454 188.358 182.69 189.731C182.69 190.342 182.843 190.8 183.301 191.105C185.287 191.716 187.274 192.174 188.343 192.479Z" fill="#131413"/>
<path d="M192.928 209.268C191.858 208.963 190.789 208.505 189.719 208.353C189.261 208.81 188.191 209.116 188.038 209.726C187.733 210.947 187.58 212.321 187.733 213.542C187.733 213.847 188.497 214.61 188.802 214.61C190.483 214.305 192.011 213.694 193.539 212.931C193.997 212.626 194.303 212.168 194.455 211.71C194.608 210.489 193.844 209.421 192.928 209.268Z" fill="#131413"/>
<path d="M188.955 231.094C187.885 230.788 186.816 230.33 185.746 230.178C185.288 230.636 184.219 230.941 184.066 231.551C183.76 232.772 183.607 234.146 183.76 235.367C183.76 235.672 184.524 236.435 184.83 236.435C186.51 236.13 188.038 235.52 189.566 234.757C190.024 234.451 190.33 233.993 190.483 233.536C190.636 232.467 190.024 231.399 188.955 231.094Z" fill="#131413"/>
<path d="M442.431 328.622C440.598 329.08 438.917 329.69 437.237 330.454C436.473 330.911 436.167 331.675 436.167 332.59C436.778 334.575 437.695 336.406 438.612 338.238C439.07 338.695 439.681 338.848 440.292 338.543C442.584 337.322 444.418 335.185 445.334 332.743C445.945 330.454 444.723 328.927 442.431 328.622Z" fill="#131413"/>
<path d="M434.029 241.93C432.806 241.166 431.431 240.403 429.903 239.793C429.903 239.793 429.751 239.64 429.598 239.64C428.528 239.182 427.306 239.793 426.848 240.861C426.237 241.93 425.778 242.998 425.473 244.219C424.556 247.577 424.862 247.882 428.376 248.34C430.056 248.035 431.737 247.729 433.418 247.119C434.181 246.966 434.793 246.356 435.098 245.745C435.862 244.372 435.404 242.54 434.029 241.93Z" fill="#131413"/>
<path d="M383.149 330.301C382.08 329.538 380.857 328.927 379.635 328.469C379.482 328.469 379.482 328.317 379.33 328.317C378.413 328.012 377.343 328.469 377.038 329.385C376.427 330.759 375.968 332.285 375.663 333.811C375.51 334.727 375.968 335.338 376.885 335.338C377.343 335.338 377.955 335.49 378.413 335.49V335.643C379.788 335.49 381.316 335.185 382.691 334.727C383.302 334.575 383.913 334.117 384.219 333.506C384.83 332.438 384.372 330.912 383.149 330.301Z" fill="#131413"/>
<path d="M406.526 266.961C405.151 267.572 403.929 268.335 402.859 269.403C402.401 270.014 402.248 270.777 402.554 271.54C403.47 272.914 404.54 274.135 405.762 275.203C406.22 275.356 406.832 275.356 407.29 275.05C408.36 273.371 409.276 271.54 409.887 270.624C410.193 267.419 408.665 266.045 406.526 266.961Z" fill="#131413"/>
<path d="M384.83 241.778C383.608 241.473 382.386 241.473 381.163 241.473C377.649 241.473 377.496 241.931 378.107 245.288C378.871 246.815 379.635 248.341 380.552 249.715C381.01 250.325 381.622 250.783 382.386 250.936C383.913 251.241 385.441 250.172 385.747 248.646C386.205 247.12 386.511 245.746 386.664 244.22C386.664 244.067 386.664 244.067 386.664 243.915C386.817 242.999 386.053 241.931 384.83 241.778Z" fill="#131413"/>
<path d="M365.426 270.777C368.482 270.166 369.399 268.182 368.023 266.503C367.107 265.435 366.037 264.366 364.662 263.603C363.898 263.298 363.134 263.451 362.523 263.908C361.454 265.129 360.537 266.656 359.773 268.029C359.773 268.64 359.926 269.098 360.384 269.403C362.37 270.166 364.357 270.471 365.426 270.777Z" fill="#131413"/>
<path d="M336.091 287.26C335.327 286.955 334.563 287.108 333.952 287.566C332.882 288.787 331.966 290.313 331.202 291.687C331.202 292.297 331.354 292.755 331.813 293.06C333.646 293.671 335.633 293.976 336.855 294.281C339.911 293.671 340.827 291.687 339.452 290.008C338.383 288.939 337.313 288.024 336.091 287.26Z" fill="#131413"/>
<path d="M365.732 298.402C364.968 298.097 364.204 298.249 363.593 298.707C362.523 299.928 361.607 301.455 360.843 302.828C360.843 303.439 360.996 303.897 361.454 304.202C363.287 304.812 365.274 305.118 366.496 305.423C369.552 304.812 370.468 302.828 369.093 301.149C368.177 300.233 367.107 299.165 365.732 298.402Z" fill="#131413"/>
<path d="M403.47 300.234C402.401 299.929 401.331 299.471 400.262 299.318C399.803 299.776 398.734 300.081 398.581 300.692C398.275 301.913 398.122 303.287 398.275 304.508C398.275 304.813 399.039 305.576 399.345 305.576C401.025 305.271 402.553 304.66 404.081 303.897C404.54 303.592 404.845 303.134 404.998 302.676C405.151 301.455 404.54 300.387 403.47 300.234Z" fill="#131413"/>
<path d="M457.405 289.397C456.335 289.092 455.266 288.634 454.196 288.481C453.738 288.939 452.668 289.245 452.515 289.855C452.21 291.076 452.057 292.45 452.21 293.671C452.21 293.976 452.974 294.739 453.279 294.739C454.96 294.434 456.488 293.823 458.016 293.06C458.474 292.755 458.78 292.297 458.932 291.839C459.085 290.771 458.474 289.702 457.405 289.397Z" fill="#131413"/>
<path d="M472.99 238.42C471.92 238.114 470.851 237.657 469.781 237.504C469.323 237.962 468.253 238.267 468.1 238.878C467.795 240.099 467.642 241.472 467.795 242.693C467.795 242.998 468.559 243.762 468.864 243.762C470.545 243.456 472.073 242.846 473.601 242.083C474.059 241.777 474.365 241.32 474.518 240.862C474.67 239.793 474.059 238.725 472.99 238.42Z" fill="#131413"/>
<path d="M331.812 338.543C330.743 338.237 329.673 337.78 328.604 337.627C328.145 338.085 327.076 338.39 326.923 339.001C326.618 340.222 326.465 341.595 326.618 342.816C326.618 343.122 327.381 343.885 327.687 343.885C329.368 343.579 330.896 342.969 332.424 342.206C332.882 341.901 333.188 341.443 333.34 340.985C333.493 339.764 332.729 338.695 331.812 338.543Z" fill="#131413"/>
<path d="M327.076 255.667C329.368 254.446 331.201 252.309 332.118 249.867C332.729 247.73 331.66 246.204 329.215 245.746C327.382 246.204 325.701 246.814 324.02 247.578C323.256 248.036 322.951 248.799 322.951 249.714C323.562 251.699 324.479 253.53 325.395 255.362C325.854 255.82 326.465 255.82 327.076 255.667Z" fill="#131413"/>
<path d="M325.701 217.662C326.465 216.289 325.854 214.61 324.479 213.847C323.256 213.083 321.881 212.32 320.353 211.71L320.201 211.557C319.131 211.099 317.909 211.71 317.45 212.778C316.839 213.847 316.381 214.915 316.075 216.136C315.158 219.494 315.464 219.799 318.978 220.257C320.659 219.952 322.34 219.646 324.02 219.036C324.631 218.883 325.243 218.273 325.701 217.662Z" fill="#131413"/>
<path d="M356.412 221.783C355.189 221.02 353.814 220.257 352.286 219.646L352.134 219.494C351.064 219.036 349.842 219.646 349.383 220.715C348.772 221.783 348.314 222.851 348.008 224.072C347.092 227.43 347.397 227.735 350.911 228.193C352.592 227.888 354.273 227.583 355.953 226.972C356.717 226.82 357.328 226.209 357.634 225.599C358.398 224.225 357.787 222.546 356.412 221.783Z" fill="#131413"/>
<path d="M306.144 273.676C306.755 272.455 306.297 270.929 305.227 270.319C304.158 269.555 302.935 268.945 301.713 268.487C301.56 268.487 301.56 268.334 301.407 268.334C300.491 268.029 299.421 268.487 299.115 269.403C298.504 270.776 298.046 272.303 297.74 273.829C297.588 274.745 298.046 275.355 298.963 275.355C299.421 275.355 300.032 275.508 300.491 275.508V275.661C301.866 275.508 303.394 275.203 304.769 274.745C305.227 274.745 305.838 274.287 306.144 273.676Z" fill="#131413"/>
<path d="M312.867 314.734C311.797 313.97 310.575 313.36 309.353 312.902C309.2 312.902 309.2 312.749 309.047 312.749C308.13 312.444 307.061 312.902 306.755 313.818C306.144 315.191 305.686 316.718 305.38 318.244C305.227 319.16 305.686 319.77 306.602 319.77C307.061 319.77 307.672 319.923 308.13 319.923V320.075C309.505 319.923 311.033 319.618 312.408 319.16C313.019 319.007 313.631 318.549 313.936 317.939C314.547 317.023 314.089 315.497 312.867 314.734Z" fill="#131413"/>
<path d="M299.727 240.252C300.797 238.573 301.714 236.741 302.325 235.826C302.478 232.62 300.95 231.399 298.964 232.163C297.588 232.773 296.366 233.536 295.297 234.605C294.838 235.215 294.685 235.978 294.991 236.741C295.908 238.115 296.977 239.336 298.2 240.404C298.811 240.71 299.269 240.557 299.727 240.252Z" fill="#131413"/>
<path d="M287.045 202.858C285.823 202.553 284.6 202.553 283.378 202.553C279.864 202.553 279.711 203.011 280.322 206.368C281.086 207.895 281.85 209.421 282.767 210.795C283.225 211.405 283.836 211.863 284.6 212.016C286.128 212.321 287.656 211.252 287.962 209.726C288.42 208.2 288.726 206.826 288.878 205.3C288.878 205.147 288.878 205.147 288.878 204.995C289.031 204.079 288.114 203.011 287.045 202.858Z" fill="#131413"/>
<path d="M264.585 233.535C264.585 234.146 264.738 234.604 265.196 234.909C267.03 235.52 269.016 235.825 270.238 236.13C273.294 235.52 274.211 233.536 272.836 231.857C271.919 230.788 270.849 229.72 269.474 228.957C268.71 228.651 267.946 228.804 267.335 229.262C266.266 230.788 265.349 232.162 264.585 233.535Z" fill="#131413"/>
<path d="M274.669 253.072C273.6 252.767 272.53 252.309 271.461 252.156C271.002 252.614 269.933 252.919 269.78 253.53C269.474 254.751 269.322 256.125 269.474 257.346C269.474 257.651 270.238 258.414 270.544 258.414C272.225 258.109 273.753 257.498 275.28 256.735C275.739 256.43 276.044 255.972 276.197 255.514C276.35 254.293 275.739 253.225 274.669 253.072Z" fill="#131413"/>
<path d="M270.85 275.051C269.78 274.745 268.711 274.287 267.641 274.135C267.183 274.593 266.114 274.898 265.961 275.508C265.655 276.729 265.502 278.103 265.655 279.324C265.655 279.629 266.419 280.392 266.725 280.392C268.405 280.087 269.933 279.477 271.461 278.714C271.92 278.408 272.225 277.95 272.378 277.493C272.531 276.272 271.767 275.203 270.85 275.051Z" fill="#131413"/>
<path d="M235.097 308.476C233.569 307.407 232.041 306.339 230.514 305.423C229.75 305.118 228.833 305.271 228.069 305.881C226.847 307.56 225.93 309.391 225.013 311.223C225.013 311.833 225.319 312.444 225.777 312.749C228.222 313.818 230.972 313.97 233.417 313.207C235.708 312.444 236.167 310.612 235.097 308.476Z" fill="#131413"/>
<path d="M154.73 297.792C153.202 296.724 151.674 295.655 150.146 294.74C149.382 294.434 148.466 294.587 147.702 295.197C146.479 296.876 145.563 298.708 144.646 300.539C144.646 301.15 144.952 301.76 145.41 302.066C147.855 303.134 150.605 303.287 153.049 302.524C155.341 301.76 155.8 299.929 154.73 297.792Z" fill="#131413"/>
<path d="M121.575 315.344C123.714 314.581 124.172 312.749 123.103 310.612C121.575 309.544 120.047 308.476 118.519 307.56C117.755 307.255 116.838 307.407 116.074 308.018C114.852 309.697 113.935 311.528 113.019 313.36C113.019 313.97 113.324 314.581 113.783 314.886C116.38 315.954 119.13 316.107 121.575 315.344Z" fill="#131413"/>
<path d="M126.617 348.464C125.089 347.396 123.561 346.327 122.033 345.411C121.269 345.106 120.352 345.259 119.588 345.869C118.366 347.548 117.449 349.38 116.533 351.211C116.533 351.822 116.838 352.432 117.297 352.738C119.741 353.806 122.491 353.959 124.936 353.195C127.075 352.432 127.686 350.601 126.617 348.464Z" fill="#131413"/>
<path d="M142.812 352.737C141.284 351.669 139.756 350.601 138.228 349.685C137.464 349.38 136.548 349.532 135.784 350.143C134.561 351.822 133.645 353.653 132.728 355.485C132.728 356.095 133.034 356.706 133.492 357.011C135.937 358.079 138.687 358.232 141.131 357.469C143.27 356.706 143.882 354.874 142.812 352.737Z" fill="#131413"/>
<path d="M242.736 281.155C242.736 281.003 242.736 281.003 242.736 280.85C242.431 279.782 241.361 279.018 240.139 279.324C238.917 279.476 237.847 279.934 236.625 280.392C233.416 281.613 233.263 282.071 235.097 285.124C236.319 286.345 237.694 287.413 239.069 288.329C239.681 288.787 240.445 288.939 241.209 288.787C242.736 288.481 243.806 286.955 243.5 285.429C243.5 284.055 243.195 282.529 242.736 281.155Z" fill="#131413"/>
<path d="M210.956 290.618C210.956 290.466 210.956 290.313 210.804 290.313C210.498 289.397 209.428 288.787 208.512 289.092C206.984 289.55 205.456 290.008 204.081 290.618C203.928 290.618 203.775 290.771 203.775 290.771C203.317 291.229 203.164 291.992 203.622 292.45C203.928 292.908 204.234 293.366 204.386 293.671L204.234 293.824C205.303 294.892 206.373 295.808 207.595 296.571C208.053 297.029 208.817 297.181 209.428 297.029C210.804 296.876 211.72 295.655 211.567 294.281C211.567 293.213 211.415 291.839 210.956 290.618Z" fill="#131413"/>
<path d="M221.499 273.829C220.276 273.066 218.901 272.608 217.373 272.455C216.609 272.455 215.845 272.913 215.54 273.523C215.081 275.05 214.623 276.729 214.623 278.408C214.623 278.713 215.387 279.629 215.693 279.476C217.679 279.323 219.665 279.018 220.735 278.866C223.332 277.034 223.332 274.897 221.499 273.829Z" fill="#131413"/>
<path d="M234.944 250.478C234.18 252.004 233.416 253.53 232.805 255.209C232.5 255.972 232.5 256.735 232.958 257.499C233.722 258.872 235.403 259.483 236.778 258.872C238.153 258.262 239.528 257.651 240.903 256.888C240.903 256.888 241.056 256.888 241.056 256.735C242.125 256.125 242.431 254.904 241.82 253.836C241.361 252.767 240.598 251.699 239.834 250.783C237.847 247.883 237.389 247.883 234.944 250.478Z" fill="#131413"/>
<path d="M210.651 249.256C208.971 249.256 207.29 249.256 205.762 249.561C205.304 249.866 204.998 250.324 204.998 250.935C205.762 252.766 206.526 254.598 206.984 255.666C209.429 257.65 211.415 257.193 211.874 255.056C212.179 253.682 212.332 252.156 212.179 250.782C212.026 250.019 211.415 249.408 210.651 249.256Z" fill="#131413"/>
<path d="M234.486 227.889C232.805 227.889 231.124 227.889 229.596 228.194C229.138 228.499 228.833 228.957 228.833 229.568C229.596 231.399 230.36 233.231 230.819 234.299C233.263 236.283 235.25 235.825 235.708 233.688C236.014 232.315 236.166 230.789 236.014 229.415C235.861 228.652 235.25 228.041 234.486 227.889Z" fill="#131413"/>
<path d="M165.12 195.531C163.286 195.989 161.606 196.6 159.925 197.363C159.161 197.821 158.855 198.584 158.855 199.5C159.467 201.484 160.383 203.315 161.3 205.147C161.758 205.605 162.37 205.757 162.981 205.452C165.273 204.231 167.106 202.094 168.023 199.652C168.634 197.363 167.564 195.837 165.12 195.531Z" fill="#131413"/>
<path d="M133.492 210.794C133.951 210.794 134.562 210.947 135.02 210.947V211.099C136.395 210.947 137.923 210.641 139.298 210.183C139.91 210.031 140.521 209.573 140.826 208.962C141.437 207.741 140.979 206.215 139.91 205.605C138.84 204.842 137.618 204.231 136.395 203.773C136.243 203.773 136.243 203.621 136.09 203.621C135.173 203.315 134.104 203.773 133.798 204.689C133.187 206.063 132.728 207.589 132.423 209.115C132.117 210.031 132.576 210.641 133.492 210.794Z" fill="#131413"/>
<path d="M102.323 228.652C101.254 227.888 100.031 227.278 98.8091 226.82C98.6563 226.82 98.6563 226.667 98.5035 226.667C97.5868 226.362 96.5173 226.82 96.2117 227.736C95.6005 229.109 95.1421 230.636 94.8366 232.162C94.6838 233.078 95.1421 233.688 96.0589 233.688C96.5173 233.688 97.1284 233.841 97.5868 233.841V233.994C98.9619 233.841 100.49 233.536 101.865 233.078C102.476 232.925 103.087 232.467 103.393 231.857C104.004 230.788 103.546 229.262 102.323 228.652Z" fill="#131413"/>
<path d="M133.034 168.669C133.645 167.448 133.187 165.921 132.117 165.311C131.048 164.548 129.825 163.937 128.603 163.479C128.45 163.479 128.45 163.327 128.297 163.327C127.381 163.021 126.311 163.479 126.006 164.395C125.394 165.769 124.936 167.295 124.631 168.821C124.478 169.737 124.936 170.347 125.853 170.347C126.311 170.347 126.922 170.5 127.381 170.5V170.653C128.756 170.5 130.284 170.195 131.659 169.737C132.117 169.584 132.728 169.126 133.034 168.669Z" fill="#131413"/>
<path d="M154.424 178.742C153.355 177.979 152.132 177.369 150.91 176.911C150.757 176.911 150.757 176.758 150.605 176.758C149.688 176.453 148.618 176.911 148.313 177.827C147.702 179.2 147.243 180.727 146.938 182.253C146.785 183.169 147.243 183.779 148.16 183.779C148.618 183.779 149.229 183.932 149.688 183.932V184.084C151.063 183.932 152.591 183.627 153.966 183.169C154.577 183.016 155.188 182.558 155.494 181.948C156.105 180.879 155.647 179.353 154.424 178.742Z" fill="#131413"/>
<path d="M288.42 171.264C287.35 170.501 286.128 169.89 284.906 169.432C284.753 169.432 284.753 169.28 284.6 169.28C283.683 168.974 282.614 169.432 282.308 170.348C281.697 171.722 281.239 173.248 280.933 174.774C280.78 175.69 281.239 176.301 282.156 176.301C282.614 176.301 283.225 176.453 283.683 176.453V176.606C285.059 176.453 286.586 176.148 287.962 175.69C288.573 175.538 289.184 175.08 289.489 174.469C289.948 173.401 289.489 172.027 288.42 171.264Z" fill="#131413"/>
<path d="M261.529 190.8V190.953C262.904 190.8 264.432 190.495 265.807 190.037C266.418 189.884 267.03 189.427 267.335 188.816C267.946 187.595 267.488 186.069 266.418 185.458C265.349 184.695 264.127 184.085 262.904 183.627C262.751 183.627 262.751 183.474 262.599 183.474C261.682 183.169 260.612 183.627 260.307 184.542C259.696 185.916 259.237 187.442 258.932 188.969C258.779 189.884 259.237 190.495 260.154 190.495C260.46 190.648 261.071 190.648 261.529 190.8Z" fill="#131413"/>
<path d="M95.142 209.421C95.6004 208.352 95.142 207.131 94.0725 206.674C93.1557 206.368 92.239 206.063 91.3223 205.758C90.8639 206.216 90.1 206.521 89.9472 207.131C89.6416 208.352 89.6416 209.726 89.6416 210.947C89.6416 211.252 90.2528 212.016 90.4055 212.016C91.7806 211.71 93.1557 211.1 94.3781 210.337C94.8364 210.031 94.9892 209.726 95.142 209.421Z" fill="#131413"/>
<path d="M148.619 227.735C151.063 229.72 153.049 229.262 153.508 227.125C153.813 225.751 153.966 224.225 153.813 222.851C153.661 222.088 153.049 221.478 152.286 221.325C150.605 221.325 148.924 221.325 147.396 221.63C146.938 221.936 146.632 222.394 146.632 223.004C147.243 224.988 148.16 226.82 148.619 227.735Z" fill="#131413"/>
<path d="M185.135 304.355C184.524 304.202 183.607 303.592 182.996 303.897C181.774 304.355 180.704 305.118 179.788 306.034C179.482 306.186 179.329 307.255 179.635 307.407C180.857 308.476 182.385 309.391 183.913 310.155C185.594 310.765 186.816 309.391 186.358 307.56C186.052 306.491 185.594 305.423 185.135 304.355Z" fill="#131413"/>
<path d="M139.298 321.449C138.993 320.381 138.535 319.313 138.076 318.244C137.465 318.092 136.548 317.481 135.937 317.786C134.715 318.244 133.645 319.007 132.729 319.923C132.423 320.076 132.27 321.144 132.576 321.297C133.798 322.365 135.326 323.281 136.854 324.044C138.382 324.655 139.757 323.128 139.298 321.449Z" fill="#131413"/>
<path d="M265.502 315.954C264.891 315.802 263.975 315.191 263.363 315.496C262.141 315.954 261.072 316.717 260.155 317.633C259.849 317.786 259.696 318.854 260.002 319.007C261.224 320.075 262.752 320.991 264.28 321.754C265.961 322.365 267.183 320.991 266.725 319.16C266.266 317.938 265.961 316.87 265.502 315.954Z" fill="#131413"/>
<path d="M54.9591 334.575C53.8895 336.101 52.82 337.627 51.9033 339.154C51.5977 339.917 51.7505 340.833 52.3616 341.596C54.0423 342.817 55.8758 343.732 57.7093 344.648C58.3204 344.648 58.9316 344.343 59.2371 343.885C60.3067 341.443 60.4595 338.696 59.6955 336.254C58.9316 333.964 57.0981 333.506 54.9591 334.575Z" fill="#131413"/>
<path d="M83.6832 329.996C82.6137 331.522 81.5441 333.048 80.6274 334.575C80.3218 335.338 80.4746 336.253 81.0858 337.017C82.7664 338.238 84.5999 339.153 86.4334 340.069C87.0445 340.069 87.6557 339.764 87.9613 339.306C89.0308 336.864 89.1836 334.117 88.4196 331.675C87.6557 329.385 85.8222 328.927 83.6832 329.996Z" fill="#131413"/>
<path d="M97.2813 309.697C96.2118 311.224 95.1423 312.75 94.2255 314.276C93.92 315.039 94.0728 315.955 94.6839 316.718C96.3646 317.939 98.1981 318.855 100.032 319.771C100.643 319.771 101.254 319.465 101.559 319.008C102.629 316.566 102.782 313.818 102.018 311.376C101.254 309.087 99.4204 308.476 97.2813 309.697Z" fill="#131413"/>
<path d="M539.3 297.944L642.432 324.196L642.127 321.907C641.974 320.686 641.821 319.617 641.668 318.549C641.363 316.565 641.21 315.038 641.21 313.512C641.21 307.407 638.307 303.591 631.737 301.454C623.334 298.707 614.777 295.349 606.527 292.297C603.318 291.076 599.957 289.855 596.748 288.634L584.067 283.902L840.599 356.553L841.975 357.011L843.35 353.348L634.029 271.997C634.487 271.387 635.098 270.929 635.557 270.318C637.543 268.182 639.376 266.198 641.21 264.366C658.017 248.035 673.296 230.178 686.894 211.099C701.103 191.105 709.507 174.469 713.938 157.222C721.271 129.138 724.786 105.328 725.091 82.5869C725.244 70.5293 729.064 59.0823 736.245 49.3141C739.148 45.3458 742.203 41.2249 745.106 37.4092C748.162 33.4409 751.371 29.1673 754.274 25.0464C757.482 20.6202 758.399 16.194 757.177 12.531C755.802 8.71528 752.287 5.81536 746.94 4.13646C737.62 0.473405 727.077 1.99968 718.827 7.64689C703.089 18.7887 694.38 30.9989 692.089 45.1932C689.95 60.1507 688.575 75.4134 688.269 90.5235C687.505 114.181 684.449 145.011 668.559 172.79C654.197 197.363 636.932 220.257 617.222 240.709C605.763 252.919 592.47 257.803 576.886 255.666C558.093 253.072 539.3 249.714 522.951 246.509C474.517 237.351 425.319 227.888 376.885 218.425C373.676 217.662 370.621 216.136 368.482 213.846C364.203 209.115 358.703 205.757 352.592 204.231C349.689 203.62 346.786 202.552 344.035 201.636C342.813 201.178 341.591 200.873 340.521 200.415L335.785 198.889L459.238 227.43L460.461 223.004L318.672 177.674L343.577 181.489L339.452 177.979C335.021 174.163 330.284 171.111 325.701 168.058C323.562 166.685 321.423 165.158 319.284 163.785C311.95 158.595 304.31 156.459 296.824 157.527C289.184 158.595 281.392 159.969 273.905 161.19C268.558 162.106 263.21 163.174 257.862 163.937C254.959 164.395 252.209 164.09 251.14 163.174C236.625 151.727 220.582 147.454 201.789 150.048C190.177 151.727 181.773 150.201 174.44 144.859C170.925 142.722 167.258 141.043 163.286 140.28C153.66 137.838 147.701 140.127 141.59 148.522C140.52 149.896 138.84 150.811 137.159 150.964C121.116 152.49 106.907 158.748 93.9198 170.195C89.3361 174.163 87.961 178.589 89.4889 183.626C90.4056 186.984 89.4889 189.579 86.4331 192.326C82.6134 195.989 78.9464 199.957 75.7379 203.926C72.3765 207.741 72.2237 211.71 75.5851 216.288C80.3215 222.851 84.9052 229.72 89.1833 236.283L91.0168 239.03C94.2253 244.067 98.9618 245.593 104.309 243.456C106.143 242.846 107.976 241.93 109.504 240.709C115.616 234.909 121.727 234.604 129.367 239.793C137.159 245.135 145.41 244.524 153.813 238.114C157.174 235.519 161.911 234.756 166.8 236.13C171.995 237.504 176.426 241.014 178.259 245.288C182.537 255.208 186.968 265.129 191.246 274.897C193.233 279.323 195.219 283.902 197.205 288.329C195.219 288.329 193.08 288.176 191.094 288.176C184.829 288.023 179.023 288.023 172.912 287.565C169.245 287.413 165.578 286.955 161.911 286.497C156.563 285.886 151.063 285.276 145.562 285.276C133.187 285.276 123.866 290.16 118.672 299.623C115.921 304.965 113.782 310.459 112.56 316.259C108.282 332.896 111.796 348.006 122.797 361.284C126.005 365.253 131.964 367.084 137.159 365.863C140.979 364.947 143.729 362.505 144.493 359.148C144.798 357.774 145.257 356.4 145.715 354.874C147.701 348.006 150.146 340.069 143.118 332.285C140.826 329.69 140.062 326.485 141.132 323.433C142.354 319.922 145.715 317.175 149.841 316.259C153.355 315.496 157.174 315.496 160.536 316.412C168.328 318.701 176.12 321.296 183.607 323.738C192.927 326.791 202.706 329.843 212.331 332.59C224.402 335.948 236.777 339.001 248.695 341.901C254.654 343.274 260.613 344.801 266.571 346.327C268.558 346.785 271.461 347.243 273.447 345.716C274.975 344.495 275.891 342.511 276.044 339.611C276.35 333.659 276.961 327.706 277.572 321.907C278.031 317.48 278.336 312.901 278.794 308.323C278.947 306.949 278.947 305.728 278.947 304.354C281.545 314.275 283.073 324.043 280.933 334.117C280.017 338.39 281.85 341.138 286.128 342.359C291.018 343.732 296.06 345.411 300.949 346.785C312.408 350.295 324.173 354.111 336.243 356.095C377.496 363.116 419.666 369.526 460.308 375.784C475.434 378.073 490.56 380.363 505.686 382.805C510.423 383.568 515.006 384.178 519.743 384.942C521.882 385.247 524.174 385.552 526.313 385.857L527.84 386.01L528.452 382.042L382.538 345.411C391.706 346.48 400.72 347.701 408.818 348.769C422.111 350.6 437.237 352.585 452.668 349.685C464.433 347.701 476.503 347.243 488.421 348.006C518.215 349.685 541.439 362.353 557.787 385.857C563.899 394.71 570.163 403.715 575.663 413.025C582.386 424.472 592.165 432.561 605.457 437.751C610.805 440.04 616.458 442.024 622.264 443.398C638.46 446.908 660.003 451.334 681.852 455.303C690.102 456.676 698.047 460.339 704.465 465.834C721.883 480.181 735.481 497.733 749.079 515.896C756.107 525.206 763.899 534.974 773.831 546.269C775.97 548.711 779.026 550.084 782.081 550.084C782.54 550.084 782.998 550.084 783.456 549.932C786.818 549.474 789.721 547.49 791.249 544.59C794.152 538.943 793.999 533.448 791.096 528.564C790.943 528.259 790.638 527.953 790.485 527.495C790.026 526.732 789.11 525.511 789.262 524.901C790.179 518.49 786.512 514.522 782.693 511.164C780.859 509.486 778.873 507.501 777.192 505.822C775.053 503.686 772.914 501.549 770.622 499.412C753.663 484.607 740.217 465.681 731.814 444.924L731.661 444.772C730.133 442.177 727.841 440.193 725.091 439.124C699.117 428.593 672.532 417.909 646.863 407.683L632.043 401.731L901.715 469.039L898.354 465.224C896.979 463.545 894.992 462.476 893.006 462.018C875.283 456.371 857.712 450.571 839.988 444.924C781.623 426.151 721.424 406.615 661.989 387.842C652.058 384.789 648.544 380.668 648.697 372.579C648.697 367.237 645.182 365.558 641.821 364.49C627.153 359.605 612.333 354.569 597.971 349.532L559.773 336.406L991.708 447.824L993.236 448.129L993.694 446.603C993.847 446.298 993.847 445.84 994 445.535L994.458 444.161L539.3 297.944ZM529.521 325.722L528.452 329.385L596.748 352.737C611.11 357.621 625.931 362.811 640.599 367.695C643.96 368.763 645.488 369.831 645.335 372.884C645.182 384.636 652.669 388.605 660.767 391.047C720.202 409.82 780.554 429.203 838.766 448.129C849.156 451.487 859.393 454.845 869.782 458.203L619.514 395.778L618.139 395.473L616.764 399.289L620.125 400.662C621.5 401.273 623.028 401.883 624.403 402.494L645.335 410.888C671.004 421.114 697.436 431.798 723.563 442.329C725.702 443.093 727.383 444.619 728.452 446.45C737.161 467.666 750.912 486.897 768.178 502.007C770.469 503.991 772.608 506.128 774.595 508.264C776.428 510.096 778.262 511.927 780.248 513.759C783.762 516.964 786.512 519.864 785.748 524.901C785.443 526.58 786.512 528.259 787.429 529.632C787.582 529.938 787.887 530.243 788.04 530.548C790.485 534.516 790.485 538.79 788.04 543.521C786.971 545.505 784.984 546.879 782.693 547.184C780.095 547.49 777.498 546.574 775.817 544.437C766.039 533.143 758.246 523.527 751.218 514.217C737.467 495.902 723.869 478.197 706.145 463.545C699.27 457.745 691.019 453.929 682.157 452.403C660.461 448.435 638.918 444.008 622.722 440.498C617.222 439.124 611.722 437.293 606.374 435.003C593.693 430.119 584.372 422.335 578.108 411.651C572.608 402.188 566.191 393.031 560.079 384.331C543.119 360.063 518.979 346.785 488.421 345.106C484.601 344.801 480.934 344.648 477.115 344.648C468.711 344.648 460.308 345.411 451.904 346.785C436.931 349.685 422.111 347.701 408.971 345.869C394.761 343.885 378.26 341.748 361.912 340.527L361.453 343.58L506.756 380.515C506.297 380.515 505.839 380.363 505.381 380.363C490.254 378.073 475.128 375.631 460.002 373.342C419.36 367.084 377.191 360.674 335.938 353.653C324.173 351.669 312.408 348.006 301.102 344.495C296.212 342.969 291.17 341.443 286.128 339.917C283.378 339.153 282.614 337.932 283.073 335.338C285.976 321.143 282.003 307.254 278.183 293.976L275.28 284.055L274.975 294.128C274.975 295.655 274.975 297.181 274.822 298.707C274.822 301.912 274.669 305.27 274.516 308.628C274.211 313.207 273.752 317.786 273.294 322.212C272.683 328.012 272.225 334.117 271.766 339.917C271.613 341.901 271.155 343.274 270.391 343.732C269.627 344.343 268.099 344.343 266.113 343.732C260.154 342.206 254.195 340.832 248.237 339.306C236.319 336.406 223.943 333.354 211.873 329.996C202.247 327.248 192.621 324.196 183.301 321.143C175.662 318.701 167.87 316.107 160.077 313.817C156.105 312.749 151.827 312.749 147.854 313.665C142.507 314.733 138.381 318.243 136.701 322.822C135.326 326.943 136.242 331.369 139.298 334.88C145.104 341.443 143.271 347.853 141.284 354.569C140.826 356.095 140.368 357.469 140.062 358.995C139.298 361.895 136.701 362.963 135.02 363.421C130.895 364.337 126.311 362.963 123.866 359.911C113.477 347.395 110.268 333.201 114.241 317.633C115.463 312.138 117.449 306.644 120.047 301.76C125.853 291.228 136.395 289.092 144.187 289.092C149.535 289.092 154.883 289.702 160.23 290.313C163.897 290.771 167.717 291.228 171.384 291.381C177.495 291.686 183.607 291.839 189.718 291.992C192.316 291.992 194.76 292.144 197.358 292.144L197.969 292.602L198.886 291.839C199.191 291.686 199.497 291.076 199.65 290.465L200.261 289.092H199.344C197.205 284.208 194.913 279.171 192.774 274.287C188.496 264.671 184.065 254.598 179.787 244.83C177.495 239.64 172.453 235.519 166.189 233.841C160.383 232.314 154.73 233.23 150.604 236.435C143.271 242.082 136.395 242.54 129.825 238.114C120.963 232.162 113.324 232.467 106.143 239.183C104.921 240.098 103.545 240.861 101.865 241.319C97.7395 242.846 94.6837 241.93 92.2391 238.114L90.4056 235.367C85.9747 228.651 81.5439 221.783 76.6546 215.22C74.21 211.862 74.21 209.42 76.6546 206.673C79.8632 202.705 83.5301 198.889 87.197 195.378C91.1696 191.868 92.5447 187.9 91.1696 183.474C89.9473 179.505 91.1696 176.3 94.6837 173.248C107.212 162.258 120.811 156.153 136.242 154.78C138.84 154.474 141.132 153.253 142.812 151.117C148.16 143.638 152.896 141.806 161.3 144.096C164.967 144.859 168.328 146.232 171.384 148.217C179.329 154.016 188.343 155.695 200.872 153.864C218.748 151.269 234.027 155.39 247.778 166.227C250.376 168.363 255.112 167.906 256.946 167.6C262.293 166.837 267.794 165.769 273.141 164.853C280.628 163.479 288.267 162.106 295.907 161.19C302.63 160.274 309.505 162.258 316.228 166.99C318.367 168.516 320.659 169.89 322.798 171.416C325.701 173.4 328.756 175.384 331.659 177.521L304.616 173.4L303.546 177.368L439.681 220.867L304.005 189.426L302.63 189.121L301.56 192.326L339.299 203.468C340.521 203.773 341.591 204.231 342.813 204.689C345.716 205.605 348.619 206.673 351.675 207.283C357.328 208.657 362.217 211.71 366.037 215.983C368.787 218.73 372.301 220.715 376.121 221.478C424.555 230.941 473.753 240.404 522.187 249.561C538.536 252.614 557.482 256.124 576.275 258.719C592.929 261.008 606.985 255.819 619.361 242.693C639.224 221.936 656.642 198.889 671.157 174.163C687.505 145.775 690.408 114.486 691.325 90.3709C691.63 75.4134 692.853 60.3033 695.144 45.3458C697.284 31.9146 705.381 20.6202 720.66 9.9363C727.994 4.74697 737.62 3.37332 746.176 6.42587C750.607 7.79952 753.51 10.0889 754.427 12.8362C755.343 15.5835 754.579 18.9413 751.982 22.6044C749.079 26.7253 745.87 30.8462 742.815 34.9672C739.912 38.9355 736.703 42.9038 733.953 47.0247C726.466 57.2508 722.341 69.3083 722.188 81.9764C721.883 104.413 718.368 127.917 711.034 155.848C706.604 172.637 698.506 188.968 684.449 208.657C671.004 227.583 655.878 245.44 639.224 261.466C637.237 263.45 635.404 265.434 633.418 267.571C632.501 268.64 631.431 269.708 630.362 270.929L628.834 272.608L820.126 346.937L559.926 273.676L558.704 277.492L595.832 291.534C599.04 292.755 602.401 293.976 605.61 295.197C613.861 298.402 622.417 301.607 630.82 304.507C636.168 306.339 638.307 308.781 638.154 313.665C638.154 315.344 638.307 317.175 638.612 319.159C638.612 319.464 638.765 319.77 638.765 320.228L502.63 285.581L501.561 289.244L959.622 436.988L529.521 325.722Z" fill="#131413"/>
<path d="M112.407 302.218L112.866 299.471L110.268 300.386C106.296 301.913 102.323 303.439 98.3508 304.813C89.0307 308.17 80.169 311.376 71.7656 315.802C64.8901 319.312 59.2369 326.028 54.3476 331.98L53.7365 332.743C50.8335 336.559 49.3056 341.138 49 346.022C49.1528 349.838 50.8335 353.501 54.042 355.79C55.1116 356.553 56.3339 356.706 57.709 356.706C58.9313 356.706 60.3064 356.553 61.6815 356.248C62.5982 356.095 63.515 355.943 64.2789 355.943C65.0428 355.943 65.654 355.638 66.2652 355.485C66.7235 355.332 67.1819 355.18 67.4875 355.18C76.3492 356.706 80.3217 355.79 84.4471 347.701C88.114 340.375 93.92 336.559 103.087 335.033C105.074 334.575 106.754 333.201 107.671 331.37L107.824 331.065C109.046 324.349 110.116 317.633 111.338 309.849C111.643 307.56 111.949 304.965 112.407 302.218ZM108.129 309.544C106.907 317.175 105.838 323.738 104.615 330.454C104.157 331.37 103.393 331.98 102.476 332.286C92.3921 333.964 85.8222 338.391 81.5441 346.633C78.1827 353.196 75.7381 353.806 67.9458 352.432C66.8763 352.28 65.9596 352.585 65.1956 352.89C64.7373 353.043 64.2789 353.196 63.9733 353.196C63.0566 353.196 62.1399 353.348 61.2231 353.501C59.2369 353.806 56.945 354.111 56.0283 353.501C53.7365 351.669 52.3614 348.922 52.2086 346.175C52.3614 342.054 53.7365 338.085 56.1811 334.728L56.7922 333.964C61.8343 328.012 66.8763 321.907 73.2935 318.549C81.5441 314.276 90.253 311.07 99.5732 307.713C102.629 306.644 105.838 305.423 109.046 304.202C108.588 306.186 108.435 307.865 108.129 309.544Z" fill="#131413"/>
<path d="M678.338 472.091C649.308 464.918 619.973 457.744 591.096 450.723C583.762 448.892 576.122 446.908 568.941 445.076C551.982 440.65 534.258 436.071 516.687 433.019C490.102 428.287 462.753 424.472 436.473 420.809C425.472 419.282 414.166 417.756 403.012 416.077C395.831 415.009 388.65 414.093 381.469 413.025L369.704 411.346L369.552 412.872C369.552 413.177 369.399 413.482 369.399 413.788L369.093 415.314L690.714 478.96L684.908 474.686C682.922 473.465 680.63 472.397 678.338 472.091ZM410.499 420.198C419.055 421.419 427.611 422.64 436.015 423.861C462.295 427.524 489.491 431.34 516.229 436.071C533.647 439.124 551.218 443.703 568.177 448.129C575.511 449.96 582.998 451.945 590.484 453.776C606.68 457.744 623.181 461.713 639.53 465.834L410.499 420.198Z" fill="#131413"/>
<path d="M408.512 404.173C416.763 405.241 425.166 406.31 433.417 407.378L442.432 408.446L443.043 404.478L272.989 369.221L271.461 368.916L270.544 373.037L271.919 373.495C276.197 374.868 280.475 376.089 284.753 377.463C294.532 380.516 304.616 383.721 314.7 386.621C317.297 387.384 319.895 388.147 322.492 388.91C333.34 392.115 344.647 395.473 355.953 397.457C368.023 399.594 380.399 400.968 392.47 402.341C397.664 402.799 403.165 403.41 408.512 404.173ZM323.256 385.858C320.659 385.094 318.061 384.331 315.464 383.568C307.366 381.279 299.115 378.684 291.17 376.242L414.013 401.731C412.332 401.578 410.651 401.273 408.971 401.12C403.623 400.51 398.123 399.899 392.775 399.289C380.858 397.915 368.482 396.542 356.564 394.405C345.258 392.268 334.104 389.063 323.256 385.858Z" fill="#131413"/>
<path d="M157.022 320.228C154.883 319.77 152.744 319.77 150.758 320.075C149.077 320.228 146.021 320.991 144.646 323.128C144.188 324.043 143.577 325.417 144.34 327.554C145.41 330.606 148.771 334.269 151.827 334.727C159.925 335.948 168.328 336.864 176.426 337.78C182.538 338.543 188.802 339.153 195.066 340.069C201.331 340.985 207.595 342.053 213.707 343.274C216.457 343.885 219.36 344.343 222.11 344.801L223.485 345.106L224.707 340.069L208.97 335.49C192.011 330.454 174.44 325.264 157.022 320.228ZM214.165 340.222C208.053 339.001 201.636 337.78 195.372 337.017C189.108 336.253 182.843 335.49 176.732 334.727C168.634 333.811 160.383 332.896 152.285 331.675C150.758 331.369 148.16 328.775 147.243 326.485C146.938 325.417 147.091 324.959 147.243 324.806C147.702 324.043 149.23 323.433 151.216 323.128C151.98 322.975 152.744 322.975 153.508 322.975C154.425 322.975 155.341 323.128 156.258 323.28C173.523 328.317 191.094 333.506 208.206 338.39L214.929 340.374C214.623 340.222 214.471 340.222 214.165 340.222Z" fill="#131413"/>
<path d="M101.559 188.357L101.101 188.51C99.5732 189.273 99.2676 191.257 98.9621 193.699C98.8093 194.767 98.6565 195.836 98.5037 196.904L97.7397 200.109L117.144 189.883L115.311 188.357C110.116 184.084 105.226 186.526 101.559 188.357Z" fill="#131413"/>
<path d="M159.161 148.827C153.049 148.98 144.799 154.169 141.132 160.427L138.687 164.395L146.938 161.037C152.744 158.748 156.258 158.137 158.397 159.358C160.536 160.427 162.217 163.479 163.744 169.127C164.967 173.705 165.272 178.589 165.425 183.168C165.578 185.305 165.731 187.442 165.883 189.579L166.342 193.394L168.786 190.342C176.579 180.268 174.745 159.511 165.272 151.117C163.592 149.743 161.453 148.98 159.161 148.827ZM168.786 184.084C168.786 183.779 168.786 183.321 168.786 183.016C168.481 178.132 168.175 173.095 166.953 168.363C165.12 161.648 163.133 158.137 159.925 156.611C158.702 156.001 157.327 155.695 155.799 155.695C153.66 155.695 151.063 156.306 147.702 157.527C151.216 154.474 155.799 152.185 159.161 152.032C160.689 152.185 162.217 152.643 163.286 153.711C170.162 159.664 172.453 174.621 168.786 184.084Z" fill="#131413"/>
</g>
</g>
</g>
<defs>
<clipPath id="clip0">
<rect width="477" height="592" fill="white"/>
</clipPath>
<clipPath id="clip1">
<rect width="945" height="548.085" fill="white" transform="translate(49 2)"/>
</clipPath>
</defs>
</svg>
