<svg width="32" height="32" viewBox="0 0 32 32" fill="none" xmlns="http://www.w3.org/2000/svg">
<path fill-rule="evenodd" clip-rule="evenodd" d="M4 0C1.79086 0 0 1.79086 0 4V28C0 30.2091 1.79086 32 4 32H28C30.2091 32 32 30.2091 32 28V4C32 1.79086 30.2091 0 28 0H4ZM20.614 7.76335C19.6362 7.51871 18.607 7.58025 17.6653 7.93964C16.7237 8.29904 15.9152 8.93896 15.3491 9.77285C14.8148 10.5599 14.5209 11.4838 14.5008 12.4324C13.4634 12.3376 12.45 12.0487 11.5143 11.5778C10.2877 10.9604 9.23271 10.0491 8.44346 8.9253C8.23642 8.63048 7.8868 8.46982 7.52824 8.50471C7.16968 8.53961 6.8576 8.76467 6.71129 9.09387L7.62409 9.49956C6.71129 9.09387 6.71108 9.09435 6.71085 9.09486L6.71034 9.09602L6.70907 9.09891L6.70559 9.10686L6.69506 9.13136C6.68651 9.15147 6.67496 9.17909 6.66088 9.21383C6.63274 9.2833 6.59442 9.38145 6.54967 9.50523C6.46028 9.75246 6.34458 10.1038 6.23313 10.5348C6.01143 11.392 5.8 12.5892 5.86051 13.9204C5.92122 15.256 6.25712 16.7473 7.14942 18.1562C7.78493 19.1596 8.68345 20.0907 9.91123 20.8848C8.65783 21.4242 7.29291 21.6806 5.91485 21.6258C5.45213 21.6074 5.0373 21.9091 4.91225 22.355C4.7872 22.8009 4.98465 23.2743 5.38946 23.4992C9.60347 25.8403 14.3385 25.865 18.0481 23.8906C21.782 21.9032 24.3751 17.9437 24.3751 12.5625L24.3751 12.5592C24.3747 12.4318 24.3693 12.3046 24.3591 12.1777C25.1987 11.2328 25.7964 10.0948 26.0967 8.86163C26.1953 8.45663 26.0324 8.03293 25.6878 7.79837C25.3433 7.5638 24.8893 7.56758 24.5487 7.80785C23.958 8.22451 23.3174 8.56401 22.6426 8.81873C22.0611 8.3146 21.3668 7.95172 20.614 7.76335ZM7.85845 13.8296C7.82004 12.9847 7.91768 12.1922 8.05272 11.5378C8.80588 12.2713 9.66935 12.8882 10.6151 13.3643C12.1364 14.13 13.8235 14.5076 15.526 14.4634C16.068 14.4494 16.5001 14.0059 16.5001 13.4638V12.5888H16.5002L16.5 12.5754C16.492 11.9772 16.6679 11.3911 17.0038 10.8962C17.3398 10.4013 17.8197 10.0215 18.3785 9.80817C18.9374 9.59487 19.5482 9.55834 20.1285 9.70354C20.7088 9.84873 21.2305 10.1686 21.6231 10.62C21.8812 10.9168 22.2893 11.0347 22.6659 10.9213C22.7279 10.9026 22.7896 10.8834 22.8512 10.8637C22.7713 10.9529 22.6885 11.0398 22.6029 11.1243C22.3653 11.3586 22.2602 11.6961 22.3229 12.024C22.3569 12.2021 22.3744 12.3829 22.3751 12.5642C22.3746 17.2446 20.1554 20.5033 17.1084 22.1251C14.9854 23.2551 12.4117 23.6159 9.81584 23.0594C10.7831 22.7371 11.7077 22.2821 12.5617 21.7024C12.8622 21.4985 13.0284 21.1477 12.9961 20.7861C12.9638 20.4244 12.738 20.1087 12.4062 19.9612C10.5974 19.1573 9.50133 18.1317 8.83906 17.0861C8.17277 16.034 7.90711 14.9002 7.85845 13.8296Z" fill="#2BA55D"/>
</svg>
