<svg width="32" height="32" viewBox="0 0 32 32" fill="none" xmlns="http://www.w3.org/2000/svg">
<path fill-rule="evenodd" clip-rule="evenodd" d="M4 0C1.79086 0 0 1.79086 0 4V28C0 30.2091 1.79086 32 4 32H28C30.2091 32 32 30.2091 32 28V4C32 1.79086 30.2091 0 28 0H4ZM20.739 7.14714C19.7612 6.9025 18.732 6.96404 17.7903 7.32343C16.8487 7.68283 16.0402 8.32275 15.4741 9.15664C14.9398 9.94364 14.6459 10.8676 14.6258 11.8162C13.5884 11.7214 12.575 11.4325 11.6393 10.9616C10.4127 10.3442 9.35771 9.43294 8.56846 8.30909C8.36142 8.01427 8.0118 7.85361 7.65324 7.8885C7.29468 7.9234 6.9826 8.14846 6.83629 8.47766L7.74909 8.88335C6.83629 8.47766 6.83608 8.47814 6.83585 8.47865L6.83534 8.47981L6.83407 8.4827L6.83059 8.49065L6.82006 8.51515C6.81151 8.53526 6.79996 8.56288 6.78588 8.59762C6.75774 8.66709 6.71942 8.76524 6.67467 8.88901C6.58528 9.13625 6.46958 9.48762 6.35813 9.91857C6.13643 10.7758 5.925 11.973 5.98551 13.3042C6.04622 14.6398 6.38212 16.131 7.27442 17.5399C7.90993 18.5434 8.80845 19.4744 10.0362 20.2685C8.78283 20.808 7.41791 21.0644 6.03985 21.0096C5.57713 20.9912 5.1623 21.2929 5.03725 21.7388C4.9122 22.1847 5.10965 22.6581 5.51446 22.883C9.72847 25.2241 14.4635 25.2488 18.1731 23.2744C21.907 21.287 24.5001 17.3275 24.5001 11.9463L24.5001 11.943C24.4997 11.8156 24.4943 11.6883 24.4841 11.5615C25.3237 10.6166 25.9214 9.47858 26.2217 8.24542C26.3203 7.84042 26.1574 7.41672 25.8128 7.18215C25.4683 6.94759 25.0143 6.95137 24.6737 7.19164C24.083 7.6083 23.4424 7.9478 22.7676 8.20252C22.1861 7.69839 21.4918 7.33551 20.739 7.14714ZM7.98345 13.2134C7.94504 12.3685 8.04268 11.576 8.17772 10.9216C8.93088 11.6551 9.79435 12.272 10.7401 12.748C12.2614 13.5138 13.9485 13.8914 15.651 13.8472C16.193 13.8332 16.6251 13.3897 16.6251 12.8475V11.9725H16.6252L16.625 11.9591C16.617 11.361 16.7929 10.7749 17.1288 10.28C17.4648 9.78505 17.9447 9.40526 18.5035 9.19196C19.0624 8.97865 19.6732 8.94213 20.2535 9.08733C20.8338 9.23252 21.3555 9.55243 21.7481 10.0038C22.0062 10.3006 22.4143 10.4185 22.7909 10.3051C22.8529 10.2864 22.9146 10.2672 22.9762 10.2474C22.8963 10.3367 22.8135 10.4236 22.7279 10.508C22.4903 10.7424 22.3852 11.0799 22.4479 11.4078C22.4819 11.5859 22.4994 11.7667 22.5001 11.948C22.4996 16.6284 20.2804 19.8871 17.2334 21.5089C15.1104 22.6389 12.5367 22.9997 9.94084 22.4432C10.9081 22.1209 11.8327 21.6659 12.6867 21.0862C12.9872 20.8823 13.1534 20.5315 13.1211 20.1699C13.0888 19.8082 12.863 19.4925 12.5312 19.345C10.7224 18.5411 9.62633 17.5155 8.96406 16.4698C8.29777 15.4178 8.03211 14.284 7.98345 13.2134Z" fill="#757B75"/>
</svg>
